<svg width="17" height="14" viewBox="0 0 17 14" fill="none" xmlns="http://www.w3.org/2000/svg">
<mask id="mask0_711_4666" style="mask-type:alpha" maskUnits="userSpaceOnUse" x="0" y="0" width="17" height="14">
<rect x="17" y="14" width="17" height="14" transform="rotate(-180 17 14)" fill="#D9D9D9"/>
</mask>
<g mask="url(#mask0_711_4666)">
<path d="M16.5513 7.70711C16.9419 7.31658 16.9419 6.68342 16.5513 6.29289L10.1874 -0.0710678C9.79686 -0.461592 9.16369 -0.461592 8.77317 -0.0710678C8.38265 0.319457 8.38265 0.952621 8.77317 1.34315L14.43 7L8.77317 12.6569C8.38265 13.0474 8.38265 13.6805 8.77317 14.0711C9.16369 14.4616 9.79686 14.4616 10.1874 14.0711L16.5513 7.70711ZM1.84424 8H15.8442V6H1.84424V8Z" fill="#0A0A10"/>
<path d="M16.5513 7.70711C16.9419 7.31658 16.9419 6.68342 16.5513 6.29289L10.1874 -0.0710678C9.79686 -0.461592 9.16369 -0.461592 8.77317 -0.0710678C8.38265 0.319457 8.38265 0.952621 8.77317 1.34315L14.43 7L8.77317 12.6569C8.38265 13.0474 8.38265 13.6805 8.77317 14.0711C9.16369 14.4616 9.79686 14.4616 10.1874 14.0711L16.5513 7.70711ZM1.84424 8H15.8442V6H1.84424V8Z" fill="black" fill-opacity="0.2"/>
</g>
</svg>
