<svg width="200" height="200" viewBox="0 0 200 200" fill="none" xmlns="http://www.w3.org/2000/svg">
<g opacity="0.7">
<path d="M62.9186 20.3879C65.2221 22.8081 67.9421 25.6615 70.85 28.6053C72.185 24.2336 73.4177 19.5621 74.4885 15.2785C73.4463 14.1909 72.4539 13.1486 71.533 12.1847C70.1052 10.6855 68.8701 9.39089 67.8088 8.30094C66.7078 7.17095 65.203 6.52461 63.6254 6.50408C62.0479 6.48355 60.5268 7.09052 59.3967 8.19148C58.8368 8.73674 58.3899 9.38695 58.0814 10.105C57.7729 10.823 57.6089 11.5948 57.5987 12.3762C57.5886 13.1577 57.7324 13.9335 58.0222 14.6593C58.3119 15.3851 58.7417 16.0468 59.2872 16.6064C60.301 17.6416 61.5146 18.9148 62.9186 20.3879Z" fill="url(#paint0_linear_6748_5883)"/>
<path d="M140.613 8.18672C139.482 7.08576 137.961 6.47878 136.384 6.49931C134.806 6.51984 133.301 7.16619 132.2 8.29618C131.139 9.38612 129.904 10.676 128.476 12.18C124.017 16.8634 117.908 23.2746 112.109 28.5387C103.823 36.0588 100.67 37.1297 100.003 37.2796C99.4681 37.1583 97.3049 36.4348 92.1292 32.1988C91.5652 34.1359 90.9774 36.0612 90.3658 37.9317C89.6234 40.2044 88.8904 42.2748 88.1551 44.162C92.9763 47.6364 96.7219 49.1952 100.003 49.1952C104.851 49.1952 110.683 45.8135 119.517 37.8865C125.823 32.2249 132.341 25.3831 137.098 20.3879C138.502 18.9148 139.715 17.6416 140.729 16.6016C141.274 16.0415 141.703 15.3795 141.993 14.6535C142.282 13.9274 142.425 13.1515 142.414 12.37C142.403 11.5886 142.239 10.8169 141.929 10.0991C141.62 9.38133 141.173 8.7315 140.613 8.18672Z" fill="url(#paint1_linear_6748_5883)"/>
<path d="M181.077 40.7922C180.865 40.0401 180.507 39.3371 180.023 38.7233C179.539 38.1096 178.939 37.5972 178.258 37.2153C177.576 36.8334 176.826 36.5896 176.05 36.4977C175.274 36.4059 174.487 36.4678 173.735 36.6799C172.272 37.094 170.556 37.5985 168.569 38.1816C162.365 40.0069 153.867 42.5056 146.214 44.1644C135.268 46.5441 132.015 45.8849 131.363 45.6827C130.958 45.309 129.459 43.6003 127.079 37.3534C125.623 38.7503 124.15 40.1259 122.687 41.4395C120.909 43.0387 119.238 44.4618 117.658 45.7231C120.095 51.1419 122.558 54.3617 125.404 56.0062C127.491 57.2104 130.206 57.8124 133.84 57.8124C137.474 57.8124 142.114 57.1985 147.949 55.9657C156.242 54.2142 165.306 51.5488 171.924 49.6022C173.876 49.0286 175.563 48.5313 176.962 48.1386C177.715 47.9269 178.419 47.5689 179.033 47.085C179.647 46.6011 180.16 46.0008 180.542 45.3185C180.924 44.6362 181.168 43.8852 181.26 43.1085C181.352 42.3319 181.289 41.5448 181.077 40.7922Z" fill="url(#paint2_linear_6748_5883)"/>
<path d="M107.69 12.5203C108.477 15.7687 109.405 19.6001 110.45 23.6029C113.794 20.4854 117.196 17.0538 120.266 13.8791C119.907 12.4132 119.569 11.0234 119.255 9.71927C118.779 7.70597 118.346 5.96634 117.972 4.48373C117.78 3.72649 117.44 3.01457 116.972 2.38864C116.505 1.76271 115.918 1.23503 115.247 0.835704C114.575 0.436383 113.832 0.173256 113.059 0.0613437C112.285 -0.0505682 111.498 -0.00906573 110.74 0.18347C109.983 0.37596 109.271 0.715716 108.645 1.18335C108.02 1.65098 107.492 2.23732 107.093 2.9089C106.693 3.58047 106.43 4.32412 106.318 5.09739C106.206 5.87066 106.248 6.65842 106.44 7.41565C106.797 8.8221 107.211 10.5308 107.69 12.5203Z" fill="url(#paint3_linear_6748_5883)"/>
<path d="M195.516 82.0315C194.041 81.6555 192.304 81.2343 190.281 80.7488C183.996 79.2257 175.387 77.141 167.929 74.7517C157.275 71.3344 154.772 69.1402 154.31 68.6404C154.146 68.1121 153.691 65.8799 154.772 59.276C152.811 59.7519 150.85 60.2112 148.925 60.6182C146.557 61.1179 144.403 61.5177 142.423 61.8223C141.826 67.7314 142.347 71.7508 143.992 74.597C146.414 78.7926 152.259 82.1552 163.536 85.8344C171.593 88.4664 180.777 90.6892 187.48 92.3122C189.458 92.7881 191.166 93.2046 192.575 93.5639C193.056 93.6853 193.55 93.7468 194.046 93.7472C195.368 93.7462 196.651 93.3049 197.695 92.493C198.738 91.6811 199.481 90.5449 199.807 89.2637C200.196 87.7357 199.963 86.1157 199.158 84.7596C198.354 83.4036 197.044 82.4223 195.516 82.0315Z" fill="url(#paint4_linear_6748_5883)"/>
<path d="M160.616 35.54C161.035 34.0931 161.442 32.7104 161.806 31.4301C162.391 29.443 162.896 27.7272 163.307 26.2636C163.735 24.745 163.542 23.1188 162.771 21.7424C162 20.3661 160.714 19.3524 159.195 18.9243C157.677 18.4966 156.05 18.6896 154.674 19.4607C153.298 20.2319 152.284 21.5181 151.856 23.0366C151.461 24.4335 150.966 26.1303 150.39 28.0722C149.439 31.2802 148.337 35.0617 147.24 39.0526C151.704 38.0245 156.368 36.7537 160.616 35.54Z" fill="url(#paint5_linear_6748_5883)"/>
<path d="M184.729 74.4828C185.817 73.4405 186.871 72.4457 187.823 71.5271C189.322 70.0992 190.619 68.8642 191.706 67.8028C192.266 67.2575 192.713 66.6073 193.022 65.8892C193.33 65.1712 193.494 64.3994 193.504 63.618C193.515 62.8365 193.371 62.0607 193.081 61.3349C192.791 60.6091 192.361 59.9475 191.816 59.3878C190.715 58.2581 189.21 57.6122 187.632 57.5922C186.055 57.5721 184.534 58.1795 183.404 59.2807C182.362 60.2945 181.091 61.5082 179.615 62.9123C177.195 65.2159 174.342 67.936 171.401 70.8441C175.765 72.1792 180.446 73.4095 184.729 74.4828Z" fill="url(#paint6_linear_6748_5883)"/>
<path d="M187.823 128.471C183.14 124.011 176.729 117.902 171.465 112.103C163.948 103.818 162.877 100.665 162.725 99.9989C162.846 99.4611 163.572 97.3002 167.808 92.1218C165.868 91.5578 163.943 90.97 162.073 90.3608C159.8 89.6183 157.732 88.8853 155.843 88.1499C152.368 92.969 150.812 96.7172 150.812 99.9989C150.812 104.844 154.193 110.677 162.118 119.513C167.779 125.82 174.621 132.338 179.616 137.095C181.091 138.499 182.362 139.713 183.404 140.727C184.513 141.812 186.003 142.418 187.554 142.416C188.348 142.417 189.135 142.258 189.867 141.949C190.599 141.64 191.262 141.188 191.816 140.62C192.362 140.06 192.791 139.398 193.081 138.672C193.371 137.947 193.515 137.171 193.505 136.389C193.494 135.608 193.33 134.836 193.022 134.118C192.713 133.4 192.266 132.75 191.707 132.205C190.614 131.134 189.317 129.901 187.823 128.471Z" fill="url(#paint7_linear_6748_5883)"/>
<path d="M161.817 168.568C159.995 162.364 157.494 153.868 155.835 146.212C153.467 135.265 154.114 132.009 154.319 131.357C154.693 130.953 156.399 129.454 162.648 127.074C161.251 125.617 159.876 124.147 158.562 122.681C156.965 120.903 155.54 119.232 154.279 117.652C148.858 120.091 145.638 122.552 143.996 125.398C141.574 129.596 141.583 136.345 144.034 147.947C145.786 156.24 148.453 165.305 150.4 171.923C150.973 173.875 151.468 175.562 151.863 176.959C152.214 178.205 152.961 179.303 153.992 180.086C155.022 180.868 156.28 181.294 157.575 181.297C158.122 181.293 158.665 181.213 159.19 181.059C160.707 180.633 161.993 179.622 162.766 178.249C163.539 176.876 163.735 175.252 163.312 173.734C162.907 172.271 162.403 170.555 161.817 168.568Z" fill="url(#paint8_linear_6748_5883)"/>
<path d="M199.816 110.734C199.624 109.977 199.284 109.264 198.816 108.638C198.348 108.012 197.762 107.484 197.09 107.085C196.418 106.686 195.674 106.423 194.901 106.311C194.127 106.199 193.339 106.241 192.582 106.434C191.173 106.793 189.465 107.207 187.487 107.686C184.237 108.471 180.408 109.399 176.405 110.446C179.522 113.778 182.954 117.19 186.128 120.263C187.592 119.903 188.984 119.563 190.286 119.249C192.299 118.773 194.038 118.342 195.521 117.966C197.049 117.577 198.36 116.596 199.166 115.24C199.971 113.883 200.205 112.263 199.816 110.734Z" fill="url(#paint9_linear_6748_5883)"/>
<path d="M139.382 148.932C138.89 146.593 138.49 144.432 138.192 142.431C132.281 141.831 128.262 142.354 125.416 143.996C121.218 146.419 117.858 152.264 114.177 163.542C111.559 171.6 109.322 180.783 107.699 187.487C107.223 189.467 106.807 191.176 106.45 192.582C106.062 194.109 106.296 195.728 107.101 197.083C107.905 198.438 109.214 199.419 110.741 199.81C111.221 199.933 111.715 199.995 112.211 199.995C113.531 199.995 114.814 199.556 115.857 198.747C116.9 197.938 117.644 196.805 117.972 195.526C118.346 194.053 118.767 192.313 119.255 190.29C120.776 184.005 122.86 175.395 125.252 167.939C128.667 157.285 130.861 154.782 131.363 154.318C131.889 154.153 134.123 153.699 140.724 154.779C140.244 152.818 139.789 150.857 139.382 148.932Z" fill="url(#paint10_linear_6748_5883)"/>
<path d="M176.964 151.864C175.565 151.471 173.871 150.974 171.927 150.4C168.719 149.449 164.938 148.344 160.947 147.25C161.977 151.7 163.246 156.364 164.459 160.612C165.909 161.033 167.289 161.44 168.569 161.816C170.556 162.399 172.272 162.904 173.735 163.318C174.487 163.53 175.274 163.592 176.05 163.5C176.826 163.408 177.576 163.164 178.258 162.783C178.939 162.401 179.539 161.888 180.023 161.275C180.507 160.661 180.865 159.958 181.077 159.206C181.289 158.454 181.351 157.667 181.259 156.891C181.167 156.115 180.923 155.365 180.541 154.683C180.159 154.001 179.647 153.401 179.033 152.918C178.42 152.434 177.717 152.076 176.964 151.864Z" fill="url(#paint11_linear_6748_5883)"/>
<path d="M109.644 162.064C110.386 159.791 111.119 157.723 111.854 155.836C107.033 152.361 103.288 150.803 100.004 150.803C95.1586 150.803 89.326 154.184 80.4903 162.111C74.1842 167.775 67.6663 174.615 62.9093 179.61C61.5053 181.083 60.2917 182.356 59.2779 183.396C58.7325 183.956 58.3026 184.617 58.0129 185.343C57.7231 186.069 57.5793 186.845 57.5894 187.626C57.5996 188.408 57.7636 189.18 58.0721 189.898C58.3806 190.616 58.8275 191.266 59.3874 191.811C60.5175 192.912 62.0386 193.519 63.6161 193.499C65.1937 193.478 66.6985 192.832 67.7995 191.702C68.8608 190.612 70.0959 189.322 71.5237 187.818C75.9832 183.134 82.0918 176.723 87.8911 171.459C96.1771 163.939 99.3301 162.868 99.9941 162.718C100.532 162.84 102.695 163.563 107.871 167.799C108.444 165.862 109.032 163.937 109.644 162.064Z" fill="url(#paint12_linear_6748_5883)"/>
<path d="M137.091 179.61C134.785 177.19 132.065 174.336 129.159 171.393C127.824 175.764 126.591 180.436 125.518 184.719C126.563 185.807 127.555 186.849 128.476 187.813C129.904 189.312 131.139 190.607 132.2 191.697C132.754 192.266 133.416 192.719 134.148 193.028C134.88 193.336 135.666 193.495 136.46 193.494C138.011 193.494 139.501 192.889 140.612 191.806C141.172 191.261 141.619 190.611 141.928 189.893C142.236 189.175 142.4 188.403 142.41 187.622C142.421 186.84 142.277 186.064 141.987 185.339C141.697 184.613 141.267 183.951 140.722 183.391C139.706 182.356 138.495 181.083 137.091 179.61Z" fill="url(#paint13_linear_6748_5883)"/>
<path d="M92.3196 187.489C91.532 184.241 90.6039 180.41 89.5568 176.404C86.2253 179.522 82.8152 182.954 79.7431 186.128C80.1024 187.594 80.4403 188.984 80.7544 190.29C81.2304 192.304 81.6635 194.041 82.0371 195.514C82.3624 196.796 83.1053 197.933 84.1486 198.745C85.1919 199.557 86.476 199.999 87.7983 200C88.2943 200 88.7884 199.938 89.2689 199.814C90.0261 199.622 90.738 199.282 91.3639 198.814C91.9898 198.347 92.5174 197.761 92.9167 197.089C93.316 196.417 93.5792 195.674 93.6911 194.9C93.803 194.127 93.7615 193.339 93.5689 192.582C93.212 191.176 92.7979 189.467 92.3196 187.489Z" fill="url(#paint14_linear_6748_5883)"/>
<path d="M68.6467 154.315C69.0513 154.689 70.5505 156.398 72.9301 162.644C74.3865 161.248 75.8571 159.872 77.323 158.558C79.1006 156.959 80.7712 155.536 82.3513 154.275C79.9145 148.856 77.4515 145.636 74.6054 143.992C70.4101 141.569 63.6589 141.581 52.0604 144.032C43.7673 145.784 34.7031 148.449 28.0853 150.396C26.1339 150.969 24.4468 151.467 23.0475 151.859C22.2954 152.071 21.5925 152.429 20.9787 152.913C20.365 153.397 19.8526 153.997 19.4708 154.678C19.0889 155.36 18.8451 156.11 18.7533 156.886C18.6614 157.662 18.7233 158.449 18.9354 159.201C19.1474 159.953 19.5054 160.656 19.9891 161.27C20.4727 161.884 21.0726 162.396 21.7543 162.778C22.436 163.16 23.1863 163.404 23.9623 163.495C24.7382 163.587 25.5247 163.525 26.2767 163.313C27.7402 162.899 29.456 162.395 31.443 161.812C37.6468 159.986 46.1446 157.487 53.7976 155.829C64.7298 153.463 67.9947 154.118 68.6467 154.315Z" fill="url(#paint15_linear_6748_5883)"/>
<path d="M45.6899 131.357C45.8541 131.886 46.3086 134.12 45.2282 140.722C47.1891 140.246 49.1499 139.787 51.0751 139.38C53.4428 138.88 55.5964 138.48 57.5763 138.175C58.1736 132.266 57.6525 128.247 56.0081 125.401C53.5856 121.205 47.7412 117.843 36.4758 114.163C28.4182 111.531 19.2351 109.309 12.5292 107.686C10.5517 107.21 8.8431 106.793 7.43433 106.434C6.67714 106.241 5.88944 106.2 5.11621 106.312C4.34297 106.424 3.59935 106.687 2.92781 107.086C2.25627 107.485 1.66995 108.013 1.20234 108.639C0.734736 109.265 0.394997 109.977 0.202517 110.734C0.00999066 111.491 -0.0315097 112.279 0.0803965 113.052C0.192303 113.826 0.455417 114.569 0.854719 115.241C1.25402 115.912 1.78169 116.499 2.40759 116.966C3.03349 117.434 3.74537 117.774 4.50258 117.966C5.97798 118.342 7.71751 118.764 9.73785 119.249C16.0226 120.772 24.6298 122.857 32.0877 125.246C42.7248 128.654 45.2282 130.858 45.6899 131.357Z" fill="url(#paint16_linear_6748_5883)"/>
<path d="M39.3934 164.458C38.9722 165.905 38.5676 167.287 38.2035 168.568C37.6181 170.555 37.1136 172.271 36.702 173.734C36.2742 175.253 36.4672 176.879 37.2383 178.255C38.0094 179.632 39.2956 180.645 40.814 181.074C41.3391 181.227 41.8828 181.307 42.4298 181.312C43.7245 181.307 44.9822 180.879 46.0121 180.095C47.0419 179.31 47.7877 178.211 48.1363 176.964C48.5313 175.567 49.0263 173.87 49.5998 171.928C50.5516 168.72 51.6558 164.939 52.7504 160.948C48.3028 161.971 43.6411 163.244 39.3934 164.458Z" fill="url(#paint17_linear_6748_5883)"/>
<path d="M15.2967 125.515L12.2031 128.473C10.7039 129.901 9.40938 131.134 8.31949 132.195C7.75981 132.74 7.31306 133.391 7.00476 134.109C6.69647 134.827 6.53267 135.599 6.52273 136.38C6.51278 137.162 6.65689 137.938 6.94681 138.663C7.23673 139.389 7.66678 140.051 8.2124 140.61C8.7666 141.179 9.42899 141.63 10.1606 141.939C10.8921 142.248 11.678 142.407 12.472 142.407C14.0239 142.409 15.5148 141.802 16.6245 140.717C17.6645 139.703 18.9376 138.492 20.4106 137.088C22.8307 134.782 25.6863 132.062 28.6276 129.154C24.2442 127.819 19.5801 126.588 15.2967 125.515Z" fill="url(#paint18_linear_6748_5883)"/>
<path d="M12.1887 71.5247C16.8719 75.9868 23.2851 82.0958 28.5465 87.8953C36.0663 96.1793 37.1371 99.3326 37.2895 99.9989C37.1657 100.537 36.4423 102.698 32.2065 107.876C34.1459 108.44 36.0711 109.028 37.9415 109.637C40.2141 110.38 42.282 111.113 44.1715 111.848C47.6434 107.029 49.2021 103.281 49.2021 99.9989C49.2021 95.1537 45.8206 89.3208 37.8963 80.4846C32.2327 74.1782 25.3911 67.6623 20.3962 62.9028C18.9232 61.4987 17.65 60.285 16.6101 59.2736C15.4804 58.1723 13.9594 57.5649 12.3819 57.585C10.8043 57.6051 9.29937 58.251 8.19799 59.3807C7.65237 59.9402 7.22232 60.6017 6.9324 61.3274C6.64248 62.0531 6.49837 62.8289 6.50832 63.6103C6.51826 64.3918 6.68206 65.1636 6.99035 65.8817C7.29865 66.5999 7.7454 67.2502 8.30508 67.7956C9.39497 68.8641 10.6895 70.0969 12.1887 71.5247Z" fill="url(#paint19_linear_6748_5883)"/>
<path d="M7.42478 93.564C8.83355 93.2046 10.5422 92.7906 12.5197 92.3122C15.7679 91.5269 19.5992 90.5988 23.6018 89.5517C20.4844 86.22 17.0529 82.8074 13.8784 79.735C12.4149 80.0944 11.0228 80.4347 9.71879 80.7488C7.70559 81.2248 5.96843 81.6555 4.48351 82.0315C3.72631 82.224 3.01442 82.5638 2.38852 83.0314C1.76262 83.499 1.23497 84.0854 0.835667 84.757C0.436366 85.4285 0.173251 86.1722 0.061345 86.9455C-0.0505613 87.7187 -0.0090754 88.5065 0.183451 89.2637C0.50917 90.5449 1.25231 91.6812 2.29555 92.4931C3.3388 93.3049 4.62272 93.7462 5.94463 93.7472C6.4437 93.7477 6.94089 93.6861 7.42478 93.564Z" fill="url(#paint20_linear_6748_5883)"/>
<path d="M55.9699 52.051C54.2185 43.755 51.5509 34.6904 49.6043 28.0722C49.0308 26.1208 48.5359 24.4335 48.1408 23.0366C47.7128 21.5181 46.6991 20.2319 45.3229 19.4607C43.9466 18.6896 42.3204 18.4966 40.8019 18.9243C39.2835 19.3524 37.9973 20.3661 37.2262 21.7424C36.4551 23.1188 36.2622 24.745 36.6899 26.2636C37.1016 27.7272 37.606 29.443 38.1914 31.4301C40.0143 37.6342 42.5153 46.1325 44.1739 53.7859C46.5417 64.721 45.8944 67.9884 45.6898 68.6405C45.3162 69.045 43.6076 70.5443 37.3609 72.9241C38.7578 74.3805 40.1309 75.8512 41.4468 77.3148C43.0436 79.0949 44.469 80.7655 45.7302 82.3457C51.1487 79.9064 54.3708 77.4457 56.0128 74.5995C58.4305 70.3991 58.4186 63.6572 55.9699 52.051Z" fill="url(#paint21_linear_6748_5883)"/>
<path d="M23.0447 48.1339C24.444 48.5265 26.1383 49.0239 28.0825 49.5974C31.2903 50.5493 35.0716 51.6536 39.0623 52.7483C38.0319 48.2957 36.7611 43.6313 35.5475 39.3857C34.1007 38.9645 32.7205 38.5576 31.4402 38.1816C29.4532 37.5985 27.7374 37.094 26.2739 36.6799C25.5219 36.4678 24.7354 36.4059 23.9595 36.4977C23.1835 36.5896 22.4332 36.8334 21.7515 37.2153C21.0698 37.5972 20.47 38.1096 19.9863 38.7233C19.5026 39.3371 19.1446 40.0401 18.9327 40.7922C18.7205 41.5443 18.6586 42.3308 18.7505 43.1068C18.8423 43.8828 19.0861 44.6331 19.468 45.3149C19.8498 45.9966 20.3623 46.5965 20.976 47.0801C21.5897 47.5638 22.2926 47.9219 23.0447 48.1339Z" fill="url(#paint22_linear_6748_5883)"/>
<path d="M89.2687 0.18347C88.5115 -0.00906573 87.7238 -0.0505682 86.9506 0.0613437C86.1774 0.173256 85.4338 0.436383 84.7622 0.835704C84.0907 1.23503 83.5044 1.76271 83.0368 2.38864C82.5691 3.01457 82.2294 3.72649 82.0369 4.48373C81.6633 5.95682 81.2421 7.69407 80.7543 9.71927C79.2337 16.0043 77.1491 24.6144 74.7575 32.0726C71.3427 42.7269 69.1463 45.2305 68.6465 45.6945C68.1206 45.8587 65.8861 46.3133 59.2849 45.2328C59.7608 47.1914 60.2201 49.1524 60.6247 51.0776C61.1196 53.4193 61.5194 55.5778 61.8145 57.5792C63.2564 57.7311 64.7051 57.8105 66.155 57.8172C69.7864 57.8172 72.504 57.2151 74.5909 56.0109C78.7887 53.5883 82.1488 47.7411 85.8301 36.4633C88.4478 28.4054 90.6846 19.2218 92.3076 12.5179C92.7835 10.5403 93.2 8.8316 93.5569 7.42515C93.751 6.66807 93.7941 5.88016 93.6837 5.10642C93.5732 4.33269 93.3114 3.58832 92.9131 2.91581C92.5149 2.2433 91.9881 1.65583 91.3628 1.18701C90.7374 0.718182 90.0259 0.37719 89.2687 0.18347Z" fill="url(#paint23_linear_6748_5883)"/>
</g>
<defs>
<linearGradient id="paint0_linear_6748_5883" x1="100" y1="0" x2="100" y2="200" gradientUnits="userSpaceOnUse">
<stop stop-color="#007BF8"/>
<stop offset="1" stop-color="#8EFFFF"/>
</linearGradient>
<linearGradient id="paint1_linear_6748_5883" x1="100" y1="0" x2="100" y2="200" gradientUnits="userSpaceOnUse">
<stop stop-color="#007BF8"/>
<stop offset="1" stop-color="#8EFFFF"/>
</linearGradient>
<linearGradient id="paint2_linear_6748_5883" x1="100" y1="0" x2="100" y2="200" gradientUnits="userSpaceOnUse">
<stop stop-color="#007BF8"/>
<stop offset="1" stop-color="#8EFFFF"/>
</linearGradient>
<linearGradient id="paint3_linear_6748_5883" x1="100" y1="0" x2="100" y2="200" gradientUnits="userSpaceOnUse">
<stop stop-color="#007BF8"/>
<stop offset="1" stop-color="#8EFFFF"/>
</linearGradient>
<linearGradient id="paint4_linear_6748_5883" x1="100" y1="0" x2="100" y2="200" gradientUnits="userSpaceOnUse">
<stop stop-color="#007BF8"/>
<stop offset="1" stop-color="#8EFFFF"/>
</linearGradient>
<linearGradient id="paint5_linear_6748_5883" x1="100" y1="0" x2="100" y2="200" gradientUnits="userSpaceOnUse">
<stop stop-color="#007BF8"/>
<stop offset="1" stop-color="#8EFFFF"/>
</linearGradient>
<linearGradient id="paint6_linear_6748_5883" x1="100" y1="0" x2="100" y2="200" gradientUnits="userSpaceOnUse">
<stop stop-color="#007BF8"/>
<stop offset="1" stop-color="#8EFFFF"/>
</linearGradient>
<linearGradient id="paint7_linear_6748_5883" x1="100" y1="0" x2="100" y2="200" gradientUnits="userSpaceOnUse">
<stop stop-color="#007BF8"/>
<stop offset="1" stop-color="#8EFFFF"/>
</linearGradient>
<linearGradient id="paint8_linear_6748_5883" x1="100" y1="0" x2="100" y2="200" gradientUnits="userSpaceOnUse">
<stop stop-color="#007BF8"/>
<stop offset="1" stop-color="#8EFFFF"/>
</linearGradient>
<linearGradient id="paint9_linear_6748_5883" x1="100" y1="0" x2="100" y2="200" gradientUnits="userSpaceOnUse">
<stop stop-color="#007BF8"/>
<stop offset="1" stop-color="#8EFFFF"/>
</linearGradient>
<linearGradient id="paint10_linear_6748_5883" x1="100" y1="0" x2="100" y2="200" gradientUnits="userSpaceOnUse">
<stop stop-color="#007BF8"/>
<stop offset="1" stop-color="#8EFFFF"/>
</linearGradient>
<linearGradient id="paint11_linear_6748_5883" x1="100" y1="0" x2="100" y2="200" gradientUnits="userSpaceOnUse">
<stop stop-color="#007BF8"/>
<stop offset="1" stop-color="#8EFFFF"/>
</linearGradient>
<linearGradient id="paint12_linear_6748_5883" x1="100" y1="0" x2="100" y2="200" gradientUnits="userSpaceOnUse">
<stop stop-color="#007BF8"/>
<stop offset="1" stop-color="#8EFFFF"/>
</linearGradient>
<linearGradient id="paint13_linear_6748_5883" x1="100" y1="0" x2="100" y2="200" gradientUnits="userSpaceOnUse">
<stop stop-color="#007BF8"/>
<stop offset="1" stop-color="#8EFFFF"/>
</linearGradient>
<linearGradient id="paint14_linear_6748_5883" x1="100" y1="0" x2="100" y2="200" gradientUnits="userSpaceOnUse">
<stop stop-color="#007BF8"/>
<stop offset="1" stop-color="#8EFFFF"/>
</linearGradient>
<linearGradient id="paint15_linear_6748_5883" x1="100" y1="0" x2="100" y2="200" gradientUnits="userSpaceOnUse">
<stop stop-color="#007BF8"/>
<stop offset="1" stop-color="#8EFFFF"/>
</linearGradient>
<linearGradient id="paint16_linear_6748_5883" x1="100" y1="0" x2="100" y2="200" gradientUnits="userSpaceOnUse">
<stop stop-color="#007BF8"/>
<stop offset="1" stop-color="#8EFFFF"/>
</linearGradient>
<linearGradient id="paint17_linear_6748_5883" x1="100" y1="0" x2="100" y2="200" gradientUnits="userSpaceOnUse">
<stop stop-color="#007BF8"/>
<stop offset="1" stop-color="#8EFFFF"/>
</linearGradient>
<linearGradient id="paint18_linear_6748_5883" x1="100" y1="0" x2="100" y2="200" gradientUnits="userSpaceOnUse">
<stop stop-color="#007BF8"/>
<stop offset="1" stop-color="#8EFFFF"/>
</linearGradient>
<linearGradient id="paint19_linear_6748_5883" x1="100" y1="0" x2="100" y2="200" gradientUnits="userSpaceOnUse">
<stop stop-color="#007BF8"/>
<stop offset="1" stop-color="#8EFFFF"/>
</linearGradient>
<linearGradient id="paint20_linear_6748_5883" x1="100" y1="0" x2="100" y2="200" gradientUnits="userSpaceOnUse">
<stop stop-color="#007BF8"/>
<stop offset="1" stop-color="#8EFFFF"/>
</linearGradient>
<linearGradient id="paint21_linear_6748_5883" x1="100" y1="0" x2="100" y2="200" gradientUnits="userSpaceOnUse">
<stop stop-color="#007BF8"/>
<stop offset="1" stop-color="#8EFFFF"/>
</linearGradient>
<linearGradient id="paint22_linear_6748_5883" x1="100" y1="0" x2="100" y2="200" gradientUnits="userSpaceOnUse">
<stop stop-color="#007BF8"/>
<stop offset="1" stop-color="#8EFFFF"/>
</linearGradient>
<linearGradient id="paint23_linear_6748_5883" x1="100" y1="0" x2="100" y2="200" gradientUnits="userSpaceOnUse">
<stop stop-color="#007BF8"/>
<stop offset="1" stop-color="#8EFFFF"/>
</linearGradient>
</defs>
</svg>
