<svg width="200" height="200" viewBox="0 0 200 200" fill="none" xmlns="http://www.w3.org/2000/svg">
<path opacity="0.7" fill-rule="evenodd" clip-rule="evenodd" d="M100 200C155.226 200 200 155.226 200 100C200 44.7742 155.226 0 100 0C44.7742 0 0 44.771 0 100C0 155.229 44.771 200 100 200ZM159.435 40.5613C139.384 46.3968 118.532 48.1806 100 48.1806C76.671 48.1806 56.2193 44.4484 40.5613 40.5613C45.5129 58.6064 48.1806 78.8452 48.1806 100C48.1806 121.155 45.5129 141.39 40.5613 159.435C58.6032 154.487 78.8452 151.813 100 151.813C121.155 151.813 141.39 154.484 159.435 159.432C154.484 141.39 151.829 121.168 151.829 100C151.829 78.8323 154.484 58.6064 159.435 40.5613Z" fill="url(#paint0_linear_6748_6535)"/>
<defs>
<linearGradient id="paint0_linear_6748_6535" x1="100" y1="0" x2="100" y2="200" gradientUnits="userSpaceOnUse">
<stop stop-color="#0DD068"/>
<stop offset="1" stop-color="#AFF581"/>
</linearGradient>
</defs>
</svg>
