<svg width="220" height="220" viewBox="0 0 220 220" fill="none" xmlns="http://www.w3.org/2000/svg">
<path opacity="0.7" d="M110 0C49.2496 0 0 49.2496 0 110C0 170.75 49.2496 220 110 220C170.75 220 220 170.75 220 110C220 49.2496 170.75 0 110 0ZM110 148.863C102.314 148.863 94.7997 146.584 88.4087 142.314C82.0176 138.043 77.0364 131.974 74.0949 124.872C71.1534 117.771 70.3838 109.957 71.8833 102.418C73.3829 94.8794 77.0843 87.9546 82.5194 82.5194C87.9546 77.0843 94.8794 73.3829 102.418 71.8833C109.957 70.3838 117.771 71.1534 124.872 74.0949C131.974 77.0364 138.043 82.0176 142.314 88.4087C146.584 94.7997 148.863 102.314 148.863 110C148.863 120.307 144.769 130.192 137.481 137.481C130.192 144.769 120.307 148.863 110 148.863Z" fill="url(#paint0_linear_6748_3005)"/>
<defs>
<linearGradient id="paint0_linear_6748_3005" x1="110" y1="0" x2="110" y2="220" gradientUnits="userSpaceOnUse">
<stop stop-color="#FD4C1B"/>
<stop offset="1" stop-color="#FFAF1C"/>
</linearGradient>
</defs>
</svg>
