<svg width="200" height="200" viewBox="0 0 200 200" fill="none" xmlns="http://www.w3.org/2000/svg">
<g opacity="0.7">
<path d="M115.503 116.582L106.168 107.262V200C109.327 199.811 112.439 199.48 115.503 199.007V116.582Z" fill="url(#paint0_linear_6748_6861)"/>
<path d="M141.072 63.4952L131.736 72.8205H196.625C195.73 69.6454 194.677 66.537 193.466 63.4952H141.072Z" fill="url(#paint1_linear_6748_6861)"/>
<path d="M178.923 100.786H165.713L195.588 130.612C196.692 127.183 197.608 123.696 198.331 120.167L178.923 100.786Z" fill="url(#paint2_linear_6748_6861)"/>
<path d="M150.413 54.1751H189.275C187.62 50.9703 185.792 47.8573 183.8 44.8498H159.753L150.413 54.1751Z" fill="url(#paint3_linear_6748_6861)"/>
<path d="M152.507 100.786H139.302L187.574 148.979C189.175 146.13 190.638 143.197 191.965 140.179L152.507 100.786Z" fill="url(#paint4_linear_6748_6861)"/>
<path d="M182.488 157.085L126.097 100.786H112.891L176.759 164.549C178.781 162.159 180.69 159.671 182.488 157.085Z" fill="url(#paint5_linear_6748_6861)"/>
<path d="M124.844 197.098C128.003 196.294 131.136 195.332 134.185 194.233V135.227L124.844 125.907V197.098Z" fill="url(#paint6_linear_6748_6861)"/>
<path d="M103.199 22.2093V35.393L133.211 5.43008C129.86 4.25522 126.449 3.26028 122.991 2.44956L103.199 22.2093Z" fill="url(#paint7_linear_6748_6861)"/>
<path d="M143.519 190.312C146.723 188.77 149.841 187.058 152.86 185.181V153.878L143.519 144.553V190.312Z" fill="url(#paint8_linear_6748_6861)"/>
<path d="M103.199 61.7605L151.218 13.8198C148.41 12.1622 145.533 10.6395 142.588 9.25177L103.199 48.5768V61.7605Z" fill="url(#paint9_linear_6748_6861)"/>
<path d="M113.06 91.4658H200C199.733 88.3118 199.324 85.2034 198.773 82.1405H122.395L113.06 91.4658Z" fill="url(#paint10_linear_6748_6861)"/>
<path d="M159.163 19.0659L103.199 74.9599V88.1436L166.487 24.9534C164.143 22.8962 161.701 20.9338 159.163 19.0659Z" fill="url(#paint11_linear_6748_6861)"/>
<path d="M49.6083 145.83H10.7454C12.4009 149.033 14.2288 152.145 16.2213 155.15H40.2677L49.6083 145.83Z" fill="url(#paint12_linear_6748_6861)"/>
<path d="M47.5131 99.2142H60.7183L12.4464 51.0264C10.8458 53.8755 9.38207 56.8087 8.05523 59.826L47.5131 99.2142Z" fill="url(#paint13_linear_6748_6861)"/>
<path d="M86.961 108.539H0C0.263263 111.693 0.672199 114.8 1.22681 117.859H77.6257L86.961 108.539Z" fill="url(#paint14_linear_6748_6861)"/>
<path d="M21.0974 99.2141H34.3079L4.43281 69.3879C3.32858 72.817 2.41282 76.3039 1.68961 79.8328L21.0974 99.2141Z" fill="url(#paint15_linear_6748_6861)"/>
<path d="M96.8273 177.796V164.607L66.8153 194.57C70.1662 195.745 73.5777 196.74 77.0352 197.55L96.8273 177.796Z" fill="url(#paint16_linear_6748_6861)"/>
<path d="M84.5177 83.4179L93.853 92.7432V0C90.6938 0.192744 87.582 0.525666 84.5177 0.998765V83.4179Z" fill="url(#paint17_linear_6748_6861)"/>
<path d="M68.2847 127.185H3.39568C4.29077 130.36 5.34382 133.466 6.55483 136.505H58.9705L68.2847 127.185Z" fill="url(#paint18_linear_6748_6861)"/>
<path d="M40.858 180.939L96.8277 125.056V111.872L33.5393 175.057C35.8841 177.128 38.3236 179.089 40.858 180.939Z" fill="url(#paint19_linear_6748_6861)"/>
<path d="M96.8277 138.24L48.8085 186.18C51.5991 187.841 54.4757 189.364 57.4383 190.748L96.8277 151.423V138.24Z" fill="url(#paint20_linear_6748_6861)"/>
<path d="M17.5327 42.8943L73.9236 99.193H87.1289L23.2613 35.4298C21.2394 37.8409 19.3299 40.329 17.5327 42.8943Z" fill="url(#paint21_linear_6748_6861)"/>
<path d="M75.1768 2.90168C72.0177 3.71121 68.9042 4.66792 65.8363 5.77182V64.7725L75.1768 74.0978V2.90168Z" fill="url(#paint22_linear_6748_6861)"/>
<path d="M56.5006 9.68798C53.2982 11.2317 50.1803 12.9443 47.16 14.8185V46.1271L56.5006 55.4524V9.68798Z" fill="url(#paint23_linear_6748_6861)"/>
</g>
<defs>
<linearGradient id="paint0_linear_6748_6861" x1="100" y1="0" x2="100" y2="200" gradientUnits="userSpaceOnUse">
<stop stop-color="#8A00E0"/>
<stop offset="0.494792" stop-color="#A461EF"/>
</linearGradient>
<linearGradient id="paint1_linear_6748_6861" x1="100" y1="0" x2="100" y2="200" gradientUnits="userSpaceOnUse">
<stop stop-color="#8A00E0"/>
<stop offset="0.494792" stop-color="#A461EF"/>
</linearGradient>
<linearGradient id="paint2_linear_6748_6861" x1="100" y1="0" x2="100" y2="200" gradientUnits="userSpaceOnUse">
<stop stop-color="#8A00E0"/>
<stop offset="0.494792" stop-color="#A461EF"/>
</linearGradient>
<linearGradient id="paint3_linear_6748_6861" x1="100" y1="0" x2="100" y2="200" gradientUnits="userSpaceOnUse">
<stop stop-color="#8A00E0"/>
<stop offset="0.494792" stop-color="#A461EF"/>
</linearGradient>
<linearGradient id="paint4_linear_6748_6861" x1="100" y1="0" x2="100" y2="200" gradientUnits="userSpaceOnUse">
<stop stop-color="#8A00E0"/>
<stop offset="0.494792" stop-color="#A461EF"/>
</linearGradient>
<linearGradient id="paint5_linear_6748_6861" x1="100" y1="0" x2="100" y2="200" gradientUnits="userSpaceOnUse">
<stop stop-color="#8A00E0"/>
<stop offset="0.494792" stop-color="#A461EF"/>
</linearGradient>
<linearGradient id="paint6_linear_6748_6861" x1="100" y1="0" x2="100" y2="200" gradientUnits="userSpaceOnUse">
<stop stop-color="#8A00E0"/>
<stop offset="0.494792" stop-color="#A461EF"/>
</linearGradient>
<linearGradient id="paint7_linear_6748_6861" x1="100" y1="0" x2="100" y2="200" gradientUnits="userSpaceOnUse">
<stop stop-color="#8A00E0"/>
<stop offset="0.494792" stop-color="#A461EF"/>
</linearGradient>
<linearGradient id="paint8_linear_6748_6861" x1="100" y1="0" x2="100" y2="200" gradientUnits="userSpaceOnUse">
<stop stop-color="#8A00E0"/>
<stop offset="0.494792" stop-color="#A461EF"/>
</linearGradient>
<linearGradient id="paint9_linear_6748_6861" x1="100" y1="0" x2="100" y2="200" gradientUnits="userSpaceOnUse">
<stop stop-color="#8A00E0"/>
<stop offset="0.494792" stop-color="#A461EF"/>
</linearGradient>
<linearGradient id="paint10_linear_6748_6861" x1="100" y1="0" x2="100" y2="200" gradientUnits="userSpaceOnUse">
<stop stop-color="#8A00E0"/>
<stop offset="0.494792" stop-color="#A461EF"/>
</linearGradient>
<linearGradient id="paint11_linear_6748_6861" x1="100" y1="0" x2="100" y2="200" gradientUnits="userSpaceOnUse">
<stop stop-color="#8A00E0"/>
<stop offset="0.494792" stop-color="#A461EF"/>
</linearGradient>
<linearGradient id="paint12_linear_6748_6861" x1="100" y1="0" x2="100" y2="200" gradientUnits="userSpaceOnUse">
<stop stop-color="#8A00E0"/>
<stop offset="0.494792" stop-color="#A461EF"/>
</linearGradient>
<linearGradient id="paint13_linear_6748_6861" x1="100" y1="0" x2="100" y2="200" gradientUnits="userSpaceOnUse">
<stop stop-color="#8A00E0"/>
<stop offset="0.494792" stop-color="#A461EF"/>
</linearGradient>
<linearGradient id="paint14_linear_6748_6861" x1="100" y1="0" x2="100" y2="200" gradientUnits="userSpaceOnUse">
<stop stop-color="#8A00E0"/>
<stop offset="0.494792" stop-color="#A461EF"/>
</linearGradient>
<linearGradient id="paint15_linear_6748_6861" x1="100" y1="0" x2="100" y2="200" gradientUnits="userSpaceOnUse">
<stop stop-color="#8A00E0"/>
<stop offset="0.494792" stop-color="#A461EF"/>
</linearGradient>
<linearGradient id="paint16_linear_6748_6861" x1="100" y1="0" x2="100" y2="200" gradientUnits="userSpaceOnUse">
<stop stop-color="#8A00E0"/>
<stop offset="0.494792" stop-color="#A461EF"/>
</linearGradient>
<linearGradient id="paint17_linear_6748_6861" x1="100" y1="0" x2="100" y2="200" gradientUnits="userSpaceOnUse">
<stop stop-color="#8A00E0"/>
<stop offset="0.494792" stop-color="#A461EF"/>
</linearGradient>
<linearGradient id="paint18_linear_6748_6861" x1="100" y1="0" x2="100" y2="200" gradientUnits="userSpaceOnUse">
<stop stop-color="#8A00E0"/>
<stop offset="0.494792" stop-color="#A461EF"/>
</linearGradient>
<linearGradient id="paint19_linear_6748_6861" x1="100" y1="0" x2="100" y2="200" gradientUnits="userSpaceOnUse">
<stop stop-color="#8A00E0"/>
<stop offset="0.494792" stop-color="#A461EF"/>
</linearGradient>
<linearGradient id="paint20_linear_6748_6861" x1="100" y1="0" x2="100" y2="200" gradientUnits="userSpaceOnUse">
<stop stop-color="#8A00E0"/>
<stop offset="0.494792" stop-color="#A461EF"/>
</linearGradient>
<linearGradient id="paint21_linear_6748_6861" x1="100" y1="0" x2="100" y2="200" gradientUnits="userSpaceOnUse">
<stop stop-color="#8A00E0"/>
<stop offset="0.494792" stop-color="#A461EF"/>
</linearGradient>
<linearGradient id="paint22_linear_6748_6861" x1="100" y1="0" x2="100" y2="200" gradientUnits="userSpaceOnUse">
<stop stop-color="#8A00E0"/>
<stop offset="0.494792" stop-color="#A461EF"/>
</linearGradient>
<linearGradient id="paint23_linear_6748_6861" x1="100" y1="0" x2="100" y2="200" gradientUnits="userSpaceOnUse">
<stop stop-color="#8A00E0"/>
<stop offset="0.494792" stop-color="#A461EF"/>
</linearGradient>
</defs>
</svg>
