<svg width="1440" height="778" viewBox="0 0 1440 778" fill="none" xmlns="http://www.w3.org/2000/svg">
<path d="M134.85 127.86C132.77 132.54 130.43 137.35 128.61 140.6L136.8 142.29C140.05 137.09 143.95 128.25 147.33 120.84L140.7 119.02L139.14 119.41H90.52C92.08 116.16 93.51 112.91 94.81 109.66L85.84 107.45C81.55 119.67 74.01 131.5 65.17 139.17C67.25 140.6 70.89 143.59 72.45 145.28C77.26 140.6 81.94 134.62 85.97 127.86H134.85ZM121.46 146.32C127.83 154.38 134.46 165.43 137.32 172.71L145.64 168.42C142.65 161.27 135.89 150.48 129.26 142.68L121.46 146.32ZM105.21 200.27C101.57 193.9 93.38 184.54 86.23 177.91L78.82 182.2C85.84 189.09 93.9 198.71 97.15 204.95L105.21 200.27ZM85.71 142.94C82.2 151.91 76.22 161.01 69.46 167.12C71.54 168.42 75.05 171.02 76.74 172.58C83.5 165.95 90.39 155.68 94.55 145.41L85.71 142.94ZM114.31 132.28H105.08V170.24C105.08 171.67 104.56 172.06 103 172.06C101.31 172.19 95.98 172.19 89.87 172.06C91.04 174.53 92.47 177.91 92.99 180.51C101.18 180.51 106.38 180.51 109.76 178.95C113.4 177.52 114.31 175.18 114.31 170.37V132.28ZM40.73 220.68C45.54 212.75 50.09 200.53 53.47 192.08L44.76 188.57C41.9 197.02 36.83 208.85 31.63 216.52L40.73 220.68ZM61.01 106.93C53.6 121.36 41.9 135.66 29.94 144.63C31.89 146.45 35.01 150.35 36.31 152.17C40.47 148.66 44.76 144.5 48.79 139.95V181.16H58.15V128.38C62.44 122.4 66.47 116.16 69.59 109.79L61.01 106.93ZM79.08 214.57C70.5 214.57 68.94 213.92 68.94 210.15V187.79H59.32V210.28C59.32 220.81 63.35 223.54 78.69 223.54H109.63C122.5 223.54 125.62 219.51 126.92 203.13C124.19 202.61 120.16 201.18 117.95 199.49C117.3 212.62 116.13 214.57 108.98 214.57H79.08ZM124.58 189.48C130.43 198.71 136.41 211.19 138.23 219.12L147.46 215.35C145.25 207.42 139.14 195.46 133.03 186.23L124.58 189.48ZM200.37 142.81C198.55 159.45 194.65 173.49 189.32 185.06C184.51 181.16 179.44 177.52 174.37 174.27C177.1 165.04 179.83 154.12 182.17 142.81H200.37ZM204.53 133.45L202.97 133.84H184.12C185.94 125 187.24 116.03 188.41 107.97L178.92 107.32C178.01 115.51 176.45 124.74 174.63 133.84H160.98V142.81H172.94C170.08 155.94 166.96 168.68 163.84 178.04C170.6 182.59 178.01 187.92 184.64 193.77C177.88 204.95 169.04 213.14 158.9 218.21C160.98 219.9 163.71 223.41 165.01 225.88C175.8 219.9 184.9 211.45 192.05 200.14C197.51 205.08 202.32 210.02 205.44 214.18L211.94 206.25C208.43 201.7 203.1 196.5 196.86 191.17C203.88 176.74 208.43 158.28 210.51 134.88L204.53 133.45ZM279.28 162.05H250.68V149.57C259.78 141.64 269.01 130.72 275.38 121.1L268.75 116.29L266.54 116.81H216.62V125.78H259.91C254.58 133.32 247.56 141.77 240.93 147.23V162.05H210.9V171.28H240.93V214.44C240.93 216.26 240.15 216.91 238.07 216.91C236.12 217.04 228.97 217.04 221.3 216.78C222.73 219.51 224.29 223.28 224.94 226.01C234.95 226.14 241.19 225.88 245.22 224.45C249.25 222.89 250.68 220.16 250.68 214.44V171.28H279.28V162.05Z" fill="black"/>
<path d="M37.522 316.496C38.644 314.762 39.834 312.11 40.718 310.206L37.964 309.186C37.182 311.09 35.856 313.64 34.598 315.306L37.522 316.496ZM51.802 294.26H41.296V296.47H51.802V294.26ZM48.81 303.508H44.084V300.414H48.81V303.508ZM51.292 305.446C51.938 305.956 52.856 306.908 53.264 307.384C54.42 306.636 55.542 305.752 56.63 304.8C57.956 306.704 59.656 307.758 61.73 307.758C64.212 307.758 65.164 306.534 65.606 302.046C64.824 301.842 63.77 301.298 63.124 300.72C62.954 303.712 62.648 304.902 61.866 304.902C60.71 304.902 59.656 304.086 58.704 302.59C60.71 300.244 62.376 297.49 63.566 294.362L60.71 293.648C59.928 295.892 58.772 297.932 57.378 299.734C56.664 297.762 56.086 295.212 55.746 292.356H65.13V289.806H61.56L62.614 288.956C61.764 288.14 60.064 287.086 58.704 286.406L56.868 287.766C57.854 288.344 58.976 289.092 59.86 289.806H55.542C55.474 288.752 55.44 287.63 55.44 286.508H52.482C52.516 287.63 52.55 288.752 52.618 289.806H37.284V294.838C37.284 298.238 36.944 302.964 34.462 306.466C35.108 306.772 36.332 307.826 36.774 308.37C39.63 304.562 40.174 298.85 40.174 294.872V292.356H52.856C53.264 296.198 54.046 299.598 55.168 302.216C54.012 303.338 52.72 304.324 51.292 305.14V298.204H41.568V305.718H51.292V305.446ZM47.11 308.098C48.64 309.628 50.544 311.77 51.394 313.164L54.046 311.77C53.128 310.444 51.088 308.37 49.592 306.908L47.11 308.098ZM47.484 314.83C45.41 314.83 45.036 314.66 45.036 313.742V308.472H41.874V313.81C41.874 316.564 42.996 317.312 47.246 317.312H54.352C57.956 317.312 58.908 316.292 59.316 311.94C58.432 311.77 57.106 311.362 56.392 310.886C56.188 314.32 55.95 314.83 54.148 314.83H47.484ZM58.602 309.424C59.962 311.464 61.492 314.252 62.104 315.952L65.13 314.898C64.382 313.164 62.784 310.512 61.424 308.54L58.602 309.424ZM75.854 292.56C74.936 291.098 72.896 288.786 71.298 287.154L69.19 288.786C70.788 290.52 72.726 292.934 73.61 294.43L75.854 292.56ZM74.29 310.852V296.946H67.898V299.972H71.536V311.056C71.536 312.722 70.482 314.082 69.802 314.626C70.38 315.136 71.23 316.258 71.536 316.938C72.012 316.224 72.794 315.476 77.622 311.226C77.384 310.648 77.01 309.424 76.908 308.608L74.29 310.852ZM80.478 301.57H84.694V304.086H80.478V301.57ZM84.694 297.116V299.292H80.478V297.116H84.694ZM84.694 292.73V294.838H80.478V292.73H84.694ZM87.312 290.248H83.606C84.014 289.228 84.524 288.038 84.966 286.95L81.838 286.44C81.668 287.562 81.328 288.99 80.954 290.248H77.86V304.086H76.092V306.704H82.314C80.648 309.73 78.166 312.416 75.514 314.184C76.058 314.728 76.976 315.816 77.316 316.36C80.104 314.252 82.824 311.192 84.694 307.724V314.354C84.694 314.796 84.558 314.932 84.116 314.932C83.674 314.932 82.348 314.966 80.954 314.898C81.362 315.578 81.702 316.802 81.804 317.516C83.878 317.516 85.272 317.448 86.156 317.006C87.04 316.53 87.312 315.748 87.312 314.388V290.248ZM98.872 293.716H96.866V286.712H93.976V293.716H88.332V296.606H93.976V314.116C93.976 314.626 93.806 314.762 93.33 314.796C92.888 314.796 91.392 314.796 89.828 314.728C90.236 315.476 90.712 316.802 90.848 317.55C93.058 317.55 94.588 317.448 95.54 316.972C96.492 316.496 96.866 315.714 96.866 314.116V296.606H98.872V293.716ZM93.092 306.772C92.752 304.8 91.664 301.502 90.542 299.02L88.196 299.7C89.284 302.25 90.27 305.582 90.542 307.622L93.092 306.772ZM108.61 291.846C107.76 290.622 105.89 288.752 104.36 287.46L102.286 289.092C103.782 290.452 105.618 292.424 106.4 293.682L108.61 291.846ZM107.726 300.312C106.74 299.122 104.598 297.388 102.966 296.232L100.994 298.068C102.66 299.292 104.734 301.128 105.652 302.386L107.726 300.312ZM106.128 304.902C104.836 308.472 103 312.484 101.708 314.932L104.36 316.598C105.754 313.64 107.318 309.798 108.508 306.534L106.128 304.902ZM117.11 291.098C116.702 289.874 115.614 288.004 114.73 286.678L112.146 287.766C112.928 289.058 113.846 290.86 114.322 292.016H108.95V294.872H116.464C116.09 297.388 115.614 299.734 115.036 301.944C113.914 300.278 112.758 298.68 111.636 297.218L109.392 298.68C110.922 300.72 112.486 303.1 113.88 305.446C112.452 309.322 110.378 312.484 107.522 314.83C108.202 315.408 109.256 316.564 109.698 317.108C112.214 314.864 114.186 312.008 115.682 308.608C116.804 310.682 117.722 312.62 118.3 314.218L120.85 312.45C120.102 310.376 118.708 307.758 117.042 305.072C118.062 302.012 118.81 298.612 119.388 294.872H121.36V292.016H115.036L117.11 291.098ZM125.372 289.908H122.618V310.376H125.372V289.908ZM128.092 286.44V314.32C128.092 314.83 127.922 314.966 127.446 314.966C127.038 315 125.644 315 124.182 314.932C124.556 315.714 124.93 317.006 125.032 317.72C127.276 317.754 128.738 317.618 129.622 317.142C130.54 316.7 130.88 315.918 130.88 314.32V286.44H128.092ZM164.656 292.492V289.738H154.796C155.102 288.888 155.34 287.97 155.578 287.086L152.552 286.44C151.668 290.248 150.104 294.09 148.098 296.538C148.88 296.912 150.206 297.728 150.818 298.136C151.906 296.64 152.96 294.668 153.81 292.492H164.656ZM160.916 310.478V300.006H139.326V310.75H142.488V302.794H157.618V310.444L160.916 310.478ZM155 294.056C156.462 295.62 158.128 297.83 158.808 299.326L161.698 298.068C160.916 296.64 159.284 294.498 157.686 292.968L155 294.056ZM146.874 286.848H143.814V299.122H146.874V286.848ZM139.802 288.378H136.742V298H139.802V288.378ZM155.646 314.592C154.15 314.592 153.878 314.456 153.878 313.606V308.71H151.192C151.328 308.098 151.362 307.52 151.362 306.942V304.222H148.098V306.84C148.098 309.356 147.18 312.824 135.144 315.17C135.892 315.85 136.81 317.006 137.218 317.686C146.058 315.68 149.492 312.892 150.716 310.206V313.606C150.716 316.428 151.6 317.21 155.238 317.21H160.746C163.602 317.21 164.452 316.258 164.792 312.382C163.976 312.212 162.718 311.736 162.072 311.294C161.936 314.15 161.698 314.592 160.474 314.592H155.646ZM197.684 292.934C196.63 291.336 194.352 289.024 192.448 287.392L190.068 289.024C191.972 290.724 194.182 293.172 195.134 294.77L197.684 292.934ZM194.08 300.618C193.06 302.556 191.734 304.426 190.204 306.16C189.694 304.086 189.32 301.808 188.98 299.258H198.296V296.266H188.64C188.368 293.274 188.232 290.044 188.266 286.78H185.002C185.036 290.01 185.172 293.206 185.444 296.266H178.236V290.928C180.242 290.52 182.18 290.044 183.846 289.5L181.636 286.848C178.338 288.004 172.932 289.092 168.206 289.806C168.614 290.486 169.022 291.71 169.192 292.424C171.028 292.186 173.034 291.914 175.04 291.574V296.266H168.172V299.258H175.04V304.63C172.218 305.174 169.6 305.65 167.594 305.99L168.478 309.152C170.416 308.744 172.626 308.268 175.04 307.758V313.81C175.04 314.354 174.836 314.524 174.224 314.558C173.646 314.592 171.674 314.592 169.6 314.524C170.076 315.374 170.62 316.836 170.79 317.72C173.51 317.72 175.414 317.618 176.604 317.108C177.794 316.598 178.236 315.68 178.236 313.81V307.044C180.208 306.636 182.214 306.16 184.152 305.718L183.914 302.896L178.236 304.018V299.258H185.75C186.158 302.76 186.736 306.024 187.552 308.778C185.138 310.886 182.486 312.688 179.698 313.98C180.514 314.694 181.364 315.748 181.874 316.53C184.254 315.272 186.498 313.742 188.606 311.94C190.102 315.578 192.108 317.822 194.692 317.822C197.446 317.822 198.5 316.258 199.044 310.478C198.194 310.206 197.106 309.458 196.392 308.71C196.222 312.926 195.814 314.592 194.998 314.592C193.604 314.592 192.278 312.688 191.156 309.526C193.434 307.214 195.372 304.63 196.902 301.808L194.08 300.618ZM206.912 286.678C205.552 291.676 203.308 296.742 200.69 300.074C201.234 300.89 202.05 302.658 202.322 303.44C203.002 302.59 203.614 301.672 204.226 300.618V317.686H207.218V294.77C208.272 292.39 209.122 289.908 209.87 287.494L206.912 286.678ZM210.754 317.686H213.848V293.546H210.754V317.686ZM212.182 287.868C213.644 289.908 215.378 292.73 216.126 294.464L218.71 292.9C217.894 291.2 216.092 288.446 214.63 286.508L212.182 287.868ZM230.848 287.664H219.016V290.52H227.72V313.946C227.72 314.49 227.55 314.694 226.972 314.694C226.462 314.728 224.626 314.762 222.858 314.66C223.266 315.442 223.742 316.802 223.844 317.618C226.496 317.618 228.264 317.55 229.352 317.04C230.474 316.564 230.848 315.68 230.848 313.98V287.664ZM238.614 311.396V303.882H244.938V311.396H238.614ZM244.938 294.668V301.128H238.614V294.668H244.938ZM254.56 291.744C255.104 290.248 255.546 288.684 255.954 287.12L252.894 286.406C251.874 290.894 250.072 295.416 247.828 298.34V291.914H242.388C242.932 290.486 243.578 288.684 244.156 286.984L240.722 286.406C240.518 288.038 240.008 290.282 239.532 291.914H235.724V316.768H238.614V314.184H247.828V298.578C248.61 299.02 249.8 299.87 250.31 300.346C251.398 298.782 252.452 296.81 253.404 294.634H261.428C260.986 307.452 260.544 312.586 259.456 313.708C259.082 314.184 258.708 314.286 258.028 314.286C257.178 314.286 255.206 314.252 253.03 314.082C253.608 314.966 253.982 316.292 254.05 317.142C255.988 317.244 257.994 317.278 259.184 317.142C260.476 316.972 261.292 316.666 262.142 315.544C263.502 313.844 263.91 308.574 264.386 293.24C264.42 292.832 264.42 291.744 264.42 291.744H254.56ZM258.912 307.078C257.892 305.072 255.58 301.842 253.778 299.496L251.296 300.89C253.098 303.338 255.308 306.67 256.26 308.744L258.912 307.078ZM293.198 308.54C292.45 306.874 291.26 304.834 289.832 302.76C290.648 300.006 291.26 297.014 291.702 293.75L288.88 293.444C288.574 295.688 288.2 297.83 287.724 299.836C286.602 298.374 285.446 296.946 284.29 295.688L282.352 297.388C283.848 299.122 285.378 301.128 286.738 303.134C285.514 306.806 283.746 309.9 281.332 312.11C282.012 312.518 283.27 313.436 283.78 313.844C285.82 311.804 287.418 309.152 288.642 306.058C289.662 307.69 290.478 309.22 291.056 310.512L293.198 308.54ZM297.176 288.446H269.092V317.618H272.254V311.94C272.968 312.382 274.09 313.164 274.566 313.572C276.47 311.532 278.034 308.914 279.224 305.888C280.142 307.248 280.958 308.506 281.536 309.594L283.542 307.418C282.76 306.092 281.604 304.46 280.346 302.726C281.196 299.972 281.808 296.946 282.318 293.682L279.496 293.376C279.19 295.688 278.748 297.898 278.204 299.972C277.014 298.442 275.756 296.912 274.566 295.552L272.73 297.388C274.192 299.122 275.79 301.162 277.286 303.134C276.096 306.602 274.464 309.526 272.254 311.702V291.438H294.014V313.64C294.014 314.286 293.776 314.49 293.13 314.524C292.45 314.558 290.104 314.592 287.962 314.456C288.404 315.272 288.948 316.734 289.152 317.618C292.246 317.618 294.218 317.55 295.476 317.04C296.7 316.53 297.176 315.578 297.176 313.674V288.446ZM305.044 294.804V310.478H308.274V297.728H324.832V310.376H328.198V294.804H316.026C316.57 293.682 317.182 292.424 317.726 291.132H331.088V288.208H301.984V291.132H314.122C313.816 292.356 313.34 293.682 312.864 294.804H305.044ZM318.134 299.53H314.87V305.582C314.87 309.016 313.238 312.824 301.134 315.17C301.848 315.816 302.698 317.006 303.072 317.754C315.924 315 318.134 310.342 318.134 305.616V299.53ZM317.76 311.396C321.67 313.164 326.804 315.918 329.252 317.788L331.224 315.272C328.606 313.47 323.404 310.818 319.596 309.254L317.76 311.396ZM339.296 306.636C336.372 306.636 333.992 309.05 333.992 311.974C333.992 314.898 336.372 317.278 339.296 317.278C342.254 317.278 344.6 314.898 344.6 311.974C344.6 309.05 342.254 306.636 339.296 306.636ZM339.296 315.238C337.494 315.238 336.032 313.776 336.032 311.974C336.032 310.172 337.494 308.71 339.296 308.71C341.098 308.71 342.56 310.172 342.56 311.974C342.56 313.776 341.098 315.238 339.296 315.238ZM64.484 340.934C63.43 339.336 61.152 337.024 59.248 335.392L56.868 337.024C58.772 338.724 60.982 341.172 61.934 342.77L64.484 340.934ZM60.88 348.618C59.86 350.556 58.534 352.426 57.004 354.16C56.494 352.086 56.12 349.808 55.78 347.258H65.096V344.266H55.44C55.168 341.274 55.032 338.044 55.066 334.78H51.802C51.836 338.01 51.972 341.206 52.244 344.266H45.036V338.928C47.042 338.52 48.98 338.044 50.646 337.5L48.436 334.848C45.138 336.004 39.732 337.092 35.006 337.806C35.414 338.486 35.822 339.71 35.992 340.424C37.828 340.186 39.834 339.914 41.84 339.574V344.266H34.972V347.258H41.84V352.63C39.018 353.174 36.4 353.65 34.394 353.99L35.278 357.152C37.216 356.744 39.426 356.268 41.84 355.758V361.81C41.84 362.354 41.636 362.524 41.024 362.558C40.446 362.592 38.474 362.592 36.4 362.524C36.876 363.374 37.42 364.836 37.59 365.72C40.31 365.72 42.214 365.618 43.404 365.108C44.594 364.598 45.036 363.68 45.036 361.81V355.044C47.008 354.636 49.014 354.16 50.952 353.718L50.714 350.896L45.036 352.018V347.258H52.55C52.958 350.76 53.536 354.024 54.352 356.778C51.938 358.886 49.286 360.688 46.498 361.98C47.314 362.694 48.164 363.748 48.674 364.53C51.054 363.272 53.298 361.742 55.406 359.94C56.902 363.578 58.908 365.822 61.492 365.822C64.246 365.822 65.3 364.258 65.844 358.478C64.994 358.206 63.906 357.458 63.192 356.71C63.022 360.926 62.614 362.592 61.798 362.592C60.404 362.592 59.078 360.688 57.956 357.526C60.234 355.214 62.172 352.63 63.702 349.808L60.88 348.618ZM73.712 334.678C72.352 339.676 70.108 344.742 67.49 348.074C68.034 348.89 68.85 350.658 69.122 351.44C69.802 350.59 70.414 349.672 71.026 348.618V365.686H74.018V342.77C75.072 340.39 75.922 337.908 76.67 335.494L73.712 334.678ZM77.554 365.686H80.648V341.546H77.554V365.686ZM78.982 335.868C80.444 337.908 82.178 340.73 82.926 342.464L85.51 340.9C84.694 339.2 82.892 336.446 81.43 334.508L78.982 335.868ZM97.648 335.664H85.816V338.52H94.52V361.946C94.52 362.49 94.35 362.694 93.772 362.694C93.262 362.728 91.426 362.762 89.658 362.66C90.066 363.442 90.542 364.802 90.644 365.618C93.296 365.618 95.064 365.55 96.152 365.04C97.274 364.564 97.648 363.68 97.648 361.98V335.664ZM113.506 339.03V342.804H106.4V339.03H113.506ZM106.4 349.604V345.626H113.506V349.604H106.4ZM110.174 355.112C110.786 356.098 111.364 357.186 111.976 358.308L106.4 360.008V352.426H116.668V336.208H103.17V359.328C103.17 360.586 102.32 361.232 101.674 361.572C102.218 362.32 102.762 363.85 102.966 364.802C103.782 364.19 105.006 363.68 113.302 360.892C113.88 362.082 114.322 363.204 114.662 364.054L117.552 362.49C116.668 360.212 114.594 356.54 112.86 353.786L110.174 355.112ZM130.71 336.446H119.218V365.686H122.38V339.336H127.616V355.792C127.616 356.234 127.48 356.37 127.004 356.404C126.596 356.438 125.134 356.438 123.638 356.37C124.08 357.186 124.454 358.512 124.556 359.362C126.868 359.362 128.398 359.328 129.452 358.784C130.438 358.308 130.71 357.39 130.71 355.826V336.446ZM140.448 343.518C139.462 342.09 137.898 340.356 136.504 339.064L134.362 340.764C135.994 342.464 137.898 344.81 138.714 346.34L140.448 344.878V350.59C138.136 352.596 135.824 354.5 134.294 355.656L135.926 358.342C137.32 357.152 138.884 355.724 140.448 354.296V365.686H143.508V334.508H140.448V343.518ZM160.338 339.71C159.012 341.512 157.278 343.008 155.204 344.266C154.456 343.246 153.266 342.09 152.212 341.24L149.866 342.6C150.852 343.45 151.974 344.606 152.688 345.592C150.308 346.68 147.656 347.496 145.038 348.006C145.582 348.618 146.262 349.774 146.568 350.488C154.218 348.754 161.562 345.048 164.792 338.112L162.718 337.024L162.14 337.16H155.544C156.088 336.548 156.598 335.97 157.074 335.358L153.844 334.474C152.008 337.126 148.54 339.812 144.766 341.376C145.378 341.886 146.364 342.838 146.84 343.45C148.88 342.498 150.886 341.172 152.722 339.71H160.338ZM147.044 355.69C148.71 357.526 150.512 360.042 151.226 361.742L153.98 360.178C153.164 358.478 151.26 356.064 149.594 354.364L147.044 355.69ZM165.2 350.896H161.29V347.088H158.162V350.896H144.868V353.82H158.162V362.116C158.162 362.558 157.992 362.728 157.448 362.728C156.87 362.728 154.966 362.728 153.062 362.66C153.47 363.51 153.946 364.802 154.082 365.652C156.7 365.652 158.57 365.584 159.726 365.142C160.916 364.666 161.29 363.782 161.29 362.15V353.82H165.2V350.896ZM183.914 356.574H189.014V360.586H183.914V356.574ZM189.014 347.122H183.914V343.314H189.014V347.122ZM189.014 353.786H183.914V349.91H189.014V353.786ZM198.636 360.586H191.938V356.574H197.446V353.786H191.938V349.91H197.48V347.122H191.938V343.314H197.956V340.424H191.122L193.094 339.574C192.686 338.248 191.666 336.242 190.68 334.746L187.96 335.834C188.81 337.262 189.694 339.098 190.102 340.424H184.322C185.07 338.792 185.682 337.126 186.26 335.46L183.234 334.678C181.704 339.642 179.12 344.538 176.094 347.666C176.536 347.972 177.114 348.584 177.624 349.128L174.768 349.978V343.926H178.406V341.002H174.768V334.542H171.742V341.002H167.662V343.926H171.742V350.862C170.076 351.304 168.58 351.746 167.356 352.052L168.07 355.112C169.226 354.772 170.45 354.398 171.742 353.99V361.946C171.742 362.422 171.572 362.558 171.13 362.558C170.756 362.592 169.464 362.592 168.138 362.524C168.58 363.408 168.954 364.802 169.056 365.618C171.198 365.618 172.592 365.516 173.544 364.972C174.462 364.462 174.768 363.578 174.768 361.98V353.038L178.406 351.916L178.032 349.536L178.406 349.944C179.256 348.992 180.106 347.87 180.888 346.68V365.72H183.914V363.476H198.636V360.586ZM226.496 351.304V360.62H218.166V349.332H228.672V337.432H225.17V346.272H218.166V334.508H214.664V346.272H207.864V337.432H204.532V349.332H214.664V360.62H206.436V351.304H202.9V363.782H226.496V365.652H229.998V351.304H226.496ZM251.364 351.746V343.518H260.204V351.746H251.364ZM239.26 351.746V343.518H248.066V351.746H239.26ZM251.364 340.424V334.508H248.066V340.424H236.098V356.846H239.26V354.84H248.066V365.652H251.364V354.84H260.204V356.676H263.502V340.424H251.364ZM289.628 343.382C288.098 347.564 285.99 351.032 283.236 353.888C280.346 350.896 278.068 347.394 276.436 343.382H289.628ZM298.434 343.382V340.322H283.168L286.194 339.37C285.752 337.976 284.664 335.8 283.678 334.202L280.346 335.188C281.264 336.786 282.216 338.928 282.624 340.322H267.902V343.382H273.138C275.042 348.346 277.558 352.596 280.856 356.098C277.252 359.056 272.798 361.164 267.324 362.626C267.97 363.374 268.922 364.836 269.296 365.652C274.804 363.952 279.428 361.572 283.202 358.376C286.874 361.572 291.396 363.986 296.802 365.448C297.312 364.53 298.23 363.204 298.944 362.524C293.708 361.232 289.288 359.022 285.65 356.064C288.846 352.664 291.362 348.516 293.164 343.382H298.434ZM305.792 346.408H314.428V343.62H311.742V334.44H308.886V343.62H305.792V335.256H302.902V348.482C302.902 353.446 302.63 359.668 300.488 363.884C301.202 364.292 302.256 365.244 302.766 365.822C304.704 362.524 305.418 358.07 305.656 353.65H309.668V365.652H312.524V350.828H305.758C305.792 350.012 305.792 349.23 305.792 348.448V346.408ZM327.824 346.952C327.144 350.318 326.09 353.276 324.662 355.792C323.234 353.174 322.18 350.182 321.432 346.952H327.824ZM329.252 343.994L328.708 344.096H318.746V339.2C323.2 338.86 328.028 338.282 331.666 337.466L329.762 334.746C326.26 335.596 320.65 336.31 315.72 336.65V348.142C315.72 353.072 315.414 359.736 312.898 364.156C313.646 364.564 314.836 365.414 315.414 365.958C318.338 361.062 318.746 353.854 318.746 348.142V346.952H318.95C319.834 351.27 321.126 355.146 322.928 358.376C321.228 360.552 319.256 362.184 317.012 363.238C317.658 363.816 318.474 365.006 318.882 365.822C321.092 364.632 322.996 363.102 324.696 361.13C326.158 363.068 327.892 364.632 329.932 365.822C330.408 364.972 331.36 363.816 332.074 363.272C329.898 362.15 328.062 360.586 326.532 358.614C328.81 355.01 330.374 350.352 331.122 344.47L329.252 343.994ZM351.332 356.438V344.538H351.706C353.372 348.958 355.752 353.174 358.608 356.438H351.332ZM340.588 356.438C343.478 353.174 345.892 348.992 347.558 344.538H348V356.438H340.588ZM364.524 344.538V341.342H351.332V334.474H348V341.342H334.978V344.538H344.362C342.05 350.012 338.208 355.18 333.924 357.9C334.706 358.546 335.726 359.668 336.27 360.484C337.732 359.396 339.126 358.104 340.486 356.608V359.634H348V365.652H351.332V359.634H358.846V356.676C360.104 358.104 361.498 359.362 362.96 360.382C363.504 359.464 364.66 358.24 365.442 357.594C361.09 354.942 357.214 349.91 354.868 344.538H364.524ZM371.814 359.396V351.882H378.138V359.396H371.814ZM378.138 342.668V349.128H371.814V342.668H378.138ZM387.76 339.744C388.304 338.248 388.746 336.684 389.154 335.12L386.094 334.406C385.074 338.894 383.272 343.416 381.028 346.34V339.914H375.588C376.132 338.486 376.778 336.684 377.356 334.984L373.922 334.406C373.718 336.038 373.208 338.282 372.732 339.914H368.924V364.768H371.814V362.184H381.028V346.578C381.81 347.02 383 347.87 383.51 348.346C384.598 346.782 385.652 344.81 386.604 342.634H394.628C394.186 355.452 393.744 360.586 392.656 361.708C392.282 362.184 391.908 362.286 391.228 362.286C390.378 362.286 388.406 362.252 386.23 362.082C386.808 362.966 387.182 364.292 387.25 365.142C389.188 365.244 391.194 365.278 392.384 365.142C393.676 364.972 394.492 364.666 395.342 363.544C396.702 361.844 397.11 356.574 397.586 341.24C397.62 340.832 397.62 339.744 397.62 339.744H387.76ZM392.112 355.078C391.092 353.072 388.78 349.842 386.978 347.496L384.496 348.89C386.298 351.338 388.508 354.67 389.46 356.744L392.112 355.078ZM426.398 356.54C425.65 354.874 424.46 352.834 423.032 350.76C423.848 348.006 424.46 345.014 424.902 341.75L422.08 341.444C421.774 343.688 421.4 345.83 420.924 347.836C419.802 346.374 418.646 344.946 417.49 343.688L415.552 345.388C417.048 347.122 418.578 349.128 419.938 351.134C418.714 354.806 416.946 357.9 414.532 360.11C415.212 360.518 416.47 361.436 416.98 361.844C419.02 359.804 420.618 357.152 421.842 354.058C422.862 355.69 423.678 357.22 424.256 358.512L426.398 356.54ZM430.376 336.446H402.292V365.618H405.454V359.94C406.168 360.382 407.29 361.164 407.766 361.572C409.67 359.532 411.234 356.914 412.424 353.888C413.342 355.248 414.158 356.506 414.736 357.594L416.742 355.418C415.96 354.092 414.804 352.46 413.546 350.726C414.396 347.972 415.008 344.946 415.518 341.682L412.696 341.376C412.39 343.688 411.948 345.898 411.404 347.972C410.214 346.442 408.956 344.912 407.766 343.552L405.93 345.388C407.392 347.122 408.99 349.162 410.486 351.134C409.296 354.602 407.664 357.526 405.454 359.702V339.438H427.214V361.64C427.214 362.286 426.976 362.49 426.33 362.524C425.65 362.558 423.304 362.592 421.162 362.456C421.604 363.272 422.148 364.734 422.352 365.618C425.446 365.618 427.418 365.55 428.676 365.04C429.9 364.53 430.376 363.578 430.376 361.674V336.446ZM443.514 339.608C443.106 338.248 442.154 336.208 441.202 334.678L438.482 335.46C439.332 337.058 440.284 339.2 440.658 340.56L443.514 339.608ZM444.092 357.152C444.942 353.786 445.826 348.992 446.472 345.116L443.514 344.606C443.14 348.618 442.29 354.296 441.44 357.764C438.754 358.41 436.238 358.92 434.3 359.328L434.98 362.456C438.516 361.606 443.242 360.416 447.628 359.328L447.322 356.404L444.092 357.152ZM435.864 345.422C436.578 349.128 437.224 353.922 437.36 357.118L439.978 356.608C439.774 353.378 439.128 348.686 438.346 344.946L435.864 345.422ZM434.64 343.552H447.866V340.628H434.64V343.552ZM460.65 361.096H451.436V353.412H460.65V361.096ZM465.172 344.13V341.104H456.944V334.44H453.714V350.454H448.376V365.618H451.436V364.054H460.65V365.482H463.846V350.454H456.944V344.13H465.172ZM472.496 354.636C469.572 354.636 467.192 357.05 467.192 359.974C467.192 362.898 469.572 365.278 472.496 365.278C475.454 365.278 477.8 362.898 477.8 359.974C477.8 357.05 475.454 354.636 472.496 354.636ZM472.496 363.238C470.694 363.238 469.232 361.776 469.232 359.974C469.232 358.172 470.694 356.71 472.496 356.71C474.298 356.71 475.76 358.172 475.76 359.974C475.76 361.776 474.298 363.238 472.496 363.238Z" fill="#0A0A10"/>
<path d="M41.551 401.726H46.685V409.58H47.926V400.604H40.344V409.58H41.551V401.726ZM39.664 410.6C38.933 410.821 38.185 411.059 37.471 411.246V406.979H39.239V405.806H37.471V402.117H39.579V400.927H34.003V402.117H36.247V405.806H34.241V406.979H36.247V411.603C35.329 411.875 34.479 412.079 33.799 412.266L34.071 413.49L39.834 411.773L39.664 410.6ZM45.988 413.898C45.512 413.898 45.376 413.779 45.376 413.303V409.308H44.339C44.577 408.322 44.645 407.37 44.645 406.452V403.154H43.455V406.418C43.455 409.053 42.928 412.249 38.661 414.425C38.916 414.612 39.307 415.105 39.46 415.343C42.265 413.898 43.608 411.875 44.203 409.852V413.422C44.203 414.544 44.662 414.85 45.818 414.85H47.365C48.827 414.85 49.014 414.187 49.167 411.518C48.844 411.45 48.453 411.263 48.147 411.042C48.062 413.439 47.977 413.898 47.365 413.898H45.988ZM55.78 400.417L55.576 400.468H51.411V415.326H52.652V401.658H55.015C54.556 402.814 53.961 404.259 53.349 405.466C54.845 406.775 55.27 407.931 55.287 408.866C55.287 409.393 55.168 409.835 54.845 410.022C54.692 410.124 54.454 410.175 54.216 410.175C53.893 410.209 53.485 410.209 53.043 410.141C53.23 410.498 53.366 410.991 53.383 411.314C53.825 411.348 54.318 411.348 54.726 411.297C55.083 411.246 55.44 411.144 55.712 410.957C56.239 410.617 56.477 409.886 56.477 408.968C56.477 407.914 56.12 406.69 54.607 405.296C55.287 403.97 56.052 402.355 56.647 400.978L55.78 400.417ZM58.483 408.849C58.483 410.787 58.245 412.929 56.154 414.629C56.528 414.799 57.038 415.122 57.293 415.377C59.469 413.49 59.707 411.093 59.707 408.883V406.35H58.483V408.849ZM62.546 415.258H63.787V406.333H62.546V415.258ZM60.642 399.686C60.03 401.726 58.568 404.14 56.086 405.772C56.358 405.976 56.732 406.418 56.902 406.724C58.857 405.398 60.2 403.664 61.084 401.896C62.24 403.783 63.906 405.5 65.555 406.469C65.742 406.18 66.133 405.721 66.405 405.5C64.552 404.548 62.699 402.627 61.645 400.621C61.747 400.383 61.832 400.128 61.917 399.89L60.642 399.686ZM77.319 401.505H79.682V404.667C79.682 405.823 79.903 406.265 81.025 406.265H82.3C82.64 406.265 82.963 406.265 83.167 406.197C83.116 405.925 83.099 405.5 83.065 405.211C82.878 405.262 82.504 405.279 82.283 405.279H81.144C80.906 405.279 80.855 405.143 80.855 404.701V400.4H76.146V402.44C76.146 403.681 75.874 405.177 74.225 406.299C74.463 406.469 74.922 406.877 75.092 407.098C76.928 405.874 77.319 403.987 77.319 402.474V401.505ZM74.361 410.345C72.967 410.549 71.539 410.753 70.281 410.94V408.475H74.072V407.353H70.281V405.024H74.089V403.902H70.281V402.049C71.76 401.675 73.358 401.165 74.565 400.638L73.545 399.686C72.491 400.23 70.672 400.876 69.091 401.284V401.301L69.057 401.284V411.127C68.547 411.195 68.054 411.263 67.646 411.314L67.833 412.504L69.057 412.3V415.054H70.281V412.113C71.59 411.909 73.001 411.654 74.412 411.433L74.361 410.345ZM80.532 408.543C80.107 409.784 79.444 410.821 78.628 411.654C77.727 410.77 77.047 409.733 76.571 408.543H80.532ZM81.246 407.404L81.025 407.455H74.956V408.543H76.146L75.517 408.713C76.044 410.141 76.792 411.382 77.761 412.419C76.622 413.303 75.228 413.932 73.715 414.289C73.953 414.544 74.242 415.037 74.361 415.377C75.959 414.901 77.421 414.238 78.645 413.235C79.733 414.153 81.025 414.833 82.487 415.275C82.657 414.918 82.997 414.442 83.269 414.187C81.841 413.847 80.583 413.235 79.529 412.436C80.668 411.263 81.535 409.716 82.028 407.693L81.246 407.404ZM86.669 415.819C88.454 415.19 89.61 413.796 89.61 411.96C89.61 410.77 89.1 410.005 88.165 410.005C87.468 410.005 86.873 410.43 86.873 411.229C86.873 412.028 87.451 412.436 88.148 412.436C88.25 412.436 88.335 412.436 88.437 412.419C88.352 413.575 87.604 414.374 86.295 414.918L86.669 415.819ZM107.8 404.429C107.562 406.775 107.035 408.696 106.27 410.192C105.539 409.631 104.791 409.07 104.077 408.577C104.417 407.37 104.808 405.925 105.131 404.429H107.8ZM108.344 403.205L108.123 403.256H105.369C105.607 402.1 105.828 400.944 105.964 399.89L104.723 399.805C104.587 400.876 104.4 402.066 104.162 403.256H101.85V404.429H103.924C103.533 406.163 103.091 407.829 102.666 409.036C103.601 409.682 104.655 410.481 105.607 411.28C104.638 412.725 103.38 413.694 101.85 414.272C102.122 414.544 102.462 415.003 102.632 415.326C104.23 414.612 105.539 413.592 106.576 412.13C107.256 412.759 107.851 413.354 108.276 413.881L109.109 412.827C108.684 412.283 108.021 411.654 107.256 411.008C108.259 409.121 108.888 406.639 109.126 403.358L108.344 403.205ZM111.234 412.402V402.814H115.399V412.402H111.234ZM110.044 401.607V414.867H111.234V413.609H115.399V414.629H116.64V401.607H110.044ZM122.029 406.214V404.463H125.854V406.214H122.029ZM122.029 401.692H125.854V403.426H122.029V401.692ZM131.022 403.426H127.163V401.692H131.022V403.426ZM131.022 406.214H127.163V404.463H131.022V406.214ZM133.912 409.903V408.73H127.163V407.302H132.365V400.587H120.754V407.302H125.854V408.73H119.105V409.903H124.8C123.304 411.518 120.89 412.98 118.68 413.694C118.952 413.949 119.36 414.442 119.53 414.731C121.74 413.898 124.222 412.283 125.854 410.43V415.309H127.163V410.345C128.829 412.147 131.328 413.796 133.487 414.663C133.674 414.357 134.065 413.864 134.354 413.609C132.212 412.895 129.781 411.467 128.217 409.903H133.912ZM149.365 402.474C149.093 403.086 148.787 403.715 148.549 404.14L149.62 404.361C150.045 403.681 150.555 402.525 150.997 401.556L150.13 401.318L149.926 401.369H143.568C143.772 400.944 143.959 400.519 144.129 400.094L142.956 399.805C142.395 401.403 141.409 402.95 140.253 403.953C140.525 404.14 141.001 404.531 141.205 404.752C141.834 404.14 142.446 403.358 142.973 402.474H149.365ZM147.614 404.888C148.447 405.942 149.314 407.387 149.688 408.339L150.776 407.778C150.385 406.843 149.501 405.432 148.634 404.412L147.614 404.888ZM145.489 411.943C145.013 411.11 143.942 409.886 143.007 409.019L142.038 409.58C142.956 410.481 144.01 411.739 144.435 412.555L145.489 411.943ZM142.939 404.446C142.48 405.619 141.698 406.809 140.814 407.608C141.086 407.778 141.545 408.118 141.766 408.322C142.65 407.455 143.534 406.112 144.095 404.769L142.939 404.446ZM146.679 403.052H145.455V408.016C145.455 408.203 145.404 408.254 145.183 408.254C144.979 408.271 144.282 408.271 143.483 408.254C143.636 408.577 143.823 409.019 143.891 409.359C144.962 409.359 145.642 409.359 146.084 409.155C146.56 408.968 146.679 408.662 146.679 408.033V403.052ZM137.057 414.612C137.686 413.575 138.281 411.977 138.723 410.872L137.584 410.413C137.21 411.518 136.547 413.065 135.867 414.068L137.057 414.612ZM139.709 399.737C138.74 401.624 137.21 403.494 135.646 404.667C135.901 404.905 136.309 405.415 136.479 405.653C137.023 405.194 137.584 404.65 138.111 404.055V409.444H139.335V402.542C139.896 401.76 140.423 400.944 140.831 400.111L139.709 399.737ZM142.072 413.813C140.95 413.813 140.746 413.728 140.746 413.235V410.311H139.488V413.252C139.488 414.629 140.015 414.986 142.004 414.986H146.067C147.75 414.986 148.158 414.459 148.328 412.317C147.971 412.249 147.444 412.062 147.155 411.841C147.07 413.558 146.917 413.813 145.982 413.813H142.072ZM148.022 410.532C148.787 411.739 149.569 413.371 149.807 414.408L151.014 413.915C150.725 412.878 149.926 411.314 149.127 410.107L148.022 410.532ZM166.093 403.29H161.877V401.709H166.093V403.29ZM166.093 405.874H161.877V404.276H166.093V405.874ZM166.093 408.458H161.877V406.843H166.093V408.458ZM167.3 400.672H160.704V409.495H167.3V400.672ZM159.055 410.005C159.837 410.77 160.874 411.858 161.367 412.504L162.285 411.756C161.758 411.127 160.721 410.073 159.939 409.359L159.055 410.005ZM153.955 414.408C154.635 413.473 155.179 411.96 155.553 410.821L154.448 410.396C154.108 411.501 153.53 412.946 152.85 413.847L153.955 414.408ZM157.287 409.665V405.534C158.035 406.163 158.987 406.996 159.429 407.421L160.109 406.401C159.667 406.061 157.933 404.769 157.287 404.361V403.409H159.973V402.304H157.287V399.822H156.08V402.304H152.986V403.409H155.859C155.111 405.143 153.853 406.894 152.612 407.778C152.867 407.982 153.224 408.373 153.428 408.662C154.38 407.88 155.332 406.588 156.08 405.194V409.665H157.287ZM159.242 413.796C158.256 413.796 158.086 413.711 158.086 413.269V410.583H156.845V413.286C156.845 414.595 157.321 414.935 159.157 414.935H162.676C164.206 414.935 164.597 414.425 164.767 412.3C164.41 412.232 163.9 412.045 163.611 411.824C163.543 413.558 163.407 413.796 162.591 413.796H159.242ZM165.005 410.549C165.685 411.671 166.569 413.15 166.96 414.034L168.133 413.456C167.708 412.589 166.79 411.127 166.093 410.056L165.005 410.549ZM183.144 401.012L182.838 401.097H170.7V402.338H181.631C180.356 403.545 178.537 404.871 176.905 405.67V413.643C176.905 413.949 176.803 414.034 176.446 414.051C176.055 414.068 174.746 414.085 173.335 414.034C173.539 414.374 173.777 414.935 173.845 415.292C175.562 415.292 176.684 415.275 177.33 415.071C177.993 414.884 178.214 414.51 178.214 413.643V406.299C180.322 405.16 182.634 403.392 184.13 401.743L183.144 401.012ZM191.406 410.294V408.05H192.936V410.294H191.406ZM188.941 410.294C188.975 409.699 188.992 409.104 188.992 408.577V408.05H190.488V410.294H188.941ZM191.831 402.287C191.627 402.882 191.338 403.545 191.066 404.055H188.788C189.094 403.511 189.366 402.899 189.638 402.287H191.831ZM191.406 405.058H192.936V407.098H191.406V405.058ZM188.992 405.058H190.488V407.098H188.992V405.058ZM194.007 404.055H192.239C192.63 403.341 193.021 402.474 193.31 401.726L192.545 401.233L192.358 401.284H190.012C190.148 400.859 190.284 400.434 190.403 400.009L189.264 399.771C188.737 401.845 187.802 403.851 186.612 405.16C186.867 405.33 187.36 405.704 187.53 405.891C187.649 405.738 187.785 405.585 187.904 405.432V408.56C187.904 410.464 187.785 412.98 186.646 414.765C186.901 414.867 187.394 415.173 187.564 415.36C188.312 414.221 188.669 412.742 188.839 411.297H190.488V414.408H191.406V411.297H192.936V413.847C192.936 414.034 192.885 414.085 192.698 414.085C192.545 414.085 192.069 414.085 191.474 414.068C191.644 414.374 191.763 414.85 191.814 415.156C192.664 415.156 193.191 415.139 193.531 414.935C193.905 414.731 194.007 414.408 194.007 413.864V404.055ZM200.603 401.709C200.484 403.681 200.348 404.463 200.178 404.684C200.059 404.837 199.923 404.854 199.685 404.837C199.464 404.837 198.818 404.837 198.155 404.769C198.325 405.058 198.427 405.5 198.461 405.823C199.158 405.857 199.855 405.874 200.212 405.84C200.62 405.806 200.909 405.687 201.13 405.415C201.487 405.007 201.64 403.919 201.776 401.131C201.793 400.961 201.793 400.638 201.793 400.638H194.67V401.709H196.982C196.693 403.307 196.03 404.667 194.313 405.432C194.551 405.636 194.874 406.044 195.01 406.316C197.016 405.347 197.781 403.698 198.121 401.709H200.603ZM202.252 410.94H199.294V408.866H201.827V407.778H199.294V406.163H198.104V407.778H196.642C196.778 407.319 196.914 406.877 197.016 406.401L195.928 406.197C195.656 407.625 195.129 409.036 194.398 409.988C194.67 410.107 195.146 410.362 195.367 410.515C195.707 410.056 195.979 409.495 196.251 408.866H198.104V410.94H194.687V412.045H198.104V415.292H199.294V412.045H202.252V410.94ZM206.91 408.73V407.013H210.956V407.693C210.956 408.033 210.956 408.39 210.922 408.73H206.91ZM206.91 404.31H210.956V406.01H206.91V404.31ZM216.532 404.31V406.01H212.248V404.31H216.532ZM216.532 408.73H212.214C212.231 408.407 212.248 408.05 212.248 407.71V407.013H216.532V408.73ZM217.773 409.784V403.256H212.248V401.828H218.844V400.689H204.156V401.828H210.956V403.256H205.703V409.784H210.752C210.548 410.6 210.157 411.365 209.375 412.028C208.576 411.501 207.896 410.804 207.318 409.92L206.264 410.345C206.842 411.331 207.539 412.113 208.355 412.742C207.318 413.337 205.873 413.813 203.85 414.204C204.122 414.493 204.462 415.02 204.598 415.309C206.808 414.85 208.389 414.221 209.528 413.473C211.84 414.697 214.934 415.071 218.861 415.241C218.929 414.833 219.167 414.306 219.388 414C215.614 413.898 212.69 413.643 210.548 412.674C211.398 411.807 211.857 410.838 212.061 409.784H217.773ZM232.665 401.199L232.444 401.25H228.041C228.449 400.842 228.823 400.451 229.146 400.043L227.769 399.754C226.681 401.148 224.658 402.797 221.955 403.936C222.227 404.14 222.618 404.531 222.805 404.82C224.335 404.123 225.661 403.29 226.749 402.389H231.543C230.71 403.443 229.537 404.361 228.194 405.143C227.582 404.599 226.732 404.021 226.018 403.613L225.1 404.259C225.78 404.65 226.528 405.194 227.089 405.704C225.287 406.571 223.281 407.183 221.394 407.523C221.615 407.795 221.887 408.322 221.989 408.662C226.392 407.744 231.339 405.466 233.481 401.709L232.665 401.199ZM235.147 407.132L234.892 407.2H230.795C231.22 406.792 231.577 406.367 231.917 405.942L230.523 405.636C229.282 407.302 226.868 409.189 223.434 410.43C223.723 410.634 224.08 411.093 224.233 411.365C226.358 410.532 228.109 409.495 229.52 408.356H234.11C233.26 409.682 232.053 410.736 230.608 411.569C229.996 411.008 229.18 410.345 228.5 409.852L227.463 410.447C228.126 410.957 228.891 411.603 229.452 412.147C227.072 413.252 224.216 413.847 221.343 414.119C221.564 414.425 221.768 414.986 221.853 415.343C227.837 414.629 233.634 412.657 235.997 407.659L235.147 407.132ZM240.859 400.468C241.539 401.352 242.253 402.593 242.542 403.392L243.664 402.78C243.358 401.998 242.627 400.808 241.913 399.941L240.859 400.468ZM252.844 408.9V407.659H246.231C246.248 407.336 246.265 407.03 246.265 406.707V404.633H251.926V403.392H248.56C249.172 402.474 249.852 401.318 250.413 400.315L249.07 399.839C248.628 400.91 247.863 402.372 247.2 403.392H239.244V404.633H244.854V406.69C244.854 407.013 244.837 407.319 244.82 407.659H238.224V408.9H244.565C244.021 410.719 242.406 412.64 237.884 414.187C238.224 414.442 238.615 414.986 238.785 415.275C243.137 413.762 244.99 411.807 245.755 409.852C247.149 412.453 249.376 414.306 252.385 415.173C252.555 414.799 252.963 414.272 253.269 413.983C250.175 413.218 247.863 411.382 246.588 408.9H252.844ZM270.031 406.52H263.316V402.236H268.841V400.995H256.159V402.236H262.007V406.52H254.986V407.761H262.007V413.456C262.007 413.813 261.871 413.915 261.514 413.932C261.123 413.949 259.831 413.949 258.437 413.915C258.641 414.272 258.896 414.867 258.981 415.224C260.698 415.224 261.803 415.207 262.432 414.986C263.061 414.782 263.316 414.391 263.316 413.456V407.761H270.031V406.52ZM286.623 403.052C286.062 402.253 284.889 401.063 283.903 400.23L282.934 400.893C283.937 401.76 285.076 402.984 285.603 403.783L286.623 403.052ZM285.093 406.758C284.515 407.846 283.767 408.883 282.866 409.852C282.577 408.73 282.339 407.421 282.169 405.976H287.031V404.769H282.033C281.897 403.256 281.829 401.624 281.829 399.924H280.537C280.554 401.59 280.622 403.222 280.775 404.769H276.882V401.811C277.919 401.59 278.905 401.318 279.721 401.029L278.82 399.992C277.222 400.587 274.485 401.165 272.105 401.522C272.275 401.828 272.445 402.27 272.513 402.576C273.516 402.44 274.587 402.27 275.641 402.066V404.769H272.003V405.976H275.641V408.951C274.162 409.257 272.785 409.546 271.765 409.716L272.122 410.991C273.142 410.77 274.366 410.481 275.641 410.209V413.66C275.641 413.966 275.539 414.051 275.233 414.051C274.944 414.068 273.941 414.085 272.853 414.034C273.04 414.391 273.261 414.969 273.329 415.309C274.706 415.309 275.624 415.275 276.151 415.071C276.678 414.867 276.882 414.493 276.882 413.677V409.903C277.919 409.665 278.973 409.427 280.01 409.172L279.925 408.033C278.922 408.254 277.885 408.475 276.882 408.696V405.976H280.877C281.098 407.812 281.421 409.495 281.829 410.906C280.622 412.028 279.228 412.963 277.8 413.66C278.123 413.932 278.48 414.357 278.667 414.663C279.942 414 281.149 413.15 282.254 412.164C283.036 414.153 284.056 415.343 285.399 415.343C286.674 415.343 287.116 414.527 287.354 411.722C286.997 411.603 286.555 411.314 286.283 411.042C286.181 413.218 285.977 414.085 285.518 414.085C284.668 414.085 283.903 412.997 283.257 411.212C284.447 410.005 285.45 408.662 286.215 407.217L285.093 406.758ZM291.876 399.873C291.145 402.474 290.006 405.075 288.663 406.792C288.884 407.081 289.241 407.778 289.343 408.067C289.751 407.54 290.142 406.945 290.516 406.282V415.292H291.74V403.817C292.233 402.661 292.692 401.42 293.032 400.196L291.876 399.873ZM293.78 415.309H295.004V403.188H293.78V415.309ZM294.477 400.315C295.242 401.352 296.092 402.78 296.449 403.63L297.486 403.035C297.095 402.185 296.211 400.808 295.463 399.788L294.477 400.315ZM303.606 400.4H297.775V401.556H302.365V413.677C302.365 413.966 302.28 414.051 301.991 414.068C301.719 414.085 300.784 414.102 299.815 414.051C299.985 414.391 300.172 414.935 300.223 415.258C301.549 415.258 302.416 415.241 302.926 415.037C303.419 414.833 303.606 414.476 303.606 413.694V400.4ZM311.256 407.183H307.686V403.63H311.256V407.183ZM307.686 412.385V408.305H311.256V412.385H307.686ZM309.114 399.737C308.995 400.536 308.689 401.675 308.434 402.491H306.53V414.867H307.686V413.524H312.412V402.491H309.59C309.879 401.76 310.185 400.825 310.474 399.992L309.114 399.737ZM320.725 402.44H315.642C315.931 401.641 316.169 400.825 316.373 399.992L315.166 399.703C314.622 402.032 313.704 404.378 312.565 405.874C312.837 406.044 313.381 406.384 313.602 406.588C314.197 405.789 314.724 404.752 315.2 403.613H319.518C319.297 410.379 319.042 412.963 318.481 413.558C318.311 413.779 318.124 413.813 317.784 413.813C317.393 413.813 316.373 413.813 315.268 413.711C315.506 414.068 315.659 414.578 315.693 414.952C316.645 415.003 317.614 415.037 318.209 414.969C318.787 414.918 319.178 414.765 319.552 414.289C320.232 413.456 320.453 410.838 320.725 403.086V402.44ZM318.039 410.09C317.495 409.087 316.322 407.455 315.37 406.248L314.384 406.826C315.319 408.05 316.458 409.733 316.968 410.753L318.039 410.09ZM331.146 412.742V402.984H337.249V401.692H323.819V402.984H329.769V412.742H322.935V414H338.099V412.742H331.146ZM343.879 399.839C342.927 402.423 341.363 404.956 339.68 406.588C339.918 406.86 340.292 407.557 340.411 407.846C340.989 407.251 341.567 406.571 342.094 405.823V415.275H343.352V403.868C344.015 402.695 344.627 401.454 345.086 400.23L343.879 399.839ZM355.286 403.817V402.61H348.214C348.554 401.862 348.877 401.097 349.149 400.315L347.942 399.992C347.109 402.474 345.732 404.922 344.202 406.503C344.491 406.707 344.984 407.132 345.188 407.353C346.038 406.401 346.871 405.177 347.602 403.817H348.775V415.292H350.05V411.178H355.133V409.988H350.05V407.421H354.895V406.248H350.05V403.817H355.286ZM358.669 415.819C360.454 415.19 361.61 413.796 361.61 411.96C361.61 410.77 361.1 410.005 360.165 410.005C359.468 410.005 358.873 410.43 358.873 411.229C358.873 412.028 359.451 412.436 360.148 412.436C360.25 412.436 360.335 412.436 360.437 412.419C360.352 413.575 359.604 414.374 358.295 414.918L358.669 415.819ZM388.385 401.59C387.756 401.029 386.498 400.298 385.461 399.839L384.73 400.621C385.767 401.114 387.008 401.896 387.603 402.474L388.385 401.59ZM381.585 411.348C378.831 411.926 375.941 412.504 374.105 412.861L374.343 414.136C376.315 413.694 379.086 413.099 381.687 412.538L381.585 411.348ZM379.8 409.274H376.349V406.333H379.8V409.274ZM375.176 405.228V410.362H381.041V405.228H375.176ZM386.923 404.939C386.379 406.707 385.648 408.271 384.73 409.665C384.305 408.016 384.016 405.976 383.846 403.732H388.861V402.491H383.761C383.727 401.624 383.71 400.74 383.71 399.822H382.384C382.401 400.723 382.418 401.607 382.469 402.491H374.19V403.732H382.537C382.758 406.486 383.132 409.002 383.727 410.991C382.605 412.351 381.245 413.473 379.647 414.323C379.936 414.544 380.429 415.037 380.633 415.292C381.976 414.493 383.166 413.524 384.22 412.368C384.985 414.204 386.005 415.309 387.28 415.309C388.589 415.309 389.065 414.476 389.286 411.569C388.929 411.45 388.47 411.161 388.181 410.855C388.079 413.116 387.875 414 387.399 414C386.566 414 385.801 412.946 385.172 411.195C386.447 409.512 387.45 407.523 388.181 405.245L386.923 404.939ZM404.093 403.29H399.877V401.709H404.093V403.29ZM404.093 405.874H399.877V404.276H404.093V405.874ZM404.093 408.458H399.877V406.843H404.093V408.458ZM405.3 400.672H398.704V409.495H405.3V400.672ZM397.055 410.005C397.837 410.77 398.874 411.858 399.367 412.504L400.285 411.756C399.758 411.127 398.721 410.073 397.939 409.359L397.055 410.005ZM391.955 414.408C392.635 413.473 393.179 411.96 393.553 410.821L392.448 410.396C392.108 411.501 391.53 412.946 390.85 413.847L391.955 414.408ZM395.287 409.665V405.534C396.035 406.163 396.987 406.996 397.429 407.421L398.109 406.401C397.667 406.061 395.933 404.769 395.287 404.361V403.409H397.973V402.304H395.287V399.822H394.08V402.304H390.986V403.409H393.859C393.111 405.143 391.853 406.894 390.612 407.778C390.867 407.982 391.224 408.373 391.428 408.662C392.38 407.88 393.332 406.588 394.08 405.194V409.665H395.287ZM397.242 413.796C396.256 413.796 396.086 413.711 396.086 413.269V410.583H394.845V413.286C394.845 414.595 395.321 414.935 397.157 414.935H400.676C402.206 414.935 402.597 414.425 402.767 412.3C402.41 412.232 401.9 412.045 401.611 411.824C401.543 413.558 401.407 413.796 400.591 413.796H397.242ZM403.005 410.549C403.685 411.671 404.569 413.15 404.96 414.034L406.133 413.456C405.708 412.589 404.79 411.127 404.093 410.056L403.005 410.549ZM417.625 407.302V410.617H413.358V407.302H417.625ZM418.798 411.756V406.163H412.202V412.963H413.358V411.756H418.798ZM422.351 402.695H414.769C415.194 401.879 415.636 400.91 416.01 400.009L414.463 399.737C414.242 400.604 413.8 401.777 413.375 402.695H408.734V415.292H409.975V403.919H421.093V413.609C421.093 413.932 420.991 414.017 420.685 414.034C420.328 414.051 419.155 414.051 417.931 414C418.118 414.34 418.322 414.935 418.39 415.292C419.92 415.292 420.957 415.275 421.569 415.071C422.164 414.867 422.351 414.442 422.351 413.609V402.695ZM439.623 403.052C439.062 402.253 437.889 401.063 436.903 400.23L435.934 400.893C436.937 401.76 438.076 402.984 438.603 403.783L439.623 403.052ZM438.093 406.758C437.515 407.846 436.767 408.883 435.866 409.852C435.577 408.73 435.339 407.421 435.169 405.976H440.031V404.769H435.033C434.897 403.256 434.829 401.624 434.829 399.924H433.537C433.554 401.59 433.622 403.222 433.775 404.769H429.882V401.811C430.919 401.59 431.905 401.318 432.721 401.029L431.82 399.992C430.222 400.587 427.485 401.165 425.105 401.522C425.275 401.828 425.445 402.27 425.513 402.576C426.516 402.44 427.587 402.27 428.641 402.066V404.769H425.003V405.976H428.641V408.951C427.162 409.257 425.785 409.546 424.765 409.716L425.122 410.991C426.142 410.77 427.366 410.481 428.641 410.209V413.66C428.641 413.966 428.539 414.051 428.233 414.051C427.944 414.068 426.941 414.085 425.853 414.034C426.04 414.391 426.261 414.969 426.329 415.309C427.706 415.309 428.624 415.275 429.151 415.071C429.678 414.867 429.882 414.493 429.882 413.677V409.903C430.919 409.665 431.973 409.427 433.01 409.172L432.925 408.033C431.922 408.254 430.885 408.475 429.882 408.696V405.976H433.877C434.098 407.812 434.421 409.495 434.829 410.906C433.622 412.028 432.228 412.963 430.8 413.66C431.123 413.932 431.48 414.357 431.667 414.663C432.942 414 434.149 413.15 435.254 412.164C436.036 414.153 437.056 415.343 438.399 415.343C439.674 415.343 440.116 414.527 440.354 411.722C439.997 411.603 439.555 411.314 439.283 411.042C439.181 413.218 438.977 414.085 438.518 414.085C437.668 414.085 436.903 412.997 436.257 411.212C437.447 410.005 438.45 408.662 439.215 407.217L438.093 406.758ZM444.876 399.873C444.145 402.474 443.006 405.075 441.663 406.792C441.884 407.081 442.241 407.778 442.343 408.067C442.751 407.54 443.142 406.945 443.516 406.282V415.292H444.74V403.817C445.233 402.661 445.692 401.42 446.032 400.196L444.876 399.873ZM446.78 415.309H448.004V403.188H446.78V415.309ZM447.477 400.315C448.242 401.352 449.092 402.78 449.449 403.63L450.486 403.035C450.095 402.185 449.211 400.808 448.463 399.788L447.477 400.315ZM456.606 400.4H450.775V401.556H455.365V413.677C455.365 413.966 455.28 414.051 454.991 414.068C454.719 414.085 453.784 414.102 452.815 414.051C452.985 414.391 453.172 414.935 453.223 415.258C454.549 415.258 455.416 415.241 455.926 415.037C456.419 414.833 456.606 414.476 456.606 413.694V400.4ZM46.753 430.644H41.143V429.301H46.753V430.644ZM46.753 432.888H41.143V431.528H46.753V432.888ZM47.96 428.349H39.987V433.857H47.96V428.349ZM38.729 435.183L37.012 435.71V432.361H38.882V431.188H37.012V427.805H35.839V431.188H33.748V432.361H35.839V436.084C34.972 436.356 34.19 436.594 33.561 436.747L33.867 437.971C34.479 437.784 35.142 437.58 35.839 437.342V441.711C35.839 441.966 35.754 442.034 35.533 442.034C35.346 442.034 34.683 442.034 33.952 442.017C34.122 442.374 34.275 442.884 34.326 443.19C35.397 443.207 36.043 443.156 36.434 442.952C36.859 442.748 37.012 442.425 37.012 441.728V436.968C37.641 436.747 38.27 436.56 38.882 436.339L38.729 435.183ZM44.543 439.161H48.062V438.124H44.543V436.135H48.895V435.064H39.205V436.135H43.353V441.507C42.384 441.099 41.636 440.317 41.143 438.889C41.296 438.328 41.398 437.699 41.483 437.07L40.31 436.934C40.038 439.45 39.29 441.354 37.777 442.544C38.049 442.714 38.525 443.105 38.712 443.309C39.613 442.51 40.276 441.473 40.752 440.198C41.857 442.578 43.642 443.037 46.09 443.037H49.048C49.099 442.714 49.252 442.187 49.422 441.915C48.861 441.932 46.549 441.932 46.141 441.932C45.58 441.932 45.036 441.898 44.543 441.83V439.161ZM63.804 436.22V441.065H59.146V435.149H64.501V429.318H63.141V433.908H59.146V427.788H57.786V433.908H53.893V429.335H52.584V435.149H57.786V441.065H53.196V436.22H51.836V442.306H63.804V443.275H65.164V436.22H63.804ZM69.499 431.375H74.854V435.387H76.044V431.375H81.484V433.687H82.657V430.457H76.044V429.471H81.671V428.451H69.329V429.471H74.854V430.457H68.36V433.687H69.499V431.375ZM76.928 434.928H81.076V434.078H76.928V434.928ZM76.928 432.31V433.143H80.668V432.31H76.928ZM73.97 432.31H70.332V433.143H73.97V432.31ZM69.975 434.928H73.97V434.078H69.975V434.928ZM82.895 436.968V435.931H68.156V436.968H74.718C74.616 437.359 74.497 437.784 74.378 438.175H69.465V443.258H70.672V439.212H73.188V443.156H74.327V439.212H76.911V443.156H78.067V439.212H80.736V442.034C80.736 442.187 80.685 442.238 80.498 442.255C80.294 442.272 79.733 442.272 79.053 442.255C79.206 442.544 79.376 442.986 79.444 443.292C80.362 443.292 80.991 443.292 81.416 443.105C81.841 442.918 81.943 442.612 81.943 442.051V438.175H75.568C75.704 437.801 75.874 437.393 76.01 436.968H82.895ZM98.093 432.616C97.328 433.67 96.053 435.013 94.999 435.982C94.234 434.775 93.588 433.449 93.112 432.072V431.851H99.912V430.627H97.821L98.535 429.811C97.855 429.233 96.495 428.434 95.424 427.89L94.676 428.689C95.696 429.233 96.971 430.032 97.668 430.627H93.112V427.822H91.837V430.627H85.156V431.851H91.837V436.56C89.27 438.022 86.499 439.569 84.782 440.453L85.598 441.592C87.332 440.589 89.644 439.212 91.837 437.852V441.592C91.837 441.915 91.718 442 91.412 442.017C91.072 442.034 89.967 442.034 88.811 442C88.981 442.374 89.185 442.969 89.253 443.326C90.749 443.326 91.752 443.292 92.313 443.071C92.874 442.867 93.112 442.476 93.112 441.592V434.843C94.574 437.971 96.699 440.555 99.436 441.881C99.657 441.541 100.065 441.048 100.354 440.81C98.518 440.011 96.903 438.617 95.628 436.917C96.784 435.965 98.144 434.588 99.181 433.381L98.093 432.616ZM89.865 435.999C89.321 435.081 88.08 433.772 87.009 432.854L86.057 433.517C87.128 434.469 88.318 435.829 88.845 436.747L89.865 435.999ZM105.692 430.253C106.066 430.899 106.44 431.698 106.593 432.208L107.698 431.783C107.562 431.358 107.273 430.797 106.967 430.253H109.33V429.182H105.25C105.437 428.808 105.607 428.417 105.76 428.026L104.553 427.737C104.026 429.25 103.04 430.712 101.901 431.664C102.224 431.817 102.717 432.157 102.955 432.361C103.533 431.8 104.128 431.069 104.638 430.253H105.692ZM102.87 443.292H104.094V434.316H102.87V443.292ZM103.754 432.565C104.417 433.211 105.148 434.129 105.454 434.707L106.457 434.061C106.117 433.466 105.352 432.582 104.706 431.953L103.754 432.565ZM111.591 436.169V437.563H107.426V436.169H111.591ZM107.426 439.994V438.498H111.591V439.994H107.426ZM112.798 440.997V435.183H106.253V441.847H107.426V440.997H112.798ZM116.147 432.446H106.967V433.585H114.906V441.779C114.906 442.051 114.821 442.136 114.481 442.136C114.175 442.17 113.019 442.17 111.846 442.136C112.033 442.459 112.203 442.918 112.271 443.241C113.818 443.241 114.804 443.258 115.365 443.071C115.943 442.867 116.147 442.527 116.147 441.779V432.446ZM111.88 429.182C112.05 428.808 112.203 428.417 112.305 428.026L111.115 427.754C110.69 429.131 109.908 430.474 108.973 431.358C109.262 431.528 109.772 431.868 109.993 432.055C110.486 431.579 110.928 430.95 111.336 430.253H112.628C113.104 430.899 113.546 431.698 113.733 432.208L114.838 431.715C114.668 431.307 114.362 430.78 114.005 430.253H116.742V429.182H111.88ZM124.409 435.132L122.539 435.659V432.429H124.443V431.188H122.539V427.788H121.281V431.188H118.867V432.429H121.281V436.016C120.278 436.305 119.36 436.543 118.629 436.713L118.969 437.988C119.666 437.801 120.448 437.563 121.281 437.325V441.728C121.281 442.017 121.162 442.102 120.873 442.102C120.635 442.119 119.768 442.136 118.816 442.102C119.003 442.442 119.19 442.969 119.224 443.309C120.567 443.309 121.366 443.292 121.859 443.071C122.335 442.867 122.539 442.51 122.539 441.728V436.951L124.579 436.339L124.409 435.132ZM132.212 435.285C131.838 436.645 131.226 437.954 130.393 439.11C129.475 437.971 128.71 436.662 128.166 435.285H132.212ZM132.892 434.095L132.671 434.146H126.449V429.522H131.855C131.787 431.052 131.685 431.715 131.464 431.919C131.345 432.038 131.141 432.055 130.784 432.055C130.444 432.055 129.339 432.055 128.217 431.953C128.421 432.259 128.557 432.684 128.574 433.024C129.696 433.075 130.767 433.092 131.311 433.058C131.872 433.024 132.229 432.922 132.552 432.616C132.909 432.242 133.062 431.273 133.164 428.893C133.181 428.706 133.181 428.349 133.181 428.349H125.208V443.275H126.449V435.285H126.959C127.605 437.07 128.489 438.702 129.611 440.096C128.744 441.014 127.741 441.813 126.568 442.408C126.857 442.663 127.214 443.037 127.401 443.326C128.54 442.714 129.56 441.932 130.41 440.997C131.311 441.932 132.314 442.714 133.436 443.258C133.623 442.918 134.014 442.442 134.32 442.187C133.181 441.711 132.144 440.963 131.226 440.028C132.433 438.413 133.266 436.458 133.708 434.367L132.892 434.095ZM137.669 443.819C139.454 443.19 140.61 441.796 140.61 439.96C140.61 438.77 140.1 438.005 139.165 438.005C138.468 438.005 137.873 438.43 137.873 439.229C137.873 440.028 138.451 440.436 139.148 440.436C139.25 440.436 139.335 440.436 139.437 440.419C139.352 441.575 138.604 442.374 137.295 442.918L137.669 443.819ZM157.253 430.661C156.726 429.981 155.57 428.927 154.686 428.179L153.87 428.927C154.754 429.726 155.876 430.831 156.386 431.545L157.253 430.661ZM156.522 440.334V433.092H152.765V434.299H155.298V440.47C155.298 441.218 154.822 441.728 154.499 441.915C154.72 442.17 155.043 442.697 155.162 442.986C155.417 442.663 155.859 442.289 158.698 440.096C158.562 439.858 158.341 439.382 158.256 439.042L156.522 440.334ZM160.398 439.756V438.379H165.702V439.756H160.398ZM165.702 436.186V437.495H160.398V436.186H165.702ZM166.909 435.2H159.208V443.292H160.398V440.674H165.702V441.864C165.702 442.085 165.634 442.153 165.379 442.153C165.175 442.17 164.359 442.17 163.492 442.136C163.645 442.459 163.815 442.918 163.866 443.224C165.073 443.241 165.821 443.224 166.314 443.037C166.773 442.85 166.909 442.527 166.909 441.881V435.2ZM163.662 433.262V432.072H167.232V431.154H163.662V430.083H167.742V429.114H163.662V427.788H162.421V429.114H158.511V430.083H162.421V431.154H158.919V432.072H162.421V433.262H158.001V434.231H168.235V433.262H163.662ZM179.234 432.99V434.486H176.395V432.99H179.234ZM183.331 432.99V434.486H180.373V432.99H183.331ZM180.373 436.968V435.421H183.331V436.968H180.373ZM176.395 436.968V435.421H179.234V436.968H176.395ZM176.395 437.937H179.234V440.708H180.373V437.937H183.331V439.484C183.331 439.705 183.263 439.773 183.042 439.773C182.838 439.773 182.124 439.79 181.325 439.756C181.478 440.062 181.614 440.487 181.665 440.81C182.804 440.81 183.518 440.793 183.96 440.606C184.402 440.419 184.538 440.13 184.538 439.501V432.021H182.311C181.971 431.817 181.529 431.579 181.053 431.358C182.311 430.712 183.603 429.828 184.521 428.927L183.756 428.332L183.501 428.4H175.205V429.403H182.345C181.648 429.913 180.781 430.457 179.948 430.848C179.115 430.491 178.231 430.134 177.483 429.862L176.701 430.576C177.738 430.967 178.962 431.511 179.999 432.021H175.188V440.776H176.395V437.937ZM173.947 431.239C173.335 430.474 172.026 429.284 171.023 428.451L170.139 429.165C171.159 430.049 172.434 431.29 173.029 432.072L173.947 431.239ZM173.386 434.112H169.782V435.302H172.162V440.096C171.431 440.402 170.581 441.167 169.714 442.085L170.513 443.122C171.363 441.983 172.196 441.014 172.774 441.014C173.165 441.014 173.76 441.575 174.423 441.983C175.613 442.714 177.024 442.918 179.098 442.918C180.917 442.918 183.875 442.816 185.048 442.748C185.082 442.391 185.269 441.83 185.405 441.507C183.671 441.677 181.121 441.83 179.132 441.83C177.245 441.83 175.817 441.694 174.678 440.997C174.083 440.64 173.726 440.317 173.386 440.13V434.112ZM198.223 438.736C198.223 439.025 198.104 439.127 197.764 439.144C197.424 439.144 196.234 439.144 195.01 439.11C195.197 439.467 195.401 440.028 195.452 440.385C197.05 440.385 198.087 440.351 198.665 440.147C199.26 439.96 199.481 439.586 199.481 438.736V432.021H201.827V430.814H199.481V427.839H198.223V430.814H191.695V432.021H198.223V438.736ZM192.494 433.908C193.361 434.962 194.381 436.441 194.857 437.325L195.928 436.679C195.435 435.795 194.347 434.401 193.497 433.364L192.494 433.908ZM190.947 431.052C190.437 430.253 189.315 429.08 188.38 428.23L187.411 428.876C188.346 429.743 189.434 430.984 189.91 431.783L190.947 431.052ZM190.488 434.112H186.918V435.302H189.247V439.722C188.499 440.011 187.598 440.759 186.697 441.728L187.581 442.918C188.448 441.762 189.264 440.759 189.825 440.759C190.199 440.759 190.76 441.32 191.457 441.762C192.63 442.51 194.041 442.697 196.132 442.697C197.764 442.697 200.739 442.612 201.946 442.527C201.963 442.136 202.167 441.507 202.337 441.167C200.688 441.337 198.155 441.49 196.166 441.49C194.296 441.49 192.834 441.354 191.746 440.674C191.168 440.317 190.811 440.011 190.488 439.807V434.112ZM213.064 433.313C212.554 432.208 211.449 430.576 210.446 429.369L209.375 429.93C210.361 431.171 211.449 432.888 211.925 433.976L213.064 433.313ZM207.114 439.178V429.097H205.771V439.042C205.771 439.824 205.108 440.368 204.751 440.572C204.972 440.81 205.346 441.32 205.448 441.609C205.873 441.235 206.485 440.878 211.381 438.532C211.279 438.243 211.109 437.716 211.058 437.342L207.114 439.178ZM219.354 442.442C218.538 441.252 216.889 439.484 215.427 438.09C216.549 435.676 217.008 432.548 217.246 428.519L215.92 428.451C215.529 435.965 214.356 440.164 208.916 442.323C209.205 442.578 209.681 443.139 209.851 443.411C212.146 442.357 213.727 441.014 214.832 439.212C216.192 440.555 217.586 442.17 218.266 443.258L219.354 442.442ZM236.014 430.287V429.029H221.003V430.287H227.497V443.275H228.84V434.333C230.778 435.37 233.056 436.764 234.212 437.716L235.096 436.577C233.753 435.557 231.084 434.027 229.061 433.058L228.84 433.313V430.287H236.014ZM240.502 437.495V435.064H244.684V437.495H240.502ZM244.684 431.46V433.891H240.502V431.46H244.684ZM250.379 431.46V433.891H246.01V431.46H250.379ZM246.01 437.495V435.064H250.379V437.495H246.01ZM247.217 441.745C246.197 441.745 246.01 441.541 246.01 440.555V438.736H251.637V430.236H246.01V427.805H244.684V430.236H239.21V439.773H240.502V438.736H244.684V440.521C244.684 442.51 245.245 443.003 247.132 443.003H250.872C252.657 443.003 253.065 442.102 253.286 439.552C252.895 439.45 252.351 439.229 252.045 438.991C251.909 441.201 251.739 441.745 250.787 441.745H247.217ZM270.15 435.302H263.214V433.5C265.152 432.514 267.328 431.001 268.773 429.573L267.821 428.859L267.549 428.927H256.601V430.168H266.172C264.982 431.154 263.333 432.208 261.922 432.854V435.302H254.918V436.56H261.922V441.609C261.922 441.915 261.803 442 261.463 442.017C261.089 442.034 259.848 442.051 258.471 442C258.692 442.357 258.93 442.918 259.015 443.292C260.647 443.292 261.718 443.275 262.347 443.054C262.993 442.867 263.214 442.476 263.214 441.626V436.56H270.15V435.302ZM278.837 435.03H276.78V431.477H278.837V435.03ZM276.78 439.994V436.135H278.837V439.994H276.78ZM273.601 436.135H275.675V439.994H273.601V436.135ZM275.675 431.477V435.03H273.601V431.477H275.675ZM276.848 427.805H275.624V430.372H272.496V442.221H273.601V441.099H278.837V441.983H279.993V430.372H276.848V427.805ZM286.198 428.638L285.994 428.689H281.625V443.292H282.73V429.879H285.467C284.991 431.188 284.328 432.973 283.682 434.401C285.229 435.931 285.671 437.172 285.671 438.226C285.688 438.821 285.569 439.331 285.229 439.552C285.025 439.671 284.77 439.722 284.515 439.739C284.158 439.739 283.682 439.739 283.138 439.688C283.359 440.045 283.478 440.555 283.512 440.895C284.005 440.929 284.566 440.929 285.008 440.878C285.399 440.827 285.773 440.708 286.062 440.521C286.623 440.147 286.861 439.331 286.861 438.345C286.861 437.155 286.47 435.846 284.923 434.248C285.654 432.667 286.453 430.746 287.065 429.199L286.198 428.638ZM292.59 427.839C291.689 430.406 290.193 432.939 288.612 434.588C288.833 434.877 289.207 435.523 289.326 435.829C289.853 435.234 290.397 434.571 290.89 433.84V443.275H292.097V431.885C292.743 430.712 293.304 429.454 293.78 428.213L292.59 427.839ZM304.116 436.203H299.509V432.48H303.385V431.239H299.509V427.992H298.251V431.239H295.99C296.211 430.474 296.398 429.675 296.551 428.876L295.361 428.621C294.97 430.814 294.273 433.024 293.27 434.418C293.593 434.571 294.12 434.877 294.358 435.064C294.817 434.35 295.225 433.466 295.582 432.48H298.251V436.203H293.406V437.444H298.251V443.309H299.509V437.444H304.116V436.203ZM316.543 437.937H306.037V439.161H316.543V437.937ZM309.454 434.367C309.675 433.449 309.896 432.395 310.134 431.324H319.824V430.117H310.372C310.508 429.488 310.61 428.859 310.729 428.281L309.454 428.145C309.046 430.474 308.366 433.67 307.839 435.54L308.893 435.557H318.685C318.294 439.45 317.869 441.201 317.223 441.694C317.036 441.881 316.781 441.898 316.356 441.898C315.863 441.898 314.554 441.898 313.228 441.779C313.483 442.119 313.67 442.646 313.704 443.02C314.894 443.105 316.118 443.122 316.73 443.088C317.444 443.054 317.886 442.935 318.311 442.493C319.076 441.762 319.552 439.824 320.028 434.979C320.062 434.809 320.079 434.367 320.079 434.367H309.454ZM337.623 431.052C337.062 430.253 335.889 429.063 334.903 428.23L333.934 428.893C334.937 429.76 336.076 430.984 336.603 431.783L337.623 431.052ZM336.093 434.758C335.515 435.846 334.767 436.883 333.866 437.852C333.577 436.73 333.339 435.421 333.169 433.976H338.031V432.769H333.033C332.897 431.256 332.829 429.624 332.829 427.924H331.537C331.554 429.59 331.622 431.222 331.775 432.769H327.882V429.811C328.919 429.59 329.905 429.318 330.721 429.029L329.82 427.992C328.222 428.587 325.485 429.165 323.105 429.522C323.275 429.828 323.445 430.27 323.513 430.576C324.516 430.44 325.587 430.27 326.641 430.066V432.769H323.003V433.976H326.641V436.951C325.162 437.257 323.785 437.546 322.765 437.716L323.122 438.991C324.142 438.77 325.366 438.481 326.641 438.209V441.66C326.641 441.966 326.539 442.051 326.233 442.051C325.944 442.068 324.941 442.085 323.853 442.034C324.04 442.391 324.261 442.969 324.329 443.309C325.706 443.309 326.624 443.275 327.151 443.071C327.678 442.867 327.882 442.493 327.882 441.677V437.903C328.919 437.665 329.973 437.427 331.01 437.172L330.925 436.033C329.922 436.254 328.885 436.475 327.882 436.696V433.976H331.877C332.098 435.812 332.421 437.495 332.829 438.906C331.622 440.028 330.228 440.963 328.8 441.66C329.123 441.932 329.48 442.357 329.667 442.663C330.942 442 332.149 441.15 333.254 440.164C334.036 442.153 335.056 443.343 336.399 443.343C337.674 443.343 338.116 442.527 338.354 439.722C337.997 439.603 337.555 439.314 337.283 439.042C337.181 441.218 336.977 442.085 336.518 442.085C335.668 442.085 334.903 440.997 334.257 439.212C335.447 438.005 336.45 436.662 337.215 435.217L336.093 434.758ZM342.876 427.873C342.145 430.474 341.006 433.075 339.663 434.792C339.884 435.081 340.241 435.778 340.343 436.067C340.751 435.54 341.142 434.945 341.516 434.282V443.292H342.74V431.817C343.233 430.661 343.692 429.42 344.032 428.196L342.876 427.873ZM344.78 443.309H346.004V431.188H344.78V443.309ZM345.477 428.315C346.242 429.352 347.092 430.78 347.449 431.63L348.486 431.035C348.095 430.185 347.211 428.808 346.463 427.788L345.477 428.315ZM354.606 428.4H348.775V429.556H353.365V441.677C353.365 441.966 353.28 442.051 352.991 442.068C352.719 442.085 351.784 442.102 350.815 442.051C350.985 442.391 351.172 442.935 351.223 443.258C352.549 443.258 353.416 443.241 353.926 443.037C354.419 442.833 354.606 442.476 354.606 441.694V428.4ZM366.982 430.627C366.676 429.896 365.945 428.825 365.265 428.06L364.262 428.553C364.925 429.352 365.622 430.457 365.911 431.188L366.982 430.627ZM358.907 436.611H361.355V438.991C360.505 439.127 359.672 439.263 358.907 439.382V436.611ZM361.355 429.658V432.038H358.907V429.658H361.355ZM358.907 433.109H361.355V435.54H358.907V433.109ZM363.871 439.688L363.786 438.6L362.46 438.804V429.658H363.208V428.502H356.85V429.658H357.785V439.552C357.394 439.603 357.037 439.637 356.697 439.688L356.969 440.878L361.355 440.13V443.309H362.46V439.926L363.871 439.688ZM372.167 436.696V435.54H368.019C368.053 435.166 368.053 434.843 368.053 434.503V432.463H371.538V431.29H369.243C369.821 430.457 370.45 429.403 370.994 428.434L369.736 428.077C369.311 429.046 368.546 430.406 367.9 431.29H363.701V432.463H366.795V434.486C366.795 434.826 366.795 435.166 366.761 435.54H363.276V436.696H366.642C366.353 438.617 365.435 440.793 362.681 442.561C363.004 442.782 363.412 443.173 363.616 443.462C365.775 441.983 366.914 440.249 367.475 438.583C368.359 440.691 369.685 442.357 371.521 443.292C371.708 442.952 372.065 442.493 372.354 442.238C370.212 441.286 368.716 439.229 367.968 436.696H372.167ZM377.896 438.175C377.012 439.382 375.618 440.64 374.258 441.456C374.598 441.626 375.108 442.051 375.363 442.289C376.638 441.388 378.134 439.977 379.154 438.617L377.896 438.175ZM386.498 436.781C386.974 437.342 387.399 437.886 387.688 438.311L388.691 437.699C387.994 436.679 386.549 435.115 385.223 433.959L384.271 434.452C384.713 434.877 385.189 435.336 385.631 435.829L378.202 436.305C380.752 435.081 383.336 433.517 385.818 431.63L384.849 430.814C383.999 431.511 383.064 432.191 382.146 432.803L378.032 433.007C379.239 432.14 380.48 431.035 381.585 429.879C383.795 429.658 385.886 429.335 387.501 428.944L386.6 427.907C383.88 428.587 378.967 429.029 374.87 429.25C375.006 429.539 375.159 430.032 375.193 430.355C376.672 430.287 378.253 430.185 379.834 430.049C378.729 431.205 377.488 432.208 377.046 432.48C376.553 432.871 376.162 433.126 375.805 433.16C375.941 433.483 376.111 434.061 376.179 434.299C376.502 434.163 377.046 434.095 380.497 433.891C379.035 434.775 377.794 435.455 377.216 435.727C376.162 436.254 375.414 436.577 374.853 436.645C375.006 436.985 375.193 437.563 375.244 437.818C375.72 437.631 376.383 437.529 381.024 437.189V441.609C381.024 441.813 380.973 441.881 380.684 441.898C380.412 441.898 379.494 441.898 378.474 441.864C378.678 442.221 378.899 442.731 378.95 443.105C380.191 443.105 381.041 443.105 381.585 442.884C382.146 442.68 382.299 442.34 382.299 441.626V437.087L386.498 436.781ZM383.795 438.736C385.206 439.824 386.94 441.371 387.773 442.323L388.844 441.558C387.943 440.606 386.192 439.11 384.798 438.09L383.795 438.736ZM394.25 433.738C394.93 433.738 395.542 433.245 395.542 432.48C395.542 431.698 394.93 431.188 394.25 431.188C393.57 431.188 392.975 431.698 392.975 432.48C392.975 433.245 393.57 433.738 394.25 433.738ZM394.25 442.068C394.93 442.068 395.542 441.558 395.542 440.793C395.542 440.011 394.93 439.518 394.25 439.518C393.57 439.518 392.975 440.011 392.975 440.793C392.975 441.558 393.57 442.068 394.25 442.068Z" fill="#0A0A10"/>
<path d="M36.114 472V466.744C36.114 465.448 37.104 464.44 38.418 464.44C39.696 464.44 40.614 465.394 40.614 466.744V472H42.396V466.546C42.396 464.242 40.902 462.748 38.832 462.748C37.518 462.748 36.564 463.432 36.204 463.954H36.114V459.4H34.332V472H36.114ZM48.766 472.18C51.304 472.18 53.23 470.236 53.23 467.464C53.23 464.692 51.304 462.748 48.766 462.748C46.228 462.748 44.284 464.692 44.284 467.464C44.284 470.236 46.228 472.18 48.766 472.18ZM48.766 470.524C47.29 470.524 46.066 469.3 46.066 467.464C46.066 465.61 47.29 464.404 48.766 464.404C50.242 464.404 51.448 465.61 51.448 467.464C51.448 469.3 50.242 470.524 48.766 470.524ZM56.9771 472V466.744C56.9771 465.448 57.9671 464.44 59.2811 464.44C60.5591 464.44 61.4771 465.394 61.4771 466.744V472H63.2591V466.546C63.2591 464.242 61.7651 462.748 59.6951 462.748C58.2911 462.748 57.3371 463.45 56.9771 463.954H56.8871L56.7251 462.928H55.1951V472H56.9771ZM69.6313 475.78C72.2773 475.78 73.8613 474.214 73.8613 471.856V462.928H72.3133L72.1513 464.116H72.0613C71.4853 463.288 70.4953 462.748 69.2533 462.748C66.9493 462.748 65.1493 464.548 65.1493 467.14C65.1493 469.732 66.9493 471.532 69.2533 471.532C70.4593 471.532 71.4313 471.01 71.9713 470.29H72.0613V471.838C72.0613 473.26 71.1073 474.196 69.6313 474.196C68.0833 474.196 67.3453 473.296 67.2553 472.54H65.4553C65.5273 473.908 66.7693 475.78 69.6313 475.78ZM69.5053 469.93C68.0653 469.93 66.9493 468.796 66.9493 467.14C66.9493 465.484 68.0653 464.35 69.5053 464.35C70.9453 464.35 72.0613 465.484 72.0613 467.14C72.0613 468.796 70.9453 469.93 69.5053 469.93ZM78.196 472V467.698L82.192 472H84.316L79.996 467.374L84.136 462.928H82.012L78.196 467.05V459.4H76.414V472H78.196ZM89.3012 472.18C91.8392 472.18 93.7652 470.236 93.7652 467.464C93.7652 464.692 91.8392 462.748 89.3012 462.748C86.7632 462.748 84.8192 464.692 84.8192 467.464C84.8192 470.236 86.7632 472.18 89.3012 472.18ZM89.3012 470.524C87.8252 470.524 86.6012 469.3 86.6012 467.464C86.6012 465.61 87.8252 464.404 89.3012 464.404C90.7772 464.404 91.9832 465.61 91.9832 467.464C91.9832 469.3 90.7772 470.524 89.3012 470.524ZM97.5123 472V466.744C97.5123 465.448 98.5023 464.44 99.8163 464.44C101.094 464.44 102.012 465.394 102.012 466.744V472H103.794V466.546C103.794 464.242 102.3 462.748 100.23 462.748C98.8263 462.748 97.8723 463.45 97.5123 463.954H97.4223L97.2603 462.928H95.7303V472H97.5123ZM110.166 475.78C112.812 475.78 114.396 474.214 114.396 471.856V462.928H112.848L112.686 464.116H112.596C112.02 463.288 111.03 462.748 109.788 462.748C107.484 462.748 105.684 464.548 105.684 467.14C105.684 469.732 107.484 471.532 109.788 471.532C110.994 471.532 111.966 471.01 112.506 470.29H112.596V471.838C112.596 473.26 111.642 474.196 110.166 474.196C108.618 474.196 107.88 473.296 107.79 472.54H105.99C106.062 473.908 107.304 475.78 110.166 475.78ZM110.04 469.93C108.6 469.93 107.484 468.796 107.484 467.14C107.484 465.484 108.6 464.35 110.04 464.35C111.48 464.35 112.596 465.484 112.596 467.14C112.596 468.796 111.48 469.93 110.04 469.93ZM127.641 473.818V472.306H123.987C120.531 472.306 118.227 470.074 118.227 466.744C118.227 463.414 120.621 461.02 124.023 461.02C127.677 461.02 129.999 463.324 129.999 466.474C129.999 468.364 129.315 469.048 128.415 469.048C127.839 469.048 127.461 468.67 127.461 467.968V463.216H126.183L126.021 464.116H125.931C125.625 463.612 124.815 463.072 123.681 463.072C121.665 463.072 120.153 464.602 120.153 466.816C120.153 469.03 121.665 470.56 123.681 470.56C124.941 470.56 125.913 469.894 126.273 469.372H126.363C126.561 469.894 127.227 470.56 128.379 470.56C130.233 470.56 131.601 469.246 131.601 466.474C131.601 462.532 128.577 459.508 124.023 459.508C119.757 459.508 116.643 462.568 116.643 466.744C116.643 470.866 119.631 473.818 123.987 473.818H127.641ZM123.843 469.084C122.619 469.084 121.737 468.202 121.737 466.816C121.737 465.43 122.619 464.548 123.843 464.548C125.067 464.548 125.949 465.43 125.949 466.816C125.949 468.202 125.067 469.084 123.843 469.084ZM136.777 472.18C139.261 472.18 140.485 470.956 140.485 469.48C140.485 468.004 139.603 467.104 137.713 466.798L136.219 466.546C135.247 466.384 134.869 466.006 134.869 465.448C134.869 464.8 135.463 464.206 136.687 464.206C137.911 464.206 138.631 464.872 138.631 465.61H140.377C140.377 464.224 139.045 462.748 136.687 462.748C134.311 462.748 133.105 463.99 133.105 465.448C133.105 466.906 134.041 467.734 135.841 468.022L137.317 468.274C138.325 468.454 138.721 468.85 138.721 469.498C138.721 470.146 138.091 470.704 136.777 470.704C135.427 470.704 134.725 470.002 134.725 469.282H132.979C132.979 470.56 134.131 472.18 136.777 472.18ZM146.343 472.18C148.575 472.18 149.925 470.812 150.411 469.39H148.575C148.215 470.092 147.405 470.65 146.343 470.65C144.921 470.65 143.769 469.624 143.625 468.094H150.591C150.609 467.95 150.663 467.626 150.663 467.212C150.663 464.656 148.791 462.748 146.343 462.748C143.787 462.748 141.843 464.71 141.843 467.464C141.843 470.218 143.787 472.18 146.343 472.18ZM143.625 466.798C143.805 465.34 144.849 464.26 146.343 464.26C147.747 464.26 148.791 465.34 148.899 466.798H143.625ZM156.231 472.18C157.563 472.18 158.499 471.586 159.093 470.758H159.183L159.345 472H160.875V459.4H159.093V464.116H159.003C158.463 463.36 157.527 462.748 156.231 462.748C153.927 462.748 152.073 464.638 152.073 467.464C152.073 470.29 153.927 472.18 156.231 472.18ZM156.483 470.524C155.061 470.524 153.873 469.336 153.873 467.464C153.873 465.574 155.061 464.404 156.483 464.404C157.887 464.404 159.093 465.574 159.093 467.464C159.093 469.336 157.887 470.524 156.483 470.524ZM167.383 475.78C170.029 475.78 171.613 474.214 171.613 471.856V462.928H170.065L169.903 464.116H169.813C169.237 463.288 168.247 462.748 167.005 462.748C164.701 462.748 162.901 464.548 162.901 467.14C162.901 469.732 164.701 471.532 167.005 471.532C168.211 471.532 169.183 471.01 169.723 470.29H169.813V471.838C169.813 473.26 168.859 474.196 167.383 474.196C165.835 474.196 165.097 473.296 165.007 472.54H163.207C163.279 473.908 164.521 475.78 167.383 475.78ZM167.257 469.93C165.817 469.93 164.701 468.796 164.701 467.14C164.701 465.484 165.817 464.35 167.257 464.35C168.697 464.35 169.813 465.484 169.813 467.14C169.813 468.796 168.697 469.93 167.257 469.93ZM177.982 472L179.674 465.43H180.034L181.726 472H184.282L186.658 462.928H184.804L183.076 469.642H182.716L180.97 462.928H178.756L177.01 469.642H176.65L174.922 462.928H173.05L175.444 472H177.982ZM189.993 461.146V459.418H188.049V461.146H189.993ZM189.903 472V462.928H188.121V472H189.903ZM196.317 472.18C198.639 472.18 200.097 470.65 200.493 468.76H198.693C198.405 469.822 197.577 470.524 196.317 470.524C194.841 470.524 193.635 469.3 193.635 467.464C193.635 465.61 194.841 464.404 196.317 464.404C197.577 464.404 198.405 465.124 198.693 466.096H200.493C200.097 464.278 198.639 462.748 196.317 462.748C193.779 462.748 191.835 464.692 191.835 467.464C191.835 470.236 193.779 472.18 196.317 472.18ZM204.214 472V467.698L208.21 472H210.334L206.014 467.374L210.154 462.928H208.03L204.214 467.05V459.4H202.432V472H204.214ZM216.815 467.698V466.042H210.875V467.698H216.815ZM220.665 472V466.456C220.665 465.268 221.295 464.602 222.465 464.602H224.031V462.928H222.339C221.475 462.928 220.989 463.252 220.665 463.756H220.575L220.413 462.928H218.883V472H220.665ZM227.346 461.146V459.418H225.402V461.146H227.346ZM227.256 472V462.928H225.474V472H227.256ZM233.67 472.18C235.992 472.18 237.45 470.65 237.846 468.76H236.046C235.758 469.822 234.93 470.524 233.67 470.524C232.194 470.524 230.988 469.3 230.988 467.464C230.988 465.61 232.194 464.404 233.67 464.404C234.93 464.404 235.758 465.124 236.046 466.096H237.846C237.45 464.278 235.992 462.748 233.67 462.748C231.132 462.748 229.188 464.692 229.188 467.464C229.188 470.236 231.132 472.18 233.67 472.18ZM241.567 472V466.744C241.567 465.448 242.557 464.44 243.871 464.44C245.149 464.44 246.067 465.394 246.067 466.744V472H247.849V466.546C247.849 464.242 246.355 462.748 244.285 462.748C242.971 462.748 242.017 463.432 241.657 463.954H241.567V459.4H239.785V472H241.567ZM253.049 472.18C254.417 472.18 255.425 471.55 255.821 470.902H255.911L256.073 472H257.621V466.204C257.621 464.116 256.181 462.748 253.913 462.748C251.573 462.748 250.313 464.152 250.187 465.61H251.951C252.059 464.926 252.707 464.26 253.913 464.26C255.083 464.26 255.839 465.016 255.839 466.204V466.492H253.481C251.033 466.492 249.863 467.68 249.863 469.408C249.863 470.992 251.105 472.18 253.049 472.18ZM253.301 470.686C252.257 470.686 251.645 470.146 251.645 469.3C251.645 468.454 252.257 467.86 253.643 467.86H255.839V468.184C255.839 469.678 254.921 470.686 253.301 470.686ZM261.815 472V466.456C261.815 465.268 262.445 464.602 263.615 464.602H265.181V462.928H263.489C262.625 462.928 262.139 463.252 261.815 463.756H261.725L261.563 462.928H260.033V472H261.815ZM270.067 472.18C271.399 472.18 272.335 471.586 272.929 470.758H273.019L273.181 472H274.711V459.4H272.929V464.116H272.839C272.299 463.36 271.363 462.748 270.067 462.748C267.763 462.748 265.909 464.638 265.909 467.464C265.909 470.29 267.763 472.18 270.067 472.18ZM270.319 470.524C268.897 470.524 267.709 469.336 267.709 467.464C267.709 465.574 268.897 464.404 270.319 464.404C271.723 464.404 272.929 465.574 272.929 467.464C272.929 469.336 271.723 470.524 270.319 470.524ZM280.373 472.18C282.857 472.18 284.081 470.956 284.081 469.48C284.081 468.004 283.199 467.104 281.309 466.798L279.815 466.546C278.843 466.384 278.465 466.006 278.465 465.448C278.465 464.8 279.059 464.206 280.283 464.206C281.507 464.206 282.227 464.872 282.227 465.61H283.973C283.973 464.224 282.641 462.748 280.283 462.748C277.907 462.748 276.701 463.99 276.701 465.448C276.701 466.906 277.637 467.734 279.437 468.022L280.913 468.274C281.921 468.454 282.317 468.85 282.317 469.498C282.317 470.146 281.687 470.704 280.373 470.704C279.023 470.704 278.321 470.002 278.321 469.282H276.575C276.575 470.56 277.727 472.18 280.373 472.18ZM289.92 472.18C292.458 472.18 294.384 470.236 294.384 467.464C294.384 464.692 292.458 462.748 289.92 462.748C287.382 462.748 285.438 464.692 285.438 467.464C285.438 470.236 287.382 472.18 289.92 472.18ZM289.92 470.524C288.444 470.524 287.22 469.3 287.22 467.464C287.22 465.61 288.444 464.404 289.92 464.404C291.396 464.404 292.602 465.61 292.602 467.464C292.602 469.3 291.396 470.524 289.92 470.524ZM298.131 472V466.744C298.131 465.448 299.121 464.44 300.435 464.44C301.713 464.44 302.631 465.394 302.631 466.744V472H304.413V466.546C304.413 464.242 302.919 462.748 300.849 462.748C299.445 462.748 298.491 463.45 298.131 463.954H298.041L297.879 462.928H296.349V472H298.131ZM308.752 472V469.966H306.7V472H308.752ZM315.039 472.18C317.361 472.18 318.819 470.65 319.215 468.76H317.415C317.127 469.822 316.299 470.524 315.039 470.524C313.563 470.524 312.357 469.3 312.357 467.464C312.357 465.61 313.563 464.404 315.039 464.404C316.299 464.404 317.127 465.124 317.415 466.096H319.215C318.819 464.278 317.361 462.748 315.039 462.748C312.501 462.748 310.557 464.692 310.557 467.464C310.557 470.236 312.501 472.18 315.039 472.18ZM325.006 472.18C327.544 472.18 329.47 470.236 329.47 467.464C329.47 464.692 327.544 462.748 325.006 462.748C322.468 462.748 320.524 464.692 320.524 467.464C320.524 470.236 322.468 472.18 325.006 472.18ZM325.006 470.524C323.53 470.524 322.306 469.3 322.306 467.464C322.306 465.61 323.53 464.404 325.006 464.404C326.482 464.404 327.688 465.61 327.688 467.464C327.688 469.3 326.482 470.524 325.006 470.524ZM333.217 472V466.51C333.217 465.322 334.099 464.44 335.179 464.44C336.259 464.44 337.015 465.196 337.015 466.51V472H338.797V466.51C338.797 465.322 339.697 464.44 340.759 464.44C341.839 464.44 342.577 465.196 342.577 466.51V472H344.359V466.348C344.359 464.206 342.973 462.748 341.083 462.748C339.697 462.748 338.653 463.504 338.221 464.26H338.131C337.825 463.594 336.943 462.748 335.539 462.748C334.495 462.748 333.613 463.342 333.217 463.918H333.127L332.965 462.928H331.435V472H333.217Z" fill="#0A0A10"/>
<path d="M33 475.546H345.547V476.914H33V475.546Z" fill="#0A0A10"/>
<a href="mailto:hongkong@sedgwick-richardson.com">
<rect fill="black" fill-opacity="0" y="1.16" width="312.547" height="22.68"/>
</a>
<path d="M48.623 498.052C48.062 497.253 46.889 496.063 45.903 495.23L44.934 495.893C45.937 496.76 47.076 497.984 47.603 498.783L48.623 498.052ZM47.093 501.758C46.515 502.846 45.767 503.883 44.866 504.852C44.577 503.73 44.339 502.421 44.169 500.976H49.031V499.769H44.033C43.897 498.256 43.829 496.624 43.829 494.924H42.537C42.554 496.59 42.622 498.222 42.775 499.769H38.882V496.811C39.919 496.59 40.905 496.318 41.721 496.029L40.82 494.992C39.222 495.587 36.485 496.165 34.105 496.522C34.275 496.828 34.445 497.27 34.513 497.576C35.516 497.44 36.587 497.27 37.641 497.066V499.769H34.003V500.976H37.641V503.951C36.162 504.257 34.785 504.546 33.765 504.716L34.122 505.991C35.142 505.77 36.366 505.481 37.641 505.209V508.66C37.641 508.966 37.539 509.051 37.233 509.051C36.944 509.068 35.941 509.085 34.853 509.034C35.04 509.391 35.261 509.969 35.329 510.309C36.706 510.309 37.624 510.275 38.151 510.071C38.678 509.867 38.882 509.493 38.882 508.677V504.903C39.919 504.665 40.973 504.427 42.01 504.172L41.925 503.033C40.922 503.254 39.885 503.475 38.882 503.696V500.976H42.877C43.098 502.812 43.421 504.495 43.829 505.906C42.622 507.028 41.228 507.963 39.8 508.66C40.123 508.932 40.48 509.357 40.667 509.663C41.942 509 43.149 508.15 44.254 507.164C45.036 509.153 46.056 510.343 47.399 510.343C48.674 510.343 49.116 509.527 49.354 506.722C48.997 506.603 48.555 506.314 48.283 506.042C48.181 508.218 47.977 509.085 47.518 509.085C46.668 509.085 45.903 507.997 45.257 506.212C46.447 505.005 47.45 503.662 48.215 502.217L47.093 501.758ZM53.876 494.873C53.145 497.474 52.006 500.075 50.663 501.792C50.884 502.081 51.241 502.778 51.343 503.067C51.751 502.54 52.142 501.945 52.516 501.282V510.292H53.74V498.817C54.233 497.661 54.692 496.42 55.032 495.196L53.876 494.873ZM55.78 510.309H57.004V498.188H55.78V510.309ZM56.477 495.315C57.242 496.352 58.092 497.78 58.449 498.63L59.486 498.035C59.095 497.185 58.211 495.808 57.463 494.788L56.477 495.315ZM65.606 495.4H59.775V496.556H64.365V508.677C64.365 508.966 64.28 509.051 63.991 509.068C63.719 509.085 62.784 509.102 61.815 509.051C61.985 509.391 62.172 509.935 62.223 510.258C63.549 510.258 64.416 510.241 64.926 510.037C65.419 509.833 65.606 509.476 65.606 508.694V495.4ZM70.519 503.356H73.596V505.056H70.519V503.356ZM73.596 498.154V499.65H70.519V498.154H73.596ZM70.519 500.67H73.596V502.336H70.519V500.67ZM76.01 505.056H74.769V498.154H76.01V497.015H74.769V494.958H73.596V497.015H70.519V494.958H69.363V497.015H67.935V498.154H69.363V505.056H67.714V506.195H76.01V505.056ZM70.06 506.552C69.55 507.674 68.666 508.813 67.731 509.578C68.037 509.748 68.513 510.105 68.751 510.309C69.686 509.476 70.655 508.184 71.267 506.875L70.06 506.552ZM72.474 507.079C73.154 507.878 73.919 508.983 74.225 509.663L75.245 509.068C74.922 508.371 74.14 507.317 73.46 506.552L72.474 507.079ZM77.999 503.441C78.016 502.863 78.033 502.285 78.033 501.758V500.619H81.501V503.441H77.999ZM81.501 496.777V499.48H78.033V496.777H81.501ZM82.725 495.621H76.843V501.758C76.843 504.189 76.707 507.402 75.296 509.646C75.585 509.765 76.095 510.156 76.299 510.394C77.319 508.762 77.744 506.603 77.914 504.58H81.501V508.66C81.501 508.932 81.399 509.017 81.144 509.017C80.906 509.034 80.056 509.034 79.155 509.017C79.325 509.34 79.495 509.884 79.546 510.241C80.804 510.241 81.586 510.207 82.079 510.003C82.538 509.799 82.725 509.425 82.725 508.677V495.621ZM88.369 494.822C87.638 496.012 86.125 497.44 84.799 498.307C85.003 498.562 85.309 499.038 85.445 499.327C86.941 498.324 88.573 496.726 89.559 495.281L88.369 494.822ZM88.658 498.545C87.689 500.296 86.057 502.03 84.544 503.135C84.765 503.441 85.105 504.087 85.224 504.376C85.887 503.849 86.55 503.203 87.179 502.506V510.292H88.403V501.061C88.913 500.398 89.389 499.701 89.763 498.987L88.658 498.545ZM91.089 505.532C91.871 506.416 92.721 507.691 93.078 508.507L94.149 507.878C93.775 507.062 92.891 505.838 92.109 504.954L91.089 505.532ZM100.303 501.452V500.279H95.543V498.12H99.419V496.964H95.543V494.856H94.302V496.964H90.579V498.12H94.302V500.279H89.593V501.452H96.665V503.322H89.78V504.478H96.665V508.762C96.665 509 96.597 509.068 96.308 509.085C96.053 509.102 95.118 509.102 94.098 509.068C94.268 509.425 94.455 509.918 94.506 510.275C95.815 510.275 96.699 510.275 97.226 510.071C97.753 509.867 97.906 509.527 97.906 508.762V504.478H100.184V503.322H97.906V501.452H100.303ZM112.543 504.937H102.037V506.161H112.543V504.937ZM105.454 501.367C105.675 500.449 105.896 499.395 106.134 498.324H115.824V497.117H106.372C106.508 496.488 106.61 495.859 106.729 495.281L105.454 495.145C105.046 497.474 104.366 500.67 103.839 502.54L104.893 502.557H114.685C114.294 506.45 113.869 508.201 113.223 508.694C113.036 508.881 112.781 508.898 112.356 508.898C111.863 508.898 110.554 508.898 109.228 508.779C109.483 509.119 109.67 509.646 109.704 510.02C110.894 510.105 112.118 510.122 112.73 510.088C113.444 510.054 113.886 509.935 114.311 509.493C115.076 508.762 115.552 506.824 116.028 501.979C116.062 501.809 116.079 501.367 116.079 501.367H105.454ZM132.365 497.474C132.093 498.086 131.787 498.715 131.549 499.14L132.62 499.361C133.045 498.681 133.555 497.525 133.997 496.556L133.13 496.318L132.926 496.369H126.568C126.772 495.944 126.959 495.519 127.129 495.094L125.956 494.805C125.395 496.403 124.409 497.95 123.253 498.953C123.525 499.14 124.001 499.531 124.205 499.752C124.834 499.14 125.446 498.358 125.973 497.474H132.365ZM130.614 499.888C131.447 500.942 132.314 502.387 132.688 503.339L133.776 502.778C133.385 501.843 132.501 500.432 131.634 499.412L130.614 499.888ZM128.489 506.943C128.013 506.11 126.942 504.886 126.007 504.019L125.038 504.58C125.956 505.481 127.01 506.739 127.435 507.555L128.489 506.943ZM125.939 499.446C125.48 500.619 124.698 501.809 123.814 502.608C124.086 502.778 124.545 503.118 124.766 503.322C125.65 502.455 126.534 501.112 127.095 499.769L125.939 499.446ZM129.679 498.052H128.455V503.016C128.455 503.203 128.404 503.254 128.183 503.254C127.979 503.271 127.282 503.271 126.483 503.254C126.636 503.577 126.823 504.019 126.891 504.359C127.962 504.359 128.642 504.359 129.084 504.155C129.56 503.968 129.679 503.662 129.679 503.033V498.052ZM120.057 509.612C120.686 508.575 121.281 506.977 121.723 505.872L120.584 505.413C120.21 506.518 119.547 508.065 118.867 509.068L120.057 509.612ZM122.709 494.737C121.74 496.624 120.21 498.494 118.646 499.667C118.901 499.905 119.309 500.415 119.479 500.653C120.023 500.194 120.584 499.65 121.111 499.055V504.444H122.335V497.542C122.896 496.76 123.423 495.944 123.831 495.111L122.709 494.737ZM125.072 508.813C123.95 508.813 123.746 508.728 123.746 508.235V505.311H122.488V508.252C122.488 509.629 123.015 509.986 125.004 509.986H129.067C130.75 509.986 131.158 509.459 131.328 507.317C130.971 507.249 130.444 507.062 130.155 506.841C130.07 508.558 129.917 508.813 128.982 508.813H125.072ZM131.022 505.532C131.787 506.739 132.569 508.371 132.807 509.408L134.014 508.915C133.725 507.878 132.926 506.314 132.127 505.107L131.022 505.532ZM148.719 497.253V498.494H146.169V497.253H148.719ZM148.719 500.789H146.169V499.531H148.719V500.789ZM144.979 498.494H140.61V499.531H144.979V500.789H141.596V501.809H144.979V503.084H141.477V504.053H144.979V505.43H140.763V506.467H144.979V508.15H146.169V506.467H150.81V505.43H146.169V504.053H150.181V503.084H146.169V501.809H149.858V499.531H151.031V498.494H149.858V496.25H146.169V494.856H144.979V496.25H141.715V497.253H144.979V498.494ZM139.981 500.517L139.76 500.551H138.553C139.301 499.14 140.202 497.338 140.916 495.842H136.139V496.964H139.114C138.349 498.596 137.414 500.432 136.683 501.673H139.437C139.216 503.203 138.876 504.529 138.417 505.668C137.975 504.988 137.601 504.155 137.312 503.152L136.377 503.526C136.785 504.869 137.278 505.94 137.907 506.79C137.295 507.861 136.547 508.728 135.68 509.34C135.969 509.51 136.411 509.952 136.615 510.207C137.414 509.578 138.111 508.762 138.723 507.725C140.474 509.442 142.939 509.884 146.084 509.884H150.827C150.895 509.544 151.116 509 151.303 508.711C150.436 508.728 146.781 508.728 146.118 508.728C143.228 508.728 140.882 508.354 139.233 506.688C139.93 505.107 140.423 503.135 140.695 500.721L139.981 500.517ZM163.526 496.981C163.288 496.386 162.778 495.485 162.285 494.771L161.214 495.213C161.639 495.91 162.166 496.879 162.387 497.474L163.526 496.981ZM156.403 494.839C155.536 497.406 154.142 499.939 152.612 501.588C152.833 501.877 153.19 502.489 153.309 502.761C153.853 502.115 154.414 501.384 154.924 500.568V510.36H156.097V498.528C156.641 497.457 157.134 496.318 157.525 495.179L156.403 494.839ZM165.77 505.906V508.592H159.395V505.906H165.77ZM158.29 510.309H159.395V509.646H165.77V510.258H166.892V504.852H158.29V510.309ZM158.528 503.424H166.722V502.387H158.528V503.424ZM166.722 500.007H158.528V501.044H166.722V500.007ZM157.304 497.576V498.647H168.065V497.576H157.304ZM177.126 494.499C175.511 496.726 172.604 498.511 169.646 499.514C169.867 499.786 170.241 500.347 170.394 500.619C172.91 499.599 175.46 498.086 177.296 496.114C179.183 497.899 182.073 499.599 184.453 500.449C184.64 500.143 185.031 499.633 185.303 499.395C182.77 498.613 179.727 496.947 178.027 495.281C178.112 495.179 178.214 495.06 178.299 494.941L177.126 494.499ZM181.733 500.636L181.546 500.687H171.992V501.809H180.713C180.067 502.693 179.183 503.645 178.384 504.291C178.673 504.444 179.081 504.699 179.336 504.903C180.441 503.968 181.818 502.472 182.583 501.18L181.733 500.636ZM175.188 503.747C176.293 504.699 177.551 506.042 178.095 506.96L179.081 506.229C178.52 505.311 177.228 504.002 176.123 503.101L175.188 503.747ZM179.064 499.514C178.571 498.97 177.551 498.273 176.684 497.814L175.936 498.545C176.803 499.021 177.806 499.752 178.265 500.296L179.064 499.514ZM170.87 509.51C171.618 508.354 172.196 506.552 172.553 505.175L171.465 504.801C171.125 506.127 170.513 507.861 169.765 508.949L170.87 509.51ZM176.123 508.728C175.035 508.728 174.848 508.643 174.848 508.133V504.682H173.607V508.133C173.607 509.51 174.117 509.884 176.055 509.884H179.965C181.563 509.884 181.954 509.357 182.141 507.232C181.784 507.147 181.274 506.96 180.968 506.756C180.9 508.456 180.747 508.728 179.863 508.728H176.123ZM181.665 504.988C182.634 506.297 183.654 508.099 184.062 509.255L185.201 508.728C184.793 507.589 183.705 505.855 182.736 504.546L181.665 504.988ZM191.797 508.966C190.743 507.725 189.213 506.178 187.989 505.192L186.884 506.161C188.091 507.147 189.553 508.592 190.641 509.952L191.797 508.966ZM206.077 495.723V505.362H207.369V496.981H215.546V505.362H216.872V495.723H206.077ZM210.701 498.562C210.548 504.529 210.31 507.759 203.867 509.221C204.105 509.476 204.462 509.986 204.581 510.309C211.381 508.643 211.823 504.971 212.01 498.562H210.701ZM211.789 503.917V508.133C211.789 509.527 212.299 509.884 213.931 509.884H216.957C218.487 509.884 218.878 509.255 219.031 506.62C218.691 506.535 218.164 506.331 217.875 506.11C217.79 508.388 217.671 508.711 216.855 508.711H214.033C213.2 508.711 213.03 508.626 213.03 508.116V503.917H211.789ZM235.963 502.965V501.724H229.129V498.8H234.79V497.559H229.129V494.788H227.82V497.559H222.329V498.8H227.82V501.724H221.105V502.965H227.106C225.576 505.158 223.009 507.266 220.646 508.32C220.935 508.558 221.343 509.051 221.564 509.357C223.791 508.235 226.171 506.212 227.82 503.951V510.309H229.129V503.883C230.778 506.144 233.192 508.252 235.436 509.374C235.657 509.034 236.065 508.541 236.354 508.303C233.991 507.266 231.407 505.141 229.86 502.965H235.963ZM253.014 503.475V502.268H246.146V498.035H252.3V496.828H246.146V494.788H244.837V496.828H238.819V498.035H244.837V502.268H238.02V503.475H243.987C242.44 505.549 239.941 507.538 237.663 508.524C237.935 508.779 238.343 509.255 238.547 509.561C240.774 508.456 243.188 506.416 244.837 504.172V510.292H246.146V504.138C247.795 506.382 250.226 508.507 252.487 509.629C252.691 509.289 253.099 508.813 253.371 508.558C251.076 507.572 248.56 505.549 247.013 503.475H253.014ZM240.196 498.851C240.859 499.837 241.505 501.214 241.726 502.064L242.916 501.605C242.678 500.721 241.981 499.412 241.301 498.426L240.196 498.851ZM249.172 502.098C249.784 501.265 250.532 499.922 251.127 498.766L249.835 498.358C249.427 499.378 248.696 500.823 248.118 501.741L249.172 502.098ZM257.298 504.852C255.887 504.852 254.714 506.008 254.714 507.436C254.714 508.864 255.887 510.037 257.298 510.037C258.743 510.037 259.899 508.864 259.899 507.436C259.899 506.008 258.743 504.852 257.298 504.852ZM257.298 509.17C256.363 509.17 255.581 508.405 255.581 507.436C255.581 506.501 256.363 505.719 257.298 505.719C258.267 505.719 259.015 506.501 259.015 507.436C259.015 508.405 258.267 509.17 257.298 509.17Z" fill="#0A0A10"/>
<path d="M87.624 576.856C87.24 577.848 86.728 578.744 86.104 579.512C85.304 578.856 84.488 578.2 83.784 577.64L82.744 578.488C83.48 579.112 84.328 579.816 85.144 580.52C84.184 581.384 83.08 582.04 81.912 582.456C82.2 582.744 82.568 583.288 82.744 583.656C84.008 583.16 85.208 582.44 86.2 581.48C87.096 582.296 87.896 583.048 88.44 583.64L89.576 582.584C88.984 581.992 88.12 581.224 87.192 580.44C88.2 579.208 88.968 577.672 89.416 575.8L88.488 575.48L88.232 575.528H82.584V573.944C85.144 573.816 87.96 573.528 89.992 572.968L88.744 571.784C86.952 572.28 83.816 572.568 81.112 572.696V576.168C81.112 578.12 80.952 580.728 79.464 582.568C79.816 582.728 80.456 583.16 80.728 583.416C82.168 581.624 82.52 578.952 82.568 576.856H87.624ZM79.576 574.536C79.08 573.896 78.056 572.824 77.304 572.072L76.12 572.84C76.856 573.64 77.848 574.76 78.328 575.432L79.576 574.536ZM79.192 577.4H75.8V578.792H77.704V583.064C77.048 583.304 76.28 583.896 75.512 584.696L76.52 586.12C77.16 585.224 77.832 584.264 78.312 584.264C78.696 584.264 79.224 584.744 79.976 585.128C81.128 585.72 82.536 585.896 84.488 585.896C86.088 585.896 88.792 585.8 89.928 585.72C89.976 585.288 90.2 584.552 90.376 584.152C88.776 584.36 86.312 584.488 84.536 584.488C82.76 584.488 81.32 584.392 80.232 583.832C79.8 583.592 79.48 583.368 79.192 583.224V577.4ZM100.616 580.472H97.208V577.208H100.616V580.472ZM95.8 575.896V581.768H102.104V575.896H95.8ZM93.864 584.008V573.704H104.088V584.008H93.864ZM92.328 572.184V586.264H93.864V585.4H104.088V586.264H105.688V572.184H92.328ZM111.368 575.832H112.84V574.28H117.08V575.832H118.568V574.28H121.848V572.952H118.568V571.592H117.08V572.952H112.84V571.592H111.368V572.952H108.104V574.28H111.368V575.832ZM110.952 580.44V578.056H114.152V579.528C114.152 579.832 114.136 580.136 114.104 580.44H110.952ZM119.08 578.056V580.44H115.656C115.688 580.136 115.704 579.848 115.704 579.544V578.056H119.08ZM122.072 581.816V580.44H120.584V576.76H115.704V575.032H114.152V576.76H109.528V580.44H107.928V581.816H113.672C112.968 583.112 111.352 584.264 107.608 585.048C107.944 585.368 108.36 585.976 108.536 586.296C112.408 585.384 114.264 584.024 115.096 582.44C116.392 584.568 118.456 585.784 121.544 586.296C121.736 585.88 122.136 585.256 122.472 584.92C119.512 584.552 117.448 583.56 116.28 581.816H122.072ZM134.072 575.768C133.352 577.736 132.36 579.368 131.064 580.712C129.704 579.304 128.632 577.656 127.864 575.768H134.072ZM138.216 575.768V574.328H131.032L132.456 573.88C132.248 573.224 131.736 572.2 131.272 571.448L129.704 571.912C130.136 572.664 130.584 573.672 130.776 574.328H123.848V575.768H126.312C127.208 578.104 128.392 580.104 129.944 581.752C128.248 583.144 126.152 584.136 123.576 584.824C123.88 585.176 124.328 585.864 124.504 586.248C127.096 585.448 129.272 584.328 131.048 582.824C132.776 584.328 134.904 585.464 137.448 586.152C137.688 585.72 138.12 585.096 138.456 584.776C135.992 584.168 133.912 583.128 132.2 581.736C133.704 580.136 134.888 578.184 135.736 575.768H138.216ZM147.816 584.28V580.744H152.616V579.304H147.816V576.12H153.32V574.664H148.232L149.016 574.104C148.36 573.352 147.048 572.28 146.024 571.592L144.808 572.44C145.688 573.064 146.728 573.96 147.384 574.664H140.664V576.12H146.184V579.304H141.432V580.744H146.184V584.28H139.944V585.736H154.12V584.28H147.816ZM157.656 575.496V582.872H159.176V576.872H166.968V582.824H168.552V575.496H162.824C163.08 574.968 163.368 574.376 163.624 573.768H169.912V572.392H156.216V573.768H161.928C161.784 574.344 161.56 574.968 161.336 575.496H157.656ZM163.816 577.72H162.28V580.568C162.28 582.184 161.512 583.976 155.816 585.08C156.152 585.384 156.552 585.944 156.728 586.296C162.776 585 163.816 582.808 163.816 580.584V577.72ZM163.64 583.304C165.48 584.136 167.896 585.432 169.048 586.312L169.976 585.128C168.744 584.28 166.296 583.032 164.504 582.296L163.64 583.304Z" fill="#0A0A10"/>
<path d="M178 578C177.448 578 177 578.448 177 579C177 579.552 177.448 580 178 580V578ZM192.707 579.707C193.098 579.317 193.098 578.683 192.707 578.293L186.343 571.929C185.953 571.538 185.319 571.538 184.929 571.929C184.538 572.319 184.538 572.953 184.929 573.343L190.586 579L184.929 584.657C184.538 585.047 184.538 585.681 184.929 586.071C185.319 586.462 185.953 586.462 186.343 586.071L192.707 579.707ZM178 580H192V578H178V580Z" fill="#0A0A10"/>
<rect x="33.5" y="558.5" width="200" height="41" rx="20.5" stroke="#0A0A10"/>
<ellipse cx="843" cy="395.5" rx="200" ry="200.5" fill="url(#paint0_linear_4694_10634)"/>
<ellipse cx="1027" cy="395.5" rx="200" ry="200.5" fill="url(#paint1_linear_4694_10634)"/>
<ellipse cx="1211" cy="395.5" rx="200" ry="200.5" fill="url(#paint2_linear_4694_10634)"/>
<defs>
<linearGradient id="paint0_linear_4694_10634" x1="1043" y1="395.237" x2="843.262" y2="395.237" gradientUnits="userSpaceOnUse">
<stop stop-color="#FD4C1B"/>
<stop offset="0.5" stop-color="#FD4C1B" stop-opacity="0.44"/>
<stop offset="1" stop-color="#FD4C1B" stop-opacity="0"/>
</linearGradient>
<linearGradient id="paint1_linear_4694_10634" x1="1227" y1="395.237" x2="1027.26" y2="395.237" gradientUnits="userSpaceOnUse">
<stop stop-color="#FD4C1B"/>
<stop offset="0.5" stop-color="#FD4C1B" stop-opacity="0.44"/>
<stop offset="1" stop-color="#FD4C1B" stop-opacity="0"/>
</linearGradient>
<linearGradient id="paint2_linear_4694_10634" x1="1411" y1="395.237" x2="1211.26" y2="395.237" gradientUnits="userSpaceOnUse">
<stop stop-color="#FD4C1B"/>
<stop offset="0.5" stop-color="#FD4C1B" stop-opacity="0.44"/>
<stop offset="1" stop-color="#FD4C1B" stop-opacity="0"/>
</linearGradient>
</defs>
</svg>
