<svg width="375" height="838" viewBox="0 0 375 838" fill="none" xmlns="http://www.w3.org/2000/svg">
<g clip-path="url(#clip0_4694_10648)">
<path d="M59.992 45.134C56.796 54.158 51.25 62.712 44.858 68.258C46.456 69.292 49.088 71.548 50.122 72.77C56.702 66.378 62.812 56.79 66.478 46.732L59.992 45.134ZM59.616 68.822C57.078 75.402 52.848 81.982 47.96 86.494C49.558 87.34 52.378 89.126 53.694 90.16C58.394 85.272 63.282 77.94 66.196 70.514L59.616 68.822ZM59.052 54.346L56.608 60.55H99.848V54.346H59.052ZM72.87 58.576V91.288C72.87 92.322 72.588 92.604 71.366 92.698C70.144 92.792 66.196 92.792 61.778 92.604C62.812 94.39 63.752 97.022 64.128 98.902C70.05 98.902 73.904 98.808 76.348 97.774C78.98 96.74 79.638 94.86 79.638 91.288V58.576H72.87ZM84.808 70.89C89.226 77 93.832 85.554 95.712 91.1L101.822 88.186C99.848 82.734 95.242 74.462 90.636 68.352L84.808 70.89ZM97.874 54.346V55.38C96.088 60.644 93.55 67.13 91.388 71.078L97.498 72.3C99.754 68.164 102.668 61.302 105.018 55.38L100.13 54.158L99.002 54.346H97.874ZM44.106 103.508V120.522C44.106 127.948 46.644 129.922 56.42 129.922C58.488 129.922 72.494 129.922 74.656 129.922C82.74 129.922 84.902 127.102 85.748 115.728C83.774 115.258 80.954 114.224 79.45 113.002C78.98 122.308 78.322 123.53 74.186 123.53C71.084 123.53 59.334 123.53 56.984 123.53C52.002 123.53 51.062 123.06 51.062 120.522V103.508H44.106ZM52.19 100.688C58.3 103.696 65.256 108.772 68.452 112.532L73.528 107.926C70.144 104.166 62.906 99.372 56.89 96.458L52.19 100.688ZM83.116 106.422C90.166 112.438 97.122 121.274 99.848 127.478L106.146 123.906C103.232 117.514 95.9 109.054 88.944 103.132L83.116 106.422ZM32.638 104.636C30.664 112.532 26.622 120.052 19.666 124.47L25.494 128.512C32.92 123.53 36.586 115.164 38.936 106.704L32.638 104.636ZM41.662 45.04C36.304 55.38 27.468 65.72 18.632 72.394C20.042 73.616 22.392 76.436 23.238 77.846C32.356 70.42 41.85 58.858 47.96 47.202L41.662 45.04ZM33.014 62.712V98.808H39.782V56.132L39.688 56.038L33.014 62.712ZM152.018 49.928V56.508H193.284V49.928H152.018ZM148.822 82.922V89.69H200.522V82.922H148.822ZM171.006 70.42V122.59C171.006 124 170.536 124.47 168.938 124.564C167.246 124.658 161.982 124.658 156.06 124.47C157 126.35 158.222 129.452 158.598 131.332C166.118 131.426 171.006 131.238 174.108 130.11C177.022 128.982 178.056 126.914 178.056 122.684V70.42H171.006ZM190.746 49.928V51.526C186.986 57.636 179.184 66.472 172.416 71.548C173.638 72.488 175.612 74.368 176.646 75.684C184.166 70.044 192.908 60.926 198.548 52.936L193.942 49.552L192.438 49.928H190.746ZM114.042 64.498V71.078H144.968V64.498H114.042ZM128.236 45.134C125.04 62.994 119.4 88.186 115.264 102.568L121.186 105.67C125.416 90.066 131.338 64.686 134.91 45.886L128.236 45.134ZM118.742 99.56C129.27 105.67 141.396 115.258 147.036 122.308L151.266 116.574C145.626 109.618 133.218 100.594 122.69 94.672L118.742 99.56ZM142.618 64.498V65.908C140.268 97.868 130.492 117.796 114.794 126.068C116.298 127.478 118.272 130.016 119.212 131.708C136.508 121.368 146.754 101.44 149.292 65.062L145.062 64.216L143.746 64.498H142.618Z" fill="#191918"/>
<path d="M127.624 463.856C127.24 464.848 126.728 465.744 126.104 466.512C125.304 465.856 124.488 465.2 123.784 464.64L122.744 465.488C123.48 466.112 124.328 466.816 125.144 467.52C124.184 468.384 123.08 469.04 121.912 469.456C122.2 469.744 122.568 470.288 122.744 470.656C124.008 470.16 125.208 469.44 126.2 468.48C127.096 469.296 127.896 470.048 128.44 470.64L129.576 469.584C128.984 468.992 128.12 468.224 127.192 467.44C128.2 466.208 128.968 464.672 129.416 462.8L128.488 462.48L128.232 462.528H122.584V460.944C125.144 460.816 127.96 460.528 129.992 459.968L128.744 458.784C126.952 459.28 123.816 459.568 121.112 459.696V463.168C121.112 465.12 120.952 467.728 119.464 469.568C119.816 469.728 120.456 470.16 120.728 470.416C122.168 468.624 122.52 465.952 122.568 463.856H127.624ZM119.576 461.536C119.08 460.896 118.056 459.824 117.304 459.072L116.12 459.84C116.856 460.64 117.848 461.76 118.328 462.432L119.576 461.536ZM119.192 464.4H115.8V465.792H117.704V470.064C117.048 470.304 116.28 470.896 115.512 471.696L116.52 473.12C117.16 472.224 117.832 471.264 118.312 471.264C118.696 471.264 119.224 471.744 119.976 472.128C121.128 472.72 122.536 472.896 124.488 472.896C126.088 472.896 128.792 472.8 129.928 472.72C129.976 472.288 130.2 471.552 130.376 471.152C128.776 471.36 126.312 471.488 124.536 471.488C122.76 471.488 121.32 471.392 120.232 470.832C119.8 470.592 119.48 470.368 119.192 470.224V464.4ZM140.616 467.472H137.208V464.208H140.616V467.472ZM135.8 462.896V468.768H142.104V462.896H135.8ZM133.864 471.008V460.704H144.088V471.008H133.864ZM132.328 459.184V473.264H133.864V472.4H144.088V473.264H145.688V459.184H132.328ZM151.368 462.832H152.84V461.28H157.08V462.832H158.568V461.28H161.848V459.952H158.568V458.592H157.08V459.952H152.84V458.592H151.368V459.952H148.104V461.28H151.368V462.832ZM150.952 467.44V465.056H154.152V466.528C154.152 466.832 154.136 467.136 154.104 467.44H150.952ZM159.08 465.056V467.44H155.656C155.688 467.136 155.704 466.848 155.704 466.544V465.056H159.08ZM162.072 468.816V467.44H160.584V463.76H155.704V462.032H154.152V463.76H149.528V467.44H147.928V468.816H153.672C152.968 470.112 151.352 471.264 147.608 472.048C147.944 472.368 148.36 472.976 148.536 473.296C152.408 472.384 154.264 471.024 155.096 469.44C156.392 471.568 158.456 472.784 161.544 473.296C161.736 472.88 162.136 472.256 162.472 471.92C159.512 471.552 157.448 470.56 156.28 468.816H162.072ZM174.072 462.768C173.352 464.736 172.36 466.368 171.064 467.712C169.704 466.304 168.632 464.656 167.864 462.768H174.072ZM178.216 462.768V461.328H171.032L172.456 460.88C172.248 460.224 171.736 459.2 171.272 458.448L169.704 458.912C170.136 459.664 170.584 460.672 170.776 461.328H163.848V462.768H166.312C167.208 465.104 168.392 467.104 169.944 468.752C168.248 470.144 166.152 471.136 163.576 471.824C163.88 472.176 164.328 472.864 164.504 473.248C167.096 472.448 169.272 471.328 171.048 469.824C172.776 471.328 174.904 472.464 177.448 473.152C177.688 472.72 178.12 472.096 178.456 471.776C175.992 471.168 173.912 470.128 172.2 468.736C173.704 467.136 174.888 465.184 175.736 462.768H178.216ZM187.816 471.28V467.744H192.616V466.304H187.816V463.12H193.32V461.664H188.232L189.016 461.104C188.36 460.352 187.048 459.28 186.024 458.592L184.808 459.44C185.688 460.064 186.728 460.96 187.384 461.664H180.664V463.12H186.184V466.304H181.432V467.744H186.184V471.28H179.944V472.736H194.12V471.28H187.816ZM197.656 462.496V469.872H199.176V463.872H206.968V469.824H208.552V462.496H202.824C203.08 461.968 203.368 461.376 203.624 460.768H209.912V459.392H196.216V460.768H201.928C201.784 461.344 201.56 461.968 201.336 462.496H197.656ZM203.816 464.72H202.28V467.568C202.28 469.184 201.512 470.976 195.816 472.08C196.152 472.384 196.552 472.944 196.728 473.296C202.776 472 203.816 469.808 203.816 467.584V464.72ZM203.64 470.304C205.48 471.136 207.896 472.432 209.048 473.312L209.976 472.128C208.744 471.28 206.296 470.032 204.504 469.296L203.64 470.304Z" fill="#0A0A10"/>
<path d="M216 465C215.448 465 215 465.448 215 466C215 466.552 215.448 467 216 467V465ZM230.707 466.707C231.098 466.317 231.098 465.683 230.707 465.293L224.343 458.929C223.953 458.538 223.319 458.538 222.929 458.929C222.538 459.319 222.538 459.953 222.929 460.343L228.586 466L222.929 471.657C222.538 472.047 222.538 472.681 222.929 473.071C223.319 473.462 223.953 473.462 224.343 473.071L230.707 466.707ZM216 467H230V465H216V467Z" fill="#0A0A10"/>
<path d="M216 465C215.448 465 215 465.448 215 466C215 466.552 215.448 467 216 467V465ZM230.707 466.707C231.098 466.317 231.098 465.683 230.707 465.293L224.343 458.929C223.953 458.538 223.319 458.538 222.929 458.929C222.538 459.319 222.538 459.953 222.929 460.343L228.586 466L222.929 471.657C222.538 472.047 222.538 472.681 222.929 473.071C223.319 473.462 223.953 473.462 224.343 473.071L230.707 466.707ZM216 467H230V465H216V467Z" fill="black" fill-opacity="0.2"/>
<rect x="15.5" y="440.5" width="314" height="49" rx="24.5" stroke="#0A0A10"/>
<path d="M17.66 194.88C18.32 193.86 19.02 192.3 19.54 191.18L17.92 190.58C17.46 191.7 16.68 193.2 15.94 194.18L17.66 194.88ZM26.06 181.8H19.88V183.1H26.06V181.8ZM24.3 187.24H21.54V185.42H24.3V187.24ZM25.76 188.38C26.14 188.68 26.68 189.24 26.92 189.52C27.6 189.08 28.26 188.56 28.9 188C29.68 189.12 30.68 189.74 31.9 189.74C33.36 189.74 33.92 189.02 34.18 186.38C33.72 186.26 33.1 185.94 32.72 185.6C32.62 187.36 32.44 188.06 31.98 188.06C31.3 188.06 30.68 187.58 30.12 186.7C31.3 185.32 32.28 183.7 32.98 181.86L31.3 181.44C30.84 182.76 30.16 183.96 29.34 185.02C28.92 183.86 28.58 182.36 28.38 180.68H33.9V179.18H31.8L32.42 178.68C31.92 178.2 30.92 177.58 30.12 177.18L29.04 177.98C29.62 178.32 30.28 178.76 30.8 179.18H28.26C28.22 178.56 28.2 177.9 28.2 177.24H26.46C26.48 177.9 26.5 178.56 26.54 179.18H17.52V182.14C17.52 184.14 17.32 186.94 15.86 188.98C16.24 189.16 16.96 189.78 17.22 190.1C18.9 187.86 19.22 184.5 19.22 182.16V180.68H26.66C26.92 182.94 27.38 184.94 28.04 186.48C27.36 187.14 26.58 187.72 25.76 188.2V184.12H20.04V188.54H25.76V188.38ZM23.28 189.94C24.18 190.84 25.3 192.1 25.82 192.92L27.38 192.1C26.82 191.34 25.64 190.08 24.76 189.24L23.28 189.94ZM23.52 193.88C22.3 193.88 22.08 193.8 22.08 193.26V190.16H20.22V193.3C20.22 194.92 20.88 195.36 23.38 195.36H27.56C29.68 195.36 30.24 194.76 30.48 192.2C29.96 192.1 29.18 191.86 28.76 191.58C28.64 193.6 28.5 193.88 27.44 193.88H23.52ZM30.06 190.72C30.86 191.92 31.76 193.56 32.12 194.56L33.9 193.94C33.46 192.92 32.52 191.36 31.72 190.2L30.06 190.72ZM40.12 180.8C39.58 179.94 38.38 178.58 37.44 177.62L36.2 178.58C37.14 179.6 38.28 181.02 38.8 181.9L40.12 180.8ZM39.2 191.56V183.38H35.44V185.16H37.58V191.68C37.58 192.66 36.96 193.46 36.56 193.78C36.9 194.08 37.4 194.74 37.58 195.14C37.86 194.72 38.32 194.28 41.16 191.78C41.02 191.44 40.8 190.72 40.74 190.24L39.2 191.56ZM42.84 186.1H45.32V187.58H42.84V186.1ZM45.32 183.48V184.76H42.84V183.48H45.32ZM45.32 180.9V182.14H42.84V180.9H45.32ZM46.86 179.44H44.68C44.92 178.84 45.22 178.14 45.48 177.5L43.64 177.2C43.54 177.86 43.34 178.7 43.12 179.44H41.3V187.58H40.26V189.12H43.92C42.94 190.9 41.48 192.48 39.92 193.52C40.24 193.84 40.78 194.48 40.98 194.8C42.62 193.56 44.22 191.76 45.32 189.72V193.62C45.32 193.88 45.24 193.96 44.98 193.96C44.72 193.96 43.94 193.98 43.12 193.94C43.36 194.34 43.56 195.06 43.62 195.48C44.84 195.48 45.66 195.44 46.18 195.18C46.7 194.9 46.86 194.44 46.86 193.64V179.44ZM53.66 181.48H52.48V177.36H50.78V181.48H47.46V183.18H50.78V193.48C50.78 193.78 50.68 193.86 50.4 193.88C50.14 193.88 49.26 193.88 48.34 193.84C48.58 194.28 48.86 195.06 48.94 195.5C50.24 195.5 51.14 195.44 51.7 195.16C52.26 194.88 52.48 194.42 52.48 193.48V183.18H53.66V181.48ZM50.26 189.16C50.06 188 49.42 186.06 48.76 184.6L47.38 185C48.02 186.5 48.6 188.46 48.76 189.66L50.26 189.16ZM59.3 180.38C58.8 179.66 57.7 178.56 56.8 177.8L55.58 178.76C56.46 179.56 57.54 180.72 58 181.46L59.3 180.38ZM58.78 185.36C58.2 184.66 56.94 183.64 55.98 182.96L54.82 184.04C55.8 184.76 57.02 185.84 57.56 186.58L58.78 185.36ZM57.84 188.06C57.08 190.16 56 192.52 55.24 193.96L56.8 194.94C57.62 193.2 58.54 190.94 59.24 189.02L57.84 188.06ZM64.32 179.92C64.06 179.22 63.42 178.12 62.92 177.34L61.38 177.98C61.84 178.74 62.4 179.8 62.66 180.48H59.5V182.16H63.92C63.7 183.64 63.42 185.02 63.08 186.32C62.42 185.34 61.74 184.4 61.08 183.54L59.76 184.4C60.66 185.6 61.58 187 62.4 188.38C61.56 190.66 60.34 192.52 58.66 193.9C59.06 194.24 59.68 194.92 59.94 195.24C61.42 193.92 62.58 192.24 63.46 190.24C64.12 191.46 64.66 192.6 65 193.54L66.5 192.5C66.06 191.28 65.24 189.74 64.26 188.16C64.86 186.36 65.3 184.36 65.64 182.16H66.8V180.48H63.08L64.32 179.92ZM69.16 179.24H67.54V191.28H69.16V179.24ZM70.76 177.2V193.6C70.76 193.9 70.66 193.98 70.38 193.98C70.14 194 69.32 194 68.46 193.96C68.68 194.42 68.9 195.18 68.96 195.6C70.28 195.62 71.14 195.54 71.66 195.26C72.2 195 72.4 194.54 72.4 193.6V177.2H70.76ZM92.18 180.76V179.14H86.38C86.56 178.64 86.7 178.1 86.84 177.58L85.06 177.2C84.54 179.44 83.62 181.7 82.44 183.14C82.9 183.36 83.68 183.84 84.04 184.08C84.68 183.2 85.3 182.04 85.8 180.76H92.18ZM89.98 191.34V185.18H77.28V191.5H79.14V186.82H88.04V191.32L89.98 191.34ZM86.5 181.68C87.36 182.6 88.34 183.9 88.74 184.78L90.44 184.04C89.98 183.2 89.02 181.94 88.08 181.04L86.5 181.68ZM81.72 177.44H79.92V184.66H81.72V177.44ZM77.56 178.34H75.76V184H77.56V178.34ZM86.88 193.76C86 193.76 85.84 193.68 85.84 193.18V190.3H84.26C84.34 189.94 84.36 189.6 84.36 189.26V187.66H82.44V189.2C82.44 190.68 81.9 192.72 74.82 194.12C75.26 194.5 75.8 195.2 76.04 195.58C81.24 194.4 83.26 192.78 83.98 191.18V193.18C83.98 194.84 84.5 195.3 86.64 195.3H89.88C91.56 195.3 92.06 194.74 92.26 192.46C91.78 192.36 91.04 192.08 90.66 191.82C90.58 193.5 90.44 193.76 89.72 193.76H86.88ZM111.52 181.02C110.9 180.08 109.56 178.72 108.44 177.76L107.04 178.72C108.16 179.72 109.46 181.16 110.02 182.1L111.52 181.02ZM109.4 185.54C108.82 186.68 108.02 187.78 107.12 188.8C106.84 187.58 106.6 186.24 106.4 184.74H111.88V182.98H106.2C106.04 181.22 105.96 179.32 105.98 177.4H104.06C104.08 179.3 104.16 181.18 104.32 182.98H100.08V179.84C101.26 179.6 102.4 179.32 103.38 179L102.08 177.44C100.14 178.12 96.96 178.76 94.18 179.18C94.42 179.58 94.66 180.3 94.76 180.72C95.84 180.58 97.02 180.42 98.2 180.22V182.98H94.16V184.74H98.2V187.9C96.54 188.22 95 188.5 93.82 188.7L94.34 190.56C95.48 190.32 96.78 190.04 98.2 189.74V193.3C98.2 193.62 98.08 193.72 97.72 193.74C97.38 193.76 96.22 193.76 95 193.72C95.28 194.22 95.6 195.08 95.7 195.6C97.3 195.6 98.42 195.54 99.12 195.24C99.82 194.94 100.08 194.4 100.08 193.3V189.32C101.24 189.08 102.42 188.8 103.56 188.54L103.42 186.88L100.08 187.54V184.74H104.5C104.74 186.8 105.08 188.72 105.56 190.34C104.14 191.58 102.58 192.64 100.94 193.4C101.42 193.82 101.92 194.44 102.22 194.9C103.62 194.16 104.94 193.26 106.18 192.2C107.06 194.34 108.24 195.66 109.76 195.66C111.38 195.66 112 194.74 112.32 191.34C111.82 191.18 111.18 190.74 110.76 190.3C110.66 192.78 110.42 193.76 109.94 193.76C109.12 193.76 108.34 192.64 107.68 190.78C109.02 189.42 110.16 187.9 111.06 186.24L109.4 185.54ZM116.86 177.34C116.06 180.28 114.74 183.26 113.2 185.22C113.52 185.7 114 186.74 114.16 187.2C114.56 186.7 114.92 186.16 115.28 185.54V195.58H117.04V182.1C117.66 180.7 118.16 179.24 118.6 177.82L116.86 177.34ZM119.12 195.58H120.94V181.38H119.12V195.58ZM119.96 178.04C120.82 179.24 121.84 180.9 122.28 181.92L123.8 181C123.32 180 122.26 178.38 121.4 177.24L119.96 178.04ZM130.94 177.92H123.98V179.6H129.1V193.38C129.1 193.7 129 193.82 128.66 193.82C128.36 193.84 127.28 193.86 126.24 193.8C126.48 194.26 126.76 195.06 126.82 195.54C128.38 195.54 129.42 195.5 130.06 195.2C130.72 194.92 130.94 194.4 130.94 193.4V177.92ZM135.42 191.88V187.46H139.14V191.88H135.42ZM139.14 182.04V185.84H135.42V182.04H139.14ZM144.8 180.32C145.12 179.44 145.38 178.52 145.62 177.6L143.82 177.18C143.22 179.82 142.16 182.48 140.84 184.2V180.42H137.64C137.96 179.58 138.34 178.52 138.68 177.52L136.66 177.18C136.54 178.14 136.24 179.46 135.96 180.42H133.72V195.04H135.42V193.52H140.84V184.34C141.3 184.6 142 185.1 142.3 185.38C142.94 184.46 143.56 183.3 144.12 182.02H148.84C148.58 189.56 148.32 192.58 147.68 193.24C147.46 193.52 147.24 193.58 146.84 193.58C146.34 193.58 145.18 193.56 143.9 193.46C144.24 193.98 144.46 194.76 144.5 195.26C145.64 195.32 146.82 195.34 147.52 195.26C148.28 195.16 148.76 194.98 149.26 194.32C150.06 193.32 150.3 190.22 150.58 181.2C150.6 180.96 150.6 180.32 150.6 180.32H144.8ZM147.36 189.34C146.76 188.16 145.4 186.26 144.34 184.88L142.88 185.7C143.94 187.14 145.24 189.1 145.8 190.32L147.36 189.34ZM167.44 190.2C167 189.22 166.3 188.02 165.46 186.8C165.94 185.18 166.3 183.42 166.56 181.5L164.9 181.32C164.72 182.64 164.5 183.9 164.22 185.08C163.56 184.22 162.88 183.38 162.2 182.64L161.06 183.64C161.94 184.66 162.84 185.84 163.64 187.02C162.92 189.18 161.88 191 160.46 192.3C160.86 192.54 161.6 193.08 161.9 193.32C163.1 192.12 164.04 190.56 164.76 188.74C165.36 189.7 165.84 190.6 166.18 191.36L167.44 190.2ZM169.78 178.38H153.26V195.54H155.12V192.2C155.54 192.46 156.2 192.92 156.48 193.16C157.6 191.96 158.52 190.42 159.22 188.64C159.76 189.44 160.24 190.18 160.58 190.82L161.76 189.54C161.3 188.76 160.62 187.8 159.88 186.78C160.38 185.16 160.74 183.38 161.04 181.46L159.38 181.28C159.2 182.64 158.94 183.94 158.62 185.16C157.92 184.26 157.18 183.36 156.48 182.56L155.4 183.64C156.26 184.66 157.2 185.86 158.08 187.02C157.38 189.06 156.42 190.78 155.12 192.06V180.14H167.92V193.2C167.92 193.58 167.78 193.7 167.4 193.72C167 193.74 165.62 193.76 164.36 193.68C164.62 194.16 164.94 195.02 165.06 195.54C166.88 195.54 168.04 195.5 168.78 195.2C169.5 194.9 169.78 194.34 169.78 193.22V178.38ZM174.32 182.12V191.34H176.22V183.84H185.96V191.28H187.94V182.12H180.78C181.1 181.46 181.46 180.72 181.78 179.96H189.66V178.24H172.52V179.96H179.66C179.48 180.68 179.2 181.46 178.92 182.12H174.32ZM182.02 184.9H180.1V188.46C180.1 190.48 179.14 192.7 172.02 194.1C172.44 194.46 172.94 195.2 173.16 195.6C180.72 194 182.02 191.26 182.02 188.48V184.9ZM181.8 191.88C184.1 192.92 187.12 194.54 188.56 195.64L189.72 194.16C188.18 193.1 185.12 191.54 182.88 190.62L181.8 191.88ZM194.38 189.08C192.66 189.08 191.24 190.5 191.24 192.22C191.24 193.94 192.66 195.34 194.38 195.34C196.12 195.34 197.5 193.94 197.5 192.22C197.5 190.5 196.12 189.08 194.38 189.08ZM194.38 194.14C193.32 194.14 192.46 193.28 192.46 192.22C192.46 191.16 193.32 190.3 194.38 190.3C195.44 190.3 196.3 191.16 196.3 192.22C196.3 193.28 195.44 194.14 194.38 194.14ZM228.52 181.02C227.9 180.08 226.56 178.72 225.44 177.76L224.04 178.72C225.16 179.72 226.46 181.16 227.02 182.1L228.52 181.02ZM226.4 185.54C225.82 186.68 225.02 187.78 224.12 188.8C223.84 187.58 223.6 186.24 223.4 184.74H228.88V182.98H223.2C223.04 181.22 222.96 179.32 222.98 177.4H221.06C221.08 179.3 221.16 181.18 221.32 182.98H217.08V179.84C218.26 179.6 219.4 179.32 220.38 179L219.08 177.44C217.14 178.12 213.96 178.76 211.18 179.18C211.42 179.58 211.66 180.3 211.76 180.72C212.84 180.58 214.02 180.42 215.2 180.22V182.98H211.16V184.74H215.2V187.9C213.54 188.22 212 188.5 210.82 188.7L211.34 190.56C212.48 190.32 213.78 190.04 215.2 189.74V193.3C215.2 193.62 215.08 193.72 214.72 193.74C214.38 193.76 213.22 193.76 212 193.72C212.28 194.22 212.6 195.08 212.7 195.6C214.3 195.6 215.42 195.54 216.12 195.24C216.82 194.94 217.08 194.4 217.08 193.3V189.32C218.24 189.08 219.42 188.8 220.56 188.54L220.42 186.88L217.08 187.54V184.74H221.5C221.74 186.8 222.08 188.72 222.56 190.34C221.14 191.58 219.58 192.64 217.94 193.4C218.42 193.82 218.92 194.44 219.22 194.9C220.62 194.16 221.94 193.26 223.18 192.2C224.06 194.34 225.24 195.66 226.76 195.66C228.38 195.66 229 194.74 229.32 191.34C228.82 191.18 228.18 190.74 227.76 190.3C227.66 192.78 227.42 193.76 226.94 193.76C226.12 193.76 225.34 192.64 224.68 190.78C226.02 189.42 227.16 187.9 228.06 186.24L226.4 185.54ZM233.86 177.34C233.06 180.28 231.74 183.26 230.2 185.22C230.52 185.7 231 186.74 231.16 187.2C231.56 186.7 231.92 186.16 232.28 185.54V195.58H234.04V182.1C234.66 180.7 235.16 179.24 235.6 177.82L233.86 177.34ZM236.12 195.58H237.94V181.38H236.12V195.58ZM236.96 178.04C237.82 179.24 238.84 180.9 239.28 181.92L240.8 181C240.32 180 239.26 178.38 238.4 177.24L236.96 178.04ZM247.94 177.92H240.98V179.6H246.1V193.38C246.1 193.7 246 193.82 245.66 193.82C245.36 193.84 244.28 193.86 243.24 193.8C243.48 194.26 243.76 195.06 243.82 195.54C245.38 195.54 246.42 195.5 247.06 195.2C247.72 194.92 247.94 194.4 247.94 193.4V177.92ZM257.18 179.9V182.12H253V179.9H257.18ZM253 186.12V183.78H257.18V186.12H253ZM255.22 189.36C255.58 189.94 255.92 190.58 256.28 191.24L253 192.24V187.78H259.04V178.24H251.1V191.84C251.1 192.58 250.6 192.96 250.22 193.16C250.54 193.6 250.86 194.5 250.98 195.06C251.46 194.7 252.18 194.4 257.06 192.76C257.4 193.46 257.66 194.12 257.86 194.62L259.56 193.7C259.04 192.36 257.82 190.2 256.8 188.58L255.22 189.36ZM267.3 178.38H260.54V195.58H262.4V180.08H265.48V189.76C265.48 190.02 265.4 190.1 265.12 190.12C264.88 190.14 264.02 190.14 263.14 190.1C263.4 190.58 263.62 191.36 263.68 191.86C265.04 191.86 265.94 191.84 266.56 191.52C267.14 191.24 267.3 190.7 267.3 189.78V178.38ZM272.94 182.54C272.36 181.7 271.44 180.68 270.62 179.92L269.36 180.92C270.32 181.92 271.44 183.3 271.92 184.2L272.94 183.34V186.7C271.58 187.88 270.22 189 269.32 189.68L270.28 191.26C271.1 190.56 272.02 189.72 272.94 188.88V195.58H274.74V177.24H272.94V182.54ZM284.64 180.3C283.86 181.36 282.84 182.24 281.62 182.98C281.18 182.38 280.48 181.7 279.86 181.2L278.48 182C279.06 182.5 279.72 183.18 280.14 183.76C278.74 184.4 277.18 184.88 275.64 185.18C275.96 185.54 276.36 186.22 276.54 186.64C281.04 185.62 285.36 183.44 287.26 179.36L286.04 178.72L285.7 178.8H281.82C282.14 178.44 282.44 178.1 282.72 177.74L280.82 177.22C279.74 178.78 277.7 180.36 275.48 181.28C275.84 181.58 276.42 182.14 276.7 182.5C277.9 181.94 279.08 181.16 280.16 180.3H284.64ZM276.82 189.7C277.8 190.78 278.86 192.26 279.28 193.26L280.9 192.34C280.42 191.34 279.3 189.92 278.32 188.92L276.82 189.7ZM287.5 186.88H285.2V184.64H283.36V186.88H275.54V188.6H283.36V193.48C283.36 193.74 283.26 193.84 282.94 193.84C282.6 193.84 281.48 193.84 280.36 193.8C280.6 194.3 280.88 195.06 280.96 195.56C282.5 195.56 283.6 195.54 284.28 195.26C284.98 194.98 285.2 194.46 285.2 193.5V188.6H287.5V186.88ZM298.42 190.22H301.42V192.58H298.42V190.22ZM301.42 184.66H298.42V182.42H301.42V184.66ZM301.42 188.58H298.42V186.3H301.42V188.58ZM307.08 192.58H303.14V190.22H306.38V188.58H303.14V186.3H306.4V184.66H303.14V182.42H306.68V180.72H302.66L303.82 180.22C303.58 179.44 302.98 178.26 302.4 177.38L300.8 178.02C301.3 178.86 301.82 179.94 302.06 180.72H298.66C299.1 179.76 299.46 178.78 299.8 177.8L298.02 177.34C297.12 180.26 295.6 183.14 293.82 184.98C294.08 185.16 294.42 185.52 294.72 185.84L293.04 186.34V182.78H295.18V181.06H293.04V177.26H291.26V181.06H288.86V182.78H291.26V186.86C290.28 187.12 289.4 187.38 288.68 187.56L289.1 189.36C289.78 189.16 290.5 188.94 291.26 188.7V193.38C291.26 193.66 291.16 193.74 290.9 193.74C290.68 193.76 289.92 193.76 289.14 193.72C289.4 194.24 289.62 195.06 289.68 195.54C290.94 195.54 291.76 195.48 292.32 195.16C292.86 194.86 293.04 194.34 293.04 193.4V188.14L295.18 187.48L294.96 186.08L295.18 186.32C295.68 185.76 296.18 185.1 296.64 184.4V195.6H298.42V194.28H307.08V192.58ZM323.38 187.12V192.6H318.48V185.96H324.66V178.96H322.6V184.16H318.48V177.24H316.42V184.16H312.42V178.96H310.46V185.96H316.42V192.6H311.58V187.12H309.5V194.46H323.38V195.56H325.44V187.12H323.38ZM25.92 215.38V210.54H31.12V215.38H25.92ZM18.8 215.38V210.54H23.98V215.38H18.8ZM25.92 208.72V205.24H23.98V208.72H16.94V218.38H18.8V217.2H23.98V223.56H25.92V217.2H31.12V218.28H33.06V208.72H25.92ZM48.34 210.46C47.44 212.92 46.2 214.96 44.58 216.64C42.88 214.88 41.54 212.82 40.58 210.46H48.34ZM53.52 210.46V208.66H44.54L46.32 208.1C46.06 207.28 45.42 206 44.84 205.06L42.88 205.64C43.42 206.58 43.98 207.84 44.22 208.66H35.56V210.46H38.64C39.76 213.38 41.24 215.88 43.18 217.94C41.06 219.68 38.44 220.92 35.22 221.78C35.6 222.22 36.16 223.08 36.38 223.56C39.62 222.56 42.34 221.16 44.56 219.28C46.72 221.16 49.38 222.58 52.56 223.44C52.86 222.9 53.4 222.12 53.82 221.72C50.74 220.96 48.14 219.66 46 217.92C47.88 215.92 49.36 213.48 50.42 210.46H53.52ZM57.76 212.24H62.84V210.6H61.26V205.2H59.58V210.6H57.76V205.68H56.06V213.46C56.06 216.38 55.9 220.04 54.64 222.52C55.06 222.76 55.68 223.32 55.98 223.66C57.12 221.72 57.54 219.1 57.68 216.5H60.04V223.56H61.72V214.84H57.74C57.76 214.36 57.76 213.9 57.76 213.44V212.24ZM70.72 212.56C70.32 214.54 69.7 216.28 68.86 217.76C68.02 216.22 67.4 214.46 66.96 212.56H70.72ZM71.56 210.82L71.24 210.88H65.38V208C68 207.8 70.84 207.46 72.98 206.98L71.86 205.38C69.8 205.88 66.5 206.3 63.6 206.5V213.26C63.6 216.16 63.42 220.08 61.94 222.68C62.38 222.92 63.08 223.42 63.42 223.74C65.14 220.86 65.38 216.62 65.38 213.26V212.56H65.5C66.02 215.1 66.78 217.38 67.84 219.28C66.84 220.56 65.68 221.52 64.36 222.14C64.74 222.48 65.22 223.18 65.46 223.66C66.76 222.96 67.88 222.06 68.88 220.9C69.74 222.04 70.76 222.96 71.96 223.66C72.24 223.16 72.8 222.48 73.22 222.16C71.94 221.5 70.86 220.58 69.96 219.42C71.3 217.3 72.22 214.56 72.66 211.1L71.56 210.82ZM84.46 218.14V211.14H84.68C85.66 213.74 87.06 216.22 88.74 218.14H84.46ZM78.14 218.14C79.84 216.22 81.26 213.76 82.24 211.14H82.5V218.14H78.14ZM92.22 211.14V209.26H84.46V205.22H82.5V209.26H74.84V211.14H80.36C79 214.36 76.74 217.4 74.22 219C74.68 219.38 75.28 220.04 75.6 220.52C76.46 219.88 77.28 219.12 78.08 218.24V220.02H82.5V223.56H84.46V220.02H88.88V218.28C89.62 219.12 90.44 219.86 91.3 220.46C91.62 219.92 92.3 219.2 92.76 218.82C90.2 217.26 87.92 214.3 86.54 211.14H92.22ZM96.42 219.88V215.46H100.14V219.88H96.42ZM100.14 210.04V213.84H96.42V210.04H100.14ZM105.8 208.32C106.12 207.44 106.38 206.52 106.62 205.6L104.82 205.18C104.22 207.82 103.16 210.48 101.84 212.2V208.42H98.64C98.96 207.58 99.34 206.52 99.68 205.52L97.66 205.18C97.54 206.14 97.24 207.46 96.96 208.42H94.72V223.04H96.42V221.52H101.84V212.34C102.3 212.6 103 213.1 103.3 213.38C103.94 212.46 104.56 211.3 105.12 210.02H109.84C109.58 217.56 109.32 220.58 108.68 221.24C108.46 221.52 108.24 221.58 107.84 221.58C107.34 221.58 106.18 221.56 104.9 221.46C105.24 221.98 105.46 222.76 105.5 223.26C106.64 223.32 107.82 223.34 108.52 223.26C109.28 223.16 109.76 222.98 110.26 222.32C111.06 221.32 111.3 218.22 111.58 209.2C111.6 208.96 111.6 208.32 111.6 208.32H105.8ZM108.36 217.34C107.76 216.16 106.4 214.26 105.34 212.88L103.88 213.7C104.94 215.14 106.24 217.1 106.8 218.32L108.36 217.34ZM128.44 218.2C128 217.22 127.3 216.02 126.46 214.8C126.94 213.18 127.3 211.42 127.56 209.5L125.9 209.32C125.72 210.64 125.5 211.9 125.22 213.08C124.56 212.22 123.88 211.38 123.2 210.64L122.06 211.64C122.94 212.66 123.84 213.84 124.64 215.02C123.92 217.18 122.88 219 121.46 220.3C121.86 220.54 122.6 221.08 122.9 221.32C124.1 220.12 125.04 218.56 125.76 216.74C126.36 217.7 126.84 218.6 127.18 219.36L128.44 218.2ZM130.78 206.38H114.26V223.54H116.12V220.2C116.54 220.46 117.2 220.92 117.48 221.16C118.6 219.96 119.52 218.42 120.22 216.64C120.76 217.44 121.24 218.18 121.58 218.82L122.76 217.54C122.3 216.76 121.62 215.8 120.88 214.78C121.38 213.16 121.74 211.38 122.04 209.46L120.38 209.28C120.2 210.64 119.94 211.94 119.62 213.16C118.92 212.26 118.18 211.36 117.48 210.56L116.4 211.64C117.26 212.66 118.2 213.86 119.08 215.02C118.38 217.06 117.42 218.78 116.12 220.06V208.14H128.92V221.2C128.92 221.58 128.78 221.7 128.4 221.72C128 221.74 126.62 221.76 125.36 221.68C125.62 222.16 125.94 223.02 126.06 223.54C127.88 223.54 129.04 223.5 129.78 223.2C130.5 222.9 130.78 222.34 130.78 221.22V206.38ZM138.42 208.24C138.18 207.44 137.62 206.24 137.06 205.34L135.46 205.8C135.96 206.74 136.52 208 136.74 208.8L138.42 208.24ZM138.76 218.56C139.26 216.58 139.78 213.76 140.16 211.48L138.42 211.18C138.2 213.54 137.7 216.88 137.2 218.92C135.62 219.3 134.14 219.6 133 219.84L133.4 221.68C135.48 221.18 138.26 220.48 140.84 219.84L140.66 218.12L138.76 218.56ZM133.92 211.66C134.34 213.84 134.72 216.66 134.8 218.54L136.34 218.24C136.22 216.34 135.84 213.58 135.38 211.38L133.92 211.66ZM133.2 210.56H140.98V208.84H133.2V210.56ZM148.5 220.88H143.08V216.36H148.5V220.88ZM151.16 210.9V209.12H146.32V205.2H144.42V214.62H141.28V223.54H143.08V222.62H148.5V223.46H150.38V214.62H146.32V210.9H151.16ZM155.38 217.08C153.66 217.08 152.24 218.5 152.24 220.22C152.24 221.94 153.66 223.34 155.38 223.34C157.12 223.34 158.5 221.94 158.5 220.22C158.5 218.5 157.12 217.08 155.38 217.08ZM155.38 222.14C154.32 222.14 153.46 221.28 153.46 220.22C153.46 219.16 154.32 218.3 155.38 218.3C156.44 218.3 157.3 219.16 157.3 220.22C157.3 221.28 156.44 222.14 155.38 222.14Z" fill="#0A0A10"/>
<path d="M23.048 260.448H27.88V267.84H29.048V259.392H21.912V267.84H23.048V260.448ZM21.272 268.8C20.584 269.008 19.88 269.232 19.208 269.408V265.392H20.856V264.288H19.208V260.816H21.192V259.696H15.944V260.816H18.056V264.288H16.168V265.392H18.056V269.744C17.192 270 16.392 270.192 15.752 270.368L16.008 271.52L21.432 269.904L21.272 268.8ZM27.224 271.904C26.776 271.904 26.648 271.792 26.648 271.344V267.584H25.672C25.896 266.656 25.96 265.76 25.96 264.896V261.792H24.84V264.864C24.84 267.344 24.344 270.352 20.328 272.4C20.568 272.576 20.936 273.04 21.08 273.264C23.72 271.904 24.984 270 25.544 268.096V271.456C25.544 272.512 25.976 272.8 27.064 272.8H28.52C29.896 272.8 30.072 272.176 30.216 269.664C29.912 269.6 29.544 269.424 29.256 269.216C29.176 271.472 29.096 271.904 28.52 271.904H27.224ZM36.44 259.216L36.248 259.264H32.328V273.248H33.496V260.384H35.72C35.288 261.472 34.728 262.832 34.152 263.968C35.56 265.2 35.96 266.288 35.976 267.168C35.976 267.664 35.864 268.08 35.56 268.256C35.416 268.352 35.192 268.4 34.968 268.4C34.664 268.432 34.28 268.432 33.864 268.368C34.04 268.704 34.168 269.168 34.184 269.472C34.6 269.504 35.064 269.504 35.448 269.456C35.784 269.408 36.12 269.312 36.376 269.136C36.872 268.816 37.096 268.128 37.096 267.264C37.096 266.272 36.76 265.12 35.336 263.808C35.976 262.56 36.696 261.04 37.256 259.744L36.44 259.216ZM38.984 267.152C38.984 268.976 38.76 270.992 36.792 272.592C37.144 272.752 37.624 273.056 37.864 273.296C39.912 271.52 40.136 269.264 40.136 267.184V264.8H38.984V267.152ZM42.808 273.184H43.976V264.784H42.808V273.184ZM41.016 258.528C40.44 260.448 39.064 262.72 36.728 264.256C36.984 264.448 37.336 264.864 37.496 265.152C39.336 263.904 40.6 262.272 41.432 260.608C42.52 262.384 44.088 264 45.64 264.912C45.816 264.64 46.184 264.208 46.44 264C44.696 263.104 42.952 261.296 41.96 259.408C42.056 259.184 42.136 258.944 42.216 258.72L41.016 258.528ZM56.712 260.24H58.936V263.216C58.936 264.304 59.144 264.72 60.2 264.72H61.4C61.72 264.72 62.024 264.72 62.216 264.656C62.168 264.4 62.152 264 62.12 263.728C61.944 263.776 61.592 263.792 61.384 263.792H60.312C60.088 263.792 60.04 263.664 60.04 263.248V259.2H55.608V261.12C55.608 262.288 55.352 263.696 53.8 264.752C54.024 264.912 54.456 265.296 54.616 265.504C56.344 264.352 56.712 262.576 56.712 261.152V260.24ZM53.928 268.56C52.616 268.752 51.272 268.944 50.088 269.12V266.8H53.656V265.744H50.088V263.552H53.672V262.496H50.088V260.752C51.48 260.4 52.984 259.92 54.12 259.424L53.16 258.528C52.168 259.04 50.456 259.648 48.968 260.032V260.048L48.936 260.032V269.296C48.456 269.36 47.992 269.424 47.608 269.472L47.784 270.592L48.936 270.4V272.992H50.088V270.224C51.32 270.032 52.648 269.792 53.976 269.584L53.928 268.56ZM59.736 266.864C59.336 268.032 58.712 269.008 57.944 269.792C57.096 268.96 56.456 267.984 56.008 266.864H59.736ZM60.408 265.792L60.2 265.84H54.488V266.864H55.608L55.016 267.024C55.512 268.368 56.216 269.536 57.128 270.512C56.056 271.344 54.744 271.936 53.32 272.272C53.544 272.512 53.816 272.976 53.928 273.296C55.432 272.848 56.808 272.224 57.96 271.28C58.984 272.144 60.2 272.784 61.576 273.2C61.736 272.864 62.056 272.416 62.312 272.176C60.968 271.856 59.784 271.28 58.792 270.528C59.864 269.424 60.68 267.968 61.144 266.064L60.408 265.792ZM65.512 273.712C67.192 273.12 68.28 271.808 68.28 270.08C68.28 268.96 67.8 268.24 66.92 268.24C66.264 268.24 65.704 268.64 65.704 269.392C65.704 270.144 66.248 270.528 66.904 270.528C67 270.528 67.08 270.528 67.176 270.512C67.096 271.6 66.392 272.352 65.16 272.864L65.512 273.712ZM85.4 262.992C85.176 265.2 84.664 267.008 83.96 268.432C83.272 267.872 82.568 267.36 81.896 266.88C82.216 265.76 82.568 264.4 82.888 262.992H85.4ZM85.912 261.84L85.704 261.888H83.112C83.336 260.8 83.544 259.712 83.672 258.72L82.504 258.624C82.376 259.632 82.2 260.768 81.976 261.888H79.8V262.992H81.736C81.368 264.624 80.968 266.192 80.568 267.328C81.448 267.936 82.44 268.688 83.336 269.44C82.424 270.8 81.24 271.712 79.8 272.256C80.056 272.512 80.36 272.944 80.536 273.248C82.04 272.576 83.272 271.616 84.248 270.24C84.888 270.832 85.448 271.392 85.848 271.888L86.648 270.896C86.232 270.384 85.608 269.808 84.888 269.2C85.832 267.408 86.424 265.072 86.648 261.984L85.912 261.84ZM88.632 270.496V261.472H92.552V270.496H88.632ZM87.512 260.336V272.816H88.632V271.632H92.552V272.592H93.72V260.336H87.512ZM98.792 264.672V263.024H102.392V264.672H98.792ZM98.792 260.416H102.392V262.048H98.792V260.416ZM107.256 262.048H103.624V260.416H107.256V262.048ZM107.256 264.672H103.624V263.024H107.256V264.672ZM109.976 268.144V267.04H103.624V265.696H108.52V259.376H97.592V265.696H102.392V267.04H96.04V268.144H101.4C99.992 269.664 97.72 271.04 95.64 271.712C95.896 271.952 96.28 272.416 96.44 272.688C98.52 271.904 100.856 270.384 102.392 268.64V273.232H103.624V268.56C105.192 270.256 107.544 271.808 109.576 272.624C109.752 272.336 110.12 271.872 110.392 271.632C108.376 270.96 106.088 269.616 104.616 268.144H109.976ZM124.52 261.152C124.264 261.728 123.976 262.32 123.752 262.72L124.76 262.928C125.16 262.288 125.64 261.2 126.056 260.288L125.24 260.064L125.048 260.112H119.064C119.256 259.712 119.432 259.312 119.592 258.912L118.488 258.64C117.96 260.144 117.032 261.6 115.944 262.544C116.2 262.72 116.648 263.088 116.84 263.296C117.432 262.72 118.008 261.984 118.504 261.152H124.52ZM122.872 263.424C123.656 264.416 124.472 265.776 124.824 266.672L125.848 266.144C125.48 265.264 124.648 263.936 123.832 262.976L122.872 263.424ZM120.872 270.064C120.424 269.28 119.416 268.128 118.536 267.312L117.624 267.84C118.488 268.688 119.48 269.872 119.88 270.64L120.872 270.064ZM118.472 263.008C118.04 264.112 117.304 265.232 116.472 265.984C116.728 266.144 117.16 266.464 117.368 266.656C118.2 265.84 119.048 264.576 119.56 263.312L118.472 263.008ZM121.992 261.696H120.856V266.368C120.856 266.544 120.792 266.592 120.6 266.592C120.392 266.608 119.736 266.608 118.984 266.592C119.128 266.896 119.304 267.312 119.368 267.632C120.376 267.632 121.016 267.632 121.432 267.44C121.88 267.264 121.992 266.976 121.992 266.384V261.696ZM112.936 272.576C113.528 271.6 114.088 270.096 114.504 269.056L113.432 268.624C113.08 269.664 112.456 271.12 111.816 272.064L112.936 272.576ZM115.432 258.576C114.52 260.352 113.08 262.112 111.608 263.216C111.848 263.44 112.232 263.92 112.392 264.144C112.904 263.712 113.432 263.2 113.928 262.64V267.712H115.08V261.216C115.608 260.48 116.104 259.712 116.488 258.928L115.432 258.576ZM117.656 271.824C116.6 271.824 116.408 271.744 116.408 271.28V268.528H115.224V271.296C115.224 272.592 115.72 272.928 117.608 272.928H121.416C123 272.928 123.384 272.432 123.544 270.416C123.208 270.352 122.712 270.176 122.44 269.968C122.36 271.584 122.216 271.824 121.336 271.824H117.656ZM123.256 268.736C123.976 269.872 124.712 271.408 124.936 272.384L126.072 271.92C125.8 270.944 125.048 269.472 124.296 268.336L123.256 268.736ZM140.264 261.92H136.296V260.432H140.264V261.92ZM140.264 264.336H136.296V262.848H140.264V264.336ZM140.264 266.784H136.296V265.264H140.264V266.784ZM141.4 259.456H135.192V267.76H141.4V259.456ZM133.64 268.24C134.376 268.96 135.352 269.984 135.816 270.592L136.68 269.888C136.2 269.296 135.208 268.304 134.472 267.632L133.64 268.24ZM128.84 272.384C129.48 271.504 129.992 270.08 130.344 269.008L129.304 268.608C128.984 269.648 128.44 271.008 127.8 271.856L128.84 272.384ZM131.976 267.92V264.032C132.68 264.624 133.576 265.408 133.992 265.808L134.632 264.848C134.216 264.528 132.584 263.312 131.976 262.928V262.032H134.504V260.992H131.976V258.656H130.84V260.992H127.928V262.032H130.632C129.928 263.664 128.744 265.312 127.576 266.144C127.816 266.336 128.152 266.704 128.344 266.976C129.24 266.24 130.136 265.024 130.84 263.712V267.92H131.976ZM133.816 271.808C132.888 271.808 132.728 271.728 132.728 271.312V268.784H131.56V271.328C131.56 272.56 132.008 272.88 133.736 272.88H137.048C138.488 272.88 138.856 272.4 139.016 270.4C138.68 270.336 138.2 270.16 137.928 269.952C137.864 271.584 137.736 271.808 136.968 271.808H133.816ZM139.24 268.752C139.88 269.808 140.712 271.2 141.08 272.032L142.184 271.488C141.784 270.672 140.92 269.296 140.264 268.288L139.24 268.752ZM156.312 259.776L156.024 259.856H144.6V261.024H154.888C153.688 262.16 151.976 263.408 150.44 264.16V271.664C150.44 271.952 150.344 272.032 150.008 272.048C149.64 272.064 148.408 272.08 147.08 272.032C147.272 272.352 147.496 272.88 147.56 273.216C149.176 273.216 150.232 273.2 150.84 273.008C151.464 272.832 151.672 272.48 151.672 271.664V264.752C153.656 263.664 155.832 262 157.24 260.464L156.312 259.776ZM164.088 268.512V266.4H165.528V268.512H164.088ZM161.768 268.512C161.8 267.952 161.816 267.392 161.816 266.896V266.4H163.224V268.512H161.768ZM164.488 260.976C164.296 261.536 164.024 262.16 163.768 262.64H161.624C161.912 262.128 162.168 261.552 162.424 260.976H164.488ZM164.088 263.584H165.528V265.504H164.088V263.584ZM161.816 263.584H163.224V265.504H161.816V263.584ZM166.536 262.64H164.872C165.24 261.968 165.608 261.152 165.88 260.448L165.16 259.984L164.984 260.032H162.776C162.904 259.632 163.032 259.232 163.144 258.832L162.072 258.608C161.576 260.56 160.696 262.448 159.576 263.68C159.816 263.84 160.28 264.192 160.44 264.368C160.552 264.224 160.68 264.08 160.792 263.936V266.88C160.792 268.672 160.68 271.04 159.608 272.72C159.848 272.816 160.312 273.104 160.472 273.28C161.176 272.208 161.512 270.816 161.672 269.456H163.224V272.384H164.088V269.456H165.528V271.856C165.528 272.032 165.48 272.08 165.304 272.08C165.16 272.08 164.712 272.08 164.152 272.064C164.312 272.352 164.424 272.8 164.472 273.088C165.272 273.088 165.768 273.072 166.088 272.88C166.44 272.688 166.536 272.384 166.536 271.872V262.64ZM172.744 260.432C172.632 262.288 172.504 263.024 172.344 263.232C172.232 263.376 172.104 263.392 171.88 263.376C171.672 263.376 171.08 263.376 170.44 263.312C170.6 263.584 170.696 264 170.728 264.304C171.384 264.336 172.04 264.352 172.376 264.32C172.76 264.288 173.032 264.176 173.24 263.92C173.576 263.536 173.72 262.512 173.848 259.888C173.864 259.728 173.864 259.424 173.864 259.424H167.16V260.432H169.336C169.064 261.936 168.44 263.216 166.824 263.936C167.048 264.128 167.352 264.512 167.48 264.752C169.368 263.856 170.104 262.304 170.408 260.432H172.744ZM174.296 269.12H171.512V267.168H173.896V266.144H171.512V264.624H170.392V266.144H169.016C169.144 265.728 169.256 265.296 169.352 264.864L168.344 264.656C168.072 266 167.592 267.328 166.888 268.224C167.144 268.336 167.608 268.576 167.8 268.72C168.12 268.288 168.392 267.76 168.632 267.168H170.392V269.12H167.16V270.16H170.392V273.216H171.512V270.16H174.296V269.12ZM178.68 267.04V265.424H182.488V266.064C182.488 266.384 182.488 266.72 182.456 267.04H178.68ZM178.68 262.88H182.488V264.48H178.68V262.88ZM187.736 262.88V264.48H183.704V262.88H187.736ZM187.736 267.04H183.672C183.688 266.736 183.704 266.4 183.704 266.08V265.424H187.736V267.04ZM188.904 268.032V261.888H183.704V260.544H189.912V259.472H176.088V260.544H182.488V261.888H177.544V268.032H182.296C182.104 268.8 181.736 269.52 181 270.144C180.248 269.648 179.608 268.992 179.064 268.16L178.072 268.56C178.616 269.488 179.272 270.224 180.04 270.816C179.064 271.376 177.704 271.824 175.8 272.192C176.056 272.464 176.376 272.96 176.504 273.232C178.584 272.8 180.072 272.208 181.144 271.504C183.32 272.656 186.232 273.008 189.928 273.168C189.992 272.784 190.216 272.288 190.424 272C186.872 271.904 184.12 271.664 182.104 270.752C182.904 269.936 183.336 269.024 183.528 268.032H188.904ZM202.92 259.952L202.712 260H198.568C198.952 259.616 199.304 259.248 199.608 258.864L198.312 258.592C197.288 259.904 195.384 261.456 192.84 262.528C193.096 262.72 193.464 263.088 193.64 263.36C195.08 262.704 196.328 261.92 197.352 261.072H201.864C201.08 262.064 199.976 262.928 198.712 263.648C198.136 263.152 197.336 262.608 196.664 262.224L195.8 262.832C196.44 263.2 197.144 263.712 197.672 264.192C195.976 265.008 194.088 265.584 192.312 265.904C192.52 266.16 192.776 266.656 192.872 266.976C197.016 266.112 201.672 263.968 203.688 260.432L202.92 259.952ZM205.256 265.536L205.016 265.6H201.16C201.56 265.216 201.896 264.816 202.216 264.416L200.904 264.128C199.736 265.696 197.464 267.472 194.232 268.64C194.504 268.832 194.84 269.264 194.984 269.52C196.984 268.736 198.632 267.76 199.96 266.688H204.28C203.48 267.936 202.344 268.928 200.984 269.712C200.408 269.184 199.64 268.56 199 268.096L198.024 268.656C198.648 269.136 199.368 269.744 199.896 270.256C197.672 271.296 194.984 271.856 192.28 272.112C192.472 272.4 192.664 272.928 192.744 273.264C198.376 272.592 203.832 270.736 206.056 266.032L205.256 265.536ZM210.632 259.264C211.272 260.096 211.944 261.264 212.232 262.016L213.272 261.44C212.984 260.704 212.296 259.584 211.624 258.768L210.632 259.264ZM221.912 267.2V266.032H215.688C215.704 265.728 215.72 265.44 215.72 265.136V263.184H221.048V262.016H217.88C218.456 261.152 219.096 260.064 219.624 259.12L218.36 258.672C217.944 259.68 217.224 261.056 216.6 262.016H209.112V263.184H214.392V265.12C214.392 265.424 214.376 265.712 214.36 266.032H208.152V267.2H214.12C213.608 268.912 212.088 270.72 207.832 272.176C208.152 272.416 208.52 272.928 208.696 273.2C212.776 271.776 214.52 269.936 215.24 268.096C216.552 270.544 218.648 272.288 221.48 273.104C221.64 272.752 222.024 272.256 222.312 271.984C219.4 271.264 217.224 269.536 216.024 267.2H221.912ZM238.088 264.96H231.768V260.928H236.968V259.76H225.032V260.928H230.536V264.96H223.928V266.128H230.536V271.488C230.536 271.824 230.408 271.92 230.072 271.936C229.704 271.952 228.488 271.952 227.176 271.92C227.368 272.256 227.608 272.816 227.688 273.152C229.304 273.152 230.344 273.136 230.936 272.928C231.528 272.736 231.768 272.352 231.768 271.488V266.128H238.088V264.96ZM253.688 261.696C253.176 260.944 252.056 259.824 251.144 259.04L250.232 259.664C251.16 260.48 252.248 261.632 252.728 262.384L253.688 261.696ZM252.264 265.184C251.72 266.208 251.016 267.184 250.168 268.096C249.896 267.04 249.672 265.808 249.512 264.448H254.088V263.312H249.384C249.256 261.888 249.192 260.352 249.192 258.752H247.976C247.992 260.32 248.056 261.856 248.2 263.312H244.536V260.528C245.512 260.32 246.44 260.064 247.208 259.792L246.36 258.816C244.856 259.376 242.28 259.92 240.04 260.256C240.2 260.544 240.36 260.96 240.424 261.248C241.368 261.12 242.376 260.96 243.368 260.768V263.312H239.944V264.448H243.368V267.248C241.976 267.536 240.68 267.808 239.72 267.968L240.056 269.168C241.016 268.96 242.168 268.688 243.368 268.432V271.68C243.368 271.968 243.272 272.048 242.984 272.048C242.712 272.064 241.768 272.08 240.744 272.032C240.92 272.368 241.128 272.912 241.192 273.232C242.488 273.232 243.352 273.2 243.848 273.008C244.344 272.816 244.536 272.464 244.536 271.696V268.144C245.512 267.92 246.504 267.696 247.48 267.456L247.4 266.384C246.456 266.592 245.48 266.8 244.536 267.008V264.448H248.296C248.504 266.176 248.808 267.76 249.192 269.088C248.056 270.144 246.744 271.024 245.4 271.68C245.704 271.936 246.04 272.336 246.216 272.624C247.416 272 248.552 271.2 249.592 270.272C250.328 272.144 251.288 273.264 252.552 273.264C253.752 273.264 254.168 272.496 254.392 269.856C254.056 269.744 253.64 269.472 253.384 269.216C253.288 271.264 253.096 272.08 252.664 272.08C251.864 272.08 251.144 271.056 250.536 269.376C251.656 268.24 252.6 266.976 253.32 265.616L252.264 265.184ZM258.648 258.704C257.96 261.152 256.888 263.6 255.624 265.216C255.832 265.488 256.168 266.144 256.264 266.4C256.648 265.904 257.016 265.344 257.368 264.72V273.216H258.52V262.416C258.984 261.328 259.416 260.16 259.736 259.008L258.648 258.704ZM260.44 273.232H261.592V261.824H260.44V273.232ZM261.096 259.12C261.816 260.096 262.616 261.44 262.952 262.24L263.928 261.68C263.56 260.88 262.728 259.584 262.024 258.624L261.096 259.12ZM269.688 259.2H264.2V260.288H268.52V271.696C268.52 271.968 268.44 272.048 268.168 272.064C267.912 272.08 267.032 272.096 266.12 272.048C266.28 272.368 266.456 272.88 266.504 273.184C267.752 273.184 268.568 273.168 269.048 272.976C269.512 272.784 269.688 272.448 269.688 271.712V259.2ZM276.888 265.584H273.528V262.24H276.888V265.584ZM273.528 270.48V266.64H276.888V270.48H273.528ZM274.872 258.576C274.76 259.328 274.472 260.4 274.232 261.168H272.44V272.816H273.528V271.552H277.976V261.168H275.32C275.592 260.48 275.88 259.6 276.152 258.816L274.872 258.576ZM285.8 261.12H281.016C281.288 260.368 281.512 259.6 281.704 258.816L280.568 258.544C280.056 260.736 279.192 262.944 278.12 264.352C278.376 264.512 278.888 264.832 279.096 265.024C279.656 264.272 280.152 263.296 280.6 262.224H284.664C284.456 268.592 284.216 271.024 283.688 271.584C283.528 271.792 283.352 271.824 283.032 271.824C282.664 271.824 281.704 271.824 280.664 271.728C280.888 272.064 281.032 272.544 281.064 272.896C281.96 272.944 282.872 272.976 283.432 272.912C283.976 272.864 284.344 272.72 284.696 272.272C285.336 271.488 285.544 269.024 285.8 261.728V261.12ZM283.272 268.32C282.76 267.376 281.656 265.84 280.76 264.704L279.832 265.248C280.712 266.4 281.784 267.984 282.264 268.944L283.272 268.32ZM23.608 298.816V289.632H29.352V288.416H16.712V289.632H22.312V298.816H15.88V300H30.152V298.816H23.608ZM35.592 286.672C34.696 289.104 33.224 291.488 31.64 293.024C31.864 293.28 32.216 293.936 32.328 294.208C32.872 293.648 33.416 293.008 33.912 292.304V301.2H35.096V290.464C35.72 289.36 36.296 288.192 36.728 287.04L35.592 286.672ZM46.328 290.416V289.28H39.672C39.992 288.576 40.296 287.856 40.552 287.12L39.416 286.816C38.632 289.152 37.336 291.456 35.896 292.944C36.168 293.136 36.632 293.536 36.824 293.744C37.624 292.848 38.408 291.696 39.096 290.416H40.2V301.216H41.4V297.344H46.184V296.224H41.4V293.808H45.96V292.704H41.4V290.416H46.328ZM49.512 301.712C51.192 301.12 52.28 299.808 52.28 298.08C52.28 296.96 51.8 296.24 50.92 296.24C50.264 296.24 49.704 296.64 49.704 297.392C49.704 298.144 50.248 298.528 50.904 298.528C51 298.528 51.08 298.528 51.176 298.512C51.096 299.6 50.392 300.352 49.16 300.864L49.512 301.712ZM77.48 288.32C76.888 287.792 75.704 287.104 74.728 286.672L74.04 287.408C75.016 287.872 76.184 288.608 76.744 289.152L77.48 288.32ZM71.08 297.504C68.488 298.048 65.768 298.592 64.04 298.928L64.264 300.128C66.12 299.712 68.728 299.152 71.176 298.624L71.08 297.504ZM69.4 295.552H66.152V292.784H69.4V295.552ZM65.048 291.744V296.576H70.568V291.744H65.048ZM76.104 291.472C75.592 293.136 74.904 294.608 74.04 295.92C73.64 294.368 73.368 292.448 73.208 290.336H77.928V289.168H73.128C73.096 288.352 73.08 287.52 73.08 286.656H71.832C71.848 287.504 71.864 288.336 71.912 289.168H64.12V290.336H71.976C72.184 292.928 72.536 295.296 73.096 297.168C72.04 298.448 70.76 299.504 69.256 300.304C69.528 300.512 69.992 300.976 70.184 301.216C71.448 300.464 72.568 299.552 73.56 298.464C74.28 300.192 75.24 301.232 76.44 301.232C77.672 301.232 78.12 300.448 78.328 297.712C77.992 297.6 77.56 297.328 77.288 297.04C77.192 299.168 77 300 76.552 300C75.768 300 75.048 299.008 74.456 297.36C75.656 295.776 76.6 293.904 77.304 291.76L76.104 291.472ZM92.264 289.92H88.296V288.432H92.264V289.92ZM92.264 292.336H88.296V290.848H92.264V292.336ZM92.264 294.784H88.296V293.264H92.264V294.784ZM93.4 287.456H87.192V295.76H93.4V287.456ZM85.64 296.24C86.376 296.96 87.352 297.984 87.816 298.592L88.68 297.888C88.2 297.296 87.208 296.304 86.472 295.632L85.64 296.24ZM80.84 300.384C81.48 299.504 81.992 298.08 82.344 297.008L81.304 296.608C80.984 297.648 80.44 299.008 79.8 299.856L80.84 300.384ZM83.976 295.92V292.032C84.68 292.624 85.576 293.408 85.992 293.808L86.632 292.848C86.216 292.528 84.584 291.312 83.976 290.928V290.032H86.504V288.992H83.976V286.656H82.84V288.992H79.928V290.032H82.632C81.928 291.664 80.744 293.312 79.576 294.144C79.816 294.336 80.152 294.704 80.344 294.976C81.24 294.24 82.136 293.024 82.84 291.712V295.92H83.976ZM85.816 299.808C84.888 299.808 84.728 299.728 84.728 299.312V296.784H83.56V299.328C83.56 300.56 84.008 300.88 85.736 300.88H89.048C90.488 300.88 90.856 300.4 91.016 298.4C90.68 298.336 90.2 298.16 89.928 297.952C89.864 299.584 89.736 299.808 88.968 299.808H85.816ZM91.24 296.752C91.88 297.808 92.712 299.2 93.08 300.032L94.184 299.488C93.784 298.672 92.92 297.296 92.264 296.288L91.24 296.752ZM105 293.696V296.816H100.984V293.696H105ZM106.104 297.888V292.624H99.896V299.024H100.984V297.888H106.104ZM109.448 289.36H102.312C102.712 288.592 103.128 287.68 103.48 286.832L102.024 286.576C101.816 287.392 101.4 288.496 101 289.36H96.632V301.216H97.8V290.512H108.264V299.632C108.264 299.936 108.168 300.016 107.88 300.032C107.544 300.048 106.44 300.048 105.288 300C105.464 300.32 105.656 300.88 105.72 301.216C107.16 301.216 108.136 301.2 108.712 301.008C109.272 300.816 109.448 300.416 109.448 299.632V289.36ZM125.688 289.696C125.176 288.944 124.056 287.824 123.144 287.04L122.232 287.664C123.16 288.48 124.248 289.632 124.728 290.384L125.688 289.696ZM124.264 293.184C123.72 294.208 123.016 295.184 122.168 296.096C121.896 295.04 121.672 293.808 121.512 292.448H126.088V291.312H121.384C121.256 289.888 121.192 288.352 121.192 286.752H119.976C119.992 288.32 120.056 289.856 120.2 291.312H116.536V288.528C117.512 288.32 118.44 288.064 119.208 287.792L118.36 286.816C116.856 287.376 114.28 287.92 112.04 288.256C112.2 288.544 112.36 288.96 112.424 289.248C113.368 289.12 114.376 288.96 115.368 288.768V291.312H111.944V292.448H115.368V295.248C113.976 295.536 112.68 295.808 111.72 295.968L112.056 297.168C113.016 296.96 114.168 296.688 115.368 296.432V299.68C115.368 299.968 115.272 300.048 114.984 300.048C114.712 300.064 113.768 300.08 112.744 300.032C112.92 300.368 113.128 300.912 113.192 301.232C114.488 301.232 115.352 301.2 115.848 301.008C116.344 300.816 116.536 300.464 116.536 299.696V296.144C117.512 295.92 118.504 295.696 119.48 295.456L119.4 294.384C118.456 294.592 117.48 294.8 116.536 295.008V292.448H120.296C120.504 294.176 120.808 295.76 121.192 297.088C120.056 298.144 118.744 299.024 117.4 299.68C117.704 299.936 118.04 300.336 118.216 300.624C119.416 300 120.552 299.2 121.592 298.272C122.328 300.144 123.288 301.264 124.552 301.264C125.752 301.264 126.168 300.496 126.392 297.856C126.056 297.744 125.64 297.472 125.384 297.216C125.288 299.264 125.096 300.08 124.664 300.08C123.864 300.08 123.144 299.056 122.536 297.376C123.656 296.24 124.6 294.976 125.32 293.616L124.264 293.184ZM130.648 286.704C129.96 289.152 128.888 291.6 127.624 293.216C127.832 293.488 128.168 294.144 128.264 294.4C128.648 293.904 129.016 293.344 129.368 292.72V301.216H130.52V290.416C130.984 289.328 131.416 288.16 131.736 287.008L130.648 286.704ZM132.44 301.232H133.592V289.824H132.44V301.232ZM133.096 287.12C133.816 288.096 134.616 289.44 134.952 290.24L135.928 289.68C135.56 288.88 134.728 287.584 134.024 286.624L133.096 287.12ZM141.688 287.2H136.2V288.288H140.52V299.696C140.52 299.968 140.44 300.048 140.168 300.064C139.912 300.08 139.032 300.096 138.12 300.048C138.28 300.368 138.456 300.88 138.504 301.184C139.752 301.184 140.568 301.168 141.048 300.976C141.512 300.784 141.688 300.448 141.688 299.712V287.2ZM155.944 289.312H150.648V288.048H155.944V289.312ZM155.944 291.424H150.648V290.144H155.944V291.424ZM157.08 287.152H149.56V292.336H157.08V287.152ZM148.392 293.584L146.776 294.08V290.928H148.536V289.824H146.776V286.64H145.672V289.824H143.704V290.928H145.672V294.432C144.856 294.688 144.12 294.912 143.528 295.056L143.816 296.208C144.392 296.032 145.016 295.84 145.672 295.616V299.728C145.672 299.968 145.592 300.032 145.4 300.032C145.224 300.032 144.584 300.032 143.896 300.016C144.056 300.352 144.2 300.832 144.248 301.12C145.256 301.136 145.864 301.088 146.232 300.896C146.632 300.704 146.776 300.4 146.776 299.744V295.264C147.368 295.056 147.96 294.88 148.536 294.672L148.392 293.584ZM153.864 297.328H157.176V296.352H153.864V294.48H157.976V293.472H148.84V294.48H152.744V299.536C151.832 299.152 151.112 298.416 150.664 297.056C150.792 296.528 150.888 295.952 150.968 295.36L149.88 295.232C149.624 297.6 148.92 299.392 147.496 300.512C147.752 300.672 148.2 301.04 148.392 301.232C149.224 300.48 149.864 299.504 150.296 298.304C151.336 300.544 153.016 300.976 155.32 300.976H158.104C158.152 300.672 158.296 300.176 158.456 299.92C157.912 299.936 155.752 299.936 155.368 299.936C154.84 299.936 154.328 299.904 153.864 299.84V297.328ZM171.992 294.56V299.12H167.608V293.552H172.648V288.064H171.368V292.384H167.608V286.624H166.328V292.384H162.664V288.08H161.432V293.552H166.328V299.12H162.008V294.56H160.728V300.288H171.992V301.2H173.272V294.56H171.992ZM177.352 290.016H182.392V293.776H183.512V290.016H188.632V292.176H189.736V289.136H183.512V288.208H188.808V287.248H177.192V288.208H182.392V289.136H176.28V292.176H177.352V290.016ZM184.344 293.344H188.248V292.544H184.344V293.344ZM184.344 290.88V291.664H187.864V290.88H184.344ZM181.56 290.88H178.136V291.664H181.56V290.88ZM177.8 293.344H181.56V292.544H177.8V293.344ZM189.96 295.264V294.288H176.088V295.264H182.264C182.168 295.632 182.056 296.032 181.944 296.4H177.32V301.184H178.456V297.376H180.824V301.088H181.896V297.376H184.328V301.088H185.416V297.376H187.928V300.032C187.928 300.176 187.88 300.224 187.704 300.24C187.512 300.256 186.984 300.256 186.344 300.24C186.488 300.512 186.648 300.928 186.712 301.216C187.576 301.216 188.168 301.216 188.568 301.04C188.968 300.864 189.064 300.576 189.064 300.048V296.4H183.064C183.192 296.048 183.352 295.664 183.48 295.264H189.96ZM204.264 291.168C203.544 292.16 202.344 293.408 201.352 294.336C200.616 293.184 200.008 291.92 199.576 290.608V290.448H205.976V289.296H204.008L204.68 288.528C204.04 287.984 202.76 287.232 201.752 286.72L201.048 287.472C202.008 287.984 203.208 288.736 203.864 289.296H199.576V286.656H198.376V289.296H192.088V290.448H198.376V294.88C195.96 296.256 193.352 297.712 191.736 298.544L192.504 299.616C194.136 298.672 196.312 297.376 198.376 296.096V299.616C198.376 299.92 198.264 300 197.976 300.016C197.656 300.032 196.616 300.032 195.528 300C195.688 300.352 195.88 300.912 195.944 301.248C197.352 301.248 198.296 301.216 198.824 301.008C199.352 300.816 199.576 300.448 199.576 299.616V293.264C200.952 296.208 202.952 298.64 205.528 299.888C205.736 299.568 206.12 299.104 206.392 298.88C204.664 298.128 203.144 296.816 201.944 295.216C203.032 294.304 204.312 293.024 205.288 291.888L204.264 291.168ZM196.52 294.352C196.008 293.488 194.84 292.256 193.832 291.392L192.936 292.016C193.944 292.912 195.064 294.192 195.56 295.056L196.52 294.352ZM211.416 289.008C211.784 289.664 212.168 290.432 212.328 290.96L213.368 290.528C213.224 290.128 212.936 289.536 212.632 289.008H214.888V288H211C211.176 287.616 211.336 287.248 211.48 286.848L210.344 286.576C209.832 288.08 208.92 289.52 207.832 290.464C208.12 290.624 208.584 290.944 208.824 291.12C209.384 290.56 209.96 289.824 210.456 289.008H211.416ZM208.76 301.2H209.912V292.768H208.76V301.2ZM209.48 291.392C210.152 291.984 210.92 292.832 211.256 293.408L212.168 292.752C211.816 292.192 211.016 291.376 210.344 290.8L209.48 291.392ZM213.176 298.368V296.944H216.904V298.368H213.176ZM216.904 294.736V296.064H213.176V294.736H216.904ZM217.976 293.808H212.136V299.296H217.976V293.808ZM221.256 291.408H212.632V292.496H220.088V299.792C220.088 300.016 220.024 300.08 219.768 300.096C219.544 300.112 218.68 300.112 217.784 300.08C217.96 300.384 218.12 300.816 218.168 301.136C219.384 301.136 220.168 301.12 220.632 300.944C221.096 300.768 221.256 300.464 221.256 299.792V291.408ZM217.224 288.016C217.4 287.632 217.528 287.248 217.64 286.848L216.52 286.592C216.12 287.968 215.384 289.28 214.488 290.144C214.776 290.288 215.256 290.624 215.464 290.816C215.912 290.32 216.36 289.712 216.728 289.024H217.96C218.424 289.696 218.904 290.512 219.096 291.056L220.12 290.592C219.944 290.16 219.608 289.568 219.224 289.024H221.816V288.016H217.224ZM229.032 293.536L227.272 294.032V290.992H229.064V289.824H227.272V286.624H226.088V289.824H223.816V290.992H226.088V294.368C225.144 294.64 224.28 294.864 223.592 295.024L223.912 296.224C224.568 296.048 225.304 295.824 226.088 295.6V299.744C226.088 300.016 225.976 300.096 225.704 300.096C225.48 300.112 224.664 300.128 223.768 300.096C223.944 300.416 224.12 300.912 224.152 301.232C225.416 301.232 226.168 301.216 226.632 301.008C227.08 300.816 227.272 300.48 227.272 299.744V295.248L229.192 294.672L229.032 293.536ZM236.376 293.68C236.024 294.96 235.448 296.192 234.664 297.28C233.784 296.208 233.08 294.976 232.552 293.68H236.376ZM237.016 292.56L236.808 292.608H230.952V288.256H236.04C235.976 289.696 235.88 290.32 235.672 290.512C235.56 290.624 235.368 290.64 235.032 290.64C234.712 290.64 233.672 290.64 232.616 290.544C232.808 290.832 232.936 291.232 232.952 291.552C234.008 291.6 235.016 291.616 235.528 291.584C236.056 291.552 236.392 291.456 236.696 291.168C237.032 290.816 237.176 289.904 237.272 287.664C237.288 287.488 237.288 287.152 237.288 287.152H229.784V301.2H230.952V293.68H231.432C232.04 295.36 232.872 296.88 233.928 298.192C233.112 299.072 232.152 299.824 231.048 300.384C231.336 300.608 231.672 300.976 231.848 301.264C232.936 300.672 233.88 299.936 234.68 299.056C235.528 299.936 236.472 300.672 237.528 301.184C237.704 300.864 238.072 300.416 238.36 300.176C237.288 299.728 236.312 299.024 235.448 298.16C236.584 296.624 237.368 294.784 237.784 292.816L237.016 292.56ZM241.512 301.712C243.192 301.12 244.28 299.808 244.28 298.08C244.28 296.96 243.8 296.24 242.92 296.24C242.264 296.24 241.704 296.64 241.704 297.392C241.704 298.144 242.248 298.528 242.904 298.528C243 298.528 243.08 298.528 243.176 298.512C243.096 299.6 242.392 300.352 241.16 300.864L241.512 301.712ZM259.944 289.328C259.448 288.688 258.36 287.696 257.528 286.992L256.76 287.696C257.592 288.448 258.648 289.488 259.128 290.16L259.944 289.328ZM259.256 298.432V291.616H255.72V292.752H258.104V298.56C258.104 299.264 257.656 299.744 257.352 299.92C257.56 300.16 257.864 300.656 257.976 300.928C258.216 300.624 258.632 300.272 261.304 298.208C261.176 297.984 260.968 297.536 260.888 297.216L259.256 298.432ZM262.904 297.888V296.592H267.896V297.888H262.904ZM267.896 294.528V295.76H262.904V294.528H267.896ZM269.032 293.6H261.784V301.216H262.904V298.752H267.896V299.872C267.896 300.08 267.832 300.144 267.592 300.144C267.4 300.16 266.632 300.16 265.816 300.128C265.96 300.432 266.12 300.864 266.168 301.152C267.304 301.168 268.008 301.152 268.472 300.976C268.904 300.8 269.032 300.496 269.032 299.888V293.6ZM265.976 291.776V290.656H269.336V289.792H265.976V288.784H269.816V287.872H265.976V286.624H264.808V287.872H261.128V288.784H264.808V289.792H261.512V290.656H264.808V291.776H260.648V292.688H270.28V291.776H265.976ZM280.632 291.52V292.928H277.96V291.52H280.632ZM284.488 291.52V292.928H281.704V291.52H284.488ZM281.704 295.264V293.808H284.488V295.264H281.704ZM277.96 295.264V293.808H280.632V295.264H277.96ZM277.96 296.176H280.632V298.784H281.704V296.176H284.488V297.632C284.488 297.84 284.424 297.904 284.216 297.904C284.024 297.904 283.352 297.92 282.6 297.888C282.744 298.176 282.872 298.576 282.92 298.88C283.992 298.88 284.664 298.864 285.08 298.688C285.496 298.512 285.624 298.24 285.624 297.648V290.608H283.528C283.208 290.416 282.792 290.192 282.344 289.984C283.528 289.36 284.744 288.528 285.608 287.696L284.888 287.136L284.648 287.2H276.84V288.144H283.576C282.92 288.624 282.104 289.136 281.32 289.504C280.536 289.168 279.704 288.832 279 288.576L278.248 289.248C279.224 289.616 280.392 290.128 281.368 290.608H276.824V298.832H277.96V296.176ZM275.656 289.872C275.08 289.152 273.848 288.032 272.904 287.248L272.072 287.92C273.032 288.752 274.232 289.92 274.792 290.656L275.656 289.872ZM275.128 292.576H271.736V293.696H273.976V298.208C273.288 298.496 272.488 299.216 271.672 300.08L272.424 301.056C273.224 299.984 274.008 299.072 274.552 299.072C274.92 299.072 275.48 299.6 276.104 299.984C277.24 300.672 278.552 300.864 280.52 300.864C282.232 300.864 285.016 300.768 286.12 300.704C286.152 300.368 286.312 299.84 286.44 299.536C284.808 299.696 282.408 299.84 280.552 299.84C278.776 299.84 277.416 299.712 276.36 299.056C275.784 298.72 275.448 298.416 275.128 298.24V292.576ZM298.504 296.928C298.504 297.2 298.392 297.296 298.072 297.312C297.752 297.312 296.632 297.312 295.48 297.28C295.656 297.616 295.848 298.144 295.896 298.48C297.4 298.48 298.376 298.448 298.92 298.256C299.48 298.08 299.688 297.728 299.688 296.928V290.608H301.896V289.472H299.688V286.672H298.504V289.472H292.36V290.608H298.504V296.928ZM293.112 292.384C293.928 293.376 294.888 294.768 295.336 295.6L296.344 294.992C295.88 294.16 294.856 292.848 294.056 291.872L293.112 292.384ZM291.656 289.696C291.176 288.944 290.12 287.84 289.24 287.04L288.328 287.648C289.208 288.464 290.232 289.632 290.68 290.384L291.656 289.696ZM291.224 292.576H287.864V293.696H290.056V297.856C289.352 298.128 288.504 298.832 287.656 299.744L288.488 300.864C289.304 299.776 290.072 298.832 290.6 298.832C290.952 298.832 291.48 299.36 292.136 299.776C293.24 300.48 294.568 300.656 296.536 300.656C298.072 300.656 300.872 300.576 302.008 300.496C302.024 300.128 302.216 299.536 302.376 299.216C300.824 299.376 298.44 299.52 296.568 299.52C294.808 299.52 293.432 299.392 292.408 298.752C291.864 298.416 291.528 298.128 291.224 297.936V292.576ZM24.472 319.824C23.992 318.784 22.952 317.248 22.008 316.112L21 316.64C21.928 317.808 22.952 319.424 23.4 320.448L24.472 319.824ZM18.872 325.344V315.856H17.608V325.216C17.608 325.952 16.984 326.464 16.648 326.656C16.856 326.88 17.208 327.36 17.304 327.632C17.704 327.28 18.28 326.944 22.888 324.736C22.792 324.464 22.632 323.968 22.584 323.616L18.872 325.344ZM30.392 328.416C29.624 327.296 28.072 325.632 26.696 324.32C27.752 322.048 28.184 319.104 28.408 315.312L27.16 315.248C26.792 322.32 25.688 326.272 20.568 328.304C20.84 328.544 21.288 329.072 21.448 329.328C23.608 328.336 25.096 327.072 26.136 325.376C27.416 326.64 28.728 328.16 29.368 329.184L30.392 328.416ZM46.072 316.976V315.792H31.944V316.976H38.056V329.2H39.32V320.784C41.144 321.76 43.288 323.072 44.376 323.968L45.208 322.896C43.944 321.936 41.432 320.496 39.528 319.584L39.32 319.824V316.976H46.072ZM50.296 323.76V321.472H54.232V323.76H50.296ZM54.232 318.08V320.368H50.296V318.08H54.232ZM59.592 318.08V320.368H55.48V318.08H59.592ZM55.48 323.76V321.472H59.592V323.76H55.48ZM56.616 327.76C55.656 327.76 55.48 327.568 55.48 326.64V324.928H60.776V316.928H55.48V314.64H54.232V316.928H49.08V325.904H50.296V324.928H54.232V326.608C54.232 328.48 54.76 328.944 56.536 328.944H60.056C61.736 328.944 62.12 328.096 62.328 325.696C61.96 325.6 61.448 325.392 61.16 325.168C61.032 327.248 60.872 327.76 59.976 327.76H56.616ZM78.2 321.696H71.672V320C73.496 319.072 75.544 317.648 76.904 316.304L76.008 315.632L75.752 315.696H65.448V316.864H74.456C73.336 317.792 71.784 318.784 70.456 319.392V321.696H63.864V322.88H70.456V327.632C70.456 327.92 70.344 328 70.024 328.016C69.672 328.032 68.504 328.048 67.208 328C67.416 328.336 67.64 328.864 67.72 329.216C69.256 329.216 70.264 329.2 70.856 328.992C71.464 328.816 71.672 328.448 71.672 327.648V322.88H78.2V321.696ZM86.376 321.44H84.456V318.096H86.376V321.44ZM84.456 326.112V322.48H86.376V326.112H84.456ZM81.448 322.48H83.416V326.112H81.448V322.48ZM83.416 318.096V321.44H81.448V318.096H83.416ZM84.504 314.64H83.352V317.056H80.408V328.208H81.448V327.152H86.376V327.984H87.464V317.056H84.504V314.64ZM93.304 315.424L93.112 315.472H89V329.216H90.04V316.592H92.616C92.168 317.824 91.544 319.504 90.936 320.848C92.392 322.288 92.808 323.456 92.808 324.448C92.824 325.008 92.712 325.488 92.392 325.696C92.2 325.808 91.96 325.856 91.72 325.872C91.384 325.872 90.936 325.872 90.424 325.824C90.632 326.16 90.744 326.64 90.776 326.96C91.24 326.992 91.768 326.992 92.184 326.944C92.552 326.896 92.904 326.784 93.176 326.608C93.704 326.256 93.928 325.488 93.928 324.56C93.928 323.44 93.56 322.208 92.104 320.704C92.792 319.216 93.544 317.408 94.12 315.952L93.304 315.424ZM99.32 314.672C98.472 317.088 97.064 319.472 95.576 321.024C95.784 321.296 96.136 321.904 96.248 322.192C96.744 321.632 97.256 321.008 97.72 320.32V329.2H98.856V318.48C99.464 317.376 99.992 316.192 100.44 315.024L99.32 314.672ZM110.168 322.544H105.832V319.04H109.48V317.872H105.832V314.816H104.648V317.872H102.52C102.728 317.152 102.904 316.4 103.048 315.648L101.928 315.408C101.56 317.472 100.904 319.552 99.96 320.864C100.264 321.008 100.76 321.296 100.984 321.472C101.416 320.8 101.8 319.968 102.136 319.04H104.648V322.544H100.088V323.712H104.648V329.232H105.832V323.712H110.168V322.544ZM121.864 324.176H111.976V325.328H121.864V324.176ZM115.192 320.816C115.4 319.952 115.608 318.96 115.832 317.952H124.952V316.816H116.056C116.184 316.224 116.28 315.632 116.392 315.088L115.192 314.96C114.808 317.152 114.168 320.16 113.672 321.92L114.664 321.936H123.88C123.512 325.6 123.112 327.248 122.504 327.712C122.328 327.888 122.088 327.904 121.688 327.904C121.224 327.904 119.992 327.904 118.744 327.792C118.984 328.112 119.16 328.608 119.192 328.96C120.312 329.04 121.464 329.056 122.04 329.024C122.712 328.992 123.128 328.88 123.528 328.464C124.248 327.776 124.696 325.952 125.144 321.392C125.176 321.232 125.192 320.816 125.192 320.816H115.192ZM141.688 317.696C141.176 316.944 140.056 315.824 139.144 315.04L138.232 315.664C139.16 316.48 140.248 317.632 140.728 318.384L141.688 317.696ZM140.264 321.184C139.72 322.208 139.016 323.184 138.168 324.096C137.896 323.04 137.672 321.808 137.512 320.448H142.088V319.312H137.384C137.256 317.888 137.192 316.352 137.192 314.752H135.976C135.992 316.32 136.056 317.856 136.2 319.312H132.536V316.528C133.512 316.32 134.44 316.064 135.208 315.792L134.36 314.816C132.856 315.376 130.28 315.92 128.04 316.256C128.2 316.544 128.36 316.96 128.424 317.248C129.368 317.12 130.376 316.96 131.368 316.768V319.312H127.944V320.448H131.368V323.248C129.976 323.536 128.68 323.808 127.72 323.968L128.056 325.168C129.016 324.96 130.168 324.688 131.368 324.432V327.68C131.368 327.968 131.272 328.048 130.984 328.048C130.712 328.064 129.768 328.08 128.744 328.032C128.92 328.368 129.128 328.912 129.192 329.232C130.488 329.232 131.352 329.2 131.848 329.008C132.344 328.816 132.536 328.464 132.536 327.696V324.144C133.512 323.92 134.504 323.696 135.48 323.456L135.4 322.384C134.456 322.592 133.48 322.8 132.536 323.008V320.448H136.296C136.504 322.176 136.808 323.76 137.192 325.088C136.056 326.144 134.744 327.024 133.4 327.68C133.704 327.936 134.04 328.336 134.216 328.624C135.416 328 136.552 327.2 137.592 326.272C138.328 328.144 139.288 329.264 140.552 329.264C141.752 329.264 142.168 328.496 142.392 325.856C142.056 325.744 141.64 325.472 141.384 325.216C141.288 327.264 141.096 328.08 140.664 328.08C139.864 328.08 139.144 327.056 138.536 325.376C139.656 324.24 140.6 322.976 141.32 321.616L140.264 321.184ZM146.648 314.704C145.96 317.152 144.888 319.6 143.624 321.216C143.832 321.488 144.168 322.144 144.264 322.4C144.648 321.904 145.016 321.344 145.368 320.72V329.216H146.52V318.416C146.984 317.328 147.416 316.16 147.736 315.008L146.648 314.704ZM148.44 329.232H149.592V317.824H148.44V329.232ZM149.096 315.12C149.816 316.096 150.616 317.44 150.952 318.24L151.928 317.68C151.56 316.88 150.728 315.584 150.024 314.624L149.096 315.12ZM157.688 315.2H152.2V316.288H156.52V327.696C156.52 327.968 156.44 328.048 156.168 328.064C155.912 328.08 155.032 328.096 154.12 328.048C154.28 328.368 154.456 328.88 154.504 329.184C155.752 329.184 156.568 329.168 157.048 328.976C157.512 328.784 157.688 328.448 157.688 327.712V315.2ZM169.336 317.296C169.048 316.608 168.36 315.6 167.72 314.88L166.776 315.344C167.4 316.096 168.056 317.136 168.328 317.824L169.336 317.296ZM161.736 322.912H164.056V325.152C163.24 325.28 162.456 325.408 161.736 325.52V322.912ZM164.056 316.384V318.624H161.736V316.384H164.056ZM161.736 319.632H164.056V321.92H161.736V319.632ZM166.408 325.824L166.328 324.8L165.08 324.992V316.384H165.784V315.296H159.8V316.384H160.68V325.696L159.656 325.824L159.912 326.944L164.056 326.24V329.232H165.08V326.048L166.408 325.824ZM174.216 323.008V321.92H170.312C170.344 321.568 170.344 321.264 170.344 320.944V319.024H173.624V317.92H171.464C172.008 317.136 172.616 316.144 173.128 315.232L171.928 314.896C171.528 315.808 170.808 317.088 170.2 317.92H166.248V319.024H169.16V320.928C169.16 321.248 169.16 321.568 169.128 321.92H165.864V323.008H169.016C168.744 324.816 167.88 326.864 165.304 328.528C165.592 328.736 165.992 329.104 166.168 329.376C168.2 327.984 169.272 326.352 169.8 324.784C170.632 326.768 171.88 328.336 173.608 329.216C173.784 328.896 174.12 328.464 174.392 328.224C172.376 327.328 170.968 325.392 170.264 323.008H174.216ZM179.608 324.4C178.776 325.536 177.464 326.72 176.184 327.488C176.504 327.648 176.984 328.048 177.224 328.272C178.424 327.424 179.832 326.096 180.792 324.816L179.608 324.4ZM187.704 323.088C188.152 323.616 188.552 324.128 188.824 324.528L189.768 323.952C189.112 322.992 187.752 321.52 186.504 320.432L185.608 320.896C186.024 321.296 186.472 321.728 186.888 322.192L179.912 322.64C182.296 321.488 184.728 320.016 187.064 318.24L186.152 317.472C185.352 318.128 184.472 318.768 183.608 319.344L179.736 319.536C180.872 318.72 182.04 317.68 183.096 316.592C185.16 316.384 187.128 316.08 188.648 315.712L187.8 314.736C185.24 315.376 180.616 315.792 176.76 316C176.888 316.272 177.032 316.736 177.064 317.04C178.456 316.976 179.96 316.88 181.432 316.752C180.408 317.84 179.224 318.784 178.808 319.04C178.344 319.408 177.96 319.648 177.64 319.68C177.768 319.984 177.944 320.528 177.992 320.752C178.296 320.624 178.808 320.56 182.056 320.368C180.68 321.2 179.512 321.84 178.968 322.096C177.976 322.592 177.272 322.896 176.744 322.96C176.888 323.28 177.064 323.824 177.112 324.064C177.56 323.888 178.184 323.792 182.552 323.472V327.632C182.552 327.824 182.504 327.888 182.232 327.904C181.976 327.904 181.112 327.904 180.152 327.872C180.344 328.208 180.552 328.688 180.6 329.04C181.768 329.04 182.568 329.04 183.08 328.832C183.608 328.64 183.752 328.32 183.752 327.648V323.376L187.704 323.088ZM185.16 324.928C186.488 325.952 188.12 327.408 188.904 328.304L189.912 327.584C189.064 326.688 187.416 325.28 186.104 324.32L185.16 324.928ZM195 320.224C195.64 320.224 196.216 319.76 196.216 319.04C196.216 318.304 195.64 317.824 195 317.824C194.36 317.824 193.8 318.304 193.8 319.04C193.8 319.76 194.36 320.224 195 320.224ZM195 328.064C195.64 328.064 196.216 327.584 196.216 326.864C196.216 326.128 195.64 325.664 195 325.664C194.36 325.664 193.8 326.128 193.8 326.864C193.8 327.584 194.36 328.064 195 328.064Z" fill="#0A0A10"/>
<a href="mailto:hongkong@sedgwick-richardson.com">
<rect fill="black" fill-opacity="0" y="2.416" width="272" height="23.168"/>
</a>
<a href="mailto:hongkong@sedgwick-richardson.com">
<rect fill="black" fill-opacity="0" y="30.416" width="288" height="23.168"/>
</a>
<a href="mailto:hongkong@sedgwick-richardson.com">
<rect fill="black" fill-opacity="0" y="58.416" width="192" height="23.168"/>
</a>
<path d="M18.114 358V352.744C18.114 351.448 19.104 350.44 20.418 350.44C21.696 350.44 22.614 351.394 22.614 352.744V358H24.396V352.546C24.396 350.242 22.902 348.748 20.832 348.748C19.518 348.748 18.564 349.432 18.204 349.954H18.114V345.4H16.332V358H18.114ZM30.766 358.18C33.304 358.18 35.23 356.236 35.23 353.464C35.23 350.692 33.304 348.748 30.766 348.748C28.228 348.748 26.284 350.692 26.284 353.464C26.284 356.236 28.228 358.18 30.766 358.18ZM30.766 356.524C29.29 356.524 28.066 355.3 28.066 353.464C28.066 351.61 29.29 350.404 30.766 350.404C32.242 350.404 33.448 351.61 33.448 353.464C33.448 355.3 32.242 356.524 30.766 356.524ZM38.9771 358V352.744C38.9771 351.448 39.9671 350.44 41.2811 350.44C42.5591 350.44 43.4771 351.394 43.4771 352.744V358H45.2591V352.546C45.2591 350.242 43.7651 348.748 41.6951 348.748C40.2911 348.748 39.3371 349.45 38.9771 349.954H38.8871L38.7251 348.928H37.1951V358H38.9771ZM51.6313 361.78C54.2773 361.78 55.8613 360.214 55.8613 357.856V348.928H54.3133L54.1513 350.116H54.0613C53.4853 349.288 52.4953 348.748 51.2533 348.748C48.9493 348.748 47.1493 350.548 47.1493 353.14C47.1493 355.732 48.9493 357.532 51.2533 357.532C52.4593 357.532 53.4313 357.01 53.9713 356.29H54.0613V357.838C54.0613 359.26 53.1073 360.196 51.6313 360.196C50.0833 360.196 49.3453 359.296 49.2553 358.54H47.4553C47.5273 359.908 48.7693 361.78 51.6313 361.78ZM51.5053 355.93C50.0653 355.93 48.9493 354.796 48.9493 353.14C48.9493 351.484 50.0653 350.35 51.5053 350.35C52.9453 350.35 54.0613 351.484 54.0613 353.14C54.0613 354.796 52.9453 355.93 51.5053 355.93ZM60.196 358V353.698L64.192 358H66.316L61.996 353.374L66.136 348.928H64.012L60.196 353.05V345.4H58.414V358H60.196ZM71.3012 358.18C73.8392 358.18 75.7652 356.236 75.7652 353.464C75.7652 350.692 73.8392 348.748 71.3012 348.748C68.7632 348.748 66.8192 350.692 66.8192 353.464C66.8192 356.236 68.7632 358.18 71.3012 358.18ZM71.3012 356.524C69.8252 356.524 68.6012 355.3 68.6012 353.464C68.6012 351.61 69.8252 350.404 71.3012 350.404C72.7772 350.404 73.9832 351.61 73.9832 353.464C73.9832 355.3 72.7772 356.524 71.3012 356.524ZM79.5123 358V352.744C79.5123 351.448 80.5023 350.44 81.8163 350.44C83.0943 350.44 84.0123 351.394 84.0123 352.744V358H85.7943V352.546C85.7943 350.242 84.3003 348.748 82.2303 348.748C80.8263 348.748 79.8723 349.45 79.5123 349.954H79.4223L79.2603 348.928H77.7303V358H79.5123ZM92.1664 361.78C94.8124 361.78 96.3964 360.214 96.3964 357.856V348.928H94.8484L94.6864 350.116H94.5964C94.0204 349.288 93.0304 348.748 91.7884 348.748C89.4844 348.748 87.6844 350.548 87.6844 353.14C87.6844 355.732 89.4844 357.532 91.7884 357.532C92.9944 357.532 93.9664 357.01 94.5064 356.29H94.5964V357.838C94.5964 359.26 93.6424 360.196 92.1664 360.196C90.6184 360.196 89.8804 359.296 89.7904 358.54H87.9904C88.0624 359.908 89.3044 361.78 92.1664 361.78ZM92.0404 355.93C90.6004 355.93 89.4844 354.796 89.4844 353.14C89.4844 351.484 90.6004 350.35 92.0404 350.35C93.4804 350.35 94.5964 351.484 94.5964 353.14C94.5964 354.796 93.4804 355.93 92.0404 355.93ZM109.641 359.818V358.306H105.987C102.531 358.306 100.227 356.074 100.227 352.744C100.227 349.414 102.621 347.02 106.023 347.02C109.677 347.02 111.999 349.324 111.999 352.474C111.999 354.364 111.315 355.048 110.415 355.048C109.839 355.048 109.461 354.67 109.461 353.968V349.216H108.183L108.021 350.116H107.931C107.625 349.612 106.815 349.072 105.681 349.072C103.665 349.072 102.153 350.602 102.153 352.816C102.153 355.03 103.665 356.56 105.681 356.56C106.941 356.56 107.913 355.894 108.273 355.372H108.363C108.561 355.894 109.227 356.56 110.379 356.56C112.233 356.56 113.601 355.246 113.601 352.474C113.601 348.532 110.577 345.508 106.023 345.508C101.757 345.508 98.6432 348.568 98.6432 352.744C98.6432 356.866 101.631 359.818 105.987 359.818H109.641ZM105.843 355.084C104.619 355.084 103.737 354.202 103.737 352.816C103.737 351.43 104.619 350.548 105.843 350.548C107.067 350.548 107.949 351.43 107.949 352.816C107.949 354.202 107.067 355.084 105.843 355.084ZM118.777 358.18C121.261 358.18 122.485 356.956 122.485 355.48C122.485 354.004 121.603 353.104 119.713 352.798L118.219 352.546C117.247 352.384 116.869 352.006 116.869 351.448C116.869 350.8 117.463 350.206 118.687 350.206C119.911 350.206 120.631 350.872 120.631 351.61H122.377C122.377 350.224 121.045 348.748 118.687 348.748C116.311 348.748 115.105 349.99 115.105 351.448C115.105 352.906 116.041 353.734 117.841 354.022L119.317 354.274C120.325 354.454 120.721 354.85 120.721 355.498C120.721 356.146 120.091 356.704 118.777 356.704C117.427 356.704 116.725 356.002 116.725 355.282H114.979C114.979 356.56 116.131 358.18 118.777 358.18ZM128.343 358.18C130.575 358.18 131.925 356.812 132.411 355.39H130.575C130.215 356.092 129.405 356.65 128.343 356.65C126.921 356.65 125.769 355.624 125.625 354.094H132.591C132.609 353.95 132.663 353.626 132.663 353.212C132.663 350.656 130.791 348.748 128.343 348.748C125.787 348.748 123.843 350.71 123.843 353.464C123.843 356.218 125.787 358.18 128.343 358.18ZM125.625 352.798C125.805 351.34 126.849 350.26 128.343 350.26C129.747 350.26 130.791 351.34 130.899 352.798H125.625ZM138.231 358.18C139.563 358.18 140.499 357.586 141.093 356.758H141.183L141.345 358H142.875V345.4H141.093V350.116H141.003C140.463 349.36 139.527 348.748 138.231 348.748C135.927 348.748 134.073 350.638 134.073 353.464C134.073 356.29 135.927 358.18 138.231 358.18ZM138.483 356.524C137.061 356.524 135.873 355.336 135.873 353.464C135.873 351.574 137.061 350.404 138.483 350.404C139.887 350.404 141.093 351.574 141.093 353.464C141.093 355.336 139.887 356.524 138.483 356.524ZM149.383 361.78C152.029 361.78 153.613 360.214 153.613 357.856V348.928H152.065L151.903 350.116H151.813C151.237 349.288 150.247 348.748 149.005 348.748C146.701 348.748 144.901 350.548 144.901 353.14C144.901 355.732 146.701 357.532 149.005 357.532C150.211 357.532 151.183 357.01 151.723 356.29H151.813V357.838C151.813 359.26 150.859 360.196 149.383 360.196C147.835 360.196 147.097 359.296 147.007 358.54H145.207C145.279 359.908 146.521 361.78 149.383 361.78ZM149.257 355.93C147.817 355.93 146.701 354.796 146.701 353.14C146.701 351.484 147.817 350.35 149.257 350.35C150.697 350.35 151.813 351.484 151.813 353.14C151.813 354.796 150.697 355.93 149.257 355.93ZM159.982 358L161.674 351.43H162.034L163.726 358H166.282L168.658 348.928H166.804L165.076 355.642H164.716L162.97 348.928H160.756L159.01 355.642H158.65L156.922 348.928H155.05L157.444 358H159.982ZM171.993 347.146V345.418H170.049V347.146H171.993ZM171.903 358V348.928H170.121V358H171.903ZM178.317 358.18C180.639 358.18 182.097 356.65 182.493 354.76H180.693C180.405 355.822 179.577 356.524 178.317 356.524C176.841 356.524 175.635 355.3 175.635 353.464C175.635 351.61 176.841 350.404 178.317 350.404C179.577 350.404 180.405 351.124 180.693 352.096H182.493C182.097 350.278 180.639 348.748 178.317 348.748C175.779 348.748 173.835 350.692 173.835 353.464C173.835 356.236 175.779 358.18 178.317 358.18ZM186.214 358V353.698L190.21 358H192.334L188.014 353.374L192.154 348.928H190.03L186.214 353.05V345.4H184.432V358H186.214ZM198.815 353.698V352.042H192.875V353.698H198.815ZM202.665 358V352.456C202.665 351.268 203.295 350.602 204.465 350.602H206.031V348.928H204.339C203.475 348.928 202.989 349.252 202.665 349.756H202.575L202.413 348.928H200.883V358H202.665ZM209.346 347.146V345.418H207.402V347.146H209.346ZM209.256 358V348.928H207.474V358H209.256ZM215.67 358.18C217.992 358.18 219.45 356.65 219.846 354.76H218.046C217.758 355.822 216.93 356.524 215.67 356.524C214.194 356.524 212.988 355.3 212.988 353.464C212.988 351.61 214.194 350.404 215.67 350.404C216.93 350.404 217.758 351.124 218.046 352.096H219.846C219.45 350.278 217.992 348.748 215.67 348.748C213.132 348.748 211.188 350.692 211.188 353.464C211.188 356.236 213.132 358.18 215.67 358.18ZM223.567 358V352.744C223.567 351.448 224.557 350.44 225.871 350.44C227.149 350.44 228.067 351.394 228.067 352.744V358H229.849V352.546C229.849 350.242 228.355 348.748 226.285 348.748C224.971 348.748 224.017 349.432 223.657 349.954H223.567V345.4H221.785V358H223.567ZM235.049 358.18C236.417 358.18 237.425 357.55 237.821 356.902H237.911L238.073 358H239.621V352.204C239.621 350.116 238.181 348.748 235.913 348.748C233.573 348.748 232.313 350.152 232.187 351.61H233.951C234.059 350.926 234.707 350.26 235.913 350.26C237.083 350.26 237.839 351.016 237.839 352.204V352.492H235.481C233.033 352.492 231.863 353.68 231.863 355.408C231.863 356.992 233.105 358.18 235.049 358.18ZM235.301 356.686C234.257 356.686 233.645 356.146 233.645 355.3C233.645 354.454 234.257 353.86 235.643 353.86H237.839V354.184C237.839 355.678 236.921 356.686 235.301 356.686ZM243.815 358V352.456C243.815 351.268 244.445 350.602 245.615 350.602H247.181V348.928H245.489C244.625 348.928 244.139 349.252 243.815 349.756H243.725L243.563 348.928H242.033V358H243.815ZM252.067 358.18C253.399 358.18 254.335 357.586 254.929 356.758H255.019L255.181 358H256.711V345.4H254.929V350.116H254.839C254.299 349.36 253.363 348.748 252.067 348.748C249.763 348.748 247.909 350.638 247.909 353.464C247.909 356.29 249.763 358.18 252.067 358.18ZM252.319 356.524C250.897 356.524 249.709 355.336 249.709 353.464C249.709 351.574 250.897 350.404 252.319 350.404C253.723 350.404 254.929 351.574 254.929 353.464C254.929 355.336 253.723 356.524 252.319 356.524ZM262.373 358.18C264.857 358.18 266.081 356.956 266.081 355.48C266.081 354.004 265.199 353.104 263.309 352.798L261.815 352.546C260.843 352.384 260.465 352.006 260.465 351.448C260.465 350.8 261.059 350.206 262.283 350.206C263.507 350.206 264.227 350.872 264.227 351.61H265.973C265.973 350.224 264.641 348.748 262.283 348.748C259.907 348.748 258.701 349.99 258.701 351.448C258.701 352.906 259.637 353.734 261.437 354.022L262.913 354.274C263.921 354.454 264.317 354.85 264.317 355.498C264.317 356.146 263.687 356.704 262.373 356.704C261.023 356.704 260.321 356.002 260.321 355.282H258.575C258.575 356.56 259.727 358.18 262.373 358.18ZM271.92 358.18C274.458 358.18 276.384 356.236 276.384 353.464C276.384 350.692 274.458 348.748 271.92 348.748C269.382 348.748 267.438 350.692 267.438 353.464C267.438 356.236 269.382 358.18 271.92 358.18ZM271.92 356.524C270.444 356.524 269.22 355.3 269.22 353.464C269.22 351.61 270.444 350.404 271.92 350.404C273.396 350.404 274.602 351.61 274.602 353.464C274.602 355.3 273.396 356.524 271.92 356.524ZM280.131 358V352.744C280.131 351.448 281.121 350.44 282.435 350.44C283.713 350.44 284.631 351.394 284.631 352.744V358H286.413V352.546C286.413 350.242 284.919 348.748 282.849 348.748C281.445 348.748 280.491 349.45 280.131 349.954H280.041L279.879 348.928H278.349V358H280.131ZM290.752 358V355.966H288.7V358H290.752ZM297.039 358.18C299.361 358.18 300.819 356.65 301.215 354.76H299.415C299.127 355.822 298.299 356.524 297.039 356.524C295.563 356.524 294.357 355.3 294.357 353.464C294.357 351.61 295.563 350.404 297.039 350.404C298.299 350.404 299.127 351.124 299.415 352.096H301.215C300.819 350.278 299.361 348.748 297.039 348.748C294.501 348.748 292.557 350.692 292.557 353.464C292.557 356.236 294.501 358.18 297.039 358.18ZM307.006 358.18C309.544 358.18 311.47 356.236 311.47 353.464C311.47 350.692 309.544 348.748 307.006 348.748C304.468 348.748 302.524 350.692 302.524 353.464C302.524 356.236 304.468 358.18 307.006 358.18ZM307.006 356.524C305.53 356.524 304.306 355.3 304.306 353.464C304.306 351.61 305.53 350.404 307.006 350.404C308.482 350.404 309.688 351.61 309.688 353.464C309.688 355.3 308.482 356.524 307.006 356.524ZM315.217 358V352.51C315.217 351.322 316.099 350.44 317.179 350.44C318.259 350.44 319.015 351.196 319.015 352.51V358H320.797V352.51C320.797 351.322 321.697 350.44 322.759 350.44C323.839 350.44 324.577 351.196 324.577 352.51V358H326.359V352.348C326.359 350.206 324.973 348.748 323.083 348.748C321.697 348.748 320.653 349.504 320.221 350.26H320.131C319.825 349.594 318.943 348.748 317.539 348.748C316.495 348.748 315.613 349.342 315.217 349.918H315.127L314.965 348.928H313.435V358H315.217Z" fill="#0A0A10"/>
<path d="M15 361.546H327.547V362.914H15V361.546Z" fill="#0A0A10"/>
<a href="mailto:hongkong@sedgwick-richardson.com">
<rect fill="black" fill-opacity="0" y="1.16" width="312.547" height="22.68"/>
</a>
<path d="M29.688 382.696C29.176 381.944 28.056 380.824 27.144 380.04L26.232 380.664C27.16 381.48 28.248 382.632 28.728 383.384L29.688 382.696ZM28.264 386.184C27.72 387.208 27.016 388.184 26.168 389.096C25.896 388.04 25.672 386.808 25.512 385.448H30.088V384.312H25.384C25.256 382.888 25.192 381.352 25.192 379.752H23.976C23.992 381.32 24.056 382.856 24.2 384.312H20.536V381.528C21.512 381.32 22.44 381.064 23.208 380.792L22.36 379.816C20.856 380.376 18.28 380.92 16.04 381.256C16.2 381.544 16.36 381.96 16.424 382.248C17.368 382.12 18.376 381.96 19.368 381.768V384.312H15.944V385.448H19.368V388.248C17.976 388.536 16.68 388.808 15.72 388.968L16.056 390.168C17.016 389.96 18.168 389.688 19.368 389.432V392.68C19.368 392.968 19.272 393.048 18.984 393.048C18.712 393.064 17.768 393.08 16.744 393.032C16.92 393.368 17.128 393.912 17.192 394.232C18.488 394.232 19.352 394.2 19.848 394.008C20.344 393.816 20.536 393.464 20.536 392.696V389.144C21.512 388.92 22.504 388.696 23.48 388.456L23.4 387.384C22.456 387.592 21.48 387.8 20.536 388.008V385.448H24.296C24.504 387.176 24.808 388.76 25.192 390.088C24.056 391.144 22.744 392.024 21.4 392.68C21.704 392.936 22.04 393.336 22.216 393.624C23.416 393 24.552 392.2 25.592 391.272C26.328 393.144 27.288 394.264 28.552 394.264C29.752 394.264 30.168 393.496 30.392 390.856C30.056 390.744 29.64 390.472 29.384 390.216C29.288 392.264 29.096 393.08 28.664 393.08C27.864 393.08 27.144 392.056 26.536 390.376C27.656 389.24 28.6 387.976 29.32 386.616L28.264 386.184ZM34.648 379.704C33.96 382.152 32.888 384.6 31.624 386.216C31.832 386.488 32.168 387.144 32.264 387.4C32.648 386.904 33.016 386.344 33.368 385.72V394.216H34.52V383.416C34.984 382.328 35.416 381.16 35.736 380.008L34.648 379.704ZM36.44 394.232H37.592V382.824H36.44V394.232ZM37.096 380.12C37.816 381.096 38.616 382.44 38.952 383.24L39.928 382.68C39.56 381.88 38.728 380.584 38.024 379.624L37.096 380.12ZM45.688 380.2H40.2V381.288H44.52V392.696C44.52 392.968 44.44 393.048 44.168 393.064C43.912 393.08 43.032 393.096 42.12 393.048C42.28 393.368 42.456 393.88 42.504 394.184C43.752 394.184 44.568 394.168 45.048 393.976C45.512 393.784 45.688 393.448 45.688 392.712V380.2ZM50.312 387.688H53.208V389.288H50.312V387.688ZM53.208 382.792V384.2H50.312V382.792H53.208ZM50.312 385.16H53.208V386.728H50.312V385.16ZM55.48 389.288H54.312V382.792H55.48V381.72H54.312V379.8H53.208V381.72H50.312V379.8H49.224V381.72H47.88V382.792H49.224V389.288H47.672V390.36H55.48V389.288ZM49.88 390.696C49.4 391.752 48.568 392.824 47.688 393.544C47.976 393.704 48.424 394.04 48.648 394.232C49.528 393.448 50.44 392.232 51.016 391L49.88 390.696ZM52.152 391.192C52.792 391.944 53.512 392.984 53.8 393.624L54.76 393.064C54.456 392.408 53.72 391.416 53.08 390.696L52.152 391.192ZM57.352 387.768C57.368 387.224 57.384 386.68 57.384 386.184V385.112H60.648V387.768H57.352ZM60.648 381.496V384.04H57.384V381.496H60.648ZM61.8 380.408H56.264V386.184C56.264 388.472 56.136 391.512 54.808 393.624C55.08 393.72 55.56 394.088 55.752 394.312C56.712 392.776 57.112 390.744 57.272 388.84H60.648V392.68C60.648 392.936 60.552 393.016 60.312 393.016C60.088 393.032 59.288 393.032 58.44 393.016C58.584 393.32 58.76 393.832 58.808 394.168C59.992 394.168 60.728 394.136 61.192 393.944C61.624 393.752 61.8 393.4 61.8 392.696V380.408ZM67.112 379.656C66.424 380.776 65 382.12 63.752 382.936C63.944 383.176 64.232 383.624 64.36 383.896C65.768 382.952 67.304 381.448 68.232 380.088L67.112 379.656ZM67.384 383.16C66.472 384.808 64.936 386.44 63.512 387.48C63.72 387.768 64.04 388.376 64.152 388.648C64.776 388.152 65.4 387.544 65.992 386.888V394.216H67.144V385.528C67.624 384.904 68.072 384.248 68.424 383.576L67.384 383.16ZM69.672 389.736C70.408 390.568 71.208 391.768 71.544 392.536L72.552 391.944C72.2 391.176 71.368 390.024 70.632 389.192L69.672 389.736ZM78.328 385.896V384.792H73.864V382.76H77.496V381.672H73.864V379.688H72.696V381.672H69.192V382.76H72.696V384.792H68.264V385.896H74.92V387.656H68.44V388.744H74.92V392.776C74.92 393 74.84 393.064 74.584 393.08C74.344 393.096 73.464 393.096 72.504 393.064C72.664 393.4 72.84 393.864 72.888 394.2C74.136 394.2 74.936 394.2 75.432 394.008C75.928 393.816 76.088 393.496 76.088 392.776V388.744H78.216V387.656H76.088V385.896H78.328ZM89.864 389.176H79.976V390.328H89.864V389.176ZM83.192 385.816C83.4 384.952 83.608 383.96 83.832 382.952H92.952V381.816H84.056C84.184 381.224 84.28 380.632 84.392 380.088L83.192 379.96C82.808 382.152 82.168 385.16 81.672 386.92L82.664 386.936H91.88C91.512 390.6 91.112 392.248 90.504 392.712C90.328 392.888 90.088 392.904 89.688 392.904C89.224 392.904 87.992 392.904 86.744 392.792C86.984 393.112 87.16 393.608 87.192 393.96C88.312 394.04 89.464 394.056 90.04 394.024C90.712 393.992 91.128 393.88 91.528 393.464C92.248 392.776 92.696 390.952 93.144 386.392C93.176 386.232 93.192 385.816 93.192 385.816H83.192ZM108.52 382.152C108.264 382.728 107.976 383.32 107.752 383.72L108.76 383.928C109.16 383.288 109.64 382.2 110.056 381.288L109.24 381.064L109.048 381.112H103.064C103.256 380.712 103.432 380.312 103.592 379.912L102.488 379.64C101.96 381.144 101.032 382.6 99.944 383.544C100.2 383.72 100.648 384.088 100.84 384.296C101.432 383.72 102.008 382.984 102.504 382.152H108.52ZM106.872 384.424C107.656 385.416 108.472 386.776 108.824 387.672L109.848 387.144C109.48 386.264 108.648 384.936 107.832 383.976L106.872 384.424ZM104.872 391.064C104.424 390.28 103.416 389.128 102.536 388.312L101.624 388.84C102.488 389.688 103.48 390.872 103.88 391.64L104.872 391.064ZM102.472 384.008C102.04 385.112 101.304 386.232 100.472 386.984C100.728 387.144 101.16 387.464 101.368 387.656C102.2 386.84 103.048 385.576 103.56 384.312L102.472 384.008ZM105.992 382.696H104.856V387.368C104.856 387.544 104.792 387.592 104.6 387.592C104.392 387.608 103.736 387.608 102.984 387.592C103.128 387.896 103.304 388.312 103.368 388.632C104.376 388.632 105.016 388.632 105.432 388.44C105.88 388.264 105.992 387.976 105.992 387.384V382.696ZM96.936 393.576C97.528 392.6 98.088 391.096 98.504 390.056L97.432 389.624C97.08 390.664 96.456 392.12 95.816 393.064L96.936 393.576ZM99.432 379.576C98.52 381.352 97.08 383.112 95.608 384.216C95.848 384.44 96.232 384.92 96.392 385.144C96.904 384.712 97.432 384.2 97.928 383.64V388.712H99.08V382.216C99.608 381.48 100.104 380.712 100.488 379.928L99.432 379.576ZM101.656 392.824C100.6 392.824 100.408 392.744 100.408 392.28V389.528H99.224V392.296C99.224 393.592 99.72 393.928 101.608 393.928H105.416C107 393.928 107.384 393.432 107.544 391.416C107.208 391.352 106.712 391.176 106.44 390.968C106.36 392.584 106.216 392.824 105.336 392.824H101.656ZM107.256 389.736C107.976 390.872 108.712 392.408 108.936 393.384L110.072 392.92C109.8 391.944 109.048 390.472 108.296 389.336L107.256 389.736ZM123.912 381.912V383.112H121.416V381.912H123.912ZM123.912 385.304H121.416V384.056H123.912V385.304ZM120.28 383.112H116.28V384.056H120.28V385.304H117.208V386.248H120.28V387.48H117.08V388.376H120.28V389.624H116.408V390.584H120.28V392.168H121.416V390.584H125.944V389.624H121.416V388.376H125.352V387.48H121.416V386.248H124.984V384.056H126.088V383.112H124.984V380.968H121.416V379.624H120.28V380.968H117.32V381.912H120.28V383.112ZM115.688 385.112L115.48 385.144H114.104C114.888 383.96 115.688 382.472 116.424 380.936L115.656 380.44L115.272 380.616H112.056V381.672H114.824C114.2 383.08 113.4 384.392 113.112 384.792C112.792 385.288 112.408 385.672 112.104 385.736C112.264 385.992 112.52 386.472 112.6 386.696C112.6 386.536 112.984 386.328 113.24 386.2H115.176C114.968 387.624 114.648 388.856 114.248 389.912C113.8 389.256 113.464 388.456 113.176 387.496L112.296 387.848C112.68 389.128 113.16 390.136 113.752 390.952C113.176 392.008 112.472 392.824 111.64 393.416C111.912 393.576 112.328 393.992 112.52 394.232C113.288 393.624 113.96 392.84 114.52 391.832C116.184 393.432 118.488 393.832 121.432 393.832H125.896C125.96 393.512 126.168 393 126.344 392.728C125.528 392.744 122.088 392.744 121.464 392.744C118.76 392.744 116.568 392.392 115.016 390.856C115.656 389.368 116.12 387.544 116.36 385.304L115.688 385.112ZM137.848 381.688C137.624 381.128 137.144 380.28 136.68 379.608L135.672 380.024C136.072 380.68 136.568 381.592 136.776 382.152L137.848 381.688ZM131.144 379.672C130.328 382.088 129.016 384.472 127.576 386.024C127.784 386.296 128.12 386.872 128.232 387.128C128.744 386.52 129.272 385.832 129.752 385.064V394.28H130.856V383.144C131.368 382.136 131.832 381.064 132.2 379.992L131.144 379.672ZM139.96 390.088V392.616H133.96V390.088H139.96ZM132.92 394.232H133.96V393.608H139.96V394.184H141.016V389.096H132.92V394.232ZM133.144 387.752H140.856V386.776H133.144V387.752ZM140.856 384.536H133.144V385.512H140.856V384.536ZM131.992 382.248V383.256H142.12V382.248H131.992ZM150.648 379.352C149.128 381.448 146.392 383.128 143.608 384.072C143.816 384.328 144.168 384.856 144.312 385.112C146.68 384.152 149.08 382.728 150.808 380.872C152.584 382.552 155.304 384.152 157.544 384.952C157.72 384.664 158.088 384.184 158.344 383.96C155.96 383.224 153.096 381.656 151.496 380.088C151.576 379.992 151.672 379.88 151.752 379.768L150.648 379.352ZM154.984 385.128L154.808 385.176H145.816V386.232H154.024C153.416 387.064 152.584 387.96 151.832 388.568C152.104 388.712 152.488 388.952 152.728 389.144C153.768 388.264 155.064 386.856 155.784 385.64L154.984 385.128ZM148.824 388.056C149.864 388.952 151.048 390.216 151.56 391.08L152.488 390.392C151.96 389.528 150.744 388.296 149.704 387.448L148.824 388.056ZM152.472 384.072C152.008 383.56 151.048 382.904 150.232 382.472L149.528 383.16C150.344 383.608 151.288 384.296 151.72 384.808L152.472 384.072ZM144.76 393.48C145.464 392.392 146.008 390.696 146.344 389.4L145.32 389.048C145 390.296 144.424 391.928 143.72 392.952L144.76 393.48ZM149.704 392.744C148.68 392.744 148.504 392.664 148.504 392.184V388.936H147.336V392.184C147.336 393.48 147.816 393.832 149.64 393.832H153.32C154.824 393.832 155.192 393.336 155.368 391.336C155.032 391.256 154.552 391.08 154.264 390.888C154.2 392.488 154.056 392.744 153.224 392.744H149.704ZM154.92 389.224C155.832 390.456 156.792 392.152 157.176 393.24L158.248 392.744C157.864 391.672 156.84 390.04 155.928 388.808L154.92 389.224ZM163.368 393.896L164.456 392.968C163.464 391.8 162.024 390.344 160.872 389.416L159.832 390.328C160.968 391.256 162.344 392.632 163.368 393.896ZM177.896 380.504V389.576H179.112V381.688H186.808V389.576H188.056V380.504H177.896ZM182.248 383.176C182.104 388.792 181.88 391.832 175.816 393.208C176.04 393.448 176.376 393.928 176.488 394.232C182.888 392.664 183.304 389.208 183.48 383.176H182.248ZM183.272 388.216V392.184C183.272 393.496 183.752 393.832 185.288 393.832H188.136C189.576 393.832 189.944 393.24 190.088 390.76C189.768 390.68 189.272 390.488 189 390.28C188.92 392.424 188.808 392.728 188.04 392.728H185.384C184.6 392.728 184.44 392.648 184.44 392.168V388.216H183.272ZM206.024 387.32V386.152H199.592V383.4H204.92V382.232H199.592V379.624H198.36V382.232H193.192V383.4H198.36V386.152H192.04V387.32H197.688C196.248 389.384 193.832 391.368 191.608 392.36C191.88 392.584 192.264 393.048 192.472 393.336C194.568 392.28 196.808 390.376 198.36 388.248V394.232H199.592V388.184C201.144 390.312 203.416 392.296 205.528 393.336C205.736 393.032 206.12 392.568 206.392 392.344C204.168 391.368 201.736 389.368 200.28 387.32H206.024ZM222.072 387.8V386.664H215.608V382.68H221.4V381.544H215.608V379.64H214.376V381.544H208.712V382.68H214.376V386.664H207.96V387.8H213.576C212.12 389.752 209.768 391.624 207.624 392.552C207.88 392.792 208.264 393.24 208.456 393.528C210.552 392.488 212.824 390.568 214.376 388.456V394.216H215.608V388.424C217.16 390.536 219.448 392.536 221.576 393.592C221.768 393.272 222.152 392.824 222.408 392.584C220.248 391.656 217.88 389.752 216.424 387.8H222.072ZM210.008 383.448C210.632 384.376 211.24 385.672 211.448 386.472L212.568 386.04C212.344 385.208 211.688 383.976 211.048 383.048L210.008 383.448ZM218.456 386.504C219.032 385.72 219.736 384.456 220.296 383.368L219.08 382.984C218.696 383.944 218.008 385.304 217.464 386.168L218.456 386.504ZM226.104 389.096C224.776 389.096 223.672 390.184 223.672 391.528C223.672 392.888 224.776 393.976 226.104 393.976C227.464 393.976 228.552 392.888 228.552 391.528C228.552 390.184 227.464 389.096 226.104 389.096ZM226.104 393.16C225.224 393.16 224.488 392.44 224.488 391.528C224.488 390.648 225.224 389.912 226.104 389.912C227.016 389.912 227.736 390.648 227.736 391.528C227.736 392.44 227.016 393.16 226.104 393.16Z" fill="#0A0A10"/>
<ellipse cx="35.6754" cy="643.96" rx="113.675" ry="113.96" fill="url(#paint0_linear_4694_10648)"/>
<ellipse cx="140.256" cy="643.96" rx="113.675" ry="113.96" fill="url(#paint1_linear_4694_10648)"/>
<ellipse cx="244.838" cy="643.96" rx="113.675" ry="113.96" fill="url(#paint2_linear_4694_10648)"/>
</g>
<defs>
<linearGradient id="paint0_linear_4694_10648" x1="149.351" y1="643.81" x2="35.8244" y2="643.81" gradientUnits="userSpaceOnUse">
<stop stop-color="#FD4C1B"/>
<stop offset="0.5" stop-color="#FD4C1B" stop-opacity="0.44"/>
<stop offset="1" stop-color="#FD4C1B" stop-opacity="0"/>
</linearGradient>
<linearGradient id="paint1_linear_4694_10648" x1="253.932" y1="643.81" x2="140.405" y2="643.81" gradientUnits="userSpaceOnUse">
<stop stop-color="#FD4C1B"/>
<stop offset="0.5" stop-color="#FD4C1B" stop-opacity="0.44"/>
<stop offset="1" stop-color="#FD4C1B" stop-opacity="0"/>
</linearGradient>
<linearGradient id="paint2_linear_4694_10648" x1="358.513" y1="643.81" x2="244.987" y2="643.81" gradientUnits="userSpaceOnUse">
<stop stop-color="#FD4C1B"/>
<stop offset="0.5" stop-color="#FD4C1B" stop-opacity="0.44"/>
<stop offset="1" stop-color="#FD4C1B" stop-opacity="0"/>
</linearGradient>
<clipPath id="clip0_4694_10648">
<rect width="375" height="838" fill="white"/>
</clipPath>
</defs>
</svg>
