<svg width="1024" height="620" viewBox="0 0 1024 620" fill="none" xmlns="http://www.w3.org/2000/svg">
<path d="M122.4 71.64C120.48 75.96 118.32 80.4 116.64 83.4L124.2 84.96C127.2 80.16 130.8 72 133.92 65.16L127.8 63.48L126.36 63.84H81.48C82.92 60.84 84.24 57.84 85.44 54.84L77.16 52.8C73.2 64.08 66.24 75 58.08 82.08C60 83.4 63.36 86.16 64.8 87.72C69.24 83.4 73.56 77.88 77.28 71.64H122.4ZM110.04 88.68C115.92 96.12 122.04 106.32 124.68 113.04L132.36 109.08C129.6 102.48 123.36 92.52 117.24 85.32L110.04 88.68ZM95.04 138.48C91.68 132.6 84.12 123.96 77.52 117.84L70.68 121.8C77.16 128.16 84.6 137.04 87.6 142.8L95.04 138.48ZM77.04 85.56C73.8 93.84 68.28 102.24 62.04 107.88C63.96 109.08 67.2 111.48 68.76 112.92C75 106.8 81.36 97.32 85.2 87.84L77.04 85.56ZM103.44 75.72H94.92V110.76C94.92 112.08 94.44 112.44 93 112.44C91.44 112.56 86.52 112.56 80.88 112.44C81.96 114.72 83.28 117.84 83.76 120.24C91.32 120.24 96.12 120.24 99.24 118.8C102.6 117.48 103.44 115.32 103.44 110.88V75.72ZM35.52 157.32C39.96 150 44.16 138.72 47.28 130.92L39.24 127.68C36.6 135.48 31.92 146.4 27.12 153.48L35.52 157.32ZM54.24 52.32C47.4 65.64 36.6 78.84 25.56 87.12C27.36 88.8 30.24 92.4 31.44 94.08C35.28 90.84 39.24 87 42.96 82.8V120.84H51.6V72.12C55.56 66.6 59.28 60.84 62.16 54.96L54.24 52.32ZM70.92 151.68C63 151.68 61.56 151.08 61.56 147.6V126.96H52.68V147.72C52.68 157.44 56.4 159.96 70.56 159.96H99.12C111 159.96 113.88 156.24 115.08 141.12C112.56 140.64 108.84 139.32 106.8 137.76C106.2 149.88 105.12 151.68 98.52 151.68H70.92ZM112.92 128.52C118.32 137.04 123.84 148.56 125.52 155.88L134.04 152.4C132 145.08 126.36 134.04 120.72 125.52L112.92 128.52ZM182.88 85.44C181.2 100.8 177.6 113.76 172.68 124.44C168.24 120.84 163.56 117.48 158.88 114.48C161.4 105.96 163.92 95.88 166.08 85.44H182.88ZM186.72 76.8L185.28 77.16H167.88C169.56 69 170.76 60.72 171.84 53.28L163.08 52.68C162.24 60.24 160.8 68.76 159.12 77.16H146.52V85.44H157.56C154.92 97.56 152.04 109.32 149.16 117.96C155.4 122.16 162.24 127.08 168.36 132.48C162.12 142.8 153.96 150.36 144.6 155.04C146.52 156.6 149.04 159.84 150.24 162.12C160.2 156.6 168.6 148.8 175.2 138.36C180.24 142.92 184.68 147.48 187.56 151.32L193.56 144C190.32 139.8 185.4 135 179.64 130.08C186.12 116.76 190.32 99.72 192.24 78.12L186.72 76.8ZM255.72 103.2H229.32V91.68C237.72 84.36 246.24 74.28 252.12 65.4L246 60.96L243.96 61.44H197.88V69.72H237.84C232.92 76.68 226.44 84.48 220.32 89.52V103.2H192.6V111.72H220.32V151.56C220.32 153.24 219.6 153.84 217.68 153.84C215.88 153.96 209.28 153.96 202.2 153.72C203.52 156.24 204.96 159.72 205.56 162.24C214.8 162.36 220.56 162.12 224.28 160.8C228 159.36 229.32 156.84 229.32 151.56V111.72H255.72V103.2Z" fill="black"/>
<path d="M34.192 233.056C34.984 231.832 35.824 229.96 36.448 228.616L34.504 227.896C33.952 229.24 33.016 231.04 32.128 232.216L34.192 233.056ZM44.272 217.36H36.856V218.92H44.272V217.36ZM42.16 223.888H38.824V221.704H42.16V223.888ZM43.912 225.256C44.368 225.616 45.016 226.288 45.304 226.624C46.12 226.096 46.912 225.472 47.68 224.8C48.616 226.144 49.816 226.888 51.28 226.888C53.032 226.888 53.704 226.024 54.016 222.856C53.464 222.712 52.72 222.328 52.264 221.92C52.144 224.032 51.928 224.872 51.376 224.872C50.56 224.872 49.816 224.296 49.144 223.24C50.56 221.584 51.736 219.64 52.576 217.432L50.56 216.928C50.008 218.512 49.192 219.952 48.208 221.224C47.704 219.832 47.296 218.032 47.056 216.016H53.68V214.216H51.16L51.904 213.616C51.304 213.04 50.104 212.296 49.144 211.816L47.848 212.776C48.544 213.184 49.336 213.712 49.96 214.216H46.912C46.864 213.472 46.84 212.68 46.84 211.888H44.752C44.776 212.68 44.8 213.472 44.848 214.216H34.024V217.768C34.024 220.168 33.784 223.504 32.032 225.976C32.488 226.192 33.352 226.936 33.664 227.32C35.68 224.632 36.064 220.6 36.064 217.792V216.016H45.016C45.304 218.728 45.856 221.128 46.648 222.976C45.832 223.768 44.92 224.464 43.912 225.04V220.144H37.048V225.448H43.912V225.256ZM40.96 227.128C42.04 228.208 43.384 229.72 43.984 230.704L45.856 229.72C45.208 228.784 43.768 227.32 42.712 226.288L40.96 227.128ZM41.224 231.88C39.76 231.88 39.496 231.76 39.496 231.112V227.392H37.264V231.16C37.264 233.104 38.056 233.632 41.056 233.632H46.072C48.616 233.632 49.288 232.912 49.576 229.84C48.952 229.72 48.016 229.432 47.512 229.096C47.368 231.52 47.2 231.88 45.928 231.88H41.224ZM49.072 228.064C50.032 229.504 51.112 231.472 51.544 232.672L53.68 231.928C53.152 230.704 52.024 228.832 51.064 227.44L49.072 228.064ZM61.044 216.16C60.396 215.128 58.956 213.496 57.828 212.344L56.34 213.496C57.468 214.72 58.836 216.424 59.46 217.48L61.044 216.16ZM59.94 229.072V219.256H55.428V221.392H57.996V229.216C57.996 230.392 57.252 231.352 56.772 231.736C57.18 232.096 57.78 232.888 57.996 233.368C58.332 232.864 58.884 232.336 62.292 229.336C62.124 228.928 61.86 228.064 61.788 227.488L59.94 229.072ZM64.308 222.52H67.284V224.296H64.308V222.52ZM67.284 219.376V220.912H64.308V219.376H67.284ZM67.284 216.28V217.768H64.308V216.28H67.284ZM69.132 214.528H66.516C66.804 213.808 67.164 212.968 67.476 212.2L65.268 211.84C65.148 212.632 64.908 213.64 64.644 214.528H62.46V224.296H61.212V226.144H65.604C64.428 228.28 62.676 230.176 60.804 231.424C61.188 231.808 61.836 232.576 62.076 232.96C64.044 231.472 65.964 229.312 67.284 226.864V231.544C67.284 231.856 67.188 231.952 66.876 231.952C66.564 231.952 65.628 231.976 64.644 231.928C64.932 232.408 65.172 233.272 65.244 233.776C66.708 233.776 67.692 233.728 68.316 233.416C68.94 233.08 69.132 232.528 69.132 231.568V214.528ZM77.292 216.976H75.876V212.032H73.836V216.976H69.852V219.016H73.836V231.376C73.836 231.736 73.716 231.832 73.38 231.856C73.068 231.856 72.012 231.856 70.908 231.808C71.196 232.336 71.532 233.272 71.628 233.8C73.188 233.8 74.268 233.728 74.94 233.392C75.612 233.056 75.876 232.504 75.876 231.376V219.016H77.292V216.976ZM73.212 226.192C72.972 224.8 72.204 222.472 71.412 220.72L69.756 221.2C70.524 223 71.22 225.352 71.412 226.792L73.212 226.192ZM83.96 215.656C83.36 214.792 82.04 213.472 80.96 212.56L79.496 213.712C80.552 214.672 81.848 216.064 82.4 216.952L83.96 215.656ZM83.336 221.632C82.64 220.792 81.128 219.568 79.976 218.752L78.584 220.048C79.76 220.912 81.224 222.208 81.872 223.096L83.336 221.632ZM82.208 224.872C81.296 227.392 80 230.224 79.088 231.952L80.96 233.128C81.944 231.04 83.048 228.328 83.888 226.024L82.208 224.872ZM89.96 215.128C89.672 214.264 88.904 212.944 88.28 212.008L86.456 212.776C87.008 213.688 87.656 214.96 87.992 215.776H84.2V217.792H89.504C89.24 219.568 88.904 221.224 88.496 222.784C87.704 221.608 86.888 220.48 86.096 219.448L84.512 220.48C85.592 221.92 86.696 223.6 87.68 225.256C86.672 227.992 85.208 230.224 83.192 231.88C83.672 232.288 84.416 233.104 84.728 233.488C86.504 231.904 87.896 229.888 88.952 227.488C89.744 228.952 90.392 230.32 90.8 231.448L92.6 230.2C92.072 228.736 91.088 226.888 89.912 224.992C90.632 222.832 91.16 220.432 91.568 217.792H92.96V215.776H88.496L89.96 215.128ZM95.792 214.288H93.848V228.736H95.792V214.288ZM97.712 211.84V231.52C97.712 231.88 97.592 231.976 97.256 231.976C96.968 232 95.984 232 94.952 231.952C95.216 232.504 95.48 233.416 95.552 233.92C97.136 233.944 98.168 233.848 98.792 233.512C99.44 233.2 99.68 232.648 99.68 231.52V211.84H97.712ZM123.316 216.112V214.168H116.356C116.572 213.568 116.74 212.92 116.908 212.296L114.772 211.84C114.148 214.528 113.044 217.24 111.628 218.968C112.18 219.232 113.116 219.808 113.548 220.096C114.316 219.04 115.06 217.648 115.66 216.112H123.316ZM120.676 228.808V221.416H105.436V229H107.668V223.384H118.348V228.784L120.676 228.808ZM116.5 217.216C117.532 218.32 118.708 219.88 119.188 220.936L121.228 220.048C120.676 219.04 119.524 217.528 118.396 216.448L116.5 217.216ZM110.764 212.128H108.604V220.792H110.764V212.128ZM105.772 213.208H103.612V220H105.772V213.208ZM116.956 231.712C115.9 231.712 115.708 231.616 115.708 231.016V227.56H113.812C113.908 227.128 113.932 226.72 113.932 226.312V224.392H111.628V226.24C111.628 228.016 110.98 230.464 102.484 232.12C103.012 232.6 103.66 233.416 103.948 233.896C110.188 232.48 112.612 230.512 113.476 228.616V231.016C113.476 233.008 114.1 233.56 116.668 233.56H120.556C122.572 233.56 123.172 232.888 123.412 230.152C122.836 230.032 121.948 229.696 121.492 229.384C121.396 231.4 121.228 231.712 120.364 231.712H116.956ZM146.424 216.424C145.68 215.296 144.072 213.664 142.728 212.512L141.048 213.664C142.392 214.864 143.952 216.592 144.624 217.72L146.424 216.424ZM143.88 221.848C143.16 223.216 142.224 224.536 141.144 225.76C140.784 224.296 140.52 222.688 140.28 220.888H146.856V218.776H140.04C139.848 216.664 139.752 214.384 139.776 212.08H137.472C137.496 214.36 137.592 216.616 137.784 218.776H132.696V215.008C134.112 214.72 135.48 214.384 136.656 214L135.096 212.128C132.768 212.944 128.952 213.712 125.616 214.216C125.904 214.696 126.192 215.56 126.312 216.064C127.608 215.896 129.024 215.704 130.44 215.464V218.776H125.592V220.888H130.44V224.68C128.448 225.064 126.6 225.4 125.184 225.64L125.808 227.872C127.176 227.584 128.736 227.248 130.44 226.888V231.16C130.44 231.544 130.296 231.664 129.864 231.688C129.456 231.712 128.064 231.712 126.6 231.664C126.936 232.264 127.32 233.296 127.44 233.92C129.36 233.92 130.704 233.848 131.544 233.488C132.384 233.128 132.696 232.48 132.696 231.16V226.384C134.088 226.096 135.504 225.76 136.872 225.448L136.704 223.456L132.696 224.248V220.888H138C138.288 223.36 138.696 225.664 139.272 227.608C137.568 229.096 135.696 230.368 133.728 231.28C134.304 231.784 134.904 232.528 135.264 233.08C136.944 232.192 138.528 231.112 140.016 229.84C141.072 232.408 142.488 233.992 144.312 233.992C146.256 233.992 147 232.888 147.384 228.808C146.784 228.616 146.016 228.088 145.512 227.56C145.392 230.536 145.104 231.712 144.528 231.712C143.544 231.712 142.608 230.368 141.816 228.136C143.424 226.504 144.792 224.68 145.872 222.688L143.88 221.848ZM152.732 212.008C151.772 215.536 150.188 219.112 148.34 221.464C148.724 222.04 149.3 223.288 149.492 223.84C149.972 223.24 150.404 222.592 150.836 221.848V233.896H152.948V217.72C153.692 216.04 154.292 214.288 154.82 212.584L152.732 212.008ZM155.444 233.896H157.628V216.856H155.444V233.896ZM156.452 212.848C157.484 214.288 158.708 216.28 159.236 217.504L161.06 216.4C160.484 215.2 159.212 213.256 158.18 211.888L156.452 212.848ZM169.628 212.704H161.276V214.72H167.42V231.256C167.42 231.64 167.3 231.784 166.892 231.784C166.532 231.808 165.236 231.832 163.988 231.76C164.276 232.312 164.612 233.272 164.684 233.848C166.556 233.848 167.804 233.8 168.572 233.44C169.364 233.104 169.628 232.48 169.628 231.28V212.704ZM174.904 229.456V224.152H179.368V229.456H174.904ZM179.368 217.648V222.208H174.904V217.648H179.368ZM186.16 215.584C186.544 214.528 186.856 213.424 187.144 212.32L184.984 211.816C184.264 214.984 182.992 218.176 181.408 220.24V215.704H177.568C177.952 214.696 178.408 213.424 178.816 212.224L176.392 211.816C176.248 212.968 175.888 214.552 175.552 215.704H172.864V233.248H174.904V231.424H181.408V220.408C181.96 220.72 182.8 221.32 183.16 221.656C183.928 220.552 184.672 219.16 185.344 217.624H191.008C190.696 226.672 190.384 230.296 189.616 231.088C189.352 231.424 189.088 231.496 188.608 231.496C188.008 231.496 186.616 231.472 185.08 231.352C185.488 231.976 185.752 232.912 185.8 233.512C187.168 233.584 188.584 233.608 189.424 233.512C190.336 233.392 190.912 233.176 191.512 232.384C192.472 231.184 192.76 227.464 193.096 216.64C193.12 216.352 193.12 215.584 193.12 215.584H186.16ZM189.232 226.408C188.512 224.992 186.88 222.712 185.608 221.056L183.856 222.04C185.128 223.768 186.688 226.12 187.36 227.584L189.232 226.408ZM213.228 227.44C212.7 226.264 211.86 224.824 210.852 223.36C211.428 221.416 211.86 219.304 212.172 217L210.18 216.784C209.964 218.368 209.7 219.88 209.364 221.296C208.572 220.264 207.756 219.256 206.94 218.368L205.572 219.568C206.628 220.792 207.708 222.208 208.668 223.624C207.804 226.216 206.556 228.4 204.852 229.96C205.332 230.248 206.22 230.896 206.58 231.184C208.02 229.744 209.148 227.872 210.012 225.688C210.732 226.84 211.308 227.92 211.716 228.832L213.228 227.44ZM216.036 213.256H196.212V233.848H198.444V229.84C198.948 230.152 199.74 230.704 200.076 230.992C201.42 229.552 202.524 227.704 203.364 225.568C204.012 226.528 204.588 227.416 204.996 228.184L206.412 226.648C205.86 225.712 205.044 224.56 204.156 223.336C204.756 221.392 205.188 219.256 205.548 216.952L203.556 216.736C203.34 218.368 203.028 219.928 202.644 221.392C201.804 220.312 200.916 219.232 200.076 218.272L198.78 219.568C199.812 220.792 200.94 222.232 201.996 223.624C201.156 226.072 200.004 228.136 198.444 229.672V215.368H213.804V231.04C213.804 231.496 213.636 231.64 213.18 231.664C212.7 231.688 211.044 231.712 209.532 231.616C209.844 232.192 210.228 233.224 210.372 233.848C212.556 233.848 213.948 233.8 214.836 233.44C215.7 233.08 216.036 232.408 216.036 231.064V213.256ZM221.384 217.744V228.808H223.664V219.808H235.352V228.736H237.728V217.744H229.136C229.52 216.952 229.952 216.064 230.336 215.152H239.768V213.088H219.224V215.152H227.792C227.576 216.016 227.24 216.952 226.904 217.744H221.384ZM230.624 221.08H228.32V225.352C228.32 227.776 227.168 230.464 218.624 232.12C219.128 232.576 219.728 233.416 219.992 233.944C229.064 232 230.624 228.712 230.624 225.376V221.08ZM230.36 229.456C233.12 230.704 236.744 232.648 238.472 233.968L239.864 232.192C238.016 230.92 234.344 229.048 231.656 227.944L230.36 229.456ZM245.356 226.096C243.292 226.096 241.612 227.8 241.612 229.864C241.612 231.928 243.292 233.608 245.356 233.608C247.444 233.608 249.1 231.928 249.1 229.864C249.1 227.8 247.444 226.096 245.356 226.096ZM245.356 232.168C244.084 232.168 243.052 231.136 243.052 229.864C243.052 228.592 244.084 227.56 245.356 227.56C246.628 227.56 247.66 228.592 247.66 229.864C247.66 231.136 246.628 232.168 245.356 232.168ZM53.224 250.424C52.48 249.296 50.872 247.664 49.528 246.512L47.848 247.664C49.192 248.864 50.752 250.592 51.424 251.72L53.224 250.424ZM50.68 255.848C49.96 257.216 49.024 258.536 47.944 259.76C47.584 258.296 47.32 256.688 47.08 254.888H53.656V252.776H46.84C46.648 250.664 46.552 248.384 46.576 246.08H44.272C44.296 248.36 44.392 250.616 44.584 252.776H39.496V249.008C40.912 248.72 42.28 248.384 43.456 248L41.896 246.128C39.568 246.944 35.752 247.712 32.416 248.216C32.704 248.696 32.992 249.56 33.112 250.064C34.408 249.896 35.824 249.704 37.24 249.464V252.776H32.392V254.888H37.24V258.68C35.248 259.064 33.4 259.4 31.984 259.64L32.608 261.872C33.976 261.584 35.536 261.248 37.24 260.888V265.16C37.24 265.544 37.096 265.664 36.664 265.688C36.256 265.712 34.864 265.712 33.4 265.664C33.736 266.264 34.12 267.296 34.24 267.92C36.16 267.92 37.504 267.848 38.344 267.488C39.184 267.128 39.496 266.48 39.496 265.16V260.384C40.888 260.096 42.304 259.76 43.672 259.448L43.504 257.456L39.496 258.248V254.888H44.8C45.088 257.36 45.496 259.664 46.072 261.608C44.368 263.096 42.496 264.368 40.528 265.28C41.104 265.784 41.704 266.528 42.064 267.08C43.744 266.192 45.328 265.112 46.816 263.84C47.872 266.408 49.288 267.992 51.112 267.992C53.056 267.992 53.8 266.888 54.184 262.808C53.584 262.616 52.816 262.088 52.312 261.56C52.192 264.536 51.904 265.712 51.328 265.712C50.344 265.712 49.408 264.368 48.616 262.136C50.224 260.504 51.592 258.68 52.672 256.688L50.68 255.848ZM59.532 246.008C58.572 249.536 56.988 253.112 55.14 255.464C55.524 256.04 56.1 257.288 56.292 257.84C56.772 257.24 57.204 256.592 57.636 255.848V267.896H59.748V251.72C60.492 250.04 61.092 248.288 61.62 246.584L59.532 246.008ZM62.244 267.896H64.428V250.856H62.244V267.896ZM63.252 246.848C64.284 248.288 65.508 250.28 66.036 251.504L67.86 250.4C67.284 249.2 66.012 247.256 64.98 245.888L63.252 246.848ZM76.428 246.704H68.076V248.72H74.22V265.256C74.22 265.64 74.1 265.784 73.692 265.784C73.332 265.808 72.036 265.832 70.788 265.76C71.076 266.312 71.412 267.272 71.484 267.848C73.356 267.848 74.604 267.8 75.372 267.44C76.164 267.104 76.428 266.48 76.428 265.28V246.704ZM87.416 249.08V251.744H82.4V249.08H87.416ZM82.4 256.544V253.736H87.416V256.544H82.4ZM85.064 260.432C85.496 261.128 85.904 261.896 86.336 262.688L82.4 263.888V258.536H89.648V247.088H80.12V263.408C80.12 264.296 79.52 264.752 79.064 264.992C79.448 265.52 79.832 266.6 79.976 267.272C80.552 266.84 81.416 266.48 87.272 264.512C87.68 265.352 87.992 266.144 88.232 266.744L90.272 265.64C89.648 264.032 88.184 261.44 86.96 259.496L85.064 260.432ZM99.56 247.256H91.448V267.896H93.68V249.296H97.376V260.912C97.376 261.224 97.28 261.32 96.944 261.344C96.656 261.368 95.624 261.368 94.568 261.32C94.88 261.896 95.144 262.832 95.216 263.432C96.848 263.432 97.928 263.408 98.672 263.024C99.368 262.688 99.56 262.04 99.56 260.936V247.256ZM106.228 252.248C105.532 251.24 104.428 250.016 103.444 249.104L101.932 250.304C103.084 251.504 104.428 253.16 105.004 254.24L106.228 253.208V257.24C104.596 258.656 102.964 260 101.884 260.816L103.036 262.712C104.02 261.872 105.124 260.864 106.228 259.856V267.896H108.388V245.888H106.228V252.248ZM120.268 249.56C119.332 250.832 118.108 251.888 116.644 252.776C116.116 252.056 115.276 251.24 114.532 250.64L112.876 251.6C113.572 252.2 114.364 253.016 114.868 253.712C113.188 254.48 111.316 255.056 109.468 255.416C109.852 255.848 110.332 256.664 110.548 257.168C115.948 255.944 121.132 253.328 123.412 248.432L121.948 247.664L121.54 247.76H116.884C117.268 247.328 117.628 246.92 117.964 246.488L115.684 245.864C114.388 247.736 111.94 249.632 109.276 250.736C109.708 251.096 110.404 251.768 110.74 252.2C112.18 251.528 113.596 250.592 114.892 249.56H120.268ZM110.884 260.84C112.06 262.136 113.332 263.912 113.836 265.112L115.78 264.008C115.204 262.808 113.86 261.104 112.684 259.904L110.884 260.84ZM123.7 257.456H120.94V254.768H118.732V257.456H109.348V259.52H118.732V265.376C118.732 265.688 118.612 265.808 118.228 265.808C117.82 265.808 116.476 265.808 115.132 265.76C115.42 266.36 115.756 267.272 115.852 267.872C117.7 267.872 119.02 267.824 119.836 267.512C120.676 267.176 120.94 266.552 120.94 265.4V259.52H123.7V257.456ZM136.704 261.464H140.304V264.296H136.704V261.464ZM140.304 254.792H136.704V252.104H140.304V254.792ZM140.304 259.496H136.704V256.76H140.304V259.496ZM147.096 264.296H142.368V261.464H146.256V259.496H142.368V256.76H146.28V254.792H142.368V252.104H146.616V250.064H141.792L143.184 249.464C142.896 248.528 142.176 247.112 141.48 246.056L139.56 246.824C140.16 247.832 140.784 249.128 141.072 250.064H136.992C137.52 248.912 137.952 247.736 138.36 246.56L136.224 246.008C135.144 249.512 133.32 252.968 131.184 255.176C131.496 255.392 131.904 255.824 132.264 256.208L130.248 256.808V252.536H132.816V250.472H130.248V245.912H128.112V250.472H125.232V252.536H128.112V257.432C126.936 257.744 125.88 258.056 125.016 258.272L125.52 260.432C126.336 260.192 127.2 259.928 128.112 259.64V265.256C128.112 265.592 127.992 265.688 127.68 265.688C127.416 265.712 126.504 265.712 125.568 265.664C125.88 266.288 126.144 267.272 126.216 267.848C127.728 267.848 128.712 267.776 129.384 267.392C130.032 267.032 130.248 266.408 130.248 265.28V258.968L132.816 258.176L132.552 256.496L132.816 256.784C133.416 256.112 134.016 255.32 134.568 254.48V267.92H136.704V266.336H147.096V264.296ZM166.556 257.744V264.32H160.676V256.352H168.092V247.952H165.62V254.192H160.676V245.888H158.204V254.192H153.404V247.952H151.052V256.352H158.204V264.32H152.396V257.744H149.9V266.552H166.556V267.872H169.028V257.744H166.556ZM183.904 258.056V252.248H190.144V258.056H183.904ZM175.36 258.056V252.248H181.576V258.056H175.36ZM183.904 250.064V245.888H181.576V250.064H173.128V261.656H175.36V260.24H181.576V267.872H183.904V260.24H190.144V261.536H192.472V250.064H183.904ZM210.708 252.152C209.628 255.104 208.14 257.552 206.196 259.568C204.156 257.456 202.548 254.984 201.396 252.152H210.708ZM216.924 252.152V249.992H206.148L208.284 249.32C207.972 248.336 207.204 246.8 206.508 245.672L204.156 246.368C204.804 247.496 205.476 249.008 205.764 249.992H195.372V252.152H199.068C200.412 255.656 202.188 258.656 204.516 261.128C201.972 263.216 198.828 264.704 194.964 265.736C195.42 266.264 196.092 267.296 196.356 267.872C200.244 266.672 203.508 264.992 206.172 262.736C208.764 264.992 211.956 266.696 215.772 267.728C216.132 267.08 216.78 266.144 217.284 265.664C213.588 264.752 210.468 263.192 207.9 261.104C210.156 258.704 211.932 255.776 213.204 252.152H216.924ZM221.912 254.288H228.008V252.32H226.112V245.84H224.096V252.32H221.912V246.416H219.872V255.752C219.872 259.256 219.68 263.648 218.168 266.624C218.672 266.912 219.416 267.584 219.776 267.992C221.144 265.664 221.648 262.52 221.816 259.4H224.648V267.872H226.664V257.408H221.888C221.912 256.832 221.912 256.28 221.912 255.728V254.288ZM237.464 254.672C236.984 257.048 236.24 259.136 235.232 260.912C234.224 259.064 233.48 256.952 232.952 254.672H237.464ZM238.472 252.584L238.088 252.656H231.056V249.2C234.2 248.96 237.608 248.552 240.176 247.976L238.832 246.056C236.36 246.656 232.4 247.16 228.92 247.4V255.512C228.92 258.992 228.704 263.696 226.928 266.816C227.456 267.104 228.296 267.704 228.704 268.088C230.768 264.632 231.056 259.544 231.056 255.512V254.672H231.2C231.824 257.72 232.736 260.456 234.008 262.736C232.808 264.272 231.416 265.424 229.832 266.168C230.288 266.576 230.864 267.416 231.152 267.992C232.712 267.152 234.056 266.072 235.256 264.68C236.288 266.048 237.512 267.152 238.952 267.992C239.288 267.392 239.96 266.576 240.464 266.192C238.928 265.4 237.632 264.296 236.552 262.904C238.16 260.36 239.264 257.072 239.792 252.92L238.472 252.584ZM253.852 261.368V252.968H254.116C255.292 256.088 256.972 259.064 258.988 261.368H253.852ZM246.268 261.368C248.308 259.064 250.012 256.112 251.188 252.968H251.5V261.368H246.268ZM263.164 252.968V250.712H253.852V245.864H251.5V250.712H242.308V252.968H248.932C247.3 256.832 244.588 260.48 241.564 262.4C242.116 262.856 242.836 263.648 243.22 264.224C244.252 263.456 245.236 262.544 246.196 261.488V263.624H251.5V267.872H253.852V263.624H259.156V261.536C260.044 262.544 261.028 263.432 262.06 264.152C262.444 263.504 263.26 262.64 263.812 262.184C260.74 260.312 258.004 256.76 256.348 252.968H263.164ZM268.104 263.456V258.152H272.568V263.456H268.104ZM272.568 251.648V256.208H268.104V251.648H272.568ZM279.36 249.584C279.744 248.528 280.056 247.424 280.344 246.32L278.184 245.816C277.464 248.984 276.192 252.176 274.608 254.24V249.704H270.768C271.152 248.696 271.608 247.424 272.016 246.224L269.592 245.816C269.448 246.968 269.088 248.552 268.752 249.704H266.064V267.248H268.104V265.424H274.608V254.408C275.16 254.72 276 255.32 276.36 255.656C277.128 254.552 277.872 253.16 278.544 251.624H284.208C283.896 260.672 283.584 264.296 282.816 265.088C282.552 265.424 282.288 265.496 281.808 265.496C281.208 265.496 279.816 265.472 278.28 265.352C278.688 265.976 278.952 266.912 279 267.512C280.368 267.584 281.784 267.608 282.624 267.512C283.536 267.392 284.112 267.176 284.712 266.384C285.672 265.184 285.96 261.464 286.296 250.64C286.32 250.352 286.32 249.584 286.32 249.584H279.36ZM282.432 260.408C281.712 258.992 280.08 256.712 278.808 255.056L277.056 256.04C278.328 257.768 279.888 260.12 280.56 261.584L282.432 260.408ZM306.428 261.44C305.9 260.264 305.06 258.824 304.052 257.36C304.628 255.416 305.06 253.304 305.372 251L303.38 250.784C303.164 252.368 302.9 253.88 302.564 255.296C301.772 254.264 300.956 253.256 300.14 252.368L298.772 253.568C299.828 254.792 300.908 256.208 301.868 257.624C301.004 260.216 299.756 262.4 298.052 263.96C298.532 264.248 299.42 264.896 299.78 265.184C301.22 263.744 302.348 261.872 303.212 259.688C303.932 260.84 304.508 261.92 304.916 262.832L306.428 261.44ZM309.236 247.256H289.412V267.848H291.644V263.84C292.148 264.152 292.94 264.704 293.276 264.992C294.62 263.552 295.724 261.704 296.564 259.568C297.212 260.528 297.788 261.416 298.196 262.184L299.612 260.648C299.06 259.712 298.244 258.56 297.356 257.336C297.956 255.392 298.388 253.256 298.748 250.952L296.756 250.736C296.54 252.368 296.228 253.928 295.844 255.392C295.004 254.312 294.116 253.232 293.276 252.272L291.98 253.568C293.012 254.792 294.14 256.232 295.196 257.624C294.356 260.072 293.204 262.136 291.644 263.672V249.368H307.004V265.04C307.004 265.496 306.836 265.64 306.38 265.664C305.9 265.688 304.244 265.712 302.732 265.616C303.044 266.192 303.428 267.224 303.572 267.848C305.756 267.848 307.148 267.8 308.036 267.44C308.9 267.08 309.236 266.408 309.236 265.064V247.256ZM318.304 249.488C318.016 248.528 317.344 247.088 316.672 246.008L314.752 246.56C315.352 247.688 316.024 249.2 316.288 250.16L318.304 249.488ZM318.712 261.872C319.312 259.496 319.936 256.112 320.392 253.376L318.304 253.016C318.04 255.848 317.44 259.856 316.84 262.304C314.944 262.76 313.168 263.12 311.8 263.408L312.28 265.616C314.776 265.016 318.112 264.176 321.208 263.408L320.992 261.344L318.712 261.872ZM312.904 253.592C313.408 256.208 313.864 259.592 313.96 261.848L315.808 261.488C315.664 259.208 315.208 255.896 314.656 253.256L312.904 253.592ZM312.04 252.272H321.376V250.208H312.04V252.272ZM330.4 264.656H323.896V259.232H330.4V264.656ZM333.592 252.68V250.544H327.784V245.84H325.504V257.144H321.736V267.848H323.896V266.744H330.4V267.752H332.656V257.144H327.784V252.68H333.592ZM338.556 260.096C336.492 260.096 334.812 261.8 334.812 263.864C334.812 265.928 336.492 267.608 338.556 267.608C340.644 267.608 342.3 265.928 342.3 263.864C342.3 261.8 340.644 260.096 338.556 260.096ZM338.556 266.168C337.284 266.168 336.252 265.136 336.252 263.864C336.252 262.592 337.284 261.56 338.556 261.56C339.828 261.56 340.86 262.592 340.86 263.864C340.86 265.136 339.828 266.168 338.556 266.168Z" fill="#0A0A10"/>
<path d="M39.551 301.726H44.685V309.58H45.926V300.604H38.344V309.58H39.551V301.726ZM37.664 310.6C36.933 310.821 36.185 311.059 35.471 311.246V306.979H37.239V305.806H35.471V302.117H37.579V300.927H32.003V302.117H34.247V305.806H32.241V306.979H34.247V311.603C33.329 311.875 32.479 312.079 31.799 312.266L32.071 313.49L37.834 311.773L37.664 310.6ZM43.988 313.898C43.512 313.898 43.376 313.779 43.376 313.303V309.308H42.339C42.577 308.322 42.645 307.37 42.645 306.452V303.154H41.455V306.418C41.455 309.053 40.928 312.249 36.661 314.425C36.916 314.612 37.307 315.105 37.46 315.343C40.265 313.898 41.608 311.875 42.203 309.852V313.422C42.203 314.544 42.662 314.85 43.818 314.85H45.365C46.827 314.85 47.014 314.187 47.167 311.518C46.844 311.45 46.453 311.263 46.147 311.042C46.062 313.439 45.977 313.898 45.365 313.898H43.988ZM53.78 300.417L53.576 300.468H49.411V315.326H50.652V301.658H53.015C52.556 302.814 51.961 304.259 51.349 305.466C52.845 306.775 53.27 307.931 53.287 308.866C53.287 309.393 53.168 309.835 52.845 310.022C52.692 310.124 52.454 310.175 52.216 310.175C51.893 310.209 51.485 310.209 51.043 310.141C51.23 310.498 51.366 310.991 51.383 311.314C51.825 311.348 52.318 311.348 52.726 311.297C53.083 311.246 53.44 311.144 53.712 310.957C54.239 310.617 54.477 309.886 54.477 308.968C54.477 307.914 54.12 306.69 52.607 305.296C53.287 303.97 54.052 302.355 54.647 300.978L53.78 300.417ZM56.483 308.849C56.483 310.787 56.245 312.929 54.154 314.629C54.528 314.799 55.038 315.122 55.293 315.377C57.469 313.49 57.707 311.093 57.707 308.883V306.35H56.483V308.849ZM60.546 315.258H61.787V306.333H60.546V315.258ZM58.642 299.686C58.03 301.726 56.568 304.14 54.086 305.772C54.358 305.976 54.732 306.418 54.902 306.724C56.857 305.398 58.2 303.664 59.084 301.896C60.24 303.783 61.906 305.5 63.555 306.469C63.742 306.18 64.133 305.721 64.405 305.5C62.552 304.548 60.699 302.627 59.645 300.621C59.747 300.383 59.832 300.128 59.917 299.89L58.642 299.686ZM75.319 301.505H77.682V304.667C77.682 305.823 77.903 306.265 79.025 306.265H80.3C80.64 306.265 80.963 306.265 81.167 306.197C81.116 305.925 81.099 305.5 81.065 305.211C80.878 305.262 80.504 305.279 80.283 305.279H79.144C78.906 305.279 78.855 305.143 78.855 304.701V300.4H74.146V302.44C74.146 303.681 73.874 305.177 72.225 306.299C72.463 306.469 72.922 306.877 73.092 307.098C74.928 305.874 75.319 303.987 75.319 302.474V301.505ZM72.361 310.345C70.967 310.549 69.539 310.753 68.281 310.94V308.475H72.072V307.353H68.281V305.024H72.089V303.902H68.281V302.049C69.76 301.675 71.358 301.165 72.565 300.638L71.545 299.686C70.491 300.23 68.672 300.876 67.091 301.284V301.301L67.057 301.284V311.127C66.547 311.195 66.054 311.263 65.646 311.314L65.833 312.504L67.057 312.3V315.054H68.281V312.113C69.59 311.909 71.001 311.654 72.412 311.433L72.361 310.345ZM78.532 308.543C78.107 309.784 77.444 310.821 76.628 311.654C75.727 310.77 75.047 309.733 74.571 308.543H78.532ZM79.246 307.404L79.025 307.455H72.956V308.543H74.146L73.517 308.713C74.044 310.141 74.792 311.382 75.761 312.419C74.622 313.303 73.228 313.932 71.715 314.289C71.953 314.544 72.242 315.037 72.361 315.377C73.959 314.901 75.421 314.238 76.645 313.235C77.733 314.153 79.025 314.833 80.487 315.275C80.657 314.918 80.997 314.442 81.269 314.187C79.841 313.847 78.583 313.235 77.529 312.436C78.668 311.263 79.535 309.716 80.028 307.693L79.246 307.404ZM84.669 315.819C86.454 315.19 87.61 313.796 87.61 311.96C87.61 310.77 87.1 310.005 86.165 310.005C85.468 310.005 84.873 310.43 84.873 311.229C84.873 312.028 85.451 312.436 86.148 312.436C86.25 312.436 86.335 312.436 86.437 312.419C86.352 313.575 85.604 314.374 84.295 314.918L84.669 315.819ZM105.8 304.429C105.562 306.775 105.035 308.696 104.27 310.192C103.539 309.631 102.791 309.07 102.077 308.577C102.417 307.37 102.808 305.925 103.131 304.429H105.8ZM106.344 303.205L106.123 303.256H103.369C103.607 302.1 103.828 300.944 103.964 299.89L102.723 299.805C102.587 300.876 102.4 302.066 102.162 303.256H99.85V304.429H101.924C101.533 306.163 101.091 307.829 100.666 309.036C101.601 309.682 102.655 310.481 103.607 311.28C102.638 312.725 101.38 313.694 99.85 314.272C100.122 314.544 100.462 315.003 100.632 315.326C102.23 314.612 103.539 313.592 104.576 312.13C105.256 312.759 105.851 313.354 106.276 313.881L107.109 312.827C106.684 312.283 106.021 311.654 105.256 311.008C106.259 309.121 106.888 306.639 107.126 303.358L106.344 303.205ZM109.234 312.402V302.814H113.399V312.402H109.234ZM108.044 301.607V314.867H109.234V313.609H113.399V314.629H114.64V301.607H108.044ZM120.029 306.214V304.463H123.854V306.214H120.029ZM120.029 301.692H123.854V303.426H120.029V301.692ZM129.022 303.426H125.163V301.692H129.022V303.426ZM129.022 306.214H125.163V304.463H129.022V306.214ZM131.912 309.903V308.73H125.163V307.302H130.365V300.587H118.754V307.302H123.854V308.73H117.105V309.903H122.8C121.304 311.518 118.89 312.98 116.68 313.694C116.952 313.949 117.36 314.442 117.53 314.731C119.74 313.898 122.222 312.283 123.854 310.43V315.309H125.163V310.345C126.829 312.147 129.328 313.796 131.487 314.663C131.674 314.357 132.065 313.864 132.354 313.609C130.212 312.895 127.781 311.467 126.217 309.903H131.912ZM147.365 302.474C147.093 303.086 146.787 303.715 146.549 304.14L147.62 304.361C148.045 303.681 148.555 302.525 148.997 301.556L148.13 301.318L147.926 301.369H141.568C141.772 300.944 141.959 300.519 142.129 300.094L140.956 299.805C140.395 301.403 139.409 302.95 138.253 303.953C138.525 304.14 139.001 304.531 139.205 304.752C139.834 304.14 140.446 303.358 140.973 302.474H147.365ZM145.614 304.888C146.447 305.942 147.314 307.387 147.688 308.339L148.776 307.778C148.385 306.843 147.501 305.432 146.634 304.412L145.614 304.888ZM143.489 311.943C143.013 311.11 141.942 309.886 141.007 309.019L140.038 309.58C140.956 310.481 142.01 311.739 142.435 312.555L143.489 311.943ZM140.939 304.446C140.48 305.619 139.698 306.809 138.814 307.608C139.086 307.778 139.545 308.118 139.766 308.322C140.65 307.455 141.534 306.112 142.095 304.769L140.939 304.446ZM144.679 303.052H143.455V308.016C143.455 308.203 143.404 308.254 143.183 308.254C142.979 308.271 142.282 308.271 141.483 308.254C141.636 308.577 141.823 309.019 141.891 309.359C142.962 309.359 143.642 309.359 144.084 309.155C144.56 308.968 144.679 308.662 144.679 308.033V303.052ZM135.057 314.612C135.686 313.575 136.281 311.977 136.723 310.872L135.584 310.413C135.21 311.518 134.547 313.065 133.867 314.068L135.057 314.612ZM137.709 299.737C136.74 301.624 135.21 303.494 133.646 304.667C133.901 304.905 134.309 305.415 134.479 305.653C135.023 305.194 135.584 304.65 136.111 304.055V309.444H137.335V302.542C137.896 301.76 138.423 300.944 138.831 300.111L137.709 299.737ZM140.072 313.813C138.95 313.813 138.746 313.728 138.746 313.235V310.311H137.488V313.252C137.488 314.629 138.015 314.986 140.004 314.986H144.067C145.75 314.986 146.158 314.459 146.328 312.317C145.971 312.249 145.444 312.062 145.155 311.841C145.07 313.558 144.917 313.813 143.982 313.813H140.072ZM146.022 310.532C146.787 311.739 147.569 313.371 147.807 314.408L149.014 313.915C148.725 312.878 147.926 311.314 147.127 310.107L146.022 310.532ZM164.093 303.29H159.877V301.709H164.093V303.29ZM164.093 305.874H159.877V304.276H164.093V305.874ZM164.093 308.458H159.877V306.843H164.093V308.458ZM165.3 300.672H158.704V309.495H165.3V300.672ZM157.055 310.005C157.837 310.77 158.874 311.858 159.367 312.504L160.285 311.756C159.758 311.127 158.721 310.073 157.939 309.359L157.055 310.005ZM151.955 314.408C152.635 313.473 153.179 311.96 153.553 310.821L152.448 310.396C152.108 311.501 151.53 312.946 150.85 313.847L151.955 314.408ZM155.287 309.665V305.534C156.035 306.163 156.987 306.996 157.429 307.421L158.109 306.401C157.667 306.061 155.933 304.769 155.287 304.361V303.409H157.973V302.304H155.287V299.822H154.08V302.304H150.986V303.409H153.859C153.111 305.143 151.853 306.894 150.612 307.778C150.867 307.982 151.224 308.373 151.428 308.662C152.38 307.88 153.332 306.588 154.08 305.194V309.665H155.287ZM157.242 313.796C156.256 313.796 156.086 313.711 156.086 313.269V310.583H154.845V313.286C154.845 314.595 155.321 314.935 157.157 314.935H160.676C162.206 314.935 162.597 314.425 162.767 312.3C162.41 312.232 161.9 312.045 161.611 311.824C161.543 313.558 161.407 313.796 160.591 313.796H157.242ZM163.005 310.549C163.685 311.671 164.569 313.15 164.96 314.034L166.133 313.456C165.708 312.589 164.79 311.127 164.093 310.056L163.005 310.549ZM181.144 301.012L180.838 301.097H168.7V302.338H179.631C178.356 303.545 176.537 304.871 174.905 305.67V313.643C174.905 313.949 174.803 314.034 174.446 314.051C174.055 314.068 172.746 314.085 171.335 314.034C171.539 314.374 171.777 314.935 171.845 315.292C173.562 315.292 174.684 315.275 175.33 315.071C175.993 314.884 176.214 314.51 176.214 313.643V306.299C178.322 305.16 180.634 303.392 182.13 301.743L181.144 301.012ZM189.406 310.294V308.05H190.936V310.294H189.406ZM186.941 310.294C186.975 309.699 186.992 309.104 186.992 308.577V308.05H188.488V310.294H186.941ZM189.831 302.287C189.627 302.882 189.338 303.545 189.066 304.055H186.788C187.094 303.511 187.366 302.899 187.638 302.287H189.831ZM189.406 305.058H190.936V307.098H189.406V305.058ZM186.992 305.058H188.488V307.098H186.992V305.058ZM192.007 304.055H190.239C190.63 303.341 191.021 302.474 191.31 301.726L190.545 301.233L190.358 301.284H188.012C188.148 300.859 188.284 300.434 188.403 300.009L187.264 299.771C186.737 301.845 185.802 303.851 184.612 305.16C184.867 305.33 185.36 305.704 185.53 305.891C185.649 305.738 185.785 305.585 185.904 305.432V308.56C185.904 310.464 185.785 312.98 184.646 314.765C184.901 314.867 185.394 315.173 185.564 315.36C186.312 314.221 186.669 312.742 186.839 311.297H188.488V314.408H189.406V311.297H190.936V313.847C190.936 314.034 190.885 314.085 190.698 314.085C190.545 314.085 190.069 314.085 189.474 314.068C189.644 314.374 189.763 314.85 189.814 315.156C190.664 315.156 191.191 315.139 191.531 314.935C191.905 314.731 192.007 314.408 192.007 313.864V304.055ZM198.603 301.709C198.484 303.681 198.348 304.463 198.178 304.684C198.059 304.837 197.923 304.854 197.685 304.837C197.464 304.837 196.818 304.837 196.155 304.769C196.325 305.058 196.427 305.5 196.461 305.823C197.158 305.857 197.855 305.874 198.212 305.84C198.62 305.806 198.909 305.687 199.13 305.415C199.487 305.007 199.64 303.919 199.776 301.131C199.793 300.961 199.793 300.638 199.793 300.638H192.67V301.709H194.982C194.693 303.307 194.03 304.667 192.313 305.432C192.551 305.636 192.874 306.044 193.01 306.316C195.016 305.347 195.781 303.698 196.121 301.709H198.603ZM200.252 310.94H197.294V308.866H199.827V307.778H197.294V306.163H196.104V307.778H194.642C194.778 307.319 194.914 306.877 195.016 306.401L193.928 306.197C193.656 307.625 193.129 309.036 192.398 309.988C192.67 310.107 193.146 310.362 193.367 310.515C193.707 310.056 193.979 309.495 194.251 308.866H196.104V310.94H192.687V312.045H196.104V315.292H197.294V312.045H200.252V310.94ZM204.91 308.73V307.013H208.956V307.693C208.956 308.033 208.956 308.39 208.922 308.73H204.91ZM204.91 304.31H208.956V306.01H204.91V304.31ZM214.532 304.31V306.01H210.248V304.31H214.532ZM214.532 308.73H210.214C210.231 308.407 210.248 308.05 210.248 307.71V307.013H214.532V308.73ZM215.773 309.784V303.256H210.248V301.828H216.844V300.689H202.156V301.828H208.956V303.256H203.703V309.784H208.752C208.548 310.6 208.157 311.365 207.375 312.028C206.576 311.501 205.896 310.804 205.318 309.92L204.264 310.345C204.842 311.331 205.539 312.113 206.355 312.742C205.318 313.337 203.873 313.813 201.85 314.204C202.122 314.493 202.462 315.02 202.598 315.309C204.808 314.85 206.389 314.221 207.528 313.473C209.84 314.697 212.934 315.071 216.861 315.241C216.929 314.833 217.167 314.306 217.388 314C213.614 313.898 210.69 313.643 208.548 312.674C209.398 311.807 209.857 310.838 210.061 309.784H215.773ZM230.665 301.199L230.444 301.25H226.041C226.449 300.842 226.823 300.451 227.146 300.043L225.769 299.754C224.681 301.148 222.658 302.797 219.955 303.936C220.227 304.14 220.618 304.531 220.805 304.82C222.335 304.123 223.661 303.29 224.749 302.389H229.543C228.71 303.443 227.537 304.361 226.194 305.143C225.582 304.599 224.732 304.021 224.018 303.613L223.1 304.259C223.78 304.65 224.528 305.194 225.089 305.704C223.287 306.571 221.281 307.183 219.394 307.523C219.615 307.795 219.887 308.322 219.989 308.662C224.392 307.744 229.339 305.466 231.481 301.709L230.665 301.199ZM233.147 307.132L232.892 307.2H228.795C229.22 306.792 229.577 306.367 229.917 305.942L228.523 305.636C227.282 307.302 224.868 309.189 221.434 310.43C221.723 310.634 222.08 311.093 222.233 311.365C224.358 310.532 226.109 309.495 227.52 308.356H232.11C231.26 309.682 230.053 310.736 228.608 311.569C227.996 311.008 227.18 310.345 226.5 309.852L225.463 310.447C226.126 310.957 226.891 311.603 227.452 312.147C225.072 313.252 222.216 313.847 219.343 314.119C219.564 314.425 219.768 314.986 219.853 315.343C225.837 314.629 231.634 312.657 233.997 307.659L233.147 307.132ZM238.859 300.468C239.539 301.352 240.253 302.593 240.542 303.392L241.664 302.78C241.358 301.998 240.627 300.808 239.913 299.941L238.859 300.468ZM250.844 308.9V307.659H244.231C244.248 307.336 244.265 307.03 244.265 306.707V304.633H249.926V303.392H246.56C247.172 302.474 247.852 301.318 248.413 300.315L247.07 299.839C246.628 300.91 245.863 302.372 245.2 303.392H237.244V304.633H242.854V306.69C242.854 307.013 242.837 307.319 242.82 307.659H236.224V308.9H242.565C242.021 310.719 240.406 312.64 235.884 314.187C236.224 314.442 236.615 314.986 236.785 315.275C241.137 313.762 242.99 311.807 243.755 309.852C245.149 312.453 247.376 314.306 250.385 315.173C250.555 314.799 250.963 314.272 251.269 313.983C248.175 313.218 245.863 311.382 244.588 308.9H250.844ZM268.031 306.52H261.316V302.236H266.841V300.995H254.159V302.236H260.007V306.52H252.986V307.761H260.007V313.456C260.007 313.813 259.871 313.915 259.514 313.932C259.123 313.949 257.831 313.949 256.437 313.915C256.641 314.272 256.896 314.867 256.981 315.224C258.698 315.224 259.803 315.207 260.432 314.986C261.061 314.782 261.316 314.391 261.316 313.456V307.761H268.031V306.52ZM284.623 303.052C284.062 302.253 282.889 301.063 281.903 300.23L280.934 300.893C281.937 301.76 283.076 302.984 283.603 303.783L284.623 303.052ZM283.093 306.758C282.515 307.846 281.767 308.883 280.866 309.852C280.577 308.73 280.339 307.421 280.169 305.976H285.031V304.769H280.033C279.897 303.256 279.829 301.624 279.829 299.924H278.537C278.554 301.59 278.622 303.222 278.775 304.769H274.882V301.811C275.919 301.59 276.905 301.318 277.721 301.029L276.82 299.992C275.222 300.587 272.485 301.165 270.105 301.522C270.275 301.828 270.445 302.27 270.513 302.576C271.516 302.44 272.587 302.27 273.641 302.066V304.769H270.003V305.976H273.641V308.951C272.162 309.257 270.785 309.546 269.765 309.716L270.122 310.991C271.142 310.77 272.366 310.481 273.641 310.209V313.66C273.641 313.966 273.539 314.051 273.233 314.051C272.944 314.068 271.941 314.085 270.853 314.034C271.04 314.391 271.261 314.969 271.329 315.309C272.706 315.309 273.624 315.275 274.151 315.071C274.678 314.867 274.882 314.493 274.882 313.677V309.903C275.919 309.665 276.973 309.427 278.01 309.172L277.925 308.033C276.922 308.254 275.885 308.475 274.882 308.696V305.976H278.877C279.098 307.812 279.421 309.495 279.829 310.906C278.622 312.028 277.228 312.963 275.8 313.66C276.123 313.932 276.48 314.357 276.667 314.663C277.942 314 279.149 313.15 280.254 312.164C281.036 314.153 282.056 315.343 283.399 315.343C284.674 315.343 285.116 314.527 285.354 311.722C284.997 311.603 284.555 311.314 284.283 311.042C284.181 313.218 283.977 314.085 283.518 314.085C282.668 314.085 281.903 312.997 281.257 311.212C282.447 310.005 283.45 308.662 284.215 307.217L283.093 306.758ZM289.876 299.873C289.145 302.474 288.006 305.075 286.663 306.792C286.884 307.081 287.241 307.778 287.343 308.067C287.751 307.54 288.142 306.945 288.516 306.282V315.292H289.74V303.817C290.233 302.661 290.692 301.42 291.032 300.196L289.876 299.873ZM291.78 315.309H293.004V303.188H291.78V315.309ZM292.477 300.315C293.242 301.352 294.092 302.78 294.449 303.63L295.486 303.035C295.095 302.185 294.211 300.808 293.463 299.788L292.477 300.315ZM301.606 300.4H295.775V301.556H300.365V313.677C300.365 313.966 300.28 314.051 299.991 314.068C299.719 314.085 298.784 314.102 297.815 314.051C297.985 314.391 298.172 314.935 298.223 315.258C299.549 315.258 300.416 315.241 300.926 315.037C301.419 314.833 301.606 314.476 301.606 313.694V300.4ZM309.256 307.183H305.686V303.63H309.256V307.183ZM305.686 312.385V308.305H309.256V312.385H305.686ZM307.114 299.737C306.995 300.536 306.689 301.675 306.434 302.491H304.53V314.867H305.686V313.524H310.412V302.491H307.59C307.879 301.76 308.185 300.825 308.474 299.992L307.114 299.737ZM318.725 302.44H313.642C313.931 301.641 314.169 300.825 314.373 299.992L313.166 299.703C312.622 302.032 311.704 304.378 310.565 305.874C310.837 306.044 311.381 306.384 311.602 306.588C312.197 305.789 312.724 304.752 313.2 303.613H317.518C317.297 310.379 317.042 312.963 316.481 313.558C316.311 313.779 316.124 313.813 315.784 313.813C315.393 313.813 314.373 313.813 313.268 313.711C313.506 314.068 313.659 314.578 313.693 314.952C314.645 315.003 315.614 315.037 316.209 314.969C316.787 314.918 317.178 314.765 317.552 314.289C318.232 313.456 318.453 310.838 318.725 303.086V302.44ZM316.039 310.09C315.495 309.087 314.322 307.455 313.37 306.248L312.384 306.826C313.319 308.05 314.458 309.733 314.968 310.753L316.039 310.09ZM329.146 312.742V302.984H335.249V301.692H321.819V302.984H327.769V312.742H320.935V314H336.099V312.742H329.146ZM341.879 299.839C340.927 302.423 339.363 304.956 337.68 306.588C337.918 306.86 338.292 307.557 338.411 307.846C338.989 307.251 339.567 306.571 340.094 305.823V315.275H341.352V303.868C342.015 302.695 342.627 301.454 343.086 300.23L341.879 299.839ZM353.286 303.817V302.61H346.214C346.554 301.862 346.877 301.097 347.149 300.315L345.942 299.992C345.109 302.474 343.732 304.922 342.202 306.503C342.491 306.707 342.984 307.132 343.188 307.353C344.038 306.401 344.871 305.177 345.602 303.817H346.775V315.292H348.05V311.178H353.133V309.988H348.05V307.421H352.895V306.248H348.05V303.817H353.286ZM356.669 315.819C358.454 315.19 359.61 313.796 359.61 311.96C359.61 310.77 359.1 310.005 358.165 310.005C357.468 310.005 356.873 310.43 356.873 311.229C356.873 312.028 357.451 312.436 358.148 312.436C358.25 312.436 358.335 312.436 358.437 312.419C358.352 313.575 357.604 314.374 356.295 314.918L356.669 315.819ZM386.385 301.59C385.756 301.029 384.498 300.298 383.461 299.839L382.73 300.621C383.767 301.114 385.008 301.896 385.603 302.474L386.385 301.59ZM379.585 311.348C376.831 311.926 373.941 312.504 372.105 312.861L372.343 314.136C374.315 313.694 377.086 313.099 379.687 312.538L379.585 311.348ZM377.8 309.274H374.349V306.333H377.8V309.274ZM373.176 305.228V310.362H379.041V305.228H373.176ZM384.923 304.939C384.379 306.707 383.648 308.271 382.73 309.665C382.305 308.016 382.016 305.976 381.846 303.732H386.861V302.491H381.761C381.727 301.624 381.71 300.74 381.71 299.822H380.384C380.401 300.723 380.418 301.607 380.469 302.491H372.19V303.732H380.537C380.758 306.486 381.132 309.002 381.727 310.991C380.605 312.351 379.245 313.473 377.647 314.323C377.936 314.544 378.429 315.037 378.633 315.292C379.976 314.493 381.166 313.524 382.22 312.368C382.985 314.204 384.005 315.309 385.28 315.309C386.589 315.309 387.065 314.476 387.286 311.569C386.929 311.45 386.47 311.161 386.181 310.855C386.079 313.116 385.875 314 385.399 314C384.566 314 383.801 312.946 383.172 311.195C384.447 309.512 385.45 307.523 386.181 305.245L384.923 304.939ZM402.093 303.29H397.877V301.709H402.093V303.29ZM402.093 305.874H397.877V304.276H402.093V305.874ZM402.093 308.458H397.877V306.843H402.093V308.458ZM403.3 300.672H396.704V309.495H403.3V300.672ZM395.055 310.005C395.837 310.77 396.874 311.858 397.367 312.504L398.285 311.756C397.758 311.127 396.721 310.073 395.939 309.359L395.055 310.005ZM389.955 314.408C390.635 313.473 391.179 311.96 391.553 310.821L390.448 310.396C390.108 311.501 389.53 312.946 388.85 313.847L389.955 314.408ZM393.287 309.665V305.534C394.035 306.163 394.987 306.996 395.429 307.421L396.109 306.401C395.667 306.061 393.933 304.769 393.287 304.361V303.409H395.973V302.304H393.287V299.822H392.08V302.304H388.986V303.409H391.859C391.111 305.143 389.853 306.894 388.612 307.778C388.867 307.982 389.224 308.373 389.428 308.662C390.38 307.88 391.332 306.588 392.08 305.194V309.665H393.287ZM395.242 313.796C394.256 313.796 394.086 313.711 394.086 313.269V310.583H392.845V313.286C392.845 314.595 393.321 314.935 395.157 314.935H398.676C400.206 314.935 400.597 314.425 400.767 312.3C400.41 312.232 399.9 312.045 399.611 311.824C399.543 313.558 399.407 313.796 398.591 313.796H395.242ZM401.005 310.549C401.685 311.671 402.569 313.15 402.96 314.034L404.133 313.456C403.708 312.589 402.79 311.127 402.093 310.056L401.005 310.549ZM415.625 307.302V310.617H411.358V307.302H415.625ZM416.798 311.756V306.163H410.202V312.963H411.358V311.756H416.798ZM420.351 302.695H412.769C413.194 301.879 413.636 300.91 414.01 300.009L412.463 299.737C412.242 300.604 411.8 301.777 411.375 302.695H406.734V315.292H407.975V303.919H419.093V313.609C419.093 313.932 418.991 314.017 418.685 314.034C418.328 314.051 417.155 314.051 415.931 314C416.118 314.34 416.322 314.935 416.39 315.292C417.92 315.292 418.957 315.275 419.569 315.071C420.164 314.867 420.351 314.442 420.351 313.609V302.695ZM437.623 303.052C437.062 302.253 435.889 301.063 434.903 300.23L433.934 300.893C434.937 301.76 436.076 302.984 436.603 303.783L437.623 303.052ZM436.093 306.758C435.515 307.846 434.767 308.883 433.866 309.852C433.577 308.73 433.339 307.421 433.169 305.976H438.031V304.769H433.033C432.897 303.256 432.829 301.624 432.829 299.924H431.537C431.554 301.59 431.622 303.222 431.775 304.769H427.882V301.811C428.919 301.59 429.905 301.318 430.721 301.029L429.82 299.992C428.222 300.587 425.485 301.165 423.105 301.522C423.275 301.828 423.445 302.27 423.513 302.576C424.516 302.44 425.587 302.27 426.641 302.066V304.769H423.003V305.976H426.641V308.951C425.162 309.257 423.785 309.546 422.765 309.716L423.122 310.991C424.142 310.77 425.366 310.481 426.641 310.209V313.66C426.641 313.966 426.539 314.051 426.233 314.051C425.944 314.068 424.941 314.085 423.853 314.034C424.04 314.391 424.261 314.969 424.329 315.309C425.706 315.309 426.624 315.275 427.151 315.071C427.678 314.867 427.882 314.493 427.882 313.677V309.903C428.919 309.665 429.973 309.427 431.01 309.172L430.925 308.033C429.922 308.254 428.885 308.475 427.882 308.696V305.976H431.877C432.098 307.812 432.421 309.495 432.829 310.906C431.622 312.028 430.228 312.963 428.8 313.66C429.123 313.932 429.48 314.357 429.667 314.663C430.942 314 432.149 313.15 433.254 312.164C434.036 314.153 435.056 315.343 436.399 315.343C437.674 315.343 438.116 314.527 438.354 311.722C437.997 311.603 437.555 311.314 437.283 311.042C437.181 313.218 436.977 314.085 436.518 314.085C435.668 314.085 434.903 312.997 434.257 311.212C435.447 310.005 436.45 308.662 437.215 307.217L436.093 306.758ZM442.876 299.873C442.145 302.474 441.006 305.075 439.663 306.792C439.884 307.081 440.241 307.778 440.343 308.067C440.751 307.54 441.142 306.945 441.516 306.282V315.292H442.74V303.817C443.233 302.661 443.692 301.42 444.032 300.196L442.876 299.873ZM444.78 315.309H446.004V303.188H444.78V315.309ZM445.477 300.315C446.242 301.352 447.092 302.78 447.449 303.63L448.486 303.035C448.095 302.185 447.211 300.808 446.463 299.788L445.477 300.315ZM454.606 300.4H448.775V301.556H453.365V313.677C453.365 313.966 453.28 314.051 452.991 314.068C452.719 314.085 451.784 314.102 450.815 314.051C450.985 314.391 451.172 314.935 451.223 315.258C452.549 315.258 453.416 315.241 453.926 315.037C454.419 314.833 454.606 314.476 454.606 313.694V300.4ZM44.753 330.644H39.143V329.301H44.753V330.644ZM44.753 332.888H39.143V331.528H44.753V332.888ZM45.96 328.349H37.987V333.857H45.96V328.349ZM36.729 335.183L35.012 335.71V332.361H36.882V331.188H35.012V327.805H33.839V331.188H31.748V332.361H33.839V336.084C32.972 336.356 32.19 336.594 31.561 336.747L31.867 337.971C32.479 337.784 33.142 337.58 33.839 337.342V341.711C33.839 341.966 33.754 342.034 33.533 342.034C33.346 342.034 32.683 342.034 31.952 342.017C32.122 342.374 32.275 342.884 32.326 343.19C33.397 343.207 34.043 343.156 34.434 342.952C34.859 342.748 35.012 342.425 35.012 341.728V336.968C35.641 336.747 36.27 336.56 36.882 336.339L36.729 335.183ZM42.543 339.161H46.062V338.124H42.543V336.135H46.895V335.064H37.205V336.135H41.353V341.507C40.384 341.099 39.636 340.317 39.143 338.889C39.296 338.328 39.398 337.699 39.483 337.07L38.31 336.934C38.038 339.45 37.29 341.354 35.777 342.544C36.049 342.714 36.525 343.105 36.712 343.309C37.613 342.51 38.276 341.473 38.752 340.198C39.857 342.578 41.642 343.037 44.09 343.037H47.048C47.099 342.714 47.252 342.187 47.422 341.915C46.861 341.932 44.549 341.932 44.141 341.932C43.58 341.932 43.036 341.898 42.543 341.83V339.161ZM61.804 336.22V341.065H57.146V335.149H62.501V329.318H61.141V333.908H57.146V327.788H55.786V333.908H51.893V329.335H50.584V335.149H55.786V341.065H51.196V336.22H49.836V342.306H61.804V343.275H63.164V336.22H61.804ZM67.499 331.375H72.854V335.387H74.044V331.375H79.484V333.687H80.657V330.457H74.044V329.471H79.671V328.451H67.329V329.471H72.854V330.457H66.36V333.687H67.499V331.375ZM74.928 334.928H79.076V334.078H74.928V334.928ZM74.928 332.31V333.143H78.668V332.31H74.928ZM71.97 332.31H68.332V333.143H71.97V332.31ZM67.975 334.928H71.97V334.078H67.975V334.928ZM80.895 336.968V335.931H66.156V336.968H72.718C72.616 337.359 72.497 337.784 72.378 338.175H67.465V343.258H68.672V339.212H71.188V343.156H72.327V339.212H74.911V343.156H76.067V339.212H78.736V342.034C78.736 342.187 78.685 342.238 78.498 342.255C78.294 342.272 77.733 342.272 77.053 342.255C77.206 342.544 77.376 342.986 77.444 343.292C78.362 343.292 78.991 343.292 79.416 343.105C79.841 342.918 79.943 342.612 79.943 342.051V338.175H73.568C73.704 337.801 73.874 337.393 74.01 336.968H80.895ZM96.093 332.616C95.328 333.67 94.053 335.013 92.999 335.982C92.234 334.775 91.588 333.449 91.112 332.072V331.851H97.912V330.627H95.821L96.535 329.811C95.855 329.233 94.495 328.434 93.424 327.89L92.676 328.689C93.696 329.233 94.971 330.032 95.668 330.627H91.112V327.822H89.837V330.627H83.156V331.851H89.837V336.56C87.27 338.022 84.499 339.569 82.782 340.453L83.598 341.592C85.332 340.589 87.644 339.212 89.837 337.852V341.592C89.837 341.915 89.718 342 89.412 342.017C89.072 342.034 87.967 342.034 86.811 342C86.981 342.374 87.185 342.969 87.253 343.326C88.749 343.326 89.752 343.292 90.313 343.071C90.874 342.867 91.112 342.476 91.112 341.592V334.843C92.574 337.971 94.699 340.555 97.436 341.881C97.657 341.541 98.065 341.048 98.354 340.81C96.518 340.011 94.903 338.617 93.628 336.917C94.784 335.965 96.144 334.588 97.181 333.381L96.093 332.616ZM87.865 335.999C87.321 335.081 86.08 333.772 85.009 332.854L84.057 333.517C85.128 334.469 86.318 335.829 86.845 336.747L87.865 335.999ZM103.692 330.253C104.066 330.899 104.44 331.698 104.593 332.208L105.698 331.783C105.562 331.358 105.273 330.797 104.967 330.253H107.33V329.182H103.25C103.437 328.808 103.607 328.417 103.76 328.026L102.553 327.737C102.026 329.25 101.04 330.712 99.901 331.664C100.224 331.817 100.717 332.157 100.955 332.361C101.533 331.8 102.128 331.069 102.638 330.253H103.692ZM100.87 343.292H102.094V334.316H100.87V343.292ZM101.754 332.565C102.417 333.211 103.148 334.129 103.454 334.707L104.457 334.061C104.117 333.466 103.352 332.582 102.706 331.953L101.754 332.565ZM109.591 336.169V337.563H105.426V336.169H109.591ZM105.426 339.994V338.498H109.591V339.994H105.426ZM110.798 340.997V335.183H104.253V341.847H105.426V340.997H110.798ZM114.147 332.446H104.967V333.585H112.906V341.779C112.906 342.051 112.821 342.136 112.481 342.136C112.175 342.17 111.019 342.17 109.846 342.136C110.033 342.459 110.203 342.918 110.271 343.241C111.818 343.241 112.804 343.258 113.365 343.071C113.943 342.867 114.147 342.527 114.147 341.779V332.446ZM109.88 329.182C110.05 328.808 110.203 328.417 110.305 328.026L109.115 327.754C108.69 329.131 107.908 330.474 106.973 331.358C107.262 331.528 107.772 331.868 107.993 332.055C108.486 331.579 108.928 330.95 109.336 330.253H110.628C111.104 330.899 111.546 331.698 111.733 332.208L112.838 331.715C112.668 331.307 112.362 330.78 112.005 330.253H114.742V329.182H109.88ZM122.409 335.132L120.539 335.659V332.429H122.443V331.188H120.539V327.788H119.281V331.188H116.867V332.429H119.281V336.016C118.278 336.305 117.36 336.543 116.629 336.713L116.969 337.988C117.666 337.801 118.448 337.563 119.281 337.325V341.728C119.281 342.017 119.162 342.102 118.873 342.102C118.635 342.119 117.768 342.136 116.816 342.102C117.003 342.442 117.19 342.969 117.224 343.309C118.567 343.309 119.366 343.292 119.859 343.071C120.335 342.867 120.539 342.51 120.539 341.728V336.951L122.579 336.339L122.409 335.132ZM130.212 335.285C129.838 336.645 129.226 337.954 128.393 339.11C127.475 337.971 126.71 336.662 126.166 335.285H130.212ZM130.892 334.095L130.671 334.146H124.449V329.522H129.855C129.787 331.052 129.685 331.715 129.464 331.919C129.345 332.038 129.141 332.055 128.784 332.055C128.444 332.055 127.339 332.055 126.217 331.953C126.421 332.259 126.557 332.684 126.574 333.024C127.696 333.075 128.767 333.092 129.311 333.058C129.872 333.024 130.229 332.922 130.552 332.616C130.909 332.242 131.062 331.273 131.164 328.893C131.181 328.706 131.181 328.349 131.181 328.349H123.208V343.275H124.449V335.285H124.959C125.605 337.07 126.489 338.702 127.611 340.096C126.744 341.014 125.741 341.813 124.568 342.408C124.857 342.663 125.214 343.037 125.401 343.326C126.54 342.714 127.56 341.932 128.41 340.997C129.311 341.932 130.314 342.714 131.436 343.258C131.623 342.918 132.014 342.442 132.32 342.187C131.181 341.711 130.144 340.963 129.226 340.028C130.433 338.413 131.266 336.458 131.708 334.367L130.892 334.095ZM135.669 343.819C137.454 343.19 138.61 341.796 138.61 339.96C138.61 338.77 138.1 338.005 137.165 338.005C136.468 338.005 135.873 338.43 135.873 339.229C135.873 340.028 136.451 340.436 137.148 340.436C137.25 340.436 137.335 340.436 137.437 340.419C137.352 341.575 136.604 342.374 135.295 342.918L135.669 343.819ZM155.253 330.661C154.726 329.981 153.57 328.927 152.686 328.179L151.87 328.927C152.754 329.726 153.876 330.831 154.386 331.545L155.253 330.661ZM154.522 340.334V333.092H150.765V334.299H153.298V340.47C153.298 341.218 152.822 341.728 152.499 341.915C152.72 342.17 153.043 342.697 153.162 342.986C153.417 342.663 153.859 342.289 156.698 340.096C156.562 339.858 156.341 339.382 156.256 339.042L154.522 340.334ZM158.398 339.756V338.379H163.702V339.756H158.398ZM163.702 336.186V337.495H158.398V336.186H163.702ZM164.909 335.2H157.208V343.292H158.398V340.674H163.702V341.864C163.702 342.085 163.634 342.153 163.379 342.153C163.175 342.17 162.359 342.17 161.492 342.136C161.645 342.459 161.815 342.918 161.866 343.224C163.073 343.241 163.821 343.224 164.314 343.037C164.773 342.85 164.909 342.527 164.909 341.881V335.2ZM161.662 333.262V332.072H165.232V331.154H161.662V330.083H165.742V329.114H161.662V327.788H160.421V329.114H156.511V330.083H160.421V331.154H156.919V332.072H160.421V333.262H156.001V334.231H166.235V333.262H161.662ZM177.234 332.99V334.486H174.395V332.99H177.234ZM181.331 332.99V334.486H178.373V332.99H181.331ZM178.373 336.968V335.421H181.331V336.968H178.373ZM174.395 336.968V335.421H177.234V336.968H174.395ZM174.395 337.937H177.234V340.708H178.373V337.937H181.331V339.484C181.331 339.705 181.263 339.773 181.042 339.773C180.838 339.773 180.124 339.79 179.325 339.756C179.478 340.062 179.614 340.487 179.665 340.81C180.804 340.81 181.518 340.793 181.96 340.606C182.402 340.419 182.538 340.13 182.538 339.501V332.021H180.311C179.971 331.817 179.529 331.579 179.053 331.358C180.311 330.712 181.603 329.828 182.521 328.927L181.756 328.332L181.501 328.4H173.205V329.403H180.345C179.648 329.913 178.781 330.457 177.948 330.848C177.115 330.491 176.231 330.134 175.483 329.862L174.701 330.576C175.738 330.967 176.962 331.511 177.999 332.021H173.188V340.776H174.395V337.937ZM171.947 331.239C171.335 330.474 170.026 329.284 169.023 328.451L168.139 329.165C169.159 330.049 170.434 331.29 171.029 332.072L171.947 331.239ZM171.386 334.112H167.782V335.302H170.162V340.096C169.431 340.402 168.581 341.167 167.714 342.085L168.513 343.122C169.363 341.983 170.196 341.014 170.774 341.014C171.165 341.014 171.76 341.575 172.423 341.983C173.613 342.714 175.024 342.918 177.098 342.918C178.917 342.918 181.875 342.816 183.048 342.748C183.082 342.391 183.269 341.83 183.405 341.507C181.671 341.677 179.121 341.83 177.132 341.83C175.245 341.83 173.817 341.694 172.678 340.997C172.083 340.64 171.726 340.317 171.386 340.13V334.112ZM196.223 338.736C196.223 339.025 196.104 339.127 195.764 339.144C195.424 339.144 194.234 339.144 193.01 339.11C193.197 339.467 193.401 340.028 193.452 340.385C195.05 340.385 196.087 340.351 196.665 340.147C197.26 339.96 197.481 339.586 197.481 338.736V332.021H199.827V330.814H197.481V327.839H196.223V330.814H189.695V332.021H196.223V338.736ZM190.494 333.908C191.361 334.962 192.381 336.441 192.857 337.325L193.928 336.679C193.435 335.795 192.347 334.401 191.497 333.364L190.494 333.908ZM188.947 331.052C188.437 330.253 187.315 329.08 186.38 328.23L185.411 328.876C186.346 329.743 187.434 330.984 187.91 331.783L188.947 331.052ZM188.488 334.112H184.918V335.302H187.247V339.722C186.499 340.011 185.598 340.759 184.697 341.728L185.581 342.918C186.448 341.762 187.264 340.759 187.825 340.759C188.199 340.759 188.76 341.32 189.457 341.762C190.63 342.51 192.041 342.697 194.132 342.697C195.764 342.697 198.739 342.612 199.946 342.527C199.963 342.136 200.167 341.507 200.337 341.167C198.688 341.337 196.155 341.49 194.166 341.49C192.296 341.49 190.834 341.354 189.746 340.674C189.168 340.317 188.811 340.011 188.488 339.807V334.112ZM211.064 333.313C210.554 332.208 209.449 330.576 208.446 329.369L207.375 329.93C208.361 331.171 209.449 332.888 209.925 333.976L211.064 333.313ZM205.114 339.178V329.097H203.771V339.042C203.771 339.824 203.108 340.368 202.751 340.572C202.972 340.81 203.346 341.32 203.448 341.609C203.873 341.235 204.485 340.878 209.381 338.532C209.279 338.243 209.109 337.716 209.058 337.342L205.114 339.178ZM217.354 342.442C216.538 341.252 214.889 339.484 213.427 338.09C214.549 335.676 215.008 332.548 215.246 328.519L213.92 328.451C213.529 335.965 212.356 340.164 206.916 342.323C207.205 342.578 207.681 343.139 207.851 343.411C210.146 342.357 211.727 341.014 212.832 339.212C214.192 340.555 215.586 342.17 216.266 343.258L217.354 342.442ZM234.014 330.287V329.029H219.003V330.287H225.497V343.275H226.84V334.333C228.778 335.37 231.056 336.764 232.212 337.716L233.096 336.577C231.753 335.557 229.084 334.027 227.061 333.058L226.84 333.313V330.287H234.014ZM238.502 337.495V335.064H242.684V337.495H238.502ZM242.684 331.46V333.891H238.502V331.46H242.684ZM248.379 331.46V333.891H244.01V331.46H248.379ZM244.01 337.495V335.064H248.379V337.495H244.01ZM245.217 341.745C244.197 341.745 244.01 341.541 244.01 340.555V338.736H249.637V330.236H244.01V327.805H242.684V330.236H237.21V339.773H238.502V338.736H242.684V340.521C242.684 342.51 243.245 343.003 245.132 343.003H248.872C250.657 343.003 251.065 342.102 251.286 339.552C250.895 339.45 250.351 339.229 250.045 338.991C249.909 341.201 249.739 341.745 248.787 341.745H245.217ZM268.15 335.302H261.214V333.5C263.152 332.514 265.328 331.001 266.773 329.573L265.821 328.859L265.549 328.927H254.601V330.168H264.172C262.982 331.154 261.333 332.208 259.922 332.854V335.302H252.918V336.56H259.922V341.609C259.922 341.915 259.803 342 259.463 342.017C259.089 342.034 257.848 342.051 256.471 342C256.692 342.357 256.93 342.918 257.015 343.292C258.647 343.292 259.718 343.275 260.347 343.054C260.993 342.867 261.214 342.476 261.214 341.626V336.56H268.15V335.302ZM276.837 335.03H274.78V331.477H276.837V335.03ZM274.78 339.994V336.135H276.837V339.994H274.78ZM271.601 336.135H273.675V339.994H271.601V336.135ZM273.675 331.477V335.03H271.601V331.477H273.675ZM274.848 327.805H273.624V330.372H270.496V342.221H271.601V341.099H276.837V341.983H277.993V330.372H274.848V327.805ZM284.198 328.638L283.994 328.689H279.625V343.292H280.73V329.879H283.467C282.991 331.188 282.328 332.973 281.682 334.401C283.229 335.931 283.671 337.172 283.671 338.226C283.688 338.821 283.569 339.331 283.229 339.552C283.025 339.671 282.77 339.722 282.515 339.739C282.158 339.739 281.682 339.739 281.138 339.688C281.359 340.045 281.478 340.555 281.512 340.895C282.005 340.929 282.566 340.929 283.008 340.878C283.399 340.827 283.773 340.708 284.062 340.521C284.623 340.147 284.861 339.331 284.861 338.345C284.861 337.155 284.47 335.846 282.923 334.248C283.654 332.667 284.453 330.746 285.065 329.199L284.198 328.638ZM290.59 327.839C289.689 330.406 288.193 332.939 286.612 334.588C286.833 334.877 287.207 335.523 287.326 335.829C287.853 335.234 288.397 334.571 288.89 333.84V343.275H290.097V331.885C290.743 330.712 291.304 329.454 291.78 328.213L290.59 327.839ZM302.116 336.203H297.509V332.48H301.385V331.239H297.509V327.992H296.251V331.239H293.99C294.211 330.474 294.398 329.675 294.551 328.876L293.361 328.621C292.97 330.814 292.273 333.024 291.27 334.418C291.593 334.571 292.12 334.877 292.358 335.064C292.817 334.35 293.225 333.466 293.582 332.48H296.251V336.203H291.406V337.444H296.251V343.309H297.509V337.444H302.116V336.203ZM314.543 337.937H304.037V339.161H314.543V337.937ZM307.454 334.367C307.675 333.449 307.896 332.395 308.134 331.324H317.824V330.117H308.372C308.508 329.488 308.61 328.859 308.729 328.281L307.454 328.145C307.046 330.474 306.366 333.67 305.839 335.54L306.893 335.557H316.685C316.294 339.45 315.869 341.201 315.223 341.694C315.036 341.881 314.781 341.898 314.356 341.898C313.863 341.898 312.554 341.898 311.228 341.779C311.483 342.119 311.67 342.646 311.704 343.02C312.894 343.105 314.118 343.122 314.73 343.088C315.444 343.054 315.886 342.935 316.311 342.493C317.076 341.762 317.552 339.824 318.028 334.979C318.062 334.809 318.079 334.367 318.079 334.367H307.454ZM335.623 331.052C335.062 330.253 333.889 329.063 332.903 328.23L331.934 328.893C332.937 329.76 334.076 330.984 334.603 331.783L335.623 331.052ZM334.093 334.758C333.515 335.846 332.767 336.883 331.866 337.852C331.577 336.73 331.339 335.421 331.169 333.976H336.031V332.769H331.033C330.897 331.256 330.829 329.624 330.829 327.924H329.537C329.554 329.59 329.622 331.222 329.775 332.769H325.882V329.811C326.919 329.59 327.905 329.318 328.721 329.029L327.82 327.992C326.222 328.587 323.485 329.165 321.105 329.522C321.275 329.828 321.445 330.27 321.513 330.576C322.516 330.44 323.587 330.27 324.641 330.066V332.769H321.003V333.976H324.641V336.951C323.162 337.257 321.785 337.546 320.765 337.716L321.122 338.991C322.142 338.77 323.366 338.481 324.641 338.209V341.66C324.641 341.966 324.539 342.051 324.233 342.051C323.944 342.068 322.941 342.085 321.853 342.034C322.04 342.391 322.261 342.969 322.329 343.309C323.706 343.309 324.624 343.275 325.151 343.071C325.678 342.867 325.882 342.493 325.882 341.677V337.903C326.919 337.665 327.973 337.427 329.01 337.172L328.925 336.033C327.922 336.254 326.885 336.475 325.882 336.696V333.976H329.877C330.098 335.812 330.421 337.495 330.829 338.906C329.622 340.028 328.228 340.963 326.8 341.66C327.123 341.932 327.48 342.357 327.667 342.663C328.942 342 330.149 341.15 331.254 340.164C332.036 342.153 333.056 343.343 334.399 343.343C335.674 343.343 336.116 342.527 336.354 339.722C335.997 339.603 335.555 339.314 335.283 339.042C335.181 341.218 334.977 342.085 334.518 342.085C333.668 342.085 332.903 340.997 332.257 339.212C333.447 338.005 334.45 336.662 335.215 335.217L334.093 334.758ZM340.876 327.873C340.145 330.474 339.006 333.075 337.663 334.792C337.884 335.081 338.241 335.778 338.343 336.067C338.751 335.54 339.142 334.945 339.516 334.282V343.292H340.74V331.817C341.233 330.661 341.692 329.42 342.032 328.196L340.876 327.873ZM342.78 343.309H344.004V331.188H342.78V343.309ZM343.477 328.315C344.242 329.352 345.092 330.78 345.449 331.63L346.486 331.035C346.095 330.185 345.211 328.808 344.463 327.788L343.477 328.315ZM352.606 328.4H346.775V329.556H351.365V341.677C351.365 341.966 351.28 342.051 350.991 342.068C350.719 342.085 349.784 342.102 348.815 342.051C348.985 342.391 349.172 342.935 349.223 343.258C350.549 343.258 351.416 343.241 351.926 343.037C352.419 342.833 352.606 342.476 352.606 341.694V328.4ZM364.982 330.627C364.676 329.896 363.945 328.825 363.265 328.06L362.262 328.553C362.925 329.352 363.622 330.457 363.911 331.188L364.982 330.627ZM356.907 336.611H359.355V338.991C358.505 339.127 357.672 339.263 356.907 339.382V336.611ZM359.355 329.658V332.038H356.907V329.658H359.355ZM356.907 333.109H359.355V335.54H356.907V333.109ZM361.871 339.688L361.786 338.6L360.46 338.804V329.658H361.208V328.502H354.85V329.658H355.785V339.552C355.394 339.603 355.037 339.637 354.697 339.688L354.969 340.878L359.355 340.13V343.309H360.46V339.926L361.871 339.688ZM370.167 336.696V335.54H366.019C366.053 335.166 366.053 334.843 366.053 334.503V332.463H369.538V331.29H367.243C367.821 330.457 368.45 329.403 368.994 328.434L367.736 328.077C367.311 329.046 366.546 330.406 365.9 331.29H361.701V332.463H364.795V334.486C364.795 334.826 364.795 335.166 364.761 335.54H361.276V336.696H364.642C364.353 338.617 363.435 340.793 360.681 342.561C361.004 342.782 361.412 343.173 361.616 343.462C363.775 341.983 364.914 340.249 365.475 338.583C366.359 340.691 367.685 342.357 369.521 343.292C369.708 342.952 370.065 342.493 370.354 342.238C368.212 341.286 366.716 339.229 365.968 336.696H370.167ZM375.896 338.175C375.012 339.382 373.618 340.64 372.258 341.456C372.598 341.626 373.108 342.051 373.363 342.289C374.638 341.388 376.134 339.977 377.154 338.617L375.896 338.175ZM384.498 336.781C384.974 337.342 385.399 337.886 385.688 338.311L386.691 337.699C385.994 336.679 384.549 335.115 383.223 333.959L382.271 334.452C382.713 334.877 383.189 335.336 383.631 335.829L376.202 336.305C378.752 335.081 381.336 333.517 383.818 331.63L382.849 330.814C381.999 331.511 381.064 332.191 380.146 332.803L376.032 333.007C377.239 332.14 378.48 331.035 379.585 329.879C381.795 329.658 383.886 329.335 385.501 328.944L384.6 327.907C381.88 328.587 376.967 329.029 372.87 329.25C373.006 329.539 373.159 330.032 373.193 330.355C374.672 330.287 376.253 330.185 377.834 330.049C376.729 331.205 375.488 332.208 375.046 332.48C374.553 332.871 374.162 333.126 373.805 333.16C373.941 333.483 374.111 334.061 374.179 334.299C374.502 334.163 375.046 334.095 378.497 333.891C377.035 334.775 375.794 335.455 375.216 335.727C374.162 336.254 373.414 336.577 372.853 336.645C373.006 336.985 373.193 337.563 373.244 337.818C373.72 337.631 374.383 337.529 379.024 337.189V341.609C379.024 341.813 378.973 341.881 378.684 341.898C378.412 341.898 377.494 341.898 376.474 341.864C376.678 342.221 376.899 342.731 376.95 343.105C378.191 343.105 379.041 343.105 379.585 342.884C380.146 342.68 380.299 342.34 380.299 341.626V337.087L384.498 336.781ZM381.795 338.736C383.206 339.824 384.94 341.371 385.773 342.323L386.844 341.558C385.943 340.606 384.192 339.11 382.798 338.09L381.795 338.736ZM392.25 333.738C392.93 333.738 393.542 333.245 393.542 332.48C393.542 331.698 392.93 331.188 392.25 331.188C391.57 331.188 390.975 331.698 390.975 332.48C390.975 333.245 391.57 333.738 392.25 333.738ZM392.25 342.068C392.93 342.068 393.542 341.558 393.542 340.793C393.542 340.011 392.93 339.518 392.25 339.518C391.57 339.518 390.975 340.011 390.975 340.793C390.975 341.558 391.57 342.068 392.25 342.068Z" fill="#0A0A10"/>
<path d="M34.114 372V366.744C34.114 365.448 35.104 364.44 36.418 364.44C37.696 364.44 38.614 365.394 38.614 366.744V372H40.396V366.546C40.396 364.242 38.902 362.748 36.832 362.748C35.518 362.748 34.564 363.432 34.204 363.954H34.114V359.4H32.332V372H34.114ZM46.766 372.18C49.304 372.18 51.23 370.236 51.23 367.464C51.23 364.692 49.304 362.748 46.766 362.748C44.228 362.748 42.284 364.692 42.284 367.464C42.284 370.236 44.228 372.18 46.766 372.18ZM46.766 370.524C45.29 370.524 44.066 369.3 44.066 367.464C44.066 365.61 45.29 364.404 46.766 364.404C48.242 364.404 49.448 365.61 49.448 367.464C49.448 369.3 48.242 370.524 46.766 370.524ZM54.9771 372V366.744C54.9771 365.448 55.9671 364.44 57.2811 364.44C58.5591 364.44 59.4771 365.394 59.4771 366.744V372H61.2591V366.546C61.2591 364.242 59.7651 362.748 57.6951 362.748C56.2911 362.748 55.3371 363.45 54.9771 363.954H54.8871L54.7251 362.928H53.1951V372H54.9771ZM67.6313 375.78C70.2773 375.78 71.8613 374.214 71.8613 371.856V362.928H70.3133L70.1513 364.116H70.0613C69.4853 363.288 68.4953 362.748 67.2533 362.748C64.9493 362.748 63.1493 364.548 63.1493 367.14C63.1493 369.732 64.9493 371.532 67.2533 371.532C68.4593 371.532 69.4313 371.01 69.9713 370.29H70.0613V371.838C70.0613 373.26 69.1073 374.196 67.6313 374.196C66.0833 374.196 65.3453 373.296 65.2553 372.54H63.4553C63.5273 373.908 64.7693 375.78 67.6313 375.78ZM67.5053 369.93C66.0653 369.93 64.9493 368.796 64.9493 367.14C64.9493 365.484 66.0653 364.35 67.5053 364.35C68.9453 364.35 70.0613 365.484 70.0613 367.14C70.0613 368.796 68.9453 369.93 67.5053 369.93ZM76.196 372V367.698L80.192 372H82.316L77.996 367.374L82.136 362.928H80.012L76.196 367.05V359.4H74.414V372H76.196ZM87.3012 372.18C89.8392 372.18 91.7652 370.236 91.7652 367.464C91.7652 364.692 89.8392 362.748 87.3012 362.748C84.7632 362.748 82.8192 364.692 82.8192 367.464C82.8192 370.236 84.7632 372.18 87.3012 372.18ZM87.3012 370.524C85.8252 370.524 84.6012 369.3 84.6012 367.464C84.6012 365.61 85.8252 364.404 87.3012 364.404C88.7772 364.404 89.9832 365.61 89.9832 367.464C89.9832 369.3 88.7772 370.524 87.3012 370.524ZM95.5123 372V366.744C95.5123 365.448 96.5023 364.44 97.8163 364.44C99.0943 364.44 100.012 365.394 100.012 366.744V372H101.794V366.546C101.794 364.242 100.3 362.748 98.2303 362.748C96.8263 362.748 95.8723 363.45 95.5123 363.954H95.4223L95.2603 362.928H93.7303V372H95.5123ZM108.166 375.78C110.812 375.78 112.396 374.214 112.396 371.856V362.928H110.848L110.686 364.116H110.596C110.02 363.288 109.03 362.748 107.788 362.748C105.484 362.748 103.684 364.548 103.684 367.14C103.684 369.732 105.484 371.532 107.788 371.532C108.994 371.532 109.966 371.01 110.506 370.29H110.596V371.838C110.596 373.26 109.642 374.196 108.166 374.196C106.618 374.196 105.88 373.296 105.79 372.54H103.99C104.062 373.908 105.304 375.78 108.166 375.78ZM108.04 369.93C106.6 369.93 105.484 368.796 105.484 367.14C105.484 365.484 106.6 364.35 108.04 364.35C109.48 364.35 110.596 365.484 110.596 367.14C110.596 368.796 109.48 369.93 108.04 369.93ZM125.641 373.818V372.306H121.987C118.531 372.306 116.227 370.074 116.227 366.744C116.227 363.414 118.621 361.02 122.023 361.02C125.677 361.02 127.999 363.324 127.999 366.474C127.999 368.364 127.315 369.048 126.415 369.048C125.839 369.048 125.461 368.67 125.461 367.968V363.216H124.183L124.021 364.116H123.931C123.625 363.612 122.815 363.072 121.681 363.072C119.665 363.072 118.153 364.602 118.153 366.816C118.153 369.03 119.665 370.56 121.681 370.56C122.941 370.56 123.913 369.894 124.273 369.372H124.363C124.561 369.894 125.227 370.56 126.379 370.56C128.233 370.56 129.601 369.246 129.601 366.474C129.601 362.532 126.577 359.508 122.023 359.508C117.757 359.508 114.643 362.568 114.643 366.744C114.643 370.866 117.631 373.818 121.987 373.818H125.641ZM121.843 369.084C120.619 369.084 119.737 368.202 119.737 366.816C119.737 365.43 120.619 364.548 121.843 364.548C123.067 364.548 123.949 365.43 123.949 366.816C123.949 368.202 123.067 369.084 121.843 369.084ZM134.777 372.18C137.261 372.18 138.485 370.956 138.485 369.48C138.485 368.004 137.603 367.104 135.713 366.798L134.219 366.546C133.247 366.384 132.869 366.006 132.869 365.448C132.869 364.8 133.463 364.206 134.687 364.206C135.911 364.206 136.631 364.872 136.631 365.61H138.377C138.377 364.224 137.045 362.748 134.687 362.748C132.311 362.748 131.105 363.99 131.105 365.448C131.105 366.906 132.041 367.734 133.841 368.022L135.317 368.274C136.325 368.454 136.721 368.85 136.721 369.498C136.721 370.146 136.091 370.704 134.777 370.704C133.427 370.704 132.725 370.002 132.725 369.282H130.979C130.979 370.56 132.131 372.18 134.777 372.18ZM144.343 372.18C146.575 372.18 147.925 370.812 148.411 369.39H146.575C146.215 370.092 145.405 370.65 144.343 370.65C142.921 370.65 141.769 369.624 141.625 368.094H148.591C148.609 367.95 148.663 367.626 148.663 367.212C148.663 364.656 146.791 362.748 144.343 362.748C141.787 362.748 139.843 364.71 139.843 367.464C139.843 370.218 141.787 372.18 144.343 372.18ZM141.625 366.798C141.805 365.34 142.849 364.26 144.343 364.26C145.747 364.26 146.791 365.34 146.899 366.798H141.625ZM154.231 372.18C155.563 372.18 156.499 371.586 157.093 370.758H157.183L157.345 372H158.875V359.4H157.093V364.116H157.003C156.463 363.36 155.527 362.748 154.231 362.748C151.927 362.748 150.073 364.638 150.073 367.464C150.073 370.29 151.927 372.18 154.231 372.18ZM154.483 370.524C153.061 370.524 151.873 369.336 151.873 367.464C151.873 365.574 153.061 364.404 154.483 364.404C155.887 364.404 157.093 365.574 157.093 367.464C157.093 369.336 155.887 370.524 154.483 370.524ZM165.383 375.78C168.029 375.78 169.613 374.214 169.613 371.856V362.928H168.065L167.903 364.116H167.813C167.237 363.288 166.247 362.748 165.005 362.748C162.701 362.748 160.901 364.548 160.901 367.14C160.901 369.732 162.701 371.532 165.005 371.532C166.211 371.532 167.183 371.01 167.723 370.29H167.813V371.838C167.813 373.26 166.859 374.196 165.383 374.196C163.835 374.196 163.097 373.296 163.007 372.54H161.207C161.279 373.908 162.521 375.78 165.383 375.78ZM165.257 369.93C163.817 369.93 162.701 368.796 162.701 367.14C162.701 365.484 163.817 364.35 165.257 364.35C166.697 364.35 167.813 365.484 167.813 367.14C167.813 368.796 166.697 369.93 165.257 369.93ZM175.982 372L177.674 365.43H178.034L179.726 372H182.282L184.658 362.928H182.804L181.076 369.642H180.716L178.97 362.928H176.756L175.01 369.642H174.65L172.922 362.928H171.05L173.444 372H175.982ZM187.993 361.146V359.418H186.049V361.146H187.993ZM187.903 372V362.928H186.121V372H187.903ZM194.317 372.18C196.639 372.18 198.097 370.65 198.493 368.76H196.693C196.405 369.822 195.577 370.524 194.317 370.524C192.841 370.524 191.635 369.3 191.635 367.464C191.635 365.61 192.841 364.404 194.317 364.404C195.577 364.404 196.405 365.124 196.693 366.096H198.493C198.097 364.278 196.639 362.748 194.317 362.748C191.779 362.748 189.835 364.692 189.835 367.464C189.835 370.236 191.779 372.18 194.317 372.18ZM202.214 372V367.698L206.21 372H208.334L204.014 367.374L208.154 362.928H206.03L202.214 367.05V359.4H200.432V372H202.214ZM214.815 367.698V366.042H208.875V367.698H214.815ZM218.665 372V366.456C218.665 365.268 219.295 364.602 220.465 364.602H222.031V362.928H220.339C219.475 362.928 218.989 363.252 218.665 363.756H218.575L218.413 362.928H216.883V372H218.665ZM225.346 361.146V359.418H223.402V361.146H225.346ZM225.256 372V362.928H223.474V372H225.256ZM231.67 372.18C233.992 372.18 235.45 370.65 235.846 368.76H234.046C233.758 369.822 232.93 370.524 231.67 370.524C230.194 370.524 228.988 369.3 228.988 367.464C228.988 365.61 230.194 364.404 231.67 364.404C232.93 364.404 233.758 365.124 234.046 366.096H235.846C235.45 364.278 233.992 362.748 231.67 362.748C229.132 362.748 227.188 364.692 227.188 367.464C227.188 370.236 229.132 372.18 231.67 372.18ZM239.567 372V366.744C239.567 365.448 240.557 364.44 241.871 364.44C243.149 364.44 244.067 365.394 244.067 366.744V372H245.849V366.546C245.849 364.242 244.355 362.748 242.285 362.748C240.971 362.748 240.017 363.432 239.657 363.954H239.567V359.4H237.785V372H239.567ZM251.049 372.18C252.417 372.18 253.425 371.55 253.821 370.902H253.911L254.073 372H255.621V366.204C255.621 364.116 254.181 362.748 251.913 362.748C249.573 362.748 248.313 364.152 248.187 365.61H249.951C250.059 364.926 250.707 364.26 251.913 364.26C253.083 364.26 253.839 365.016 253.839 366.204V366.492H251.481C249.033 366.492 247.863 367.68 247.863 369.408C247.863 370.992 249.105 372.18 251.049 372.18ZM251.301 370.686C250.257 370.686 249.645 370.146 249.645 369.3C249.645 368.454 250.257 367.86 251.643 367.86H253.839V368.184C253.839 369.678 252.921 370.686 251.301 370.686ZM259.815 372V366.456C259.815 365.268 260.445 364.602 261.615 364.602H263.181V362.928H261.489C260.625 362.928 260.139 363.252 259.815 363.756H259.725L259.563 362.928H258.033V372H259.815ZM268.067 372.18C269.399 372.18 270.335 371.586 270.929 370.758H271.019L271.181 372H272.711V359.4H270.929V364.116H270.839C270.299 363.36 269.363 362.748 268.067 362.748C265.763 362.748 263.909 364.638 263.909 367.464C263.909 370.29 265.763 372.18 268.067 372.18ZM268.319 370.524C266.897 370.524 265.709 369.336 265.709 367.464C265.709 365.574 266.897 364.404 268.319 364.404C269.723 364.404 270.929 365.574 270.929 367.464C270.929 369.336 269.723 370.524 268.319 370.524ZM278.373 372.18C280.857 372.18 282.081 370.956 282.081 369.48C282.081 368.004 281.199 367.104 279.309 366.798L277.815 366.546C276.843 366.384 276.465 366.006 276.465 365.448C276.465 364.8 277.059 364.206 278.283 364.206C279.507 364.206 280.227 364.872 280.227 365.61H281.973C281.973 364.224 280.641 362.748 278.283 362.748C275.907 362.748 274.701 363.99 274.701 365.448C274.701 366.906 275.637 367.734 277.437 368.022L278.913 368.274C279.921 368.454 280.317 368.85 280.317 369.498C280.317 370.146 279.687 370.704 278.373 370.704C277.023 370.704 276.321 370.002 276.321 369.282H274.575C274.575 370.56 275.727 372.18 278.373 372.18ZM287.92 372.18C290.458 372.18 292.384 370.236 292.384 367.464C292.384 364.692 290.458 362.748 287.92 362.748C285.382 362.748 283.438 364.692 283.438 367.464C283.438 370.236 285.382 372.18 287.92 372.18ZM287.92 370.524C286.444 370.524 285.22 369.3 285.22 367.464C285.22 365.61 286.444 364.404 287.92 364.404C289.396 364.404 290.602 365.61 290.602 367.464C290.602 369.3 289.396 370.524 287.92 370.524ZM296.131 372V366.744C296.131 365.448 297.121 364.44 298.435 364.44C299.713 364.44 300.631 365.394 300.631 366.744V372H302.413V366.546C302.413 364.242 300.919 362.748 298.849 362.748C297.445 362.748 296.491 363.45 296.131 363.954H296.041L295.879 362.928H294.349V372H296.131ZM306.752 372V369.966H304.7V372H306.752ZM313.039 372.18C315.361 372.18 316.819 370.65 317.215 368.76H315.415C315.127 369.822 314.299 370.524 313.039 370.524C311.563 370.524 310.357 369.3 310.357 367.464C310.357 365.61 311.563 364.404 313.039 364.404C314.299 364.404 315.127 365.124 315.415 366.096H317.215C316.819 364.278 315.361 362.748 313.039 362.748C310.501 362.748 308.557 364.692 308.557 367.464C308.557 370.236 310.501 372.18 313.039 372.18ZM323.006 372.18C325.544 372.18 327.47 370.236 327.47 367.464C327.47 364.692 325.544 362.748 323.006 362.748C320.468 362.748 318.524 364.692 318.524 367.464C318.524 370.236 320.468 372.18 323.006 372.18ZM323.006 370.524C321.53 370.524 320.306 369.3 320.306 367.464C320.306 365.61 321.53 364.404 323.006 364.404C324.482 364.404 325.688 365.61 325.688 367.464C325.688 369.3 324.482 370.524 323.006 370.524ZM331.217 372V366.51C331.217 365.322 332.099 364.44 333.179 364.44C334.259 364.44 335.015 365.196 335.015 366.51V372H336.797V366.51C336.797 365.322 337.697 364.44 338.759 364.44C339.839 364.44 340.577 365.196 340.577 366.51V372H342.359V366.348C342.359 364.206 340.973 362.748 339.083 362.748C337.697 362.748 336.653 363.504 336.221 364.26H336.131C335.825 363.594 334.943 362.748 333.539 362.748C332.495 362.748 331.613 363.342 331.217 363.918H331.127L330.965 362.928H329.435V372H331.217Z" fill="#0A0A10"/>
<path d="M31 375.546H343.547V376.914H31V375.546Z" fill="#0A0A10"/>
<a href="mailto:hongkong@sedgwick-richardson.com">
<rect fill="black" fill-opacity="0" y="1.16" width="312.547" height="22.68"/>
</a>
<path d="M46.623 398.052C46.062 397.253 44.889 396.063 43.903 395.23L42.934 395.893C43.937 396.76 45.076 397.984 45.603 398.783L46.623 398.052ZM45.093 401.758C44.515 402.846 43.767 403.883 42.866 404.852C42.577 403.73 42.339 402.421 42.169 400.976H47.031V399.769H42.033C41.897 398.256 41.829 396.624 41.829 394.924H40.537C40.554 396.59 40.622 398.222 40.775 399.769H36.882V396.811C37.919 396.59 38.905 396.318 39.721 396.029L38.82 394.992C37.222 395.587 34.485 396.165 32.105 396.522C32.275 396.828 32.445 397.27 32.513 397.576C33.516 397.44 34.587 397.27 35.641 397.066V399.769H32.003V400.976H35.641V403.951C34.162 404.257 32.785 404.546 31.765 404.716L32.122 405.991C33.142 405.77 34.366 405.481 35.641 405.209V408.66C35.641 408.966 35.539 409.051 35.233 409.051C34.944 409.068 33.941 409.085 32.853 409.034C33.04 409.391 33.261 409.969 33.329 410.309C34.706 410.309 35.624 410.275 36.151 410.071C36.678 409.867 36.882 409.493 36.882 408.677V404.903C37.919 404.665 38.973 404.427 40.01 404.172L39.925 403.033C38.922 403.254 37.885 403.475 36.882 403.696V400.976H40.877C41.098 402.812 41.421 404.495 41.829 405.906C40.622 407.028 39.228 407.963 37.8 408.66C38.123 408.932 38.48 409.357 38.667 409.663C39.942 409 41.149 408.15 42.254 407.164C43.036 409.153 44.056 410.343 45.399 410.343C46.674 410.343 47.116 409.527 47.354 406.722C46.997 406.603 46.555 406.314 46.283 406.042C46.181 408.218 45.977 409.085 45.518 409.085C44.668 409.085 43.903 407.997 43.257 406.212C44.447 405.005 45.45 403.662 46.215 402.217L45.093 401.758ZM51.876 394.873C51.145 397.474 50.006 400.075 48.663 401.792C48.884 402.081 49.241 402.778 49.343 403.067C49.751 402.54 50.142 401.945 50.516 401.282V410.292H51.74V398.817C52.233 397.661 52.692 396.42 53.032 395.196L51.876 394.873ZM53.78 410.309H55.004V398.188H53.78V410.309ZM54.477 395.315C55.242 396.352 56.092 397.78 56.449 398.63L57.486 398.035C57.095 397.185 56.211 395.808 55.463 394.788L54.477 395.315ZM63.606 395.4H57.775V396.556H62.365V408.677C62.365 408.966 62.28 409.051 61.991 409.068C61.719 409.085 60.784 409.102 59.815 409.051C59.985 409.391 60.172 409.935 60.223 410.258C61.549 410.258 62.416 410.241 62.926 410.037C63.419 409.833 63.606 409.476 63.606 408.694V395.4ZM68.519 403.356H71.596V405.056H68.519V403.356ZM71.596 398.154V399.65H68.519V398.154H71.596ZM68.519 400.67H71.596V402.336H68.519V400.67ZM74.01 405.056H72.769V398.154H74.01V397.015H72.769V394.958H71.596V397.015H68.519V394.958H67.363V397.015H65.935V398.154H67.363V405.056H65.714V406.195H74.01V405.056ZM68.06 406.552C67.55 407.674 66.666 408.813 65.731 409.578C66.037 409.748 66.513 410.105 66.751 410.309C67.686 409.476 68.655 408.184 69.267 406.875L68.06 406.552ZM70.474 407.079C71.154 407.878 71.919 408.983 72.225 409.663L73.245 409.068C72.922 408.371 72.14 407.317 71.46 406.552L70.474 407.079ZM75.999 403.441C76.016 402.863 76.033 402.285 76.033 401.758V400.619H79.501V403.441H75.999ZM79.501 396.777V399.48H76.033V396.777H79.501ZM80.725 395.621H74.843V401.758C74.843 404.189 74.707 407.402 73.296 409.646C73.585 409.765 74.095 410.156 74.299 410.394C75.319 408.762 75.744 406.603 75.914 404.58H79.501V408.66C79.501 408.932 79.399 409.017 79.144 409.017C78.906 409.034 78.056 409.034 77.155 409.017C77.325 409.34 77.495 409.884 77.546 410.241C78.804 410.241 79.586 410.207 80.079 410.003C80.538 409.799 80.725 409.425 80.725 408.677V395.621ZM86.369 394.822C85.638 396.012 84.125 397.44 82.799 398.307C83.003 398.562 83.309 399.038 83.445 399.327C84.941 398.324 86.573 396.726 87.559 395.281L86.369 394.822ZM86.658 398.545C85.689 400.296 84.057 402.03 82.544 403.135C82.765 403.441 83.105 404.087 83.224 404.376C83.887 403.849 84.55 403.203 85.179 402.506V410.292H86.403V401.061C86.913 400.398 87.389 399.701 87.763 398.987L86.658 398.545ZM89.089 405.532C89.871 406.416 90.721 407.691 91.078 408.507L92.149 407.878C91.775 407.062 90.891 405.838 90.109 404.954L89.089 405.532ZM98.303 401.452V400.279H93.543V398.12H97.419V396.964H93.543V394.856H92.302V396.964H88.579V398.12H92.302V400.279H87.593V401.452H94.665V403.322H87.78V404.478H94.665V408.762C94.665 409 94.597 409.068 94.308 409.085C94.053 409.102 93.118 409.102 92.098 409.068C92.268 409.425 92.455 409.918 92.506 410.275C93.815 410.275 94.699 410.275 95.226 410.071C95.753 409.867 95.906 409.527 95.906 408.762V404.478H98.184V403.322H95.906V401.452H98.303ZM110.543 404.937H100.037V406.161H110.543V404.937ZM103.454 401.367C103.675 400.449 103.896 399.395 104.134 398.324H113.824V397.117H104.372C104.508 396.488 104.61 395.859 104.729 395.281L103.454 395.145C103.046 397.474 102.366 400.67 101.839 402.54L102.893 402.557H112.685C112.294 406.45 111.869 408.201 111.223 408.694C111.036 408.881 110.781 408.898 110.356 408.898C109.863 408.898 108.554 408.898 107.228 408.779C107.483 409.119 107.67 409.646 107.704 410.02C108.894 410.105 110.118 410.122 110.73 410.088C111.444 410.054 111.886 409.935 112.311 409.493C113.076 408.762 113.552 406.824 114.028 401.979C114.062 401.809 114.079 401.367 114.079 401.367H103.454ZM130.365 397.474C130.093 398.086 129.787 398.715 129.549 399.14L130.62 399.361C131.045 398.681 131.555 397.525 131.997 396.556L131.13 396.318L130.926 396.369H124.568C124.772 395.944 124.959 395.519 125.129 395.094L123.956 394.805C123.395 396.403 122.409 397.95 121.253 398.953C121.525 399.14 122.001 399.531 122.205 399.752C122.834 399.14 123.446 398.358 123.973 397.474H130.365ZM128.614 399.888C129.447 400.942 130.314 402.387 130.688 403.339L131.776 402.778C131.385 401.843 130.501 400.432 129.634 399.412L128.614 399.888ZM126.489 406.943C126.013 406.11 124.942 404.886 124.007 404.019L123.038 404.58C123.956 405.481 125.01 406.739 125.435 407.555L126.489 406.943ZM123.939 399.446C123.48 400.619 122.698 401.809 121.814 402.608C122.086 402.778 122.545 403.118 122.766 403.322C123.65 402.455 124.534 401.112 125.095 399.769L123.939 399.446ZM127.679 398.052H126.455V403.016C126.455 403.203 126.404 403.254 126.183 403.254C125.979 403.271 125.282 403.271 124.483 403.254C124.636 403.577 124.823 404.019 124.891 404.359C125.962 404.359 126.642 404.359 127.084 404.155C127.56 403.968 127.679 403.662 127.679 403.033V398.052ZM118.057 409.612C118.686 408.575 119.281 406.977 119.723 405.872L118.584 405.413C118.21 406.518 117.547 408.065 116.867 409.068L118.057 409.612ZM120.709 394.737C119.74 396.624 118.21 398.494 116.646 399.667C116.901 399.905 117.309 400.415 117.479 400.653C118.023 400.194 118.584 399.65 119.111 399.055V404.444H120.335V397.542C120.896 396.76 121.423 395.944 121.831 395.111L120.709 394.737ZM123.072 408.813C121.95 408.813 121.746 408.728 121.746 408.235V405.311H120.488V408.252C120.488 409.629 121.015 409.986 123.004 409.986H127.067C128.75 409.986 129.158 409.459 129.328 407.317C128.971 407.249 128.444 407.062 128.155 406.841C128.07 408.558 127.917 408.813 126.982 408.813H123.072ZM129.022 405.532C129.787 406.739 130.569 408.371 130.807 409.408L132.014 408.915C131.725 407.878 130.926 406.314 130.127 405.107L129.022 405.532ZM146.719 397.253V398.494H144.169V397.253H146.719ZM146.719 400.789H144.169V399.531H146.719V400.789ZM142.979 398.494H138.61V399.531H142.979V400.789H139.596V401.809H142.979V403.084H139.477V404.053H142.979V405.43H138.763V406.467H142.979V408.15H144.169V406.467H148.81V405.43H144.169V404.053H148.181V403.084H144.169V401.809H147.858V399.531H149.031V398.494H147.858V396.25H144.169V394.856H142.979V396.25H139.715V397.253H142.979V398.494ZM137.981 400.517L137.76 400.551H136.553C137.301 399.14 138.202 397.338 138.916 395.842H134.139V396.964H137.114C136.349 398.596 135.414 400.432 134.683 401.673H137.437C137.216 403.203 136.876 404.529 136.417 405.668C135.975 404.988 135.601 404.155 135.312 403.152L134.377 403.526C134.785 404.869 135.278 405.94 135.907 406.79C135.295 407.861 134.547 408.728 133.68 409.34C133.969 409.51 134.411 409.952 134.615 410.207C135.414 409.578 136.111 408.762 136.723 407.725C138.474 409.442 140.939 409.884 144.084 409.884H148.827C148.895 409.544 149.116 409 149.303 408.711C148.436 408.728 144.781 408.728 144.118 408.728C141.228 408.728 138.882 408.354 137.233 406.688C137.93 405.107 138.423 403.135 138.695 400.721L137.981 400.517ZM161.526 396.981C161.288 396.386 160.778 395.485 160.285 394.771L159.214 395.213C159.639 395.91 160.166 396.879 160.387 397.474L161.526 396.981ZM154.403 394.839C153.536 397.406 152.142 399.939 150.612 401.588C150.833 401.877 151.19 402.489 151.309 402.761C151.853 402.115 152.414 401.384 152.924 400.568V410.36H154.097V398.528C154.641 397.457 155.134 396.318 155.525 395.179L154.403 394.839ZM163.77 405.906V408.592H157.395V405.906H163.77ZM156.29 410.309H157.395V409.646H163.77V410.258H164.892V404.852H156.29V410.309ZM156.528 403.424H164.722V402.387H156.528V403.424ZM164.722 400.007H156.528V401.044H164.722V400.007ZM155.304 397.576V398.647H166.065V397.576H155.304ZM175.126 394.499C173.511 396.726 170.604 398.511 167.646 399.514C167.867 399.786 168.241 400.347 168.394 400.619C170.91 399.599 173.46 398.086 175.296 396.114C177.183 397.899 180.073 399.599 182.453 400.449C182.64 400.143 183.031 399.633 183.303 399.395C180.77 398.613 177.727 396.947 176.027 395.281C176.112 395.179 176.214 395.06 176.299 394.941L175.126 394.499ZM179.733 400.636L179.546 400.687H169.992V401.809H178.713C178.067 402.693 177.183 403.645 176.384 404.291C176.673 404.444 177.081 404.699 177.336 404.903C178.441 403.968 179.818 402.472 180.583 401.18L179.733 400.636ZM173.188 403.747C174.293 404.699 175.551 406.042 176.095 406.96L177.081 406.229C176.52 405.311 175.228 404.002 174.123 403.101L173.188 403.747ZM177.064 399.514C176.571 398.97 175.551 398.273 174.684 397.814L173.936 398.545C174.803 399.021 175.806 399.752 176.265 400.296L177.064 399.514ZM168.87 409.51C169.618 408.354 170.196 406.552 170.553 405.175L169.465 404.801C169.125 406.127 168.513 407.861 167.765 408.949L168.87 409.51ZM174.123 408.728C173.035 408.728 172.848 408.643 172.848 408.133V404.682H171.607V408.133C171.607 409.51 172.117 409.884 174.055 409.884H177.965C179.563 409.884 179.954 409.357 180.141 407.232C179.784 407.147 179.274 406.96 178.968 406.756C178.9 408.456 178.747 408.728 177.863 408.728H174.123ZM179.665 404.988C180.634 406.297 181.654 408.099 182.062 409.255L183.201 408.728C182.793 407.589 181.705 405.855 180.736 404.546L179.665 404.988ZM189.797 408.966C188.743 407.725 187.213 406.178 185.989 405.192L184.884 406.161C186.091 407.147 187.553 408.592 188.641 409.952L189.797 408.966ZM204.077 395.723V405.362H205.369V396.981H213.546V405.362H214.872V395.723H204.077ZM208.701 398.562C208.548 404.529 208.31 407.759 201.867 409.221C202.105 409.476 202.462 409.986 202.581 410.309C209.381 408.643 209.823 404.971 210.01 398.562H208.701ZM209.789 403.917V408.133C209.789 409.527 210.299 409.884 211.931 409.884H214.957C216.487 409.884 216.878 409.255 217.031 406.62C216.691 406.535 216.164 406.331 215.875 406.11C215.79 408.388 215.671 408.711 214.855 408.711H212.033C211.2 408.711 211.03 408.626 211.03 408.116V403.917H209.789ZM233.963 402.965V401.724H227.129V398.8H232.79V397.559H227.129V394.788H225.82V397.559H220.329V398.8H225.82V401.724H219.105V402.965H225.106C223.576 405.158 221.009 407.266 218.646 408.32C218.935 408.558 219.343 409.051 219.564 409.357C221.791 408.235 224.171 406.212 225.82 403.951V410.309H227.129V403.883C228.778 406.144 231.192 408.252 233.436 409.374C233.657 409.034 234.065 408.541 234.354 408.303C231.991 407.266 229.407 405.141 227.86 402.965H233.963ZM251.014 403.475V402.268H244.146V398.035H250.3V396.828H244.146V394.788H242.837V396.828H236.819V398.035H242.837V402.268H236.02V403.475H241.987C240.44 405.549 237.941 407.538 235.663 408.524C235.935 408.779 236.343 409.255 236.547 409.561C238.774 408.456 241.188 406.416 242.837 404.172V410.292H244.146V404.138C245.795 406.382 248.226 408.507 250.487 409.629C250.691 409.289 251.099 408.813 251.371 408.558C249.076 407.572 246.56 405.549 245.013 403.475H251.014ZM238.196 398.851C238.859 399.837 239.505 401.214 239.726 402.064L240.916 401.605C240.678 400.721 239.981 399.412 239.301 398.426L238.196 398.851ZM247.172 402.098C247.784 401.265 248.532 399.922 249.127 398.766L247.835 398.358C247.427 399.378 246.696 400.823 246.118 401.741L247.172 402.098ZM255.298 404.852C253.887 404.852 252.714 406.008 252.714 407.436C252.714 408.864 253.887 410.037 255.298 410.037C256.743 410.037 257.899 408.864 257.899 407.436C257.899 406.008 256.743 404.852 255.298 404.852ZM255.298 409.17C254.363 409.17 253.581 408.405 253.581 407.436C253.581 406.501 254.363 405.719 255.298 405.719C256.267 405.719 257.015 406.501 257.015 407.436C257.015 408.405 256.267 409.17 255.298 409.17Z" fill="#0A0A10"/>
<path d="M85.624 476.856C85.24 477.848 84.728 478.744 84.104 479.512C83.304 478.856 82.488 478.2 81.784 477.64L80.744 478.488C81.48 479.112 82.328 479.816 83.144 480.52C82.184 481.384 81.08 482.04 79.912 482.456C80.2 482.744 80.568 483.288 80.744 483.656C82.008 483.16 83.208 482.44 84.2 481.48C85.096 482.296 85.896 483.048 86.44 483.64L87.576 482.584C86.984 481.992 86.12 481.224 85.192 480.44C86.2 479.208 86.968 477.672 87.416 475.8L86.488 475.48L86.232 475.528H80.584V473.944C83.144 473.816 85.96 473.528 87.992 472.968L86.744 471.784C84.952 472.28 81.816 472.568 79.112 472.696V476.168C79.112 478.12 78.952 480.728 77.464 482.568C77.816 482.728 78.456 483.16 78.728 483.416C80.168 481.624 80.52 478.952 80.568 476.856H85.624ZM77.576 474.536C77.08 473.896 76.056 472.824 75.304 472.072L74.12 472.84C74.856 473.64 75.848 474.76 76.328 475.432L77.576 474.536ZM77.192 477.4H73.8V478.792H75.704V483.064C75.048 483.304 74.28 483.896 73.512 484.696L74.52 486.12C75.16 485.224 75.832 484.264 76.312 484.264C76.696 484.264 77.224 484.744 77.976 485.128C79.128 485.72 80.536 485.896 82.488 485.896C84.088 485.896 86.792 485.8 87.928 485.72C87.976 485.288 88.2 484.552 88.376 484.152C86.776 484.36 84.312 484.488 82.536 484.488C80.76 484.488 79.32 484.392 78.232 483.832C77.8 483.592 77.48 483.368 77.192 483.224V477.4ZM98.616 480.472H95.208V477.208H98.616V480.472ZM93.8 475.896V481.768H100.104V475.896H93.8ZM91.864 484.008V473.704H102.088V484.008H91.864ZM90.328 472.184V486.264H91.864V485.4H102.088V486.264H103.688V472.184H90.328ZM109.368 475.832H110.84V474.28H115.08V475.832H116.568V474.28H119.848V472.952H116.568V471.592H115.08V472.952H110.84V471.592H109.368V472.952H106.104V474.28H109.368V475.832ZM108.952 480.44V478.056H112.152V479.528C112.152 479.832 112.136 480.136 112.104 480.44H108.952ZM117.08 478.056V480.44H113.656C113.688 480.136 113.704 479.848 113.704 479.544V478.056H117.08ZM120.072 481.816V480.44H118.584V476.76H113.704V475.032H112.152V476.76H107.528V480.44H105.928V481.816H111.672C110.968 483.112 109.352 484.264 105.608 485.048C105.944 485.368 106.36 485.976 106.536 486.296C110.408 485.384 112.264 484.024 113.096 482.44C114.392 484.568 116.456 485.784 119.544 486.296C119.736 485.88 120.136 485.256 120.472 484.92C117.512 484.552 115.448 483.56 114.28 481.816H120.072ZM132.072 475.768C131.352 477.736 130.36 479.368 129.064 480.712C127.704 479.304 126.632 477.656 125.864 475.768H132.072ZM136.216 475.768V474.328H129.032L130.456 473.88C130.248 473.224 129.736 472.2 129.272 471.448L127.704 471.912C128.136 472.664 128.584 473.672 128.776 474.328H121.848V475.768H124.312C125.208 478.104 126.392 480.104 127.944 481.752C126.248 483.144 124.152 484.136 121.576 484.824C121.88 485.176 122.328 485.864 122.504 486.248C125.096 485.448 127.272 484.328 129.048 482.824C130.776 484.328 132.904 485.464 135.448 486.152C135.688 485.72 136.12 485.096 136.456 484.776C133.992 484.168 131.912 483.128 130.2 481.736C131.704 480.136 132.888 478.184 133.736 475.768H136.216ZM145.816 484.28V480.744H150.616V479.304H145.816V476.12H151.32V474.664H146.232L147.016 474.104C146.36 473.352 145.048 472.28 144.024 471.592L142.808 472.44C143.688 473.064 144.728 473.96 145.384 474.664H138.664V476.12H144.184V479.304H139.432V480.744H144.184V484.28H137.944V485.736H152.12V484.28H145.816ZM155.656 475.496V482.872H157.176V476.872H164.968V482.824H166.552V475.496H160.824C161.08 474.968 161.368 474.376 161.624 473.768H167.912V472.392H154.216V473.768H159.928C159.784 474.344 159.56 474.968 159.336 475.496H155.656ZM161.816 477.72H160.28V480.568C160.28 482.184 159.512 483.976 153.816 485.08C154.152 485.384 154.552 485.944 154.728 486.296C160.776 485 161.816 482.808 161.816 480.584V477.72ZM161.64 483.304C163.48 484.136 165.896 485.432 167.048 486.312L167.976 485.128C166.744 484.28 164.296 483.032 162.504 482.296L161.64 483.304Z" fill="#0A0A10"/>
<path d="M176 478C175.448 478 175 478.448 175 479C175 479.552 175.448 480 176 480V478ZM190.707 479.707C191.098 479.317 191.098 478.683 190.707 478.293L184.343 471.929C183.953 471.538 183.319 471.538 182.929 471.929C182.538 472.319 182.538 472.953 182.929 473.343L188.586 479L182.929 484.657C182.538 485.047 182.538 485.681 182.929 486.071C183.319 486.462 183.953 486.462 184.343 486.071L190.707 479.707ZM176 480H190V478H176V480Z" fill="#0A0A10"/>
<rect x="31.5" y="458.5" width="200" height="41" rx="20.5" stroke="#0A0A10"/>
<ellipse cx="601.643" cy="361.5" rx="138.155" ry="138.5" fill="url(#paint0_linear_4694_10641)"/>
<ellipse cx="728.745" cy="361.5" rx="138.155" ry="138.5" fill="url(#paint1_linear_4694_10641)"/>
<ellipse cx="855.848" cy="361.5" rx="138.155" ry="138.5" fill="url(#paint2_linear_4694_10641)"/>
<defs>
<linearGradient id="paint0_linear_4694_10641" x1="739.798" y1="361.318" x2="601.824" y2="361.318" gradientUnits="userSpaceOnUse">
<stop stop-color="#FD4C1B"/>
<stop offset="0.5" stop-color="#FD4C1B" stop-opacity="0.44"/>
<stop offset="1" stop-color="#FD4C1B" stop-opacity="0"/>
</linearGradient>
<linearGradient id="paint1_linear_4694_10641" x1="866.9" y1="361.318" x2="728.927" y2="361.318" gradientUnits="userSpaceOnUse">
<stop stop-color="#FD4C1B"/>
<stop offset="0.5" stop-color="#FD4C1B" stop-opacity="0.44"/>
<stop offset="1" stop-color="#FD4C1B" stop-opacity="0"/>
</linearGradient>
<linearGradient id="paint2_linear_4694_10641" x1="994.003" y1="361.318" x2="856.029" y2="361.318" gradientUnits="userSpaceOnUse">
<stop stop-color="#FD4C1B"/>
<stop offset="0.5" stop-color="#FD4C1B" stop-opacity="0.44"/>
<stop offset="1" stop-color="#FD4C1B" stop-opacity="0"/>
</linearGradient>
</defs>
</svg>
