<svg width="72" height="25" viewBox="0 0 72 25" fill="none" xmlns="http://www.w3.org/2000/svg">
<g clip-path="url(#clip0_861_3238)">
<path d="M25.3333 12.3645C25.3333 19.193 19.6617 24.729 12.6667 24.729C5.67167 24.729 0 19.193 0 12.3645C0 5.53599 5.67167 0 12.6667 0C19.6617 0 25.3333 5.53599 25.3333 12.3645Z" fill="#FD4C1B"/>
<path d="M47.7708 12.9086C46.7158 11.865 45.0208 11.133 42.6875 10.7159L39.0208 10.0565C37.8874 9.85867 37.0758 9.54543 36.5874 9.1168C36.0991 8.68816 35.8541 8.12269 35.8541 7.41874C35.8541 6.54004 36.2158 5.81466 36.9374 5.24259C37.6591 4.67053 38.6758 4.38532 39.9874 4.38532C40.9658 4.38532 41.8141 4.55513 42.5374 4.89639C43.2591 5.23765 43.8091 5.69266 44.1875 6.26472C44.5658 6.83679 44.7541 7.46325 44.7541 8.14413H49.1875C49.1875 6.64885 48.8258 5.32997 48.1041 4.18749C47.3825 3.04501 46.3258 2.14323 44.9375 1.48379C43.5491 0.824349 41.8991 0.494629 39.9874 0.494629C38.2091 0.494629 36.6758 0.796322 35.3874 1.40136C34.0991 2.00639 33.1158 2.83069 32.4374 3.87426C31.7591 4.91782 31.4208 6.09986 31.4208 7.41874C31.4208 9.15472 31.9158 10.5395 32.9041 11.5732C33.8924 12.6069 35.3974 13.3092 37.4208 13.6834L41.3541 14.4088C42.5991 14.6281 43.5041 14.9809 44.0708 15.4639C44.6374 15.9469 44.9208 16.5635 44.9208 17.3103C44.9208 18.2121 44.5375 18.9424 43.7708 19.503C43.0041 20.0635 41.8541 20.3438 40.3208 20.3438C39.2758 20.3438 38.3824 20.1789 37.6374 19.8492C36.8924 19.5195 36.3258 19.0694 35.9374 18.4973C35.5758 17.9681 35.3858 17.3895 35.3591 16.7646H30.9258C30.9508 18.1346 31.3241 19.3777 32.0541 20.4921C32.8091 21.6461 33.8924 22.5578 35.3041 23.2288C36.7158 23.8998 38.3874 24.2344 40.3208 24.2344C42.2541 24.2344 43.8708 23.9377 45.2374 23.3442C46.6041 22.7507 47.6308 21.9264 48.3208 20.8713C49.0091 19.8162 49.3541 18.6292 49.3541 17.3103C49.3541 15.4194 48.8258 13.9538 47.7708 12.9086Z" fill="white"/>
<path d="M69.4783 12.968C70.5183 11.7414 71.0449 10.2445 71.0449 8.52007C71.0449 7.10722 70.6816 5.80647 69.9666 4.6574C69.2516 3.50833 68.2083 2.595 66.8699 1.94381C65.53 1.29261 63.8483 0.962891 62.0416 0.962891H53.1133V24.2345H57.1683V16.1119H61.0383L66.3333 24.2345H71.0049L65.2983 15.6008C67.0416 15.0699 68.4483 14.183 69.4766 12.968H69.4783ZM62.3216 4.74148C63.1999 4.74148 64.6149 4.8371 65.5299 5.55094C66.3966 6.22686 66.8883 7.07589 66.8883 8.52171C66.8883 9.96753 66.3383 10.9006 65.3766 11.5156C64.415 12.1288 62.785 12.2096 62.0633 12.2096H57.1683V4.74148H62.3216Z" fill="white"/>
</g>
<defs>
<clipPath id="clip0_861_3238">
<rect width="71.045" height="24.729" fill="white"/>
</clipPath>
</defs>
</svg>
