<?xml version="1.0" encoding="UTF-8"?>
<svg width="86px" height="30px" viewBox="0 0 86 30" version="1.1" xmlns="http://www.w3.org/2000/svg" xmlns:xlink="http://www.w3.org/1999/xlink">
    <title>logo-white</title>
    <g id="Page-1" stroke="none" stroke-width="1" fill="none" fill-rule="evenodd">
        <g id="logo-white" fill="#FFFFFF" fill-rule="nonzero">
            <path d="M30.4,15 C30.4,23.284 23.594,30 15.2,30 C6.806,30 0,23.284 0,15 C0,6.716 6.806,0 15.2,0 C23.594,0 30.4,6.716 30.4,15 Z" id="Path"></path>
            <path d="M57.3261,15.6601 C56.0601,14.3941 54.0261,13.5061 51.2261,13.0001 L46.8261,12.2001 C45.4661,11.9601 44.4921,11.5801 43.9061,11.0601 C43.3201,10.5401 43.0261,9.8541 43.0261,9.0001 C43.0261,7.9341 43.4601,7.0541 44.3261,6.3601 C45.1921,5.6661 46.4121,5.3201 47.9861,5.3201 C49.1601,5.3201 50.1781,5.5261 51.0461,5.9401 C51.9121,6.3541 52.5721,6.9061 53.0261,7.600098 C53.4801,8.2941 53.7061,9.0541 53.7061,9.8801 L59.0261,9.8801 C59.0261,8.0661 58.5921,6.4661 57.7261,5.0801 C56.8601,3.6941 55.5921,2.600098 53.9261,1.8001 C52.2601,1.0001 50.2801,0.600098 47.9861,0.600098 C45.8521,0.600098 44.0121,0.966098 42.4661,1.7001 C40.9201,2.4341 39.7401,3.4341 38.9261,4.7001 C38.1121,5.9661 37.7061,7.4001 37.7061,9.0001 C37.7061,11.1061 38.3001,12.7861 39.4861,14.0401 C40.6721,15.2941 42.4781,16.1461 44.9061,16.600098 L49.6261,17.4801 C51.1201,17.7461 52.2061,18.1741 52.8861,18.7601 C53.5661,19.3461 53.9061,20.0941 53.9061,21.0001 C53.9061,22.0941 53.4461,22.9801 52.5261,23.6601 C51.6061,24.3401 50.2261,24.6801 48.3861,24.6801 C47.1321,24.6801 46.0601,24.4801 45.1661,24.0801 C44.2721,23.6801 43.5921,23.1341 43.1261,22.4401 C42.6921,21.7981 42.4641,21.0961 42.4321,20.3381 L37.1121,20.3381 C37.1421,22.0001 37.5901,23.5081 38.4661,24.8601 C39.3721,26.2601 40.6721,27.3661 42.3661,28.1801 C44.0601,28.9941 46.0661,29.4001 48.3861,29.4001 C50.7061,29.4001 52.6461,29.0401 54.2861,28.3201 C55.9261,27.600098 57.1581,26.600098 57.9861,25.3201 C58.8121,24.0401 59.2261,22.600098 59.2261,21.0001 C59.2261,18.7061 58.5921,16.9281 57.3261,15.6601 Z" id="Path"></path>
            <path d="M83.374,15.732 C84.622,14.244 85.254,12.428 85.254,10.336 C85.254,8.62197 84.818,7.04397 83.96,5.64997 C83.102,4.25597 81.85,3.14797 80.244,2.35797 C78.636,1.56797 76.618,1.16797 74.45,1.16797 L63.736,1.16797 L63.736,29.4 L68.602,29.4 L68.602,19.546 L73.246,19.546 L79.6,29.4 L85.206,29.4 L78.358,18.926 C80.45,18.282 82.138,17.206 83.372,15.732 L83.374,15.732 Z M74.786,5.75197 C75.84,5.75197 77.538,5.86797 78.636,6.73397 C79.676,7.55397 80.266,8.58397 80.266,10.338 C80.266,12.092 79.606,13.224 78.452,13.97 C77.298,14.714 75.342,14.812 74.476,14.812 L68.602,14.812 L68.602,5.75197 L74.786,5.75197 Z" id="Shape"></path>
        </g>
    </g>
</svg>