<svg width="86" height="30" viewBox="0 0 86 30" fill="none" xmlns="http://www.w3.org/2000/svg">
<g clip-path="url(#clip0_1101_1251)">
<path d="M30.4 15C30.4 23.284 23.594 30 15.2 30C6.806 30 0 23.284 0 15C0 6.716 6.806 0 15.2 0C23.594 0 30.4 6.716 30.4 15Z" fill="#FD4C1B"/>
<path d="M57.3261 15.6601C56.0601 14.3941 54.0261 13.5061 51.2261 13.0001L46.8261 12.2001C45.4661 11.9601 44.4921 11.5801 43.9061 11.0601C43.3201 10.5401 43.0261 9.8541 43.0261 9.0001C43.0261 7.9341 43.4601 7.0541 44.3261 6.3601C45.1921 5.6661 46.4121 5.3201 47.9861 5.3201C49.1601 5.3201 50.1781 5.5261 51.0461 5.9401C51.9121 6.3541 52.5721 6.9061 53.0261 7.6001C53.4801 8.2941 53.7061 9.0541 53.7061 9.8801H59.0261C59.0261 8.0661 58.5921 6.4661 57.7261 5.0801C56.8601 3.6941 55.5921 2.6001 53.9261 1.8001C52.2601 1.0001 50.2801 0.600098 47.9861 0.600098C45.8521 0.600098 44.0121 0.966098 42.4661 1.7001C40.9201 2.4341 39.7401 3.4341 38.9261 4.7001C38.1121 5.9661 37.7061 7.4001 37.7061 9.0001C37.7061 11.1061 38.3001 12.7861 39.4861 14.0401C40.6721 15.2941 42.4781 16.1461 44.9061 16.6001L49.6261 17.4801C51.1201 17.7461 52.2061 18.1741 52.8861 18.7601C53.5661 19.3461 53.9061 20.0941 53.9061 21.0001C53.9061 22.0941 53.4461 22.9801 52.5261 23.6601C51.6061 24.3401 50.2261 24.6801 48.3861 24.6801C47.1321 24.6801 46.0601 24.4801 45.1661 24.0801C44.2721 23.6801 43.5921 23.1341 43.1261 22.4401C42.6921 21.7981 42.4641 21.0961 42.4321 20.3381H37.1121C37.1421 22.0001 37.5901 23.5081 38.4661 24.8601C39.3721 26.2601 40.6721 27.3661 42.3661 28.1801C44.0601 28.9941 46.0661 29.4001 48.3861 29.4001C50.7061 29.4001 52.6461 29.0401 54.2861 28.3201C55.9261 27.6001 57.1581 26.6001 57.9861 25.3201C58.8121 24.0401 59.2261 22.6001 59.2261 21.0001C59.2261 18.7061 58.5921 16.9281 57.3261 15.6601Z" fill="#0A0A10"/>
<path d="M83.374 15.732C84.622 14.244 85.254 12.428 85.254 10.336C85.254 8.62197 84.818 7.04397 83.96 5.64997C83.102 4.25597 81.85 3.14797 80.244 2.35797C78.636 1.56797 76.618 1.16797 74.45 1.16797H63.736V29.4H68.602V19.546H73.246L79.6 29.4H85.206L78.358 18.926C80.45 18.282 82.138 17.206 83.372 15.732H83.374ZM74.786 5.75197C75.84 5.75197 77.538 5.86797 78.636 6.73397C79.676 7.55397 80.266 8.58397 80.266 10.338C80.266 12.092 79.606 13.224 78.452 13.97C77.298 14.714 75.342 14.812 74.476 14.812H68.602V5.75197H74.786Z" fill="#0A0A10"/>
</g>
<defs>
<clipPath id="clip0_1101_1251">
<rect width="85.254" height="30" fill="white"/>
</clipPath>
</defs>
</svg>
