<svg width="25" height="25" viewBox="0 0 25 25" fill="none" xmlns="http://www.w3.org/2000/svg">
  <rect width="25" height="25" rx="12.5" fill="black"/>
  <path d="M14.4206 8.2733L18.6118 5.56453C18.9173 5.36698 19.282 5.71308 19.1012 6.0284L16.6188 10.3575C16.5018 10.5615 16.6173 10.8198 16.8468 10.8692L21.726 11.9174C22.0816 11.9938 22.0948 12.4964 21.7438 12.5914L16.9273 13.8975C16.7005 13.959 16.5991 14.2235 16.7267 14.4206L19.4355 18.6118C19.633 18.9173 19.2869 19.282 18.9716 19.1011L14.6425 16.6188C14.4385 16.5018 14.1802 16.6173 14.1308 16.8468L13.0826 21.726C13.0062 22.0816 12.5036 22.0949 12.4086 21.7438L11.1025 16.9273C11.041 16.7005 10.7765 16.5991 10.5794 16.7267L6.38817 19.4355C6.08272 19.633 5.71801 19.2869 5.89885 18.9716L8.38119 14.6425C8.4982 14.4385 8.3827 14.1802 8.15324 14.1308L3.27405 13.0826C2.91845 13.0062 2.90515 12.5036 3.25618 12.4086L8.07271 11.1025C8.29952 11.041 8.40095 10.7765 8.2733 10.5794L5.56454 6.38818C5.36698 6.08273 5.71308 5.71801 6.02841 5.89885L10.3575 8.38119C10.5615 8.4982 10.8198 8.38271 10.8692 8.15325L11.9174 3.27405C11.9938 2.91845 12.4964 2.90515 12.5914 3.25619L13.8975 8.0727C13.9591 8.29951 14.2235 8.40095 14.4206 8.2733Z" fill="white"/>
</svg>
