<svg width="25" height="25" viewBox="0 0 25 25" fill="none" xmlns="http://www.w3.org/2000/svg">
<path d="M24.8007 13.3855C24.7259 13.2806 24.6287 13.1935 24.5163 13.1306C24.4066 13.061 24.2825 13.0174 24.1534 13.0031C24.0276 12.9738 23.8967 12.9738 23.7709 13.0031L23.1532 13.1502L21.7802 13.4934L21.3192 13.6503C20.9659 13.295 20.6684 12.8883 20.4367 12.4441C20.5832 12.1582 20.7644 11.8914 20.976 11.6497L21.329 11.2771C21.9861 11.4634 22.6334 11.6203 23.1532 11.7478L23.7709 11.8949C23.8962 11.9269 24.0265 11.9339 24.1544 11.9154C24.2823 11.8968 24.4053 11.8532 24.5163 11.787C24.7341 11.6556 24.8924 11.4446 24.9576 11.1986C24.9667 11.1171 24.9667 11.0349 24.9576 10.9534C24.9569 10.7368 24.8845 10.5264 24.7516 10.3552C24.6203 10.1874 24.4378 10.0669 24.2319 10.012L23.6533 9.86488H23.4964L22.8491 9.70797L23.4179 9.14898L23.869 8.71748C23.9668 8.63266 24.0468 8.52934 24.1044 8.41347C24.1546 8.29557 24.1813 8.16897 24.1829 8.04081C24.1844 7.91331 24.1611 7.78672 24.1142 7.66815C24.0645 7.5493 23.9949 7.43985 23.9082 7.34453C23.8159 7.25619 23.71 7.18333 23.5944 7.12878C23.4751 7.08306 23.3493 7.05657 23.2218 7.05032C23.0946 7.05239 22.9687 7.07559 22.8491 7.11897C22.7279 7.16856 22.6179 7.24192 22.5255 7.33472L22.0646 7.77602L21.0839 8.75671L20.7603 9.11956C20.2781 8.99069 19.8184 8.78896 19.3971 8.52135C19.3814 8.19289 19.4045 7.86373 19.4658 7.54066L19.5933 7.04051C20.2503 6.8738 20.8877 6.68747 21.3977 6.53056L22.0155 6.35404C22.2648 6.2841 22.4763 6.11841 22.6039 5.89311C22.7284 5.66891 22.7601 5.40488 22.6922 5.1576C22.6697 5.07837 22.6368 5.00251 22.5942 4.93204C22.4937 4.74135 22.3359 4.587 22.143 4.49074C21.9365 4.41975 21.7121 4.41975 21.5056 4.49074L20.8682 4.67707L20.1425 4.88301L20.3484 4.1475C20.417 3.90233 20.4857 3.69639 20.5347 3.51986C20.5541 3.39311 20.5541 3.26415 20.5347 3.1374C20.5164 3.01064 20.4766 2.88793 20.417 2.77454C20.3544 2.66484 20.2711 2.56827 20.1718 2.49014C20.073 2.40495 19.9554 2.34445 19.8286 2.31362C19.7062 2.28407 19.5784 2.28407 19.456 2.31362C19.3279 2.32593 19.204 2.3661 19.0931 2.4313C18.9785 2.49078 18.8781 2.57442 18.7989 2.67648C18.7192 2.77887 18.6593 2.89528 18.6224 3.01971C18.6224 3.17662 18.5243 3.36295 18.4458 3.62774C18.3674 3.89252 18.2007 4.49074 18.0634 4.99089L17.9555 5.47142C17.4741 5.5887 16.9799 5.64472 16.4845 5.63813C16.3046 5.36791 16.1627 5.07422 16.0628 4.76533L15.9157 4.27499C16.3963 3.79445 16.8964 3.29431 17.2298 2.92165L17.6711 2.46072C17.8487 2.27649 17.9472 2.03014 17.9457 1.77425C17.942 1.51558 17.8363 1.26883 17.6515 1.08777C17.5984 1.02828 17.5353 0.978504 17.4652 0.940663C17.2749 0.832512 17.054 0.791092 16.8376 0.822986C16.6251 0.854041 16.4287 0.953953 16.2786 1.10738L15.8176 1.57811L15.2979 2.12729L14.9448 0.744529C14.9122 0.620304 14.8556 0.503685 14.7781 0.401292C14.7038 0.29944 14.6106 0.212865 14.5035 0.146312C14.39 0.085138 14.2675 0.0421234 14.1407 0.0188259C14.0144 -0.00627531 13.8845 -0.00627531 13.7582 0.0188259C13.6347 0.0484129 13.5181 0.101699 13.4149 0.175731C13.315 0.256013 13.2289 0.352078 13.16 0.46013C13.0986 0.569222 13.0586 0.689062 13.0423 0.813177C13.0172 0.93943 13.0172 1.06939 13.0423 1.19564C13.0423 1.37217 13.1404 1.57811 13.1992 1.82328L13.5424 3.19624L13.6895 3.65716C13.3355 4.00759 12.9324 4.30489 12.4931 4.53977C12.2058 4.39557 11.9387 4.21422 11.6987 4.0004L11.3261 3.63754C11.5026 2.99029 11.6595 2.34304 11.787 1.82328C11.8459 1.57811 11.8949 1.37217 11.9439 1.20545C11.969 1.0792 11.969 0.949239 11.9439 0.822986C11.9258 0.694806 11.8824 0.571481 11.8164 0.46013C11.7535 0.347668 11.6664 0.250542 11.5615 0.175731C11.4604 0.098172 11.343 0.0445298 11.2182 0.0188259C11.0951 -0.00499278 10.9686 -0.00499278 10.8455 0.0188259C10.7182 0.0404204 10.5955 0.08353 10.4827 0.146312C10.3746 0.21525 10.2786 0.301379 10.1983 0.401292C10.1253 0.506382 10.0691 0.622174 10.0316 0.744529L9.87468 1.39178C9.82891 1.61406 9.77008 1.85923 9.69816 2.12729L8.71748 1.14661C8.63046 1.05196 8.52318 0.978216 8.40365 0.930861C8.28575 0.88061 8.15914 0.853954 8.03099 0.852405C7.90331 0.84865 7.77628 0.872048 7.65832 0.921052C7.53794 0.967727 7.42801 1.03771 7.33474 1.12699C7.24429 1.21757 7.17113 1.32392 7.11896 1.44081C7.06871 1.55871 7.04204 1.68532 7.04049 1.81347C7.03893 1.94097 7.06225 2.06756 7.10914 2.18613C7.15695 2.30302 7.2269 2.40958 7.31511 2.49995L7.75643 2.96087L8.73711 3.99059L9.09996 4.30441C8.96736 4.78835 8.76591 5.25073 8.50176 5.67736C8.1733 5.69325 7.84412 5.67021 7.52107 5.60872L7.02092 5.48123C6.8542 4.82417 6.66785 4.18673 6.51094 3.66697L6.33443 3.05894C6.2989 2.93396 6.23891 2.81729 6.15791 2.7157C6.08225 2.6141 5.98512 2.53039 5.87347 2.47053C5.76008 2.41099 5.63738 2.37119 5.51063 2.35285C5.38437 2.32775 5.25446 2.32775 5.12821 2.35285C5.00597 2.38781 4.89237 2.44793 4.79475 2.52937C4.69547 2.60749 4.61222 2.70406 4.54958 2.81377C4.48146 2.92337 4.44107 3.04791 4.4319 3.17663C4.40261 3.30243 4.40261 3.43329 4.4319 3.55909L4.62805 4.23576L4.8242 4.92224L4.05924 4.70649L3.51005 4.49074C3.38759 4.46119 3.25985 4.46119 3.13739 4.49074C3.00868 4.49991 2.88414 4.54031 2.77454 4.60842C2.66354 4.67324 2.56412 4.7561 2.48035 4.85359C2.39986 4.95413 2.34291 5.07141 2.31365 5.19683C2.2841 5.31929 2.2841 5.44703 2.31365 5.56949C2.32282 5.6982 2.36321 5.82275 2.43133 5.93234C2.49292 6.04557 2.57623 6.14554 2.6765 6.22654C2.77467 6.30497 2.88826 6.36179 3.0099 6.39327L3.62773 6.56979L4.9909 6.96206L5.4616 7.06013C5.58485 7.54392 5.64418 8.04175 5.63812 8.54096C5.36789 8.72087 5.07425 8.86277 4.76536 8.96265L4.27502 9.10975C3.79448 8.61941 3.29433 8.12907 2.92167 7.79564L2.46072 7.35433C2.37568 7.2597 2.26755 7.18874 2.14689 7.14839C2.02791 7.10166 1.90195 7.07514 1.77423 7.06993C1.6465 7.07514 1.52054 7.10166 1.40156 7.14839C1.28386 7.19911 1.1773 7.27241 1.0878 7.36414C1.00117 7.45946 0.931495 7.56892 0.881832 7.68777C0.831581 7.80567 0.80491 7.93227 0.80336 8.06042C0.808004 8.18924 0.838023 8.31587 0.891648 8.43308C0.939002 8.5526 1.01273 8.65988 1.10737 8.7469C1.23486 8.87439 1.3918 9.0313 1.62716 9.24705L2.12732 9.72758L1.32315 9.93353L0.744522 10.0806C0.621845 10.1125 0.505711 10.1657 0.401307 10.2375C0.301394 10.3178 0.215258 10.4139 0.14632 10.5219C0.0820353 10.6341 0.038822 10.7571 0.0188259 10.8848C-0.00499278 11.0079 -0.00499278 11.1344 0.0188259 11.2575C0.0513881 11.3817 0.108015 11.4983 0.185525 11.6007C0.260336 11.7056 0.357499 11.7927 0.469962 11.8557C0.577404 11.9224 0.697675 11.9659 0.822993 11.9832C0.948759 12.0128 1.07971 12.0128 1.20547 11.9832L1.76441 11.8459H1.83307L3.20605 11.5026L3.66694 11.3457C4.0189 11.7022 4.31633 12.1086 4.54958 12.552C4.408 12.8408 4.22644 13.1082 4.01021 13.3463L3.64736 13.719C3.00011 13.5326 2.35283 13.3757 1.83307 13.2482L1.20547 13.1011C1.0824 13.0773 0.955888 13.0773 0.83281 13.1011C0.706054 13.1195 0.583353 13.1593 0.469962 13.2188C0.36191 13.2878 0.265807 13.3739 0.185525 13.4738C0.112516 13.5789 0.0562902 13.6947 0.0188259 13.817C-0.00627531 13.9433 -0.00627531 14.0732 0.0188259 14.1995C0.0369563 14.3277 0.0802905 14.451 0.14632 14.5623C0.215258 14.6704 0.301394 14.7665 0.401307 14.8467C0.505711 14.9186 0.621845 14.9717 0.744522 15.0037L1.39181 15.1606L2.12732 15.3469L1.57814 15.8765L1.09755 16.3374C1.00934 16.4278 0.93945 16.5343 0.891648 16.6512C0.838023 16.7684 0.808004 16.8951 0.80336 17.0239C0.80491 17.152 0.831581 17.2786 0.881832 17.3965C0.924057 17.5191 0.994639 17.63 1.0878 17.7201C1.17817 17.8084 1.28467 17.8783 1.40156 17.9261C1.51877 17.9797 1.64541 18.0097 1.77423 18.0144C1.90087 18.0014 2.02579 17.9751 2.14689 17.9359C2.26579 17.892 2.37313 17.8216 2.46072 17.73L2.92167 17.2887C3.22568 17.0043 3.57873 16.6708 3.90235 16.308L4.22593 15.9451C4.71152 16.073 5.17459 16.2748 5.59891 16.5433C5.61509 16.8722 5.5887 17.2019 5.52044 17.524L5.40277 18.034C4.74571 18.2007 4.10829 18.387 3.58853 18.5439L2.98051 18.7204C2.85509 18.7497 2.73777 18.8067 2.63723 18.8872C2.53518 18.9663 2.45153 19.0667 2.39206 19.1814C2.32243 19.2903 2.28191 19.4152 2.27438 19.5442C2.24483 19.6667 2.24483 19.7944 2.27438 19.9169C2.30695 20.0411 2.36357 20.1577 2.44108 20.2601C2.52209 20.3604 2.62211 20.4437 2.73534 20.5053C2.84742 20.5679 2.9707 20.6079 3.09818 20.623C3.22065 20.6525 3.34839 20.6525 3.47085 20.623L4.10826 20.4366L4.83395 20.2209L4.62805 20.976L4.45153 21.5939C4.42224 21.7197 4.42224 21.8505 4.45153 21.9763C4.4607 22.105 4.50109 22.2296 4.56921 22.3392C4.63185 22.4489 4.7151 22.5454 4.81438 22.6236C4.9144 22.7014 5.02721 22.7611 5.14778 22.8001C5.27403 22.8252 5.40401 22.8252 5.53026 22.8001C5.65669 22.7804 5.77916 22.7406 5.89311 22.6824C6.00281 22.6198 6.09936 22.5365 6.17748 22.4372C6.25724 22.3348 6.31716 22.2184 6.35406 22.094L6.53058 21.486C6.64826 21.0839 6.78552 20.623 6.92281 20.113L7.02092 19.6423C7.50332 19.5125 8.00257 19.4563 8.50176 19.4756C8.68035 19.743 8.82218 20.0333 8.92344 20.3386L9.07051 20.8387C8.58017 21.3193 8.08986 21.8194 7.75643 22.1823L7.31511 22.6432C7.22231 22.7356 7.14892 22.8456 7.09933 22.9668C7.05244 23.0854 7.02917 23.212 7.03073 23.3395C7.03228 23.4676 7.05889 23.5942 7.10914 23.7121C7.1637 23.8277 7.23658 23.9336 7.32493 24.0259C7.42025 24.1126 7.52966 24.1822 7.64851 24.2319C7.76581 24.2831 7.89333 24.3066 8.02117 24.3005C8.16506 24.2656 8.29919 24.1986 8.41347 24.1044C8.53117 24.0537 8.63779 23.9804 8.72729 23.8886L9.17843 23.4081L9.70798 22.8687L9.89431 23.6042C9.95315 23.8494 10.012 24.0652 10.0512 24.2515C10.0887 24.3739 10.1449 24.4896 10.218 24.5947C10.2961 24.694 10.3926 24.7773 10.5023 24.8399C10.6076 24.9111 10.7289 24.9549 10.8554 24.9674H11.0025C11.0807 24.9768 11.1597 24.9768 11.2378 24.9674C11.3613 24.9378 11.4779 24.8845 11.5811 24.8105C11.686 24.7357 11.7731 24.6386 11.836 24.5261C11.9021 24.4147 11.9454 24.2914 11.9635 24.1632C11.9886 24.037 11.9886 23.907 11.9635 23.7808L11.8067 23.1629C11.7184 22.7609 11.6007 22.2901 11.4634 21.79L11.3163 21.3291C11.6693 20.9773 12.0725 20.6799 12.5127 20.4464C12.8015 20.588 13.0689 20.7696 13.3071 20.9858L13.6797 21.3389C13.5032 21.9959 13.3463 22.6432 13.2188 23.1629L13.0717 23.7906C13.0098 24.0404 13.0485 24.3046 13.1796 24.5261C13.2421 24.6361 13.3266 24.732 13.4279 24.808C13.5291 24.8839 13.6449 24.9382 13.768 24.9674C13.912 25.0055 14.0628 25.0103 14.2089 24.9814C14.3551 24.9525 14.4927 24.8907 14.6114 24.8007C14.781 24.6668 14.9017 24.4806 14.9546 24.2711C15.0036 24.0848 15.0527 23.869 15.1214 23.5944C15.19 23.3199 15.2292 23.1335 15.2979 22.8884L16.2786 23.869C16.3656 23.9637 16.4729 24.0374 16.5924 24.0848C16.7103 24.135 16.8368 24.1617 16.965 24.1632C17.0925 24.1648 17.2191 24.1415 17.3377 24.0946C17.4546 24.0468 17.5611 23.9769 17.6515 23.8886C17.7461 23.8016 17.8199 23.6944 17.8673 23.5748C17.9175 23.4569 17.9441 23.3303 17.9457 23.2022C17.9524 23.0743 17.929 22.9466 17.8771 22.8295C17.8274 22.7107 17.7577 22.6012 17.6711 22.5059C17.5436 22.3882 17.3965 22.2313 17.2298 22.045C17.0631 21.8586 16.612 21.3977 16.2491 21.0643L15.8961 20.7407C16.0293 20.2616 16.2272 19.803 16.4845 19.3775C16.8129 19.3616 17.1421 19.3847 17.4652 19.4462L17.9653 19.5736C18.1418 20.2307 18.3282 20.8681 18.4753 21.3879C18.5537 21.6233 18.6126 21.8292 18.6616 21.9959C18.7316 22.2452 18.8972 22.4567 19.1225 22.5843C19.3467 22.7088 19.6107 22.7405 19.858 22.6726C19.9381 22.6525 20.0143 22.6193 20.0836 22.5745C20.2686 22.4668 20.4133 22.3015 20.4955 22.1038C20.5665 21.8972 20.5665 21.6729 20.4955 21.4664C20.4955 21.2898 20.3778 21.0741 20.3092 20.8289C20.2405 20.5837 20.1718 20.368 20.0934 20.1032L21.4664 20.4955C21.5921 20.5255 21.7231 20.5255 21.8488 20.4955C21.9753 20.4757 22.0977 20.436 22.2117 20.3778C22.3214 20.3152 22.4179 20.2319 22.4961 20.1326C22.5758 20.0302 22.6357 19.9138 22.6726 19.7894C22.6924 19.666 22.6924 19.5402 22.6726 19.4167C22.6542 19.29 22.6144 19.1673 22.5549 19.0539C22.4923 18.9413 22.4091 18.8416 22.3097 18.7597C22.2073 18.6822 22.0907 18.6255 21.9665 18.593L21.3487 18.4164L19.9855 18.0242L19.5148 17.9163C19.3851 17.4372 19.3289 16.9412 19.3481 16.4453C19.6142 16.2643 19.9048 16.1223 20.2111 16.0236L20.7112 15.8765C21.1721 16.3472 21.6919 16.7983 22.0547 17.1906L22.5157 17.6319C22.6999 17.8095 22.9463 17.908 23.2022 17.9065C23.4609 17.9028 23.7076 17.797 23.8887 17.6123C23.9459 17.5571 23.9953 17.4944 24.0357 17.4259C24.1417 17.2385 24.1831 17.0214 24.1534 16.8081C24.1244 16.5922 24.0244 16.3921 23.869 16.2393L23.3885 15.7784L22.8393 15.2586L24.2221 14.9056C24.3456 14.876 24.4621 14.8227 24.5653 14.7487C24.6702 14.6739 24.7573 14.5767 24.8203 14.4643C24.8863 14.3529 24.9296 14.2296 24.9478 14.1014C24.9729 13.9752 24.9729 13.8452 24.9478 13.719C24.9188 13.6 24.869 13.4871 24.8007 13.3855ZM17.4848 17.4848L17.1906 17.4259C16.6091 17.3176 16.0082 17.3966 15.4744 17.6515C14.9164 18.0632 14.507 18.6448 14.3074 19.3089L14.0818 19.1127C13.9347 19.0048 13.7778 18.9068 13.6209 18.8087C13.2806 18.5891 12.888 18.4638 12.4833 18.4459C11.7933 18.5257 11.1471 18.8247 10.6396 19.299L10.5514 19.0245C10.4729 18.8577 10.3846 18.691 10.2964 18.5243C10.1135 18.1651 9.83525 17.8631 9.4922 17.6515C8.8567 17.3724 8.14781 17.307 7.47199 17.4652L7.53083 17.171C7.54085 16.988 7.54085 16.8047 7.53083 16.6218C7.54815 16.2204 7.46031 15.8215 7.2759 15.4646C6.86627 14.8981 6.27971 14.484 5.60873 14.2878L5.81464 14.0622C5.92251 13.9151 6.02058 13.7582 6.11865 13.6013C6.32993 13.2613 6.45145 12.8733 6.47174 12.4735C6.39884 11.7787 6.09898 11.1272 5.61855 10.62L5.90292 10.5317L6.40308 10.2768C6.75553 10.0887 7.05553 9.81564 7.2759 9.48241C7.55508 8.84348 7.62043 8.13147 7.46224 7.4524L7.74661 7.51124C7.93281 7.52101 8.11941 7.52101 8.30561 7.51124C8.7073 7.53236 9.10719 7.44424 9.46281 7.25626C10.0293 6.84663 10.4434 6.26008 10.6396 5.58911L10.8554 5.79505C11.3064 6.17572 11.8655 6.4055 12.4539 6.4521C13.1487 6.37921 13.8002 6.07934 14.3074 5.59891L14.3956 5.88331C14.5962 6.43778 14.9626 6.91712 15.4449 7.25626C16.0839 7.53544 16.7959 7.60079 17.475 7.4426L17.4161 7.7368C17.3079 8.3151 17.3869 8.91287 17.6417 9.44319C18.0493 10.0074 18.632 10.4211 19.299 10.62L19.1029 10.8456C18.7206 11.2928 18.4874 11.8482 18.436 12.4343C18.5089 13.1291 18.8088 13.7805 19.2893 14.2878L19.0147 14.376C18.4605 14.5772 17.9813 14.9434 17.6417 15.4254C17.3562 16.0739 17.3009 16.8005 17.4848 17.4848Z" fill="#231F20"/>
</svg>
