<svg width="26" height="26" viewBox="0 0 26 26" fill="none" xmlns="http://www.w3.org/2000/svg">
<path d="M9.31798 13.027H7V8.81039H9.31051C9.31051 8.59232 9.30625 8.42392 9.31051 8.25659C9.34358 7.15439 9.26464 6.03384 9.43638 4.95432C9.82894 2.49083 11.3479 1.18569 13.923 1.03563C15.1956 0.961144 16.4767 1.02592 17.7536 1.03131C17.8037 1.03131 17.8528 1.05722 17.9115 1.07449V5.14755C17.12 5.14755 16.3519 5.14755 15.5839 5.14755C14.563 5.14755 14.2473 5.46709 14.2462 6.49696C14.2462 7.24723 14.2462 7.9975 14.2462 8.79312H18C17.856 10.2138 17.7163 11.5966 17.5733 13.0151H14.2537V25.0001H9.31798V13.027Z" fill="#D2D2D2"/>
</svg>
