<svg width="25" height="25" viewBox="0 0 25 25" fill="none" xmlns="http://www.w3.org/2000/svg">
<circle cx="12.5" cy="12.5" r="12.5" fill="#0A0A10"/>
<path d="M11.0624 12.5124H10V10.5797H11.059C11.059 10.4798 11.057 10.4026 11.059 10.3259C11.0741 9.82074 11.038 9.30715 11.1167 8.81237C11.2966 7.68327 11.9928 7.08508 13.173 7.0163C13.7563 6.98216 14.3435 7.01185 14.9287 7.01432C14.9517 7.01432 14.9742 7.0262 15.0011 7.03412V8.90093C14.6383 8.90093 14.2863 8.90093 13.9343 8.90093C13.4664 8.90093 13.3217 9.04739 13.3212 9.51941C13.3212 9.86329 13.3212 10.2072 13.3212 10.5718H15.0417C14.9757 11.223 14.9116 11.8568 14.8461 12.5069H13.3246V18H11.0624V12.5124Z" fill="white"/>
</svg>
