<svg width="36" height="36" viewBox="0 0 36 36" fill="none" xmlns="http://www.w3.org/2000/svg">
<path d="M36 18C36 8.05896 27.941 0 18 0C8.05896 0 0 8.05896 0 18C0 26.4413 5.81184 33.5246 13.6519 35.4701V23.5008H9.94032V18H13.6519V15.6298C13.6519 9.50328 16.4246 6.6636 22.4395 6.6636C23.58 6.6636 25.5478 6.88752 26.3527 7.11072V12.0967C25.9279 12.0521 25.1899 12.0298 24.2734 12.0298C21.3221 12.0298 20.1816 13.1479 20.1816 16.0546V18H26.0611L25.051 23.5008H20.1816V35.8682C29.0945 34.7918 36.0007 27.203 36.0007 18H36Z" fill="#D2D2D2"/>
<path d="M25.0503 23.5013L26.0605 18.0005H20.181V16.055C20.181 13.1484 21.3215 12.0302 24.2727 12.0302C25.1893 12.0302 25.9273 12.0525 26.3521 12.0972V7.11118C25.5471 6.88726 23.5794 6.66406 22.4389 6.66406C16.424 6.66406 13.6513 9.50374 13.6513 15.6302V18.0005H9.9397V23.5013H13.6513V35.4705C15.0438 35.8161 16.5003 36.0005 17.9994 36.0005C18.7374 36.0005 19.4653 35.9551 20.1803 35.8687V23.5013H25.0496H25.0503Z" fill="#0A0A10"/>
<path d="M25.0503 23.5013L26.0605 18.0005H20.181V16.055C20.181 13.1484 21.3215 12.0302 24.2727 12.0302C25.1893 12.0302 25.9273 12.0525 26.3521 12.0972V7.11118C25.5471 6.88726 23.5794 6.66406 22.4389 6.66406C16.424 6.66406 13.6513 9.50374 13.6513 15.6302V18.0005H9.9397V23.5013H13.6513V35.4705C15.0438 35.8161 16.5003 36.0005 17.9994 36.0005C18.7374 36.0005 19.4653 35.9551 20.1803 35.8687V23.5013H25.0496H25.0503Z" fill="black" fill-opacity="0.2"/>
</svg>
