<svg width="21" height="20" viewBox="0 0 21 20" fill="none" xmlns="http://www.w3.org/2000/svg">
  <g clip-path="url(#clip0_1110_1128)">
    <path d="M11.7233 19.9996H7.25781V6.52334H11.7275V8.28514C11.9651 8.08331 12.2447 7.85415 12.5117 7.61238C13.2643 6.93331 14.1032 6.3972 15.1186 6.25424C17.1222 5.97462 19.4979 6.72307 20.4629 9.36997C20.7698 10.2109 20.9149 11.0855 20.9191 11.9748C20.9338 14.6112 20.9275 17.2497 20.9275 19.8861C20.9275 19.9155 20.9212 19.9429 20.917 19.9912H16.4431V19.7326C16.4431 17.4515 16.4536 15.1705 16.4347 12.8894C16.4305 12.3848 16.3843 11.8676 16.2581 11.382C15.8376 9.7463 13.935 9.17656 12.6483 10.2803C12.0576 10.787 11.7254 11.4261 11.7275 12.2229C11.7275 13.3918 11.7233 14.5629 11.7212 15.7318C11.7212 17.0605 11.7212 18.3913 11.7212 19.72V20.0017L11.7233 19.9996Z" fill="#D2D2D2"/>
    <path d="M4.73831 19.9979H0.28125V6.51953H4.73831V19.9979Z" fill="#D2D2D2"/>
    <path d="M5.04371 2.35301C5.04371 3.51773 4.21957 4.45329 3.04434 4.62569C2.23702 4.74342 1.47176 4.64881 0.824221 4.1106C0.0862837 3.49881 -0.132365 2.68519 0.0736693 1.77485C0.279703 0.866622 0.897805 0.332616 1.78081 0.0992515C2.3022 -0.039506 2.8299 -0.0310964 3.35129 0.113968C4.38566 0.399893 5.04581 1.27659 5.04371 2.35301V2.35301Z" fill="#D2D2D2"/>
  </g>
  <defs>
    <clipPath id="clip0_1110_1128">
      <rect width="20.9272" height="20" fill="white"/>
    </clipPath>
  </defs>
</svg>
