<svg width="25" height="25" viewBox="0 0 25 25" fill="none" xmlns="http://www.w3.org/2000/svg">
<circle cx="12.5" cy="12.5" r="12.5" fill="#0A0A10"/>
<path d="M15.6619 11.904L16.7415 11.8724C17.7849 11.8419 18.6083 12.665 18.5777 13.708L18.5756 13.7806C18.5451 14.8236 17.6719 15.6964 16.6286 15.727L13.4622 15.8197C12.4188 15.8502 11.5954 15.0271 11.626 13.9841L11.6281 13.9115" stroke="white" stroke-width="1.5" stroke-linecap="round" stroke-linejoin="round"/>
<path d="M8.73609 13.5193L7.65644 13.5509C6.61309 13.5815 5.78964 12.7583 5.8202 11.7153L5.82233 11.6428C5.85289 10.5998 6.72604 9.72693 7.76939 9.69638L10.9358 9.60366C11.9791 9.57311 12.8026 10.3963 12.772 11.4393L12.7699 11.5118" stroke="white" stroke-width="1.5" stroke-linecap="round" stroke-linejoin="round"/>
</svg>
