<svg width="25" height="25" viewBox="0 0 25 25" fill="none" xmlns="http://www.w3.org/2000/svg">
  <circle cx="12.5" cy="12.5" r="12.5" fill="#0A0A10"/>
  <g clip-path="url(#clip0_1026_2097)">
    <path d="M13.6026 17.0018H11.4688V10.2636H13.6046V11.1445C13.7181 11.0436 13.8517 10.929 13.9793 10.8081C14.339 10.4686 14.7398 10.2006 15.225 10.1291C16.1824 9.98926 17.3177 10.3635 17.7788 11.6869C17.9255 12.1074 17.9948 12.5447 17.9968 12.9894C18.0038 14.3076 18.0008 15.6268 18.0008 16.945C18.0008 16.9597 17.9978 16.9734 17.9958 16.9976H15.8579V16.8683C15.8579 15.7277 15.863 14.5872 15.8539 13.4466C15.8519 13.1944 15.8298 12.9358 15.7695 12.6929C15.5686 11.8751 14.6594 11.5902 14.0446 12.1421C13.7623 12.3954 13.6036 12.715 13.6046 13.1134C13.6046 13.6979 13.6026 14.2834 13.6016 14.8679C13.6016 15.5322 13.6016 16.1976 13.6016 16.862V17.0028L13.6026 17.0018Z" fill="white"/>
    <path d="M9.26456 16.997H7.13477V10.2578H9.26456V16.997Z" fill="white"/>
    <path d="M9.41013 8.1765C9.41013 8.75887 9.01632 9.22665 8.45473 9.31284C8.06896 9.37171 7.70328 9.32441 7.39385 9.0553C7.04123 8.7494 6.93675 8.34259 7.0352 7.88743C7.13366 7.43331 7.42901 7.16631 7.85096 7.04963C8.1001 6.98025 8.35226 6.98445 8.60141 7.05698C9.09568 7.19995 9.41113 7.63829 9.41013 8.1765Z" fill="white"/>
  </g>
  <defs>
    <clipPath id="clip0_1026_2097">
      <rect width="11" height="10" fill="white" transform="translate(7 7)"/>
    </clipPath>
  </defs>
</svg>
