<svg width="25" height="25" viewBox="0 0 25 25" fill="none" xmlns="http://www.w3.org/2000/svg">
<circle cx="12.5" cy="12.5" r="12.5" fill="#0A0A10"/>
<g clip-path="url(#clip0_4712_8984)">
<path d="M18.8325 14.5373C18.7788 14.7834 18.7429 15.035 18.6681 15.2744C18.4738 15.8957 18.1069 16.4083 17.611 16.8292C17.5353 16.8935 17.5164 16.9474 17.5516 17.0396C17.606 17.1825 17.6442 17.3316 17.6924 17.4769C17.7453 17.6368 17.727 17.7814 17.6 17.8991C17.477 18.013 17.3332 18.0227 17.1804 17.9649C16.9038 17.8607 16.629 17.7517 16.3495 17.6557C16.2772 17.631 16.1856 17.627 16.1118 17.6467C14.6896 18.0237 13.3658 17.8325 12.1973 16.9202C11.2424 16.1747 10.7686 15.1826 10.8738 13.9626C10.9503 13.0752 11.3667 12.344 12.032 11.7583C13.6436 10.3396 16.1723 10.3752 17.7423 11.8391C18.3469 12.4026 18.714 13.0947 18.8104 13.92C18.8141 13.9519 18.8244 13.9831 18.832 14.0147V14.5373H18.8325ZM16.0551 13.8202C16.3321 13.8173 16.5563 13.5904 16.5517 13.3178C16.5472 13.0471 16.3118 12.8194 16.0415 12.8242C15.767 12.8289 15.5449 13.0573 15.5482 13.3313C15.5514 13.6076 15.775 13.8235 16.0553 13.8205L16.0551 13.8202ZM13.4441 13.82C13.7227 13.82 13.947 13.5993 13.9475 13.3251C13.9478 13.0551 13.7166 12.8249 13.4449 12.8247C13.1721 12.8247 12.9439 13.0521 12.9437 13.3243C12.9437 13.6006 13.165 13.82 13.4441 13.82Z" fill="white"/>
<path d="M15.0454 9.98121C14.5274 9.96251 14.0373 10.0044 13.5602 10.1363C12.0469 10.5544 10.9307 11.4353 10.3512 12.9143C10.0817 13.6023 10.0413 14.3176 10.1828 15.0426C10.1898 15.0785 10.1926 15.1152 10.2019 15.186C9.93763 15.1409 9.68768 15.1057 9.44173 15.0526C9.34035 15.0309 9.26205 15.0362 9.17296 15.0923C8.84872 15.296 8.5182 15.4894 8.19271 15.6911C8.03586 15.7881 7.88001 15.8093 7.72642 15.6974C7.57585 15.5879 7.55401 15.4333 7.59492 15.2625C7.65967 14.9928 7.7204 14.722 7.78992 14.4532C7.81075 14.3729 7.79519 14.33 7.72567 14.2804C7.11057 13.8404 6.62346 13.2893 6.33209 12.5902C5.73004 11.1446 5.95189 9.80668 6.95447 8.61737C7.78866 7.62827 8.89615 7.12786 10.1813 7.02065C11.4537 6.91444 12.6144 7.22585 13.6338 8.00252C14.2566 8.477 14.7167 9.07764 14.9915 9.81241C15.01 9.86203 15.0238 9.91314 15.0454 9.98146V9.98121ZM8.60955 9.75532C8.60654 10.0338 8.82462 10.2575 9.10219 10.2607C9.37674 10.264 9.60787 10.0418 9.61339 9.76928C9.61866 9.50125 9.38853 9.26663 9.11624 9.26214C8.84144 9.25765 8.61256 9.48055 8.6098 9.75532H8.60955ZM12.0771 9.76803C12.0798 9.48978 11.8607 9.26488 11.5834 9.26114C11.3119 9.25765 11.0775 9.48504 11.0732 9.75632C11.069 10.0263 11.2978 10.258 11.5716 10.2607C11.8504 10.2637 12.0743 10.0455 12.0771 9.76803Z" fill="white"/>
</g>
<defs>
<clipPath id="clip0_4712_8984">
<rect width="12.8333" height="11" fill="white" transform="translate(6 7)"/>
</clipPath>
</defs>
</svg>
