<svg width="29" height="26" viewBox="0 0 29 26" fill="none" xmlns="http://www.w3.org/2000/svg">
<g clip-path="url(#clip0_4712_8650)">
<path d="M29 17.2569C28.8787 17.8203 28.7976 18.3963 28.6286 18.9443C28.1896 20.3668 27.3605 21.5404 26.2399 22.504C26.0687 22.6513 26.0261 22.7746 26.1055 22.9858C26.2286 23.3129 26.3148 23.6542 26.4237 23.987C26.5433 24.353 26.5019 24.684 26.215 24.9535C25.9371 25.2143 25.6121 25.2366 25.2668 25.1042C24.6418 24.8656 24.0208 24.6161 23.3891 24.3963C23.2258 24.3398 23.0188 24.3307 22.852 24.3758C19.6383 25.2389 16.6468 24.8011 14.0064 22.7124C11.8485 21.0056 10.7778 18.7342 11.0154 15.9411C11.1884 13.9095 12.1292 12.2352 13.6326 10.8943C17.2746 7.64625 22.9887 7.72788 26.5365 11.0793C27.9027 12.3694 28.7323 13.954 28.9501 15.8435C28.9586 15.9165 28.9819 15.9879 28.9989 16.0604V17.2569H29ZM22.7239 15.6151C23.35 15.6083 23.8564 15.0888 23.8462 14.4649C23.836 13.845 23.304 13.3238 22.6933 13.3346C22.0728 13.3455 21.571 13.8684 21.5783 14.4957C21.5857 15.1282 22.091 15.6226 22.7244 15.6157L22.7239 15.6151ZM16.8237 15.6146C17.4532 15.6146 17.9602 15.1094 17.9613 14.4815C17.9619 13.8632 17.4396 13.3364 16.8254 13.3358C16.209 13.3358 15.6935 13.8564 15.6929 14.4797C15.6929 15.1122 16.1931 15.6146 16.8237 15.6146Z" fill="#D2D2D2"/>
<path d="M20.4398 6.82453C19.2693 6.78172 18.1617 6.87762 17.0837 7.17959C13.664 8.13689 11.1416 10.1537 9.83212 13.5399C9.22305 15.1148 9.13175 16.7525 9.4516 18.4125C9.46748 18.4947 9.47371 18.5786 9.4947 18.7408C8.89754 18.6374 8.3327 18.557 7.77694 18.4354C7.54783 18.3857 7.37089 18.3977 7.16957 18.5261C6.43687 18.9925 5.69 19.4355 4.95446 19.8973C4.60002 20.1193 4.24785 20.1679 3.90078 19.9116C3.56052 19.661 3.51118 19.307 3.60362 18.916C3.74993 18.2984 3.88717 17.6784 4.04426 17.0631C4.09133 16.8793 4.05617 16.7811 3.89908 16.6675C2.50911 15.66 1.40836 14.3984 0.749952 12.7978C-0.61053 9.48806 -0.109211 6.42495 2.15637 3.70205C4.04142 1.43754 6.54405 0.291868 9.44819 0.0464074C12.3234 -0.196769 14.9463 0.516207 17.2498 2.29437C18.6574 3.38067 19.6969 4.75582 20.3179 6.43808C20.3598 6.55167 20.391 6.66869 20.4398 6.8251V6.82453ZM5.89642 6.30735C5.88962 6.94498 6.38243 7.45702 7.00965 7.46444C7.63006 7.47186 8.15236 6.96325 8.16484 6.33932C8.17675 5.72567 7.65671 5.18851 7.0414 5.17824C6.42043 5.16796 5.90323 5.67829 5.89699 6.30735H5.89642ZM13.7321 6.33647C13.7383 5.69941 13.2433 5.18452 12.6166 5.17595C12.003 5.16796 11.4733 5.68857 11.4637 6.30964C11.454 6.92785 11.9712 7.45816 12.59 7.46444C13.22 7.47129 13.7259 6.97181 13.7321 6.33647Z" fill="#D2D2D2"/>
</g>
<defs>
<clipPath id="clip0_4712_8650">
<rect width="29" height="25.1842" fill="white"/>
</clipPath>
</defs>
</svg>
